solid Support_ywk5
facet normal 0.6138723263069177 -0.35152915543131724 0.7068154072148385
  outer loop
    vertex 4.043488892126543 11.060385438994976 82.49411537412676
    vertex 4.765733460055108 15.259307359975702 83.95514397223948
    vertex 2.7748183182043107 11.789978405622675 83.9588188105975
  endloop
endfacet
facet normal 0.6138723263069177 -0.35152915543131724 0.7068154072148385
  outer loop
    vertex 4.765733460055108 15.259307359975702 83.95514397223948
    vertex 4.043488892126543 11.060385438994976 82.49411537412676
    vertex 6.03440403397734 14.529714393348003 82.49044053576874
  endloop
endfacet
facet normal -0.8379894473631561 0.48061635106054756 -0.25842137914893365
  outer loop
    vertex 8.787129964318563 8.343976719597428 87.95596542410946
    vertex 11.241218654981317 11.54538939176613 85.95207104572103
    vertex 9.25030351313052 8.076060437413105 85.95574588407906
  endloop
endfacet
facet normal -0.8379894473631561 0.48061635106054756 -0.25842137914893365
  outer loop
    vertex 11.241218654981317 11.54538939176613 85.95207104572103
    vertex 8.787129964318563 8.343976719597428 87.95596542410946
    vertex 10.77804510616936 11.813305673950454 87.95229058575144
  endloop
endfacet
facet normal -0.8375679727326333 0.4809227835539108 0.2592164487668656
  outer loop
    vertex 11.241218654981317 11.54538939176613 85.95207104572103
    vertex 8.783873058472583 8.3416087911226 83.9559674509251
    vertex 9.25030351313052 8.076060437413105 85.95574588407906
  endloop
endfacet
facet normal -0.8375679727326333 0.4809227835539108 0.2592164487668656
  outer loop
    vertex 8.783873058472583 8.3416087911226 83.9559674509251
    vertex 11.241218654981317 11.54538939176613 85.95207104572103
    vertex 10.77478820032338 11.810937745475625 83.95229261256708
  endloop
endfacet
facet normal -0.6138723263069179 0.3515291554313174 -0.7068154072148385
  outer loop
    vertex 9.509374532247126 12.542898640578155 89.41699402222218
    vertex 8.787129964318563 8.343976719597428 87.95596542410946
    vertex 7.518459390396329 9.07356968622513 89.42066886058021
  endloop
endfacet
facet normal -0.6138723263069179 0.3515291554313174 -0.7068154072148385
  outer loop
    vertex 8.787129964318563 8.343976719597428 87.95596542410946
    vertex 9.509374532247126 12.542898640578155 89.41699402222218
    vertex 10.77804510616936 11.813305673950454 87.95229058575144
  endloop
endfacet
facet normal 0.49772878546269916 0.8673322385882566 -0.0009187095895079379
  outer loop
    vertex 2.7748183182043107 11.789978405622675 83.9588188105975
    vertex 5.7789385751076985 10.065497607313281 83.45739338411326
    vertex 4.043488892126543 11.060385438994976 82.49411537412676
  endloop
endfacet
facet normal 0.49772878546269916 0.8673322385882566 -0.0009187095895079379
  outer loop
    vertex 5.7789385751076985 10.065497607313281 83.45739338411326
    vertex 2.7748183182043107 11.789978405622675 83.9588188105975
    vertex 4.695045860552127 10.687857485350634 83.79284415283679
  endloop
endfacet
facet normal 0.49772878546269916 0.8673322385882566 -0.0009187095895079379
  outer loop
    vertex 4.695045860552127 10.687857485350634 83.79284415283679
    vertex 2.7748183182043107 11.789978405622675 83.9588188105975
    vertex 3.9021267518507337 11.14385308949294 84.70828380063101
  endloop
endfacet
facet normal 0.49772878546269916 0.8673322385882566 -0.0009187095895079379
  outer loop
    vertex 3.9021267518507337 11.14385308949294 84.70828380063101
    vertex 2.7748183182043107 11.789978405622675 83.9588188105975
    vertex 2.3116447693923523 12.057894687807 85.9590383506279
  endloop
endfacet
facet normal 0.49772878546269916 0.8673322385882566 -0.0009187095895079379
  outer loop
    vertex 3.9021267518507337 11.14385308949294 84.70828380063101
    vertex 2.3116447693923523 12.057894687807 85.9590383506279
    vertex 3.6126432838432603 11.311300765858144 85.95842101315
  endloop
endfacet
facet normal 0.49772878546269916 0.8673322385882566 -0.0009187095895079379
  outer loop
    vertex 3.6126432838432603 11.311300765858144 85.95842101315
    vertex 2.3116447693923523 12.057894687807 85.9590383506279
    vertex 3.9041623180044702 11.14533304478971 87.20828253387124
  endloop
endfacet
facet normal 0.49772878546269916 0.8673322385882566 -0.0009187095895079379
  outer loop
    vertex 3.9041623180044702 11.14533304478971 87.20828253387124
    vertex 2.3116447693923523 12.057894687807 85.9590383506279
    vertex 2.7780752240502875 11.792346334097504 87.95881678378187
  endloop
endfacet
facet normal 0.49772878546269916 0.8673322385882566 -0.0009187095895079379
  outer loop
    vertex 3.9041623180044702 11.14533304478971 87.20828253387124
    vertex 2.7780752240502875 11.792346334097504 87.95881678378187
    vertex 4.698571564552568 10.690420843117561 88.1229689776667
  endloop
endfacet
facet normal 0.49772878546269916 0.8673322385882566 -0.0009187095895079379
  outer loop
    vertex 4.698571564552568 10.690420843117561 88.1229689776667
    vertex 2.7780752240502875 11.792346334097504 87.95881678378187
    vertex 4.0491300185272445 11.064486811422077 89.42231509385462
  endloop
endfacet
facet normal 0.49772878546269916 0.8673322385882566 -0.0009187095895079379
  outer loop
    vertex 4.698571564552568 10.690420843117561 88.1229689776667
    vertex 4.0491300185272445 11.064486811422077 89.42231509385462
    vertex 5.783009707415173 10.068457517906822 88.45739085059371
  endloop
endfacet
facet normal 0.49772878546269916 0.8673322385882566 -0.0009187095895079379
  outer loop
    vertex 5.783009707415173 10.068457517906822 88.45739085059371
    vertex 4.0491300185272445 11.064486811422077 89.42231509385462
    vertex 7.518459390396329 9.07356968622513 89.42066886058021
  endloop
endfacet
facet normal 0.49772878546269916 0.8673322385882566 -0.0009187095895079379
  outer loop
    vertex 7.518459390396329 9.07356968622513 89.42066886058021
    vertex 4.0491300185272445 11.064486811422077 89.42231509385462
    vertex 5.784231047107414 10.06934549108488 89.95739009053786
  endloop
endfacet
facet normal 0.49772878546269916 0.8673322385882566 -0.0009187095895079379
  outer loop
    vertex 4.043488892126543 11.060385438994976 82.49411537412676
    vertex 7.5128182639956265 9.069468313798028 82.49246914085235
    vertex 5.777717235415458 10.064609634135223 81.95739414416913
  endloop
endfacet
facet normal 0.49772878546269916 0.8673322385882566 -0.0009187095895079379
  outer loop
    vertex 7.5128182639956265 9.069468313798028 82.49246914085235
    vertex 4.043488892126543 11.060385438994976 82.49411537412676
    vertex 8.783873058472583 8.3416087911226 83.9559674509251
  endloop
endfacet
facet normal 0.49772878546269916 0.8673322385882566 -0.0009187095895079379
  outer loop
    vertex 8.783873058472583 8.3416087911226 83.9559674509251
    vertex 4.043488892126543 11.060385438994976 82.49411537412676
    vertex 5.7789385751076985 10.065497607313281 83.45739338411326
  endloop
endfacet
facet normal 0.49772878546269916 0.8673322385882566 -0.0009187095895079379
  outer loop
    vertex 8.783873058472583 8.3416087911226 83.9559674509251
    vertex 5.7789385751076985 10.065497607313281 83.45739338411326
    vertex 6.8633767179703025 9.443534282102542 83.79181525704027
  endloop
endfacet
facet normal 0.49772878546269916 0.8673322385882566 -0.0009187095895079379
  outer loop
    vertex 8.783873058472583 8.3416087911226 83.9559674509251
    vertex 6.8633767179703025 9.443534282102542 83.79181525704027
    vertex 7.657785964518399 8.988622080430392 84.70650170083574
  endloop
endfacet
facet normal 0.49772878546269916 0.8673322385882566 -0.0009187095895079379
  outer loop
    vertex 8.783873058472583 8.3416087911226 83.9559674509251
    vertex 7.657785964518399 8.988622080430392 84.70650170083574
    vertex 9.25030351313052 8.076060437413105 85.95574588407906
  endloop
endfacet
facet normal 0.49772878546269916 0.8673322385882566 -0.0009187095895079379
  outer loop
    vertex 9.25030351313052 8.076060437413105 85.95574588407906
    vertex 7.657785964518399 8.988622080430392 84.70650170083574
    vertex 7.949304998679612 8.82265435936196 85.95636322155697
  endloop
endfacet
facet normal 0.49772878546269916 0.8673322385882566 -0.0009187095895079379
  outer loop
    vertex 9.25030351313052 8.076060437413105 85.95574588407906
    vertex 7.949304998679612 8.82265435936196 85.95636322155697
    vertex 8.787129964318563 8.343976719597428 87.95596542410946
  endloop
endfacet
facet normal 0.49772878546269916 0.8673322385882566 -0.0009187095895079379
  outer loop
    vertex 8.787129964318563 8.343976719597428 87.95596542410946
    vertex 7.949304998679612 8.82265435936196 85.95636322155697
    vertex 7.65982153067214 8.990102035727164 87.20650043407598
  endloop
endfacet
facet normal 0.49772878546269916 0.8673322385882566 -0.0009187095895079379
  outer loop
    vertex 8.787129964318563 8.343976719597428 87.95596542410946
    vertex 7.65982153067214 8.990102035727164 87.20650043407598
    vertex 6.866902421970747 9.44609763986947 88.12194008187018
  endloop
endfacet
facet normal 0.49772878546269916 0.8673322385882566 -0.0009187095895079379
  outer loop
    vertex 8.787129964318563 8.343976719597428 87.95596542410946
    vertex 6.866902421970747 9.44609763986947 88.12194008187018
    vertex 7.518459390396329 9.07356968622513 89.42066886058021
  endloop
endfacet
facet normal 0.49772878546269916 0.8673322385882566 -0.0009187095895079379
  outer loop
    vertex 7.518459390396329 9.07356968622513 89.42066886058021
    vertex 6.866902421970747 9.44609763986947 88.12194008187018
    vertex 5.783009707415173 10.068457517906822 88.45739085059371
  endloop
endfacet
facet normal 0.22369564642571557 -0.12939362812259342 -0.9660318559817027
  outer loop
    vertex 6.040045160378042 14.533815765775104 89.4186402554966
    vertex 5.784231047107414 10.06934549108488 89.95739009053786
    vertex 4.0491300185272445 11.064486811422077 89.42231509385462
  endloop
endfacet
facet normal 0.22369564642571557 -0.12939362812259342 -0.9660318559817027
  outer loop
    vertex 5.784231047107414 10.06934549108488 89.95739009053786
    vertex 6.040045160378042 14.533815765775104 89.4186402554966
    vertex 7.775146188958211 13.538674445437907 89.95371525217982
  endloop
endfacet
facet normal 0.8379894473631558 -0.4806163510605474 0.2584213791489341
  outer loop
    vertex 4.765733460055108 15.259307359975702 83.95514397223948
    vertex 2.3116447693923523 12.057894687807 85.9590383506279
    vertex 2.7748183182043107 11.789978405622675 83.9588188105975
  endloop
endfacet
facet normal 0.8379894473631558 -0.4806163510605474 0.2584213791489341
  outer loop
    vertex 2.3116447693923523 12.057894687807 85.9590383506279
    vertex 4.765733460055108 15.259307359975702 83.95514397223948
    vertex 4.302559911243149 15.527223642160028 85.95536351226988
  endloop
endfacet
facet normal 0.8375679727326335 -0.48092278355391094 -0.25921644876686495
  outer loop
    vertex 2.3116447693923523 12.057894687807 85.9590383506279
    vertex 4.768990365901085 15.261675288450531 87.95514194542385
    vertex 2.7780752240502875 11.792346334097504 87.95881678378187
  endloop
endfacet
facet normal 0.8375679727326335 -0.48092278355391094 -0.25921644876686495
  outer loop
    vertex 4.768990365901085 15.261675288450531 87.95514194542385
    vertex 2.3116447693923523 12.057894687807 85.9590383506279
    vertex 4.302559911243149 15.527223642160028 85.95536351226988
  endloop
endfacet
facet normal -0.6127208362022298 0.35236634457227656 0.7073974385707175
  outer loop
    vertex 8.783873058472583 8.3416087911226 83.9559674509251
    vertex 9.503733405846424 12.538797268151054 82.48879430249433
    vertex 7.5128182639956265 9.069468313798028 82.49246914085235
  endloop
endfacet
facet normal -0.6127208362022298 0.35236634457227656 0.7073974385707175
  outer loop
    vertex 9.503733405846424 12.538797268151054 82.48879430249433
    vertex 8.783873058472583 8.3416087911226 83.9559674509251
    vertex 10.77478820032338 11.810937745475625 83.95229261256708
  endloop
endfacet
facet normal -0.2252686111609273 0.1282500064882717 -0.9658188177196514
  outer loop
    vertex 7.775146188958211 13.538674445437907 89.95371525217982
    vertex 7.518459390396329 9.07356968622513 89.42066886058021
    vertex 5.784231047107414 10.06934549108488 89.95739009053786
  endloop
endfacet
facet normal -0.2252686111609273 0.1282500064882717 -0.9658188177196514
  outer loop
    vertex 7.518459390396329 9.07356968622513 89.42066886058021
    vertex 7.775146188958211 13.538674445437907 89.95371525217982
    vertex 9.509374532247126 12.542898640578155 89.41699402222218
  endloop
endfacet
facet normal 0.6127208362022302 -0.3523663445722767 -0.7073974385707171
  outer loop
    vertex 4.768990365901085 15.261675288450531 87.95514194542385
    vertex 4.0491300185272445 11.064486811422077 89.42231509385462
    vertex 2.7780752240502875 11.792346334097504 87.95881678378187
  endloop
endfacet
facet normal 0.6127208362022302 -0.3523663445722767 -0.7073974385707171
  outer loop
    vertex 4.0491300185272445 11.064486811422077 89.42231509385462
    vertex 4.768990365901085 15.261675288450531 87.95514194542385
    vertex 6.040045160378042 14.533815765775104 89.4186402554966
  endloop
endfacet
facet normal 0.22526861116092675 -0.12825000648827137 0.9658188177196515
  outer loop
    vertex 5.777717235415458 10.064609634135223 81.95739414416913
    vertex 6.03440403397734 14.529714393348003 82.49044053576874
    vertex 4.043488892126543 11.060385438994976 82.49411537412676
  endloop
endfacet
facet normal 0.22526861116092675 -0.12825000648827137 0.9658188177196515
  outer loop
    vertex 6.03440403397734 14.529714393348003 82.49044053576874
    vertex 5.777717235415458 10.064609634135223 81.95739414416913
    vertex 7.768632377266256 13.533938588488251 81.95371930581109
  endloop
endfacet
facet normal -0.22369564642571546 0.12939362812259333 0.9660318559817029
  outer loop
    vertex 7.5128182639956265 9.069468313798028 82.49246914085235
    vertex 7.768632377266256 13.533938588488251 81.95371930581109
    vertex 5.777717235415458 10.064609634135223 81.95739414416913
  endloop
endfacet
facet normal -0.22369564642571546 0.12939362812259333 0.9660318559817029
  outer loop
    vertex 7.768632377266256 13.533938588488251 81.95371930581109
    vertex 7.5128182639956265 9.069468313798028 82.49246914085235
    vertex 9.503733405846424 12.538797268151054 82.48879430249433
  endloop
endfacet
facet normal -0.6127208362022284 0.3523663445722757 0.707397438570719
  outer loop
    vertex 4.578330447758156 3.6224244141618085 84.71218577094852
    vertex 6.8633767179703025 9.443534282102542 83.79181525704027
    vertex 3.7839212012100543 4.077336615833958 83.79749932715305
  endloop
endfacet
facet normal -0.6127208362022284 0.3523663445722757 0.707397438570719
  outer loop
    vertex 6.8633767179703025 9.443534282102542 83.79181525704027
    vertex 4.578330447758156 3.6224244141618085 84.71218577094852
    vertex 7.657785964518399 8.988622080430392 84.70650170083574
  endloop
endfacet
facet normal -0.61387232630692 0.35152915543131896 -0.7068154072148357
  outer loop
    vertex 6.866902421970747 9.44609763986947 88.12194008187018
    vertex 4.580366013911897 3.6239043694585904 87.21218450418873
    vertex 3.7874469052104986 4.079899973600896 88.12762415198294
  endloop
endfacet
facet normal -0.61387232630692 0.35152915543131896 -0.7068154072148357
  outer loop
    vertex 4.580366013911897 3.6239043694585904 87.21218450418873
    vertex 6.866902421970747 9.44609763986947 88.12194008187018
    vertex 7.65982153067214 8.990102035727164 87.20650043407598
  endloop
endfacet
facet normal -0.22526861116092745 0.128250006488272 -0.9658188177196514
  outer loop
    vertex 5.783009707415173 10.068457517906822 88.45739085059371
    vertex 3.7874469052104986 4.079899973600896 88.12762415198294
    vertex 2.70355419065493 4.702259851638238 88.46307492070648
  endloop
endfacet
facet normal -0.22526861116092745 0.128250006488272 -0.9658188177196514
  outer loop
    vertex 3.7874469052104986 4.079899973600896 88.12762415198294
    vertex 5.783009707415173 10.068457517906822 88.45739085059371
    vertex 6.866902421970747 9.44609763986947 88.12194008187018
  endloop
endfacet
facet normal -0.0008142264614953619 -0.0005919821187063886 -0.999999493296092
  outer loop
    vertex 3.297078046120305 16.096287612701836 78.45599685590557
    vertex 1.8117097447234487 11.211447938831089 78.4584076538211
    vertex 0.8175283069346914 11.788292183853908 78.46020250306617
  endloop
endfacet
facet normal -0.0008142264614953619 -0.0005919821187063886 -0.999999493296092
  outer loop
    vertex 1.8117097447234487 11.211447938831089 78.4584076538211
    vertex 6.146262518060258 2.7039929665393756 78.46131340939071
    vertex -0.790608090965253 6.69683539878175 78.46483999649992
  endloop
endfacet
facet normal -0.0008142264614953619 -0.0005919821187063886 -0.999999493296092
  outer loop
    vertex 6.146262518060258 2.7039929665393756 78.46131340939071
    vertex 1.8117097447234487 11.211447938831089 78.4584076538211
    vertex 3.297078046120305 16.096287612701836 78.45599685590557
  endloop
endfacet
facet normal -0.0008142264614953619 -0.0005919821187063886 -0.999999493296092
  outer loop
    vertex 6.146262518060258 2.7039929665393756 78.46131340939071
    vertex 3.297078046120305 16.096287612701836 78.45599685590557
    vertex 8.74339193356028 7.209562450144349 78.45618014803938
  endloop
endfacet
facet normal -0.0008142264614953619 -0.0005919821187063886 -0.999999493296092
  outer loop
    vertex 8.74339193356028 7.209562450144349 78.45618014803938
    vertex 3.297078046120305 16.096287612701836 78.45599685590557
    vertex 12.234487123181733 10.96744568944373 78.45144530264396
  endloop
endfacet
facet normal -0.0008142264614953619 -0.0005919821187063886 -0.999999493296092
  outer loop
    vertex 8.74339193356028 7.209562450144349 78.45618014803938
    vertex 12.234487123181733 10.96744568944373 78.45144530264396
    vertex 9.7473778551896 6.633425123524863 78.45566884189986
  endloop
endfacet
facet normal 0.22369564642571563 -0.12939362812259333 -0.9660318559817027
  outer loop
    vertex 4.698571564552568 10.690420843117561 88.1229689776667
    vertex 2.70355419065493 4.702259851638238 88.46307492070648
    vertex 1.6191160477923268 5.324223176848977 88.12865304777947
  endloop
endfacet
facet normal 0.22369564642571563 -0.12939362812259333 -0.9660318559817027
  outer loop
    vertex 2.70355419065493 4.702259851638238 88.46307492070648
    vertex 4.698571564552568 10.690420843117561 88.1229689776667
    vertex 5.783009707415173 10.068457517906822 88.45739085059371
  endloop
endfacet
facet normal -0.8379894473631561 0.4806163510605478 -0.2584213791489334
  outer loop
    vertex 4.580366013911897 3.6239043694585904 87.21218450418873
    vertex 7.949304998679612 8.82265435936196 85.95636322155697
    vertex 4.869849481919372 3.4564566930933753 85.96204729166975
  endloop
endfacet
facet normal -0.8379894473631561 0.4806163510605478 -0.2584213791489334
  outer loop
    vertex 7.949304998679612 8.82265435936196 85.95636322155697
    vertex 4.580366013911897 3.6239043694585904 87.21218450418873
    vertex 7.65982153067214 8.990102035727164 87.20650043407598
  endloop
endfacet
facet normal -0.8375679727326332 0.4809227835539109 0.2592164487668665
  outer loop
    vertex 7.949304998679612 8.82265435936196 85.95636322155697
    vertex 4.578330447758156 3.6224244141618085 84.71218577094852
    vertex 4.869849481919372 3.4564566930933753 85.96204729166975
  endloop
endfacet
facet normal -0.8375679727326332 0.4809227835539109 0.2592164487668665
  outer loop
    vertex 4.578330447758156 3.6224244141618085 84.71218577094852
    vertex 7.949304998679612 8.82265435936196 85.95636322155697
    vertex 7.657785964518399 8.988622080430392 84.70650170083574
  endloop
endfacet
facet normal 0.837989447363156 -0.48061635106054773 0.25842137914893404
  outer loop
    vertex 3.9021267518507337 11.14385308949294 84.70828380063101
    vertex 0.5331877670830196 5.945103099589559 85.96410508326278
    vertex 0.8226712350904917 5.777655423224367 84.71396787074377
  endloop
endfacet
facet normal 0.837989447363156 -0.48061635106054773 0.25842137914893404
  outer loop
    vertex 0.5331877670830196 5.945103099589559 85.96410508326278
    vertex 3.9021267518507337 11.14385308949294 84.70828380063101
    vertex 3.6126432838432603 11.311300765858144 85.95842101315
  endloop
endfacet
facet normal 0.8375679727326334 -0.48092278355391105 -0.25921644876686467
  outer loop
    vertex 0.5331877670830196 5.945103099589559 85.96410508326278
    vertex 3.9041623180044702 11.14533304478971 87.20828253387124
    vertex 0.8247068012442281 5.779135378521127 87.21396660398399
  endloop
endfacet
facet normal 0.8375679727326334 -0.48092278355391105 -0.25921644876686467
  outer loop
    vertex 3.9041623180044702 11.14533304478971 87.20828253387124
    vertex 0.5331877670830196 5.945103099589559 85.96410508326278
    vertex 3.6126432838432603 11.311300765858144 85.95842101315
  endloop
endfacet
facet normal -0.8663734541091886 0.49939650588142853 0.0004097905978889082
  outer loop
    vertex -0.7783946940428227 6.705715130562352 93.46483239594131
    vertex 1.8117097447234487 11.211447938831089 78.4584076538211
    vertex -0.790608090965253 6.69683539878175 78.46483999649992
  endloop
endfacet
facet normal -0.8663734541091886 0.49939650588142853 0.0004097905978889082
  outer loop
    vertex 1.8117097447234487 11.211447938831089 78.4584076538211
    vertex -0.7783946940428227 6.705715130562352 93.46483239594131
    vertex 1.8239231416458792 11.22032767061169 93.4584000532625
  endloop
endfacet
facet normal -0.5018592053432808 -0.8649488368650142 0.0009206617564587384
  outer loop
    vertex 1.8239231416458792 11.22032767061169 93.4584000532625
    vertex 0.8175283069346914 11.788292183853908 78.46020250306617
    vertex 1.8117097447234487 11.211447938831089 78.4584076538211
  endloop
endfacet
facet normal -0.5018592053432808 -0.8649488368650142 0.0009206617564587384
  outer loop
    vertex 0.8175283069346914 11.788292183853908 78.46020250306617
    vertex 1.8239231416458792 11.22032767061169 93.4584000532625
    vertex 0.829741703857122 11.79717191563451 93.46019490250754
  endloop
endfacet
facet normal -0.8666927772792078 0.49884212071687173 0.00041037878566602126
  outer loop
    vertex 0.829741703857122 11.79717191563451 93.46019490250754
    vertex 3.297078046120305 16.096287612701836 78.45599685590557
    vertex 0.8175283069346914 11.788292183853908 78.46020250306617
  endloop
endfacet
facet normal -0.8666927772792078 0.49884212071687173 0.00041037878566602126
  outer loop
    vertex 3.297078046120305 16.096287612701836 78.45599685590557
    vertex 0.829741703857122 11.79717191563451 93.46019490250754
    vertex 3.309291443042735 16.10516734448244 93.45598925534695
  endloop
endfacet
facet normal 0.0008142264614953617 0.0005919821187063886 0.999999493296092
  outer loop
    vertex 6.158475914982688 2.712872698319977 93.46130580883208
    vertex 1.8239231416458792 11.22032767061169 93.4584000532625
    vertex -0.7783946940428227 6.705715130562352 93.46483239594131
  endloop
endfacet
facet normal 0.0008142264614953617 0.0005919821187063886 0.999999493296092
  outer loop
    vertex 1.8239231416458792 11.22032767061169 93.4584000532625
    vertex 6.158475914982688 2.712872698319977 93.46130580883208
    vertex 3.309291443042735 16.10516734448244 93.45598925534695
  endloop
endfacet
facet normal 0.0008142264614953617 0.0005919821187063886 0.999999493296092
  outer loop
    vertex 3.309291443042735 16.10516734448244 93.45598925534695
    vertex 6.158475914982688 2.712872698319977 93.46130580883208
    vertex 8.75560533048271 7.218442181924951 93.45617254748076
  endloop
endfacet
facet normal 0.0008142264614953617 0.0005919821187063886 0.999999493296092
  outer loop
    vertex 3.309291443042735 16.10516734448244 93.45598925534695
    vertex 8.75560533048271 7.218442181924951 93.45617254748076
    vertex 12.246700520104163 10.976325421224331 93.45143770208534
  endloop
endfacet
facet normal 0.0008142264614953617 0.0005919821187063886 0.999999493296092
  outer loop
    vertex 12.246700520104163 10.976325421224331 93.45143770208534
    vertex 8.75560533048271 7.218442181924951 93.45617254748076
    vertex 9.75959125211203 6.642304855305464 93.45566124134125
  endloop
endfacet
facet normal 0.0008142264614953617 0.0005919821187063886 0.999999493296092
  outer loop
    vertex 3.309291443042735 16.10516734448244 93.45598925534695
    vertex 0.829741703857122 11.79717191563451 93.46019490250754
    vertex 1.8239231416458792 11.22032767061169 93.4584000532625
  endloop
endfacet
facet normal -0.4988594081339568 -0.8666824365959808 0.0009192455015158861
  outer loop
    vertex 6.158475914982688 2.712872698319977 93.46130580883208
    vertex -0.790608090965253 6.69683539878175 78.46483999649992
    vertex 6.146262518060258 2.7039929665393756 78.46131340939071
  endloop
endfacet
facet normal -0.4988594081339568 -0.8666824365959808 0.0009192455015158861
  outer loop
    vertex -0.790608090965253 6.69683539878175 78.46483999649992
    vertex 6.158475914982688 2.712872698319977 93.46130580883208
    vertex -0.7783946940428227 6.705715130562352 93.46483239594131
  endloop
endfacet
facet normal 0.8663714923471375 -0.49939990921386856 -0.00040978698585652026
  outer loop
    vertex 8.74339193356028 7.209562450144349 78.45618014803938
    vertex 6.158475914982688 2.712872698319977 93.46130580883208
    vertex 6.146262518060258 2.7039929665393756 78.46131340939071
  endloop
endfacet
facet normal 0.8663714923471375 -0.49939990921386856 -0.00040978698585652026
  outer loop
    vertex 6.158475914982688 2.712872698319977 93.46130580883208
    vertex 8.74339193356028 7.209562450144349 78.45618014803938
    vertex 8.75560533048271 7.218442181924951 93.45617254748076
  endloop
endfacet
facet normal 0.4977287854626994 0.8673322385882566 -0.0009187095895077991
  outer loop
    vertex 1.6155903437918862 5.321659819082061 83.79852822294956
    vertex 3.7839212012100543 4.077336615833958 83.79749932715305
    vertex 2.6994830583474543 4.699299941044697 83.46307745422602
  endloop
endfacet
facet normal 0.4977287854626994 0.8673322385882566 -0.0009187095895077991
  outer loop
    vertex 3.7839212012100543 4.077336615833958 83.79749932715305
    vertex 1.6155903437918862 5.321659819082061 83.79852822294956
    vertex 4.578330447758156 3.6224244141618085 84.71218577094852
  endloop
endfacet
facet normal 0.4977287854626994 0.8673322385882566 -0.0009187095895077991
  outer loop
    vertex 4.578330447758156 3.6224244141618085 84.71218577094852
    vertex 1.6155903437918862 5.321659819082061 83.79852822294956
    vertex 0.8226712350904917 5.777655423224367 84.71396787074377
  endloop
endfacet
facet normal 0.4977287854626994 0.8673322385882566 -0.0009187095895077991
  outer loop
    vertex 4.578330447758156 3.6224244141618085 84.71218577094852
    vertex 0.8226712350904917 5.777655423224367 84.71396787074377
    vertex 4.869849481919372 3.4564566930933753 85.96204729166975
  endloop
endfacet
facet normal 0.4977287854626994 0.8673322385882566 -0.0009187095895077991
  outer loop
    vertex 4.869849481919372 3.4564566930933753 85.96204729166975
    vertex 0.8226712350904917 5.777655423224367 84.71396787074377
    vertex 0.5331877670830196 5.945103099589559 85.96410508326278
  endloop
endfacet
facet normal 0.4977287854626994 0.8673322385882566 -0.0009187095895077991
  outer loop
    vertex 4.869849481919372 3.4564566930933753 85.96204729166975
    vertex 0.5331877670830196 5.945103099589559 85.96410508326278
    vertex 4.580366013911897 3.6239043694585904 87.21218450418873
  endloop
endfacet
facet normal 0.4977287854626994 0.8673322385882566 -0.0009187095895077991
  outer loop
    vertex 4.580366013911897 3.6239043694585904 87.21218450418873
    vertex 0.5331877670830196 5.945103099589559 85.96410508326278
    vertex 0.8247068012442281 5.779135378521127 87.21396660398399
  endloop
endfacet
facet normal 0.4977287854626994 0.8673322385882566 -0.0009187095895077991
  outer loop
    vertex 4.580366013911897 3.6239043694585904 87.21218450418873
    vertex 0.8247068012442281 5.779135378521127 87.21396660398399
    vertex 3.7874469052104986 4.079899973600896 88.12762415198294
  endloop
endfacet
facet normal 0.4977287854626994 0.8673322385882566 -0.0009187095895077991
  outer loop
    vertex 3.7874469052104986 4.079899973600896 88.12762415198294
    vertex 0.8247068012442281 5.779135378521127 87.21396660398399
    vertex 1.6191160477923268 5.324223176848977 88.12865304777947
  endloop
endfacet
facet normal 0.4977287854626994 0.8673322385882566 -0.0009187095895077991
  outer loop
    vertex 3.7874469052104986 4.079899973600896 88.12762415198294
    vertex 1.6191160477923268 5.324223176848977 88.12865304777947
    vertex 2.70355419065493 4.702259851638238 88.46307492070648
  endloop
endfacet
facet normal -0.22369564642571585 0.12939362812259347 0.9660318559817026
  outer loop
    vertex 3.7839212012100543 4.077336615833958 83.79749932715305
    vertex 5.7789385751076985 10.065497607313281 83.45739338411326
    vertex 2.6994830583474543 4.699299941044697 83.46307745422602
  endloop
endfacet
facet normal -0.22369564642571585 0.12939362812259347 0.9660318559817026
  outer loop
    vertex 5.7789385751076985 10.065497607313281 83.45739338411326
    vertex 3.7839212012100543 4.077336615833958 83.79749932715305
    vertex 6.8633767179703025 9.443534282102542 83.79181525704027
  endloop
endfacet
facet normal 0.8673340257716012 -0.49772634886654443 -0.00041156142474010535
  outer loop
    vertex 12.234487123181733 10.96744568944373 78.45144530264396
    vertex 9.75959125211203 6.642304855305464 93.45566124134125
    vertex 9.7473778551896 6.633425123524863 78.45566884189986
  endloop
endfacet
facet normal 0.8673340257716012 -0.49772634886654443 -0.00041156142474010535
  outer loop
    vertex 9.75959125211203 6.642304855305464 93.45566124134125
    vertex 12.234487123181733 10.96744568944373 78.45144530264396
    vertex 12.246700520104163 10.976325421224331 93.45143770208534
  endloop
endfacet
facet normal 0.22526861116092767 -0.12825000648827214 0.9658188177196513
  outer loop
    vertex 2.6994830583474543 4.699299941044697 83.46307745422602
    vertex 4.695045860552127 10.687857485350634 83.79284415283679
    vertex 1.6155903437918862 5.321659819082061 83.79852822294956
  endloop
endfacet
facet normal 0.22526861116092767 -0.12825000648827214 0.9658188177196513
  outer loop
    vertex 4.695045860552127 10.687857485350634 83.79284415283679
    vertex 2.6994830583474543 4.699299941044697 83.46307745422602
    vertex 5.7789385751076985 10.065497607313281 83.45739338411326
  endloop
endfacet
facet normal 0.4977287854627007 0.8673322385882559 -0.0009187095895076137
  outer loop
    vertex 3.297078046120305 16.096287612701836 78.45599685590557
    vertex 6.03440403397734 14.529714393348003 82.49044053576874
    vertex 7.768632377266256 13.533938588488251 81.95371930581109
  endloop
endfacet
facet normal 0.4977287854627007 0.8673322385882559 -0.0009187095895076137
  outer loop
    vertex 6.03440403397734 14.529714393348003 82.49044053576874
    vertex 3.297078046120305 16.096287612701836 78.45599685590557
    vertex 4.765733460055108 15.259307359975702 83.95514397223948
  endloop
endfacet
facet normal 0.4977287854627007 0.8673322385882559 -0.0009187095895076137
  outer loop
    vertex 4.765733460055108 15.259307359975702 83.95514397223948
    vertex 3.297078046120305 16.096287612701836 78.45599685590557
    vertex 4.302559911243149 15.527223642160028 85.95536351226988
  endloop
endfacet
facet normal 0.4977287854627007 0.8673322385882559 -0.0009187095895076137
  outer loop
    vertex 4.302559911243149 15.527223642160028 85.95536351226988
    vertex 3.297078046120305 16.096287612701836 78.45599685590557
    vertex 3.309291443042735 16.10516734448244 93.45598925534695
  endloop
endfacet
facet normal 0.4977287854627007 0.8673322385882559 -0.0009187095895076137
  outer loop
    vertex 4.302559911243149 15.527223642160028 85.95536351226988
    vertex 3.309291443042735 16.10516734448244 93.45598925534695
    vertex 4.768990365901085 15.261675288450531 87.95514194542385
  endloop
endfacet
facet normal 0.4977287854627007 0.8673322385882559 -0.0009187095895076137
  outer loop
    vertex 4.768990365901085 15.261675288450531 87.95514194542385
    vertex 3.309291443042735 16.10516734448244 93.45598925534695
    vertex 6.040045160378042 14.533815765775104 89.4186402554966
  endloop
endfacet
facet normal 0.4977287854627007 0.8673322385882559 -0.0009187095895076137
  outer loop
    vertex 6.040045160378042 14.533815765775104 89.4186402554966
    vertex 3.309291443042735 16.10516734448244 93.45598925534695
    vertex 7.775146188958211 13.538674445437907 89.95371525217982
  endloop
endfacet
facet normal 0.4977287854627007 0.8673322385882559 -0.0009187095895076137
  outer loop
    vertex 7.775146188958211 13.538674445437907 89.95371525217982
    vertex 3.309291443042735 16.10516734448244 93.45598925534695
    vertex 12.246700520104163 10.976325421224331 93.45143770208534
  endloop
endfacet
facet normal 0.4977287854627007 0.8673322385882559 -0.0009187095895076137
  outer loop
    vertex 12.234487123181733 10.96744568944373 78.45144530264396
    vertex 11.241218654981317 11.54538939176613 85.95207104572103
    vertex 12.246700520104163 10.976325421224331 93.45143770208534
  endloop
endfacet
facet normal 0.4977287854627007 0.8673322385882559 -0.0009187095895076137
  outer loop
    vertex 11.241218654981317 11.54538939176613 85.95207104572103
    vertex 12.234487123181733 10.96744568944373 78.45144530264396
    vertex 10.77478820032338 11.810937745475625 83.95229261256708
  endloop
endfacet
facet normal 0.4977287854627007 0.8673322385882559 -0.0009187095895076137
  outer loop
    vertex 10.77478820032338 11.810937745475625 83.95229261256708
    vertex 12.234487123181733 10.96744568944373 78.45144530264396
    vertex 9.503733405846424 12.538797268151054 82.48879430249433
  endloop
endfacet
facet normal 0.4977287854627007 0.8673322385882559 -0.0009187095895076137
  outer loop
    vertex 9.503733405846424 12.538797268151054 82.48879430249433
    vertex 12.234487123181733 10.96744568944373 78.45144530264396
    vertex 3.297078046120305 16.096287612701836 78.45599685590557
  endloop
endfacet
facet normal 0.4977287854627007 0.8673322385882559 -0.0009187095895076137
  outer loop
    vertex 9.503733405846424 12.538797268151054 82.48879430249433
    vertex 3.297078046120305 16.096287612701836 78.45599685590557
    vertex 7.768632377266256 13.533938588488251 81.95371930581109
  endloop
endfacet
facet normal 0.4977287854627007 0.8673322385882559 -0.0009187095895076137
  outer loop
    vertex 12.246700520104163 10.976325421224331 93.45143770208534
    vertex 11.241218654981317 11.54538939176613 85.95207104572103
    vertex 10.77804510616936 11.813305673950454 87.95229058575144
  endloop
endfacet
facet normal 0.4977287854627007 0.8673322385882559 -0.0009187095895076137
  outer loop
    vertex 12.246700520104163 10.976325421224331 93.45143770208534
    vertex 10.77804510616936 11.813305673950454 87.95229058575144
    vertex 9.509374532247126 12.542898640578155 89.41699402222218
  endloop
endfacet
facet normal 0.4977287854627007 0.8673322385882559 -0.0009187095895076137
  outer loop
    vertex 12.246700520104163 10.976325421224331 93.45143770208534
    vertex 9.509374532247126 12.542898640578155 89.41699402222218
    vertex 7.775146188958211 13.538674445437907 89.95371525217982
  endloop
endfacet
facet normal 0.6138723263069189 -0.3515291554313184 0.7068154072148368
  outer loop
    vertex 1.6155903437918862 5.321659819082061 83.79852822294956
    vertex 3.9021267518507337 11.14385308949294 84.70828380063101
    vertex 0.8226712350904917 5.777655423224367 84.71396787074377
  endloop
endfacet
facet normal 0.6138723263069189 -0.3515291554313184 0.7068154072148368
  outer loop
    vertex 3.9021267518507337 11.14385308949294 84.70828380063101
    vertex 1.6155903437918862 5.321659819082061 83.79852822294956
    vertex 4.695045860552127 10.687857485350634 83.79284415283679
  endloop
endfacet
facet normal -0.497720778676996 -0.8673368333311091 0.0009187057901744353
  outer loop
    vertex 9.75959125211203 6.642304855305464 93.45566124134125
    vertex 8.74339193356028 7.209562450144349 78.45618014803938
    vertex 9.7473778551896 6.633425123524863 78.45566884189986
  endloop
endfacet
facet normal -0.497720778676996 -0.8673368333311091 0.0009187057901744353
  outer loop
    vertex 8.74339193356028 7.209562450144349 78.45618014803938
    vertex 9.75959125211203 6.642304855305464 93.45566124134125
    vertex 8.75560533048271 7.218442181924951 93.45617254748076
  endloop
endfacet
facet normal 0.6127208362022285 -0.3523663445722758 -0.7073974385707191
  outer loop
    vertex 3.9041623180044702 11.14533304478971 87.20828253387124
    vertex 1.6191160477923268 5.324223176848977 88.12865304777947
    vertex 0.8247068012442281 5.779135378521127 87.21396660398399
  endloop
endfacet
facet normal 0.6127208362022285 -0.3523663445722758 -0.7073974385707191
  outer loop
    vertex 1.6191160477923268 5.324223176848977 88.12865304777947
    vertex 3.9041623180044702 11.14533304478971 87.20828253387124
    vertex 4.698571564552568 10.690420843117561 88.1229689776667
  endloop
endfacet
endsolid Support_ywk5
