solid wire_box
facet normal 1.0 0.0 0.0
  outer loop
    vertex 9.85 29.999999999999996 -2.4999999999999996
    vertex 9.85 -20.0 5.100000000000003
    vertex 9.85 -20.0 -2.4999999999999996
  endloop
endfacet
facet normal 1.0 0.0 0.0
  outer loop
    vertex 9.85 -20.0 5.100000000000003
    vertex 9.85 29.999999999999996 -2.4999999999999996
    vertex 9.85 -19.0 5.100000000000003
  endloop
endfacet
facet normal 1.0 0.0 0.0
  outer loop
    vertex 9.85 -19.0 5.100000000000003
    vertex 9.85 29.999999999999996 -2.4999999999999996
    vertex 9.85 29.999999999999996 5.100000000000002
  endloop
endfacet
facet normal 2.5274650576472608e-17 7.181555011455532e-16 1.0
  outer loop
    vertex 2.9750000000000014 -20.0 5.100000000000003
    vertex -2.1500000000000004 -19.0 5.100000000000003
    vertex -2.1500000000000004 -20.0 5.100000000000003
  endloop
endfacet
facet normal 2.5274650576472608e-17 7.181555011455532e-16 1.0
  outer loop
    vertex -2.1500000000000004 -19.0 5.100000000000003
    vertex 2.9750000000000014 -20.0 5.100000000000003
    vertex -1.1499999999999992 -19.0 5.100000000000002
  endloop
endfacet
facet normal 2.5274650576472608e-17 7.181555011455532e-16 1.0
  outer loop
    vertex -1.1499999999999992 -19.0 5.100000000000002
    vertex 2.9750000000000014 -20.0 5.100000000000003
    vertex 2.9750000000000014 -19.0 5.100000000000003
  endloop
endfacet
facet normal 0.7071067811865477 4.648085947291625e-16 -0.7071067811865474
  outer loop
    vertex 2.3344555433772327 -19.0 2.175000000000003
    vertex 2.975 -20.0 2.81554445662277
    vertex 2.3344555433772327 -20.0 2.175000000000002
  endloop
endfacet
facet normal 0.7071067811865477 4.648085947291625e-16 -0.7071067811865474
  outer loop
    vertex 2.975 -20.0 2.81554445662277
    vertex 2.3344555433772327 -19.0 2.175000000000003
    vertex 2.975 -19.0 2.8155444566227703
  endloop
endfacet
facet normal 0.9659258262890684 2.1490326766511838e-16 -0.2588190451025209
  outer loop
    vertex 2.1000000000000005 -19.0 1.300000000000003
    vertex 2.3344555433772327 -20.0 2.175000000000002
    vertex 2.1000000000000005 -20.0 1.3000000000000018
  endloop
endfacet
facet normal 0.9659258262890684 2.1490326766511838e-16 -0.2588190451025209
  outer loop
    vertex 2.3344555433772327 -20.0 2.175000000000002
    vertex 2.1000000000000005 -19.0 1.300000000000003
    vertex 2.3344555433772327 -19.0 2.175000000000003
  endloop
endfacet
facet normal 0.9659258262890684 -5.039950944265759e-16 0.2588190451025209
  outer loop
    vertex 2.3344555433772327 -19.0 0.42500000000000343
    vertex 2.299999999999997 -20.0 0.5535898384862364
    vertex 2.3344555433772327 -20.000000000000004 0.4250000000000019
  endloop
endfacet
facet normal 0.9659258262890684 -5.039950944265759e-16 0.2588190451025209
  outer loop
    vertex 2.299999999999997 -20.0 0.5535898384862364
    vertex 2.3344555433772327 -19.0 0.42500000000000343
    vertex 2.1000000000000005 -20.0 1.3000000000000018
  endloop
endfacet
facet normal 0.9659258262890684 -5.039950944265759e-16 0.2588190451025209
  outer loop
    vertex 2.1000000000000005 -20.0 1.3000000000000018
    vertex 2.3344555433772327 -19.0 0.42500000000000343
    vertex 2.1000000000000005 -19.0 1.300000000000003
  endloop
endfacet
facet normal 0.7071067811865481 -5.981013282151652e-16 0.7071067811865469
  outer loop
    vertex 2.975 -19.0 -0.21554445662276459
    vertex 2.5058891521455946 -21.193804 0.2535663912316393
    vertex 2.9749999999999988 -21.193804 -0.215544456622766
  endloop
endfacet
facet normal 0.7071067811865481 -5.981013282151652e-16 0.7071067811865469
  outer loop
    vertex 2.5058891521455946 -21.193804 0.2535663912316393
    vertex 2.975 -19.0 -0.21554445662276459
    vertex 2.5058891521455946 -20.000000000000004 0.2535663912316393
  endloop
endfacet
facet normal 0.7071067811865481 -5.981013282151652e-16 0.7071067811865469
  outer loop
    vertex 2.5058891521455946 -20.000000000000004 0.2535663912316393
    vertex 2.975 -19.0 -0.21554445662276459
    vertex 2.3344555433772327 -20.000000000000004 0.4250000000000019
  endloop
endfacet
facet normal 0.7071067811865481 -5.981013282151652e-16 0.7071067811865469
  outer loop
    vertex 2.3344555433772327 -20.000000000000004 0.4250000000000019
    vertex 2.975 -19.0 -0.21554445662276459
    vertex 2.3344555433772327 -19.0 0.42500000000000343
  endloop
endfacet
facet normal 0.25881904510252096 -5.426910090897092e-16 0.9659258262890682
  outer loop
    vertex 3.849999999999999 -21.193804 -0.4499999999999986
    vertex 2.975 -19.0 -0.21554445662276459
    vertex 2.9749999999999988 -21.193804 -0.215544456622766
  endloop
endfacet
facet normal 0.25881904510252096 -5.426910090897092e-16 0.9659258262890682
  outer loop
    vertex 2.975 -19.0 -0.21554445662276459
    vertex 3.849999999999999 -21.193804 -0.4499999999999986
    vertex 3.85 -19.0 -0.44999999999999707
  endloop
endfacet
facet normal -0.2588190451025205 -5.62139021696447e-16 0.9659258262890684
  outer loop
    vertex 4.724999999999999 -21.193804 -0.2155444566227669
    vertex 3.85 -19.0 -0.44999999999999707
    vertex 3.849999999999999 -21.193804 -0.4499999999999986
  endloop
endfacet
facet normal -0.2588190451025205 -5.62139021696447e-16 0.9659258262890684
  outer loop
    vertex 3.85 -19.0 -0.44999999999999707
    vertex 4.724999999999999 -21.193804 -0.2155444566227669
    vertex 4.7250000000000005 -19.0 -0.21554445662276422
  endloop
endfacet
facet normal -0.7071067811865474 -3.5443041672009744e-16 0.7071067811865477
  outer loop
    vertex 5.194110847854406 -21.193804 0.2535663912316394
    vertex 4.7250000000000005 -19.0 -0.21554445662276422
    vertex 4.724999999999999 -21.193804 -0.2155444566227669
  endloop
endfacet
facet normal -0.7071067811865474 -3.5443041672009744e-16 0.7071067811865477
  outer loop
    vertex 4.7250000000000005 -19.0 -0.21554445662276422
    vertex 5.194110847854406 -21.193804 0.2535663912316394
    vertex 5.194110847854406 -20.0 0.2535663912316394
  endloop
endfacet
facet normal -0.7071067811865474 -3.5443041672009744e-16 0.7071067811865477
  outer loop
    vertex 4.7250000000000005 -19.0 -0.21554445662276422
    vertex 5.194110847854406 -20.0 0.2535663912316394
    vertex 5.365544456622769 -19.0 0.42500000000000415
  endloop
endfacet
facet normal -0.7071067811865474 -3.5443041672009744e-16 0.7071067811865477
  outer loop
    vertex 5.365544456622769 -19.0 0.42500000000000415
    vertex 5.194110847854406 -20.0 0.2535663912316394
    vertex 5.365544456622767 -20.0 0.4250000000000008
  endloop
endfacet
facet normal -0.9659258262890682 -3.079970021495747e-16 0.2588190451025209
  outer loop
    vertex 5.6 -19.0 1.300000000000004
    vertex 5.400000000000003 -20.0 0.5535898384862374
    vertex 5.6000000000000005 -20.0 1.3000000000000014
  endloop
endfacet
facet normal -0.9659258262890682 -3.079970021495747e-16 0.2588190451025209
  outer loop
    vertex 5.400000000000003 -20.0 0.5535898384862374
    vertex 5.6 -19.0 1.300000000000004
    vertex 5.365544456622767 -20.0 0.4250000000000008
  endloop
endfacet
facet normal -0.9659258262890682 -3.079970021495747e-16 0.2588190451025209
  outer loop
    vertex 5.365544456622767 -20.0 0.4250000000000008
    vertex 5.6 -19.0 1.300000000000004
    vertex 5.365544456622769 -19.0 0.42500000000000415
  endloop
endfacet
facet normal -0.9659258262890684 -1.2514491214503515e-16 -0.25881904510252085
  outer loop
    vertex 5.365544456622767 -19.0 2.1750000000000034
    vertex 5.6000000000000005 -20.0 1.3000000000000014
    vertex 5.365544456622768 -20.0 2.175000000000002
  endloop
endfacet
facet normal -0.9659258262890684 -1.2514491214503515e-16 -0.25881904510252085
  outer loop
    vertex 5.6000000000000005 -20.0 1.3000000000000014
    vertex 5.365544456622767 -19.0 2.1750000000000034
    vertex 5.6 -19.0 1.300000000000004
  endloop
endfacet
facet normal -0.7071067811865476 4.648085947291605e-16 -0.7071067811865476
  outer loop
    vertex 4.725 -19.0 2.8155444566227708
    vertex 5.365544456622768 -20.0 2.175000000000002
    vertex 4.725 -20.0 2.81554445662277
  endloop
endfacet
facet normal -0.7071067811865476 4.648085947291605e-16 -0.7071067811865476
  outer loop
    vertex 5.365544456622768 -20.0 2.175000000000002
    vertex 4.725 -19.0 2.8155444566227708
    vertex 5.365544456622767 -19.0 2.1750000000000034
  endloop
endfacet
facet normal -1.0 0.0 0.0
  outer loop
    vertex -2.1500000000000004 -19.0 5.100000000000003
    vertex -2.1500000000000004 -20.0 -2.4999999999999996
    vertex -2.1500000000000004 -20.0 5.100000000000003
  endloop
endfacet
facet normal -1.0 0.0 0.0
  outer loop
    vertex -2.1500000000000004 -20.0 -2.4999999999999996
    vertex -2.1500000000000004 -19.0 5.100000000000003
    vertex -2.1500000000000004 29.999999999999996 -2.4999999999999996
  endloop
endfacet
facet normal -1.0 0.0 0.0
  outer loop
    vertex -2.1500000000000004 29.999999999999996 -2.4999999999999996
    vertex -2.1500000000000004 -19.0 5.100000000000003
    vertex -2.1500000000000004 29.999999999999996 5.100000000000002
  endloop
endfacet
facet normal 0.0 0.0 1.0
  outer loop
    vertex 8.850000000000001 -19.0 -1.4999999999999998
    vertex -1.1499999999999992 28.999999999999996 -1.4999999999999998
    vertex -1.1499999999999992 -19.0 -1.4999999999999998
  endloop
endfacet
facet normal 0.0 0.0 1.0
  outer loop
    vertex -1.1499999999999992 28.999999999999996 -1.4999999999999998
    vertex 8.850000000000001 -19.0 -1.4999999999999998
    vertex 8.850000000000001 28.999999999999996 -1.4999999999999998
  endloop
endfacet
facet normal 0.0 -1.0 0.0
  outer loop
    vertex 8.850000000000001 28.999999999999996 -1.4999999999999998
    vertex 3.85 28.999999999999996 -1.4499999999999977
    vertex -1.1499999999999992 28.999999999999996 -1.4999999999999998
  endloop
endfacet
facet normal 0.0 -1.0 0.0
  outer loop
    vertex 3.85 28.999999999999996 -1.4499999999999977
    vertex 8.850000000000001 28.999999999999996 -1.4999999999999998
    vertex 5.225000000000001 28.999999999999996 -1.0815698604072037
  endloop
endfacet
facet normal 0.0 -1.0 0.0
  outer loop
    vertex 5.225000000000001 28.999999999999996 -1.0815698604072037
    vertex 8.850000000000001 28.999999999999996 -1.4999999999999998
    vertex 6.231569860407208 28.999999999999996 -0.07499999999999686
  endloop
endfacet
facet normal 0.0 -1.0 0.0
  outer loop
    vertex 6.231569860407208 28.999999999999996 -0.07499999999999686
    vertex 8.850000000000001 28.999999999999996 -1.4999999999999998
    vertex 8.850000000000001 28.999999999999996 5.100000000000002
  endloop
endfacet
facet normal 0.0 -1.0 0.0
  outer loop
    vertex 6.231569860407208 28.999999999999996 -0.07499999999999686
    vertex 8.850000000000001 28.999999999999996 5.100000000000002
    vertex 6.6000000000000005 28.999999999999996 1.3000000000000023
  endloop
endfacet
facet normal 0.0 -1.0 0.0
  outer loop
    vertex 6.6000000000000005 28.999999999999996 1.3000000000000023
    vertex 8.850000000000001 28.999999999999996 5.100000000000002
    vertex 6.231569860407207 28.999999999999996 2.6750000000000016
  endloop
endfacet
facet normal 0.0 -1.0 0.0
  outer loop
    vertex 6.231569860407207 28.999999999999996 2.6750000000000016
    vertex 8.850000000000001 28.999999999999996 5.100000000000002
    vertex 6.231569860407206 28.999999999999996 5.100000000000002
  endloop
endfacet
facet normal 0.0 -1.0 0.0
  outer loop
    vertex -1.1499999999999992 28.999999999999996 -1.4999999999999998
    vertex 1.4684301395927937 28.999999999999996 -0.07499999999999599
    vertex -1.1499999999999992 28.999999999999996 5.100000000000002
  endloop
endfacet
facet normal 0.0 -1.0 0.0
  outer loop
    vertex 1.4684301395927937 28.999999999999996 -0.07499999999999599
    vertex -1.1499999999999992 28.999999999999996 -1.4999999999999998
    vertex 2.4749999999999996 28.999999999999996 -1.0815698604072035
  endloop
endfacet
facet normal 0.0 -1.0 0.0
  outer loop
    vertex 2.4749999999999996 28.999999999999996 -1.0815698604072035
    vertex -1.1499999999999992 28.999999999999996 -1.4999999999999998
    vertex 3.85 28.999999999999996 -1.4499999999999977
  endloop
endfacet
facet normal 0.0 -1.0 0.0
  outer loop
    vertex -1.1499999999999992 28.999999999999996 5.100000000000002
    vertex 1.4684301395927937 28.999999999999996 -0.07499999999999599
    vertex 1.1000000000000008 28.999999999999996 1.3000000000000038
  endloop
endfacet
facet normal 0.0 -1.0 0.0
  outer loop
    vertex -1.1499999999999992 28.999999999999996 5.100000000000002
    vertex 1.1000000000000008 28.999999999999996 1.3000000000000038
    vertex 1.468430139592795 28.999999999999996 2.6750000000000034
  endloop
endfacet
facet normal 0.0 -1.0 0.0
  outer loop
    vertex -1.1499999999999992 28.999999999999996 5.100000000000002
    vertex 1.468430139592795 28.999999999999996 2.6750000000000034
    vertex 1.4684301395927937 28.999999999999996 5.100000000000002
  endloop
endfacet
facet normal 0.9659258262890684 1.1296223864295832e-15 0.2588190451025207
  outer loop
    vertex 1.4684301395927937 29.999999999999996 -0.07499999999999775
    vertex 1.1000000000000008 28.999999999999996 1.3000000000000038
    vertex 1.4684301395927937 28.999999999999996 -0.07499999999999599
  endloop
endfacet
facet normal 0.9659258262890684 1.1296223864295832e-15 0.2588190451025207
  outer loop
    vertex 1.1000000000000008 28.999999999999996 1.3000000000000038
    vertex 1.4684301395927937 29.999999999999996 -0.07499999999999775
    vertex 1.0999999999999994 29.999999999999996 1.3000000000000014
  endloop
endfacet
facet normal 0.9659258262890684 1.1296223864295832e-15 0.2588190451025207
  outer loop
    vertex 1.0999999999999994 29.999999999999996 1.3000000000000014
    vertex 1.4684301395927937 29.999999999999996 -0.07499999999999775
    vertex 1.299999999999999 29.999999999999996 0.5535898384862309
  endloop
endfacet
facet normal 0.7071067811865479 5.375938485454962e-16 0.7071067811865472
  outer loop
    vertex 2.4749999999999996 31.199999999999992 -1.0815698604072046
    vertex 1.4684301395927937 28.999999999999996 -0.07499999999999599
    vertex 2.4749999999999996 28.999999999999996 -1.0815698604072035
  endloop
endfacet
facet normal 0.7071067811865479 5.375938485454962e-16 0.7071067811865472
  outer loop
    vertex 1.4684301395927937 28.999999999999996 -0.07499999999999599
    vertex 2.4749999999999996 31.199999999999992 -1.0815698604072046
    vertex 1.4684301395927937 29.999999999999996 -0.07499999999999775
  endloop
endfacet
facet normal 0.7071067811865479 5.375938485454962e-16 0.7071067811865472
  outer loop
    vertex 1.4684301395927937 29.999999999999996 -0.07499999999999775
    vertex 2.4749999999999996 31.199999999999992 -1.0815698604072046
    vertex 1.4684301395927937 31.199999999999992 -0.07499999999999775
  endloop
endfacet
facet normal 0.25881904510252096 4.155319650880461e-16 0.9659258262890682
  outer loop
    vertex 3.85 28.999999999999996 -1.4499999999999977
    vertex 2.4749999999999996 31.199999999999992 -1.0815698604072046
    vertex 2.4749999999999996 28.999999999999996 -1.0815698604072035
  endloop
endfacet
facet normal 0.25881904510252096 4.155319650880461e-16 0.9659258262890682
  outer loop
    vertex 2.4749999999999996 31.199999999999992 -1.0815698604072046
    vertex 3.85 28.999999999999996 -1.4499999999999977
    vertex 3.8500000000000005 31.199999999999992 -1.4499999999999984
  endloop
endfacet
facet normal -0.2588190451025209 3.446210888857599e-16 0.9659258262890684
  outer loop
    vertex 5.225000000000001 28.999999999999996 -1.0815698604072037
    vertex 3.8500000000000005 31.199999999999992 -1.4499999999999984
    vertex 3.85 28.999999999999996 -1.4499999999999977
  endloop
endfacet
facet normal -0.2588190451025209 3.446210888857599e-16 0.9659258262890684
  outer loop
    vertex 3.8500000000000005 31.199999999999992 -1.4499999999999984
    vertex 5.225000000000001 28.999999999999996 -1.0815698604072037
    vertex 5.225000000000001 31.199999999999992 -1.0815698604072044
  endloop
endfacet
facet normal -0.7071067811865477 7.493732434270549e-17 0.7071067811865474
  outer loop
    vertex 6.231569860407208 29.999999999999996 -0.07499999999999686
    vertex 5.225000000000001 28.999999999999996 -1.0815698604072037
    vertex 6.231569860407208 28.999999999999996 -0.07499999999999686
  endloop
endfacet
facet normal -0.7071067811865477 7.493732434270549e-17 0.7071067811865474
  outer loop
    vertex 5.225000000000001 28.999999999999996 -1.0815698604072037
    vertex 6.231569860407208 29.999999999999996 -0.07499999999999686
    vertex 5.225000000000001 31.199999999999992 -1.0815698604072044
  endloop
endfacet
facet normal -0.7071067811865477 7.493732434270549e-17 0.7071067811865474
  outer loop
    vertex 5.225000000000001 31.199999999999992 -1.0815698604072044
    vertex 6.231569860407208 29.999999999999996 -0.07499999999999686
    vertex 6.231569860407208 31.199999999999992 -0.07499999999999686
  endloop
endfacet
facet normal -0.9659258262890685 -5.01805852189511e-16 0.25881904510252
  outer loop
    vertex 6.599999999999999 29.999999999999996 1.300000000000003
    vertex 6.231569860407208 28.999999999999996 -0.07499999999999686
    vertex 6.6000000000000005 28.999999999999996 1.3000000000000023
  endloop
endfacet
facet normal -0.9659258262890685 -5.01805852189511e-16 0.25881904510252
  outer loop
    vertex 6.231569860407208 28.999999999999996 -0.07499999999999686
    vertex 6.599999999999999 29.999999999999996 1.300000000000003
    vertex 6.231569860407208 29.999999999999996 -0.07499999999999686
  endloop
endfacet
facet normal -0.9659258262890685 -5.01805852189511e-16 0.25881904510252
  outer loop
    vertex 6.231569860407208 29.999999999999996 -0.07499999999999686
    vertex 6.599999999999999 29.999999999999996 1.300000000000003
    vertex 6.399999999999994 29.999999999999996 0.5535898384862
  endloop
endfacet
facet normal -1.0 0.0 0.0
  outer loop
    vertex 8.850000000000001 28.999999999999996 5.100000000000002
    vertex 8.850000000000001 -19.0 -1.4999999999999998
    vertex 8.850000000000001 -19.0 5.100000000000002
  endloop
endfacet
facet normal -1.0 0.0 0.0
  outer loop
    vertex 8.850000000000001 -19.0 -1.4999999999999998
    vertex 8.850000000000001 28.999999999999996 5.100000000000002
    vertex 8.850000000000001 28.999999999999996 -1.4999999999999998
  endloop
endfacet
facet normal 1.0 0.0 0.0
  outer loop
    vertex -1.1499999999999992 28.999999999999996 -1.4999999999999998
    vertex -1.1499999999999992 -19.0 5.100000000000002
    vertex -1.1499999999999992 -19.0 -1.4999999999999998
  endloop
endfacet
facet normal 1.0 0.0 0.0
  outer loop
    vertex -1.1499999999999992 -19.0 5.100000000000002
    vertex -1.1499999999999992 28.999999999999996 -1.4999999999999998
    vertex -1.1499999999999992 28.999999999999996 5.100000000000002
  endloop
endfacet
facet normal -3.311697420706784e-17 1.0 1.160886724436647e-16
  outer loop
    vertex -1.1499999999999992 -19.0 -1.4999999999999998
    vertex 3.85 -19.0 -0.44999999999999707
    vertex 8.850000000000001 -19.0 -1.4999999999999998
  endloop
endfacet
facet normal -3.311697420706784e-17 1.0 1.160886724436647e-16
  outer loop
    vertex 3.85 -19.0 -0.44999999999999707
    vertex -1.1499999999999992 -19.0 -1.4999999999999998
    vertex 2.975 -19.0 -0.21554445662276459
  endloop
endfacet
facet normal -3.311697420706784e-17 1.0 1.160886724436647e-16
  outer loop
    vertex 2.975 -19.0 -0.21554445662276459
    vertex -1.1499999999999992 -19.0 -1.4999999999999998
    vertex 2.3344555433772327 -19.0 0.42500000000000343
  endloop
endfacet
facet normal -3.311697420706784e-17 1.0 1.160886724436647e-16
  outer loop
    vertex 2.3344555433772327 -19.0 0.42500000000000343
    vertex -1.1499999999999992 -19.0 -1.4999999999999998
    vertex -1.1499999999999992 -19.0 5.100000000000002
  endloop
endfacet
facet normal -3.311697420706784e-17 1.0 1.160886724436647e-16
  outer loop
    vertex 2.3344555433772327 -19.0 0.42500000000000343
    vertex -1.1499999999999992 -19.0 5.100000000000002
    vertex 2.1000000000000005 -19.0 1.300000000000003
  endloop
endfacet
facet normal -3.311697420706784e-17 1.0 1.160886724436647e-16
  outer loop
    vertex 2.1000000000000005 -19.0 1.300000000000003
    vertex -1.1499999999999992 -19.0 5.100000000000002
    vertex 2.3344555433772327 -19.0 2.175000000000003
  endloop
endfacet
facet normal -3.311697420706784e-17 1.0 1.160886724436647e-16
  outer loop
    vertex 2.3344555433772327 -19.0 2.175000000000003
    vertex -1.1499999999999992 -19.0 5.100000000000002
    vertex 2.975 -19.0 2.8155444566227703
  endloop
endfacet
facet normal -3.311697420706784e-17 1.0 1.160886724436647e-16
  outer loop
    vertex 2.975 -19.0 2.8155444566227703
    vertex -1.1499999999999992 -19.0 5.100000000000002
    vertex 2.9750000000000014 -19.0 5.100000000000003
  endloop
endfacet
facet normal -3.311697420706784e-17 1.0 1.160886724436647e-16
  outer loop
    vertex 8.850000000000001 -19.0 -1.4999999999999998
    vertex 5.365544456622769 -19.0 0.42500000000000415
    vertex 8.850000000000001 -19.0 5.100000000000002
  endloop
endfacet
facet normal -3.311697420706784e-17 1.0 1.160886724436647e-16
  outer loop
    vertex 5.365544456622769 -19.0 0.42500000000000415
    vertex 8.850000000000001 -19.0 -1.4999999999999998
    vertex 4.7250000000000005 -19.0 -0.21554445662276422
  endloop
endfacet
facet normal -3.311697420706784e-17 1.0 1.160886724436647e-16
  outer loop
    vertex 4.7250000000000005 -19.0 -0.21554445662276422
    vertex 8.850000000000001 -19.0 -1.4999999999999998
    vertex 3.85 -19.0 -0.44999999999999707
  endloop
endfacet
facet normal -3.311697420706784e-17 1.0 1.160886724436647e-16
  outer loop
    vertex 8.850000000000001 -19.0 5.100000000000002
    vertex 5.365544456622769 -19.0 0.42500000000000415
    vertex 5.6 -19.0 1.300000000000004
  endloop
endfacet
facet normal -3.311697420706784e-17 1.0 1.160886724436647e-16
  outer loop
    vertex 8.850000000000001 -19.0 5.100000000000002
    vertex 5.6 -19.0 1.300000000000004
    vertex 5.365544456622767 -19.0 2.1750000000000034
  endloop
endfacet
facet normal -3.311697420706784e-17 1.0 1.160886724436647e-16
  outer loop
    vertex 8.850000000000001 -19.0 5.100000000000002
    vertex 5.365544456622767 -19.0 2.1750000000000034
    vertex 4.725 -19.0 2.8155444566227708
  endloop
endfacet
facet normal -3.311697420706784e-17 1.0 1.160886724436647e-16
  outer loop
    vertex 8.850000000000001 -19.0 5.100000000000002
    vertex 4.725 -19.0 2.8155444566227708
    vertex 4.725 -19.0 5.100000000000003
  endloop
endfacet
facet normal -1.0 -4.404241453015398e-16 -1.0394756079997098e-16
  outer loop
    vertex 6.231569860407206 29.999999999999996 5.100000000000002
    vertex 6.231569860407207 28.999999999999996 2.6750000000000016
    vertex 6.231569860407206 28.999999999999996 5.100000000000002
  endloop
endfacet
facet normal -1.0 -4.404241453015398e-16 -1.0394756079997098e-16
  outer loop
    vertex 6.231569860407207 28.999999999999996 2.6750000000000016
    vertex 6.231569860407206 29.999999999999996 5.100000000000002
    vertex 6.231569860407205 29.999999999999996 2.675000000000002
  endloop
endfacet
facet normal 0.0 1.0 0.0
  outer loop
    vertex 6.399999999999994 29.999999999999996 -2.499999999999999
    vertex 9.85 29.999999999999996 5.100000000000002
    vertex 9.85 29.999999999999996 -2.4999999999999996
  endloop
endfacet
facet normal 0.0 1.0 0.0
  outer loop
    vertex 9.85 29.999999999999996 5.100000000000002
    vertex 6.399999999999994 29.999999999999996 -2.499999999999999
    vertex 6.399999999999994 29.999999999999996 -0.07499999999999696
  endloop
endfacet
facet normal 0.0 1.0 0.0
  outer loop
    vertex 9.85 29.999999999999996 5.100000000000002
    vertex 6.399999999999994 29.999999999999996 -0.07499999999999696
    vertex 6.231569860407208 29.999999999999996 -0.07499999999999686
  endloop
endfacet
facet normal 0.0 1.0 0.0
  outer loop
    vertex 9.85 29.999999999999996 5.100000000000002
    vertex 6.231569860407208 29.999999999999996 -0.07499999999999686
    vertex 6.399999999999994 29.999999999999996 0.5535898384862
  endloop
endfacet
facet normal 0.0 1.0 0.0
  outer loop
    vertex 9.85 29.999999999999996 5.100000000000002
    vertex 6.399999999999994 29.999999999999996 0.5535898384862
    vertex 6.599999999999999 29.999999999999996 1.300000000000003
  endloop
endfacet
facet normal 0.0 1.0 0.0
  outer loop
    vertex 9.85 29.999999999999996 5.100000000000002
    vertex 6.599999999999999 29.999999999999996 1.300000000000003
    vertex 6.231569860407205 29.999999999999996 2.675000000000002
  endloop
endfacet
facet normal 0.0 1.0 0.0
  outer loop
    vertex 9.85 29.999999999999996 5.100000000000002
    vertex 6.231569860407205 29.999999999999996 2.675000000000002
    vertex 6.231569860407206 29.999999999999996 5.100000000000002
  endloop
endfacet
facet normal 6.625249965103212e-17 1.2412578129488e-17 1.0
  outer loop
    vertex -1.1499999999999992 -19.0 5.100000000000002
    vertex -2.1500000000000004 29.999999999999996 5.100000000000002
    vertex -2.1500000000000004 -19.0 5.100000000000003
  endloop
endfacet
facet normal 6.625249965103212e-17 1.2412578129488e-17 1.0
  outer loop
    vertex -2.1500000000000004 29.999999999999996 5.100000000000002
    vertex -1.1499999999999992 -19.0 5.100000000000002
    vertex -1.1499999999999992 28.999999999999996 5.100000000000002
  endloop
endfacet
facet normal 6.625249965103212e-17 1.2412578129488e-17 1.0
  outer loop
    vertex -2.1500000000000004 29.999999999999996 5.100000000000002
    vertex -1.1499999999999992 28.999999999999996 5.100000000000002
    vertex 1.4684301395927937 29.999999999999996 5.100000000000002
  endloop
endfacet
facet normal 6.625249965103212e-17 1.2412578129488e-17 1.0
  outer loop
    vertex 1.4684301395927937 29.999999999999996 5.100000000000002
    vertex -1.1499999999999992 28.999999999999996 5.100000000000002
    vertex 1.4684301395927937 28.999999999999996 5.100000000000002
  endloop
endfacet
facet normal -6.625249965103202e-17 1.2412578129487998e-17 1.0
  outer loop
    vertex 9.85 -19.0 5.100000000000003
    vertex 8.850000000000001 28.999999999999996 5.100000000000002
    vertex 8.850000000000001 -19.0 5.100000000000002
  endloop
endfacet
facet normal -6.625249965103202e-17 1.2412578129487998e-17 1.0
  outer loop
    vertex 8.850000000000001 28.999999999999996 5.100000000000002
    vertex 6.231569860407206 29.999999999999996 5.100000000000002
    vertex 6.231569860407206 28.999999999999996 5.100000000000002
  endloop
endfacet
facet normal -6.625249965103202e-17 1.2412578129487998e-17 1.0
  outer loop
    vertex 6.231569860407206 29.999999999999996 5.100000000000002
    vertex 8.850000000000001 28.999999999999996 5.100000000000002
    vertex 9.85 29.999999999999996 5.100000000000002
  endloop
endfacet
facet normal -6.625249965103202e-17 1.2412578129487998e-17 1.0
  outer loop
    vertex 9.85 29.999999999999996 5.100000000000002
    vertex 8.850000000000001 28.999999999999996 5.100000000000002
    vertex 9.85 -19.0 5.100000000000003
  endloop
endfacet
facet normal 0.9659258262890682 7.915619908080306e-16 -0.2588190451025212
  outer loop
    vertex 1.0999999999999994 29.999999999999996 1.3000000000000014
    vertex 1.468430139592795 28.999999999999996 2.6750000000000034
    vertex 1.1000000000000008 28.999999999999996 1.3000000000000038
  endloop
endfacet
facet normal 0.9659258262890682 7.915619908080306e-16 -0.2588190451025212
  outer loop
    vertex 1.468430139592795 28.999999999999996 2.6750000000000034
    vertex 1.0999999999999994 29.999999999999996 1.3000000000000014
    vertex 1.4684301395927937 29.999999999999996 2.675000000000001
  endloop
endfacet
facet normal -0.9659258262890684 -1.2906066210897537e-15 -0.25881904510252074
  outer loop
    vertex 6.231569860407205 29.999999999999996 2.675000000000002
    vertex 6.6000000000000005 28.999999999999996 1.3000000000000023
    vertex 6.231569860407207 28.999999999999996 2.6750000000000016
  endloop
endfacet
facet normal -0.9659258262890684 -1.2906066210897537e-15 -0.25881904510252074
  outer loop
    vertex 6.6000000000000005 28.999999999999996 1.3000000000000023
    vertex 6.231569860407205 29.999999999999996 2.675000000000002
    vertex 6.599999999999999 29.999999999999996 1.300000000000003
  endloop
endfacet
facet normal 1.0 4.367209226976097e-16 3.6380194273087435e-16
  outer loop
    vertex 1.4684301395927937 29.999999999999996 2.675000000000001
    vertex 1.4684301395927937 28.999999999999996 5.100000000000002
    vertex 1.468430139592795 28.999999999999996 2.6750000000000034
  endloop
endfacet
facet normal 1.0 4.367209226976097e-16 3.6380194273087435e-16
  outer loop
    vertex 1.4684301395927937 28.999999999999996 5.100000000000002
    vertex 1.4684301395927937 29.999999999999996 2.675000000000001
    vertex 1.4684301395927937 29.999999999999996 5.100000000000002
  endloop
endfacet
facet normal -1.8941195635531687e-16 -1.0 1.2184678624818223e-16
  outer loop
    vertex 2.3344555433772327 -20.000000000000004 0.4250000000000019
    vertex 2.299999999999997 -20.000000000000004 0.2535663912316393
    vertex 2.5058891521455946 -20.000000000000004 0.2535663912316393
  endloop
endfacet
facet normal -1.8941195635531687e-16 -1.0 1.2184678624818223e-16
  outer loop
    vertex 2.299999999999997 -20.0 -2.499999999999999
    vertex -2.1500000000000004 -20.0 5.100000000000003
    vertex -2.1500000000000004 -20.0 -2.4999999999999996
  endloop
endfacet
facet normal -1.8941195635531687e-16 -1.0 1.2184678624818223e-16
  outer loop
    vertex -2.1500000000000004 -20.0 5.100000000000003
    vertex 2.299999999999997 -20.0 -2.499999999999999
    vertex 2.299999999999997 -20.000000000000004 0.2535663912316393
  endloop
endfacet
facet normal -1.8941195635531687e-16 -1.0 1.2184678624818223e-16
  outer loop
    vertex -2.1500000000000004 -20.0 5.100000000000003
    vertex 2.299999999999997 -20.000000000000004 0.2535663912316393
    vertex 2.3344555433772327 -20.000000000000004 0.4250000000000019
  endloop
endfacet
facet normal -1.8941195635531687e-16 -1.0 1.2184678624818223e-16
  outer loop
    vertex -2.1500000000000004 -20.0 5.100000000000003
    vertex 2.3344555433772327 -20.000000000000004 0.4250000000000019
    vertex 2.299999999999997 -20.0 0.5535898384862364
  endloop
endfacet
facet normal -1.8941195635531687e-16 -1.0 1.2184678624818223e-16
  outer loop
    vertex -2.1500000000000004 -20.0 5.100000000000003
    vertex 2.299999999999997 -20.0 0.5535898384862364
    vertex 2.1000000000000005 -20.0 1.3000000000000018
  endloop
endfacet
facet normal -1.8941195635531687e-16 -1.0 1.2184678624818223e-16
  outer loop
    vertex -2.1500000000000004 -20.0 5.100000000000003
    vertex 2.1000000000000005 -20.0 1.3000000000000018
    vertex 2.3344555433772327 -20.0 2.175000000000002
  endloop
endfacet
facet normal -1.8941195635531687e-16 -1.0 1.2184678624818223e-16
  outer loop
    vertex -2.1500000000000004 -20.0 5.100000000000003
    vertex 2.3344555433772327 -20.0 2.175000000000002
    vertex 2.975 -20.0 2.81554445662277
  endloop
endfacet
facet normal -1.8941195635531687e-16 -1.0 1.2184678624818223e-16
  outer loop
    vertex -2.1500000000000004 -20.0 5.100000000000003
    vertex 2.975 -20.0 2.81554445662277
    vertex 2.9750000000000014 -20.0 5.100000000000003
  endloop
endfacet
facet normal 5.265552203431795e-17 4.425696626984418e-16 1.0
  outer loop
    vertex 9.85 -20.0 5.100000000000003
    vertex 4.725 -19.0 5.100000000000003
    vertex 4.725 -20.0 5.100000000000003
  endloop
endfacet
facet normal 5.265552203431795e-17 4.425696626984418e-16 1.0
  outer loop
    vertex 4.725 -19.0 5.100000000000003
    vertex 9.85 -20.0 5.100000000000003
    vertex 8.850000000000001 -19.0 5.100000000000002
  endloop
endfacet
facet normal 5.265552203431795e-17 4.425696626984418e-16 1.0
  outer loop
    vertex 8.850000000000001 -19.0 5.100000000000002
    vertex 9.85 -20.0 5.100000000000003
    vertex 9.85 -19.0 5.100000000000003
  endloop
endfacet
facet normal -1.0 0.0 0.0
  outer loop
    vertex 4.725 -19.0 5.100000000000003
    vertex 4.725 -20.0 2.81554445662277
    vertex 4.725 -20.0 5.100000000000003
  endloop
endfacet
facet normal -1.0 0.0 0.0
  outer loop
    vertex 4.725 -20.0 2.81554445662277
    vertex 4.725 -19.0 5.100000000000003
    vertex 4.725 -19.0 2.8155444566227708
  endloop
endfacet
facet normal 1.0 -9.893903669687112e-17 -6.860524607450427e-16
  outer loop
    vertex 2.975 -19.0 2.8155444566227703
    vertex 2.9750000000000014 -20.0 5.100000000000003
    vertex 2.975 -20.0 2.81554445662277
  endloop
endfacet
facet normal 1.0 -9.893903669687112e-17 -6.860524607450427e-16
  outer loop
    vertex 2.9750000000000014 -20.0 5.100000000000003
    vertex 2.975 -19.0 2.8155444566227703
    vertex 2.9750000000000014 -19.0 5.100000000000003
  endloop
endfacet
facet normal 0.0 1.0 0.0
  outer loop
    vertex -2.1500000000000004 29.999999999999996 5.100000000000002
    vertex 1.299999999999999 29.999999999999996 -2.4999999999999996
    vertex -2.1500000000000004 29.999999999999996 -2.4999999999999996
  endloop
endfacet
facet normal 0.0 1.0 0.0
  outer loop
    vertex 1.299999999999999 29.999999999999996 -2.4999999999999996
    vertex -2.1500000000000004 29.999999999999996 5.100000000000002
    vertex 1.299999999999999 29.999999999999996 -0.07499999999999775
  endloop
endfacet
facet normal 0.0 1.0 0.0
  outer loop
    vertex 1.299999999999999 29.999999999999996 -0.07499999999999775
    vertex -2.1500000000000004 29.999999999999996 5.100000000000002
    vertex 1.4684301395927937 29.999999999999996 -0.07499999999999775
  endloop
endfacet
facet normal 0.0 1.0 0.0
  outer loop
    vertex 1.4684301395927937 29.999999999999996 -0.07499999999999775
    vertex -2.1500000000000004 29.999999999999996 5.100000000000002
    vertex 1.299999999999999 29.999999999999996 0.5535898384862309
  endloop
endfacet
facet normal 0.0 1.0 0.0
  outer loop
    vertex 1.299999999999999 29.999999999999996 0.5535898384862309
    vertex -2.1500000000000004 29.999999999999996 5.100000000000002
    vertex 1.0999999999999994 29.999999999999996 1.3000000000000014
  endloop
endfacet
facet normal 0.0 1.0 0.0
  outer loop
    vertex 1.0999999999999994 29.999999999999996 1.3000000000000014
    vertex -2.1500000000000004 29.999999999999996 5.100000000000002
    vertex 1.4684301395927937 29.999999999999996 2.675000000000001
  endloop
endfacet
facet normal 0.0 1.0 0.0
  outer loop
    vertex 1.4684301395927937 29.999999999999996 2.675000000000001
    vertex -2.1500000000000004 29.999999999999996 5.100000000000002
    vertex 1.4684301395927937 29.999999999999996 5.100000000000002
  endloop
endfacet
facet normal 0.0 0.0 -1.0
  outer loop
    vertex 1.299999999999999 29.999999999999996 -2.4999999999999996
    vertex -2.1500000000000004 -20.0 -2.4999999999999996
    vertex -2.1500000000000004 29.999999999999996 -2.4999999999999996
  endloop
endfacet
facet normal 0.0 0.0 -1.0
  outer loop
    vertex -2.1500000000000004 -20.0 -2.4999999999999996
    vertex 1.299999999999999 29.999999999999996 -2.4999999999999996
    vertex 2.299999999999997 -20.0 -2.499999999999999
  endloop
endfacet
facet normal 0.0 0.0 -1.0
  outer loop
    vertex 6.399999999999994 31.199999999999992 -2.499999999999999
    vertex 1.299999999999999 29.999999999999996 -2.4999999999999996
    vertex 1.299999999999999 31.199999999999992 -2.4999999999999996
  endloop
endfacet
facet normal 0.0 0.0 -1.0
  outer loop
    vertex 1.299999999999999 29.999999999999996 -2.4999999999999996
    vertex 6.399999999999994 31.199999999999992 -2.499999999999999
    vertex 2.299999999999997 -20.0 -2.499999999999999
  endloop
endfacet
facet normal 0.0 0.0 -1.0
  outer loop
    vertex 2.299999999999997 -20.0 -2.499999999999999
    vertex 6.399999999999994 31.199999999999992 -2.499999999999999
    vertex 2.299999999999997 -21.193804 -2.499999999999999
  endloop
endfacet
facet normal 0.0 0.0 -1.0
  outer loop
    vertex 2.299999999999997 -21.193804 -2.499999999999999
    vertex 6.399999999999994 31.199999999999992 -2.499999999999999
    vertex 5.400000000000003 -20.0 -2.499999999999999
  endloop
endfacet
facet normal 0.0 0.0 -1.0
  outer loop
    vertex 5.400000000000003 -20.0 -2.499999999999999
    vertex 6.399999999999994 31.199999999999992 -2.499999999999999
    vertex 6.399999999999994 29.999999999999996 -2.499999999999999
  endloop
endfacet
facet normal 0.0 0.0 -1.0
  outer loop
    vertex 5.400000000000003 -20.0 -2.499999999999999
    vertex 6.399999999999994 29.999999999999996 -2.499999999999999
    vertex 9.85 -20.0 -2.4999999999999996
  endloop
endfacet
facet normal 0.0 0.0 -1.0
  outer loop
    vertex 9.85 -20.0 -2.4999999999999996
    vertex 6.399999999999994 29.999999999999996 -2.499999999999999
    vertex 9.85 29.999999999999996 -2.4999999999999996
  endloop
endfacet
facet normal 0.0 0.0 -1.0
  outer loop
    vertex 5.400000000000003 -21.193804 -2.499999999999999
    vertex 2.299999999999997 -21.193804 -2.499999999999999
    vertex 5.400000000000003 -20.0 -2.499999999999999
  endloop
endfacet
facet normal 0.0 1.0 0.0
  outer loop
    vertex 1.299999999999999 31.199999999999992 -2.4999999999999996
    vertex 2.4749999999999996 31.199999999999992 -1.0815698604072046
    vertex 6.399999999999994 31.199999999999992 -2.499999999999999
  endloop
endfacet
facet normal 0.0 1.0 0.0
  outer loop
    vertex 2.4749999999999996 31.199999999999992 -1.0815698604072046
    vertex 1.299999999999999 31.199999999999992 -2.4999999999999996
    vertex 1.299999999999999 31.199999999999992 -0.07499999999999775
  endloop
endfacet
facet normal 0.0 1.0 0.0
  outer loop
    vertex 6.399999999999994 31.199999999999992 -2.499999999999999
    vertex 2.4749999999999996 31.199999999999992 -1.0815698604072046
    vertex 3.8500000000000005 31.199999999999992 -1.4499999999999984
  endloop
endfacet
facet normal 0.0 1.0 0.0
  outer loop
    vertex 2.4749999999999996 31.199999999999992 -1.0815698604072046
    vertex 1.299999999999999 31.199999999999992 -0.07499999999999775
    vertex 1.4684301395927937 31.199999999999992 -0.07499999999999775
  endloop
endfacet
facet normal 0.0 1.0 0.0
  outer loop
    vertex 6.399999999999994 31.199999999999992 -2.499999999999999
    vertex 5.225000000000001 31.199999999999992 -1.0815698604072044
    vertex 6.399999999999994 31.199999999999992 -0.07499999999999696
  endloop
endfacet
facet normal 0.0 1.0 0.0
  outer loop
    vertex 5.225000000000001 31.199999999999992 -1.0815698604072044
    vertex 6.399999999999994 31.199999999999992 -2.499999999999999
    vertex 3.8500000000000005 31.199999999999992 -1.4499999999999984
  endloop
endfacet
facet normal 0.0 1.0 0.0
  outer loop
    vertex 6.399999999999994 31.199999999999992 -0.07499999999999696
    vertex 5.225000000000001 31.199999999999992 -1.0815698604072044
    vertex 6.231569860407208 31.199999999999992 -0.07499999999999686
  endloop
endfacet
facet normal 1.0 0.0 0.0
  outer loop
    vertex 6.399999999999994 31.199999999999992 -2.499999999999999
    vertex 6.399999999999994 29.999999999999996 -0.07499999999999696
    vertex 6.399999999999994 29.999999999999996 -2.499999999999999
  endloop
endfacet
facet normal 1.0 0.0 0.0
  outer loop
    vertex 6.399999999999994 29.999999999999996 -0.07499999999999696
    vertex 6.399999999999994 31.199999999999992 -2.499999999999999
    vertex 6.399999999999994 31.199999999999992 -0.07499999999999696
  endloop
endfacet
facet normal -1.0 0.0 0.0
  outer loop
    vertex 1.299999999999999 31.199999999999992 -0.07499999999999775
    vertex 1.299999999999999 29.999999999999996 -2.4999999999999996
    vertex 1.299999999999999 29.999999999999996 -0.07499999999999775
  endloop
endfacet
facet normal -1.0 0.0 0.0
  outer loop
    vertex 1.299999999999999 29.999999999999996 -2.4999999999999996
    vertex 1.299999999999999 31.199999999999992 -0.07499999999999775
    vertex 1.299999999999999 31.199999999999992 -2.4999999999999996
  endloop
endfacet
facet normal 5.232077393789449e-16 0.0 1.0
  outer loop
    vertex 6.399999999999994 29.999999999999996 -0.07499999999999696
    vertex 6.231569860407208 31.199999999999992 -0.07499999999999686
    vertex 6.231569860407208 29.999999999999996 -0.07499999999999686
  endloop
endfacet
facet normal 5.232077393789449e-16 0.0 1.0
  outer loop
    vertex 6.231569860407208 31.199999999999992 -0.07499999999999686
    vertex 6.399999999999994 29.999999999999996 -0.07499999999999696
    vertex 6.399999999999994 31.199999999999992 -0.07499999999999696
  endloop
endfacet
facet normal 0.0 0.0 1.0
  outer loop
    vertex 1.4684301395927937 29.999999999999996 -0.07499999999999775
    vertex 1.299999999999999 31.199999999999992 -0.07499999999999775
    vertex 1.299999999999999 29.999999999999996 -0.07499999999999775
  endloop
endfacet
facet normal 0.0 0.0 1.0
  outer loop
    vertex 1.299999999999999 31.199999999999992 -0.07499999999999775
    vertex 1.4684301395927937 29.999999999999996 -0.07499999999999775
    vertex 1.4684301395927937 31.199999999999992 -0.07499999999999775
  endloop
endfacet
facet normal 0.0 -1.0 0.0
  outer loop
    vertex 9.85 -20.0 5.100000000000003
    vertex 5.400000000000003 -20.0 -2.499999999999999
    vertex 9.85 -20.0 -2.4999999999999996
  endloop
endfacet
facet normal 0.0 -1.0 0.0
  outer loop
    vertex 5.400000000000003 -20.0 -2.499999999999999
    vertex 9.85 -20.0 5.100000000000003
    vertex 5.400000000000003 -20.0 0.2535663912316393
  endloop
endfacet
facet normal 0.0 -1.0 0.0
  outer loop
    vertex 5.400000000000003 -20.0 0.2535663912316393
    vertex 9.85 -20.0 5.100000000000003
    vertex 5.365544456622767 -20.0 0.4250000000000008
  endloop
endfacet
facet normal 0.0 -1.0 0.0
  outer loop
    vertex 5.400000000000003 -20.0 0.2535663912316393
    vertex 5.365544456622767 -20.0 0.4250000000000008
    vertex 5.194110847854406 -20.0 0.2535663912316394
  endloop
endfacet
facet normal 0.0 -1.0 0.0
  outer loop
    vertex 5.365544456622767 -20.0 0.4250000000000008
    vertex 9.85 -20.0 5.100000000000003
    vertex 5.400000000000003 -20.0 0.5535898384862374
  endloop
endfacet
facet normal 0.0 -1.0 0.0
  outer loop
    vertex 5.400000000000003 -20.0 0.5535898384862374
    vertex 9.85 -20.0 5.100000000000003
    vertex 5.6000000000000005 -20.0 1.3000000000000014
  endloop
endfacet
facet normal 0.0 -1.0 0.0
  outer loop
    vertex 5.6000000000000005 -20.0 1.3000000000000014
    vertex 9.85 -20.0 5.100000000000003
    vertex 5.365544456622768 -20.0 2.175000000000002
  endloop
endfacet
facet normal 0.0 -1.0 0.0
  outer loop
    vertex 5.365544456622768 -20.0 2.175000000000002
    vertex 9.85 -20.0 5.100000000000003
    vertex 4.725 -20.0 2.81554445662277
  endloop
endfacet
facet normal 0.0 -1.0 0.0
  outer loop
    vertex 4.725 -20.0 2.81554445662277
    vertex 9.85 -20.0 5.100000000000003
    vertex 4.725 -20.0 5.100000000000003
  endloop
endfacet
facet normal 0.0 -1.0 0.0
  outer loop
    vertex 5.400000000000003 -21.193804 0.2535663912316393
    vertex 2.299999999999997 -21.193804 -2.499999999999999
    vertex 5.400000000000003 -21.193804 -2.499999999999999
  endloop
endfacet
facet normal 0.0 -1.0 0.0
  outer loop
    vertex 2.299999999999997 -21.193804 -2.499999999999999
    vertex 5.400000000000003 -21.193804 0.2535663912316393
    vertex 4.724999999999999 -21.193804 -0.2155444566227669
  endloop
endfacet
facet normal 0.0 -1.0 0.0
  outer loop
    vertex 2.299999999999997 -21.193804 -2.499999999999999
    vertex 4.724999999999999 -21.193804 -0.2155444566227669
    vertex 3.849999999999999 -21.193804 -0.4499999999999986
  endloop
endfacet
facet normal 0.0 -1.0 0.0
  outer loop
    vertex 4.724999999999999 -21.193804 -0.2155444566227669
    vertex 5.400000000000003 -21.193804 0.2535663912316393
    vertex 5.194110847854406 -21.193804 0.2535663912316394
  endloop
endfacet
facet normal 0.0 -1.0 0.0
  outer loop
    vertex 2.299999999999997 -21.193804 -2.499999999999999
    vertex 2.9749999999999988 -21.193804 -0.215544456622766
    vertex 2.299999999999997 -21.193804 0.2535663912316393
  endloop
endfacet
facet normal 0.0 -1.0 0.0
  outer loop
    vertex 2.9749999999999988 -21.193804 -0.215544456622766
    vertex 2.299999999999997 -21.193804 -2.499999999999999
    vertex 3.849999999999999 -21.193804 -0.4499999999999986
  endloop
endfacet
facet normal 0.0 -1.0 0.0
  outer loop
    vertex 2.299999999999997 -21.193804 0.2535663912316393
    vertex 2.9749999999999988 -21.193804 -0.215544456622766
    vertex 2.5058891521455946 -21.193804 0.2535663912316393
  endloop
endfacet
facet normal -1.0 0.0 0.0
  outer loop
    vertex 2.299999999999997 -20.000000000000004 0.2535663912316393
    vertex 2.299999999999997 -21.193804 -2.499999999999999
    vertex 2.299999999999997 -21.193804 0.2535663912316393
  endloop
endfacet
facet normal -1.0 0.0 0.0
  outer loop
    vertex 2.299999999999997 -21.193804 -2.499999999999999
    vertex 2.299999999999997 -20.000000000000004 0.2535663912316393
    vertex 2.299999999999997 -20.0 -2.499999999999999
  endloop
endfacet
facet normal 1.0 0.0 0.0
  outer loop
    vertex 5.400000000000003 -20.0 -2.499999999999999
    vertex 5.400000000000003 -21.193804 0.2535663912316393
    vertex 5.400000000000003 -21.193804 -2.499999999999999
  endloop
endfacet
facet normal 1.0 0.0 0.0
  outer loop
    vertex 5.400000000000003 -21.193804 0.2535663912316393
    vertex 5.400000000000003 -20.0 -2.499999999999999
    vertex 5.400000000000003 -20.0 0.2535663912316393
  endloop
endfacet
facet normal 0.0 0.0 1.0
  outer loop
    vertex 2.5058891521455946 -21.193804 0.2535663912316393
    vertex 2.299999999999997 -20.000000000000004 0.2535663912316393
    vertex 2.299999999999997 -21.193804 0.2535663912316393
  endloop
endfacet
facet normal 0.0 0.0 1.0
  outer loop
    vertex 2.299999999999997 -20.000000000000004 0.2535663912316393
    vertex 2.5058891521455946 -21.193804 0.2535663912316393
    vertex 2.5058891521455946 -20.000000000000004 0.2535663912316393
  endloop
endfacet
facet normal 2.140082458479982e-16 0.0 1.0
  outer loop
    vertex 5.400000000000003 -21.193804 0.2535663912316393
    vertex 5.194110847854406 -20.0 0.2535663912316394
    vertex 5.194110847854406 -21.193804 0.2535663912316394
  endloop
endfacet
facet normal 2.140082458479982e-16 0.0 1.0
  outer loop
    vertex 5.194110847854406 -20.0 0.2535663912316394
    vertex 5.400000000000003 -21.193804 0.2535663912316393
    vertex 5.400000000000003 -20.0 0.2535663912316393
  endloop
endfacet
endsolid wire_box
