solid salon_case
facet normal -0.0 -1.0 -0.0
  outer loop
    vertex 69.00000000000088 -144.99999999997894 7.499999999999997
    vertex 59.000000000001755 -144.99999999997894 5.9999999999999964
    vertex 69.00000000000088 -144.99999999997894 5.9999999999999964
  endloop
endfacet
facet normal -0.0 -1.0 -0.0
  outer loop
    vertex 59.000000000001755 -144.99999999997894 5.9999999999999964
    vertex 69.00000000000088 -144.99999999997894 7.499999999999997
    vertex 58.490520024910126 -144.99999999997894 6.579981837344106
  endloop
endfacet
facet normal -0.0 -1.0 -0.0
  outer loop
    vertex 58.490520024910126 -144.99999999997894 6.579981837344106
    vertex 69.00000000000088 -144.99999999997894 7.499999999999997
    vertex 57.89783320426726 -144.99999999997894 7.074624242829802
  endloop
endfacet
facet normal -0.0 -1.0 -0.0
  outer loop
    vertex 57.89783320426726 -144.99999999997894 7.074624242829802
    vertex 69.00000000000088 -144.99999999997894 7.499999999999997
    vertex 57.23606797750155 -144.99999999997894 7.472135954999578
  endloop
endfacet
facet normal -0.0 -1.0 -0.0
  outer loop
    vertex 57.23606797750155 -144.99999999997894 7.472135954999578
    vertex 69.00000000000088 -144.99999999997894 7.499999999999997
    vertex 57.167575890846116 -144.99999999997894 7.499999999999997
  endloop
endfacet
facet normal -0.0 -1.0 -0.0
  outer loop
    vertex 57.167575890846116 -144.99999999997894 7.499999999999997
    vertex 69.00000000000088 -144.99999999997894 7.499999999999997
    vertex 59.000000000001755 -144.99999999997894 7.499999999999997
  endloop
endfacet
facet normal -0.0 -1.0 -0.0
  outer loop
    vertex 57.167575890846116 -144.99999999997894 7.499999999999997
    vertex 59.000000000001755 -144.99999999997894 7.499999999999997
    vertex 58.490520024910126 -144.99999999997894 8.079981837344107
  endloop
endfacet
facet normal -0.0 -1.0 -0.0
  outer loop
    vertex 57.167575890846116 -144.99999999997894 7.499999999999997
    vertex 58.490520024910126 -144.99999999997894 8.079981837344107
    vertex 56.520999471706304 -144.99999999997894 7.763041109110281
  endloop
endfacet
facet normal -0.0 -1.0 -0.0
  outer loop
    vertex 56.520999471706304 -144.99999999997894 7.763041109110281
    vertex 58.490520024910126 -144.99999999997894 8.079981837344107
    vertex 55.769673454932025 -144.99999999997894 7.940405122333154
  endloop
endfacet
facet normal -0.0 -1.0 -0.0
  outer loop
    vertex 55.769673454932025 -144.99999999997894 7.940405122333154
    vertex 58.490520024910126 -144.99999999997894 8.079981837344107
    vertex 55.00000000000176 -144.99999999997894 7.9999999999999964
  endloop
endfacet
facet normal -0.0 -1.0 -0.0
  outer loop
    vertex 55.00000000000176 -144.99999999997894 7.9999999999999964
    vertex 58.490520024910126 -144.99999999997894 8.079981837344107
    vertex 51.50947997509339 -144.99999999997894 8.079981837344103
  endloop
endfacet
facet normal -0.0 -1.0 -0.0
  outer loop
    vertex 51.50947997509339 -144.99999999997894 8.079981837344103
    vertex 58.490520024910126 -144.99999999997894 8.079981837344107
    vertex 52.10216679573625 -144.99999999997894 8.574624242829799
  endloop
endfacet
facet normal -0.0 -1.0 -0.0
  outer loop
    vertex 52.10216679573625 -144.99999999997894 8.574624242829799
    vertex 58.490520024910126 -144.99999999997894 8.079981837344107
    vertex 57.89783320426726 -144.99999999997894 8.5746242428298
  endloop
endfacet
facet normal -0.0 -1.0 -0.0
  outer loop
    vertex 52.10216679573625 -144.99999999997894 8.574624242829799
    vertex 57.89783320426726 -144.99999999997894 8.5746242428298
    vertex 52.763932022501976 -144.99999999997894 8.972135954999576
  endloop
endfacet
facet normal -0.0 -1.0 -0.0
  outer loop
    vertex 52.763932022501976 -144.99999999997894 8.972135954999576
    vertex 57.89783320426726 -144.99999999997894 8.5746242428298
    vertex 57.23606797750155 -144.99999999997894 8.972135954999578
  endloop
endfacet
facet normal -0.0 -1.0 -0.0
  outer loop
    vertex 52.763932022501976 -144.99999999997894 8.972135954999576
    vertex 57.23606797750155 -144.99999999997894 8.972135954999578
    vertex 53.47900052829722 -144.99999999997894 9.263041109110278
  endloop
endfacet
facet normal -0.0 -1.0 -0.0
  outer loop
    vertex 53.47900052829722 -144.99999999997894 9.263041109110278
    vertex 57.23606797750155 -144.99999999997894 8.972135954999578
    vertex 56.520999471706304 -144.99999999997894 9.263041109110281
  endloop
endfacet
facet normal -0.0 -1.0 -0.0
  outer loop
    vertex 53.47900052829722 -144.99999999997894 9.263041109110278
    vertex 56.520999471706304 -144.99999999997894 9.263041109110281
    vertex 54.230326545071485 -144.99999999997894 9.440405122333155
  endloop
endfacet
facet normal -0.0 -1.0 -0.0
  outer loop
    vertex 54.230326545071485 -144.99999999997894 9.440405122333155
    vertex 56.520999471706304 -144.99999999997894 9.263041109110281
    vertex 55.769673454932025 -144.99999999997894 9.440405122333155
  endloop
endfacet
facet normal -0.0 -1.0 -0.0
  outer loop
    vertex 54.230326545071485 -144.99999999997894 9.440405122333155
    vertex 55.769673454932025 -144.99999999997894 9.440405122333155
    vertex 55.00000000000176 -144.99999999997894 9.499999999999996
  endloop
endfacet
facet normal -0.0 -1.0 -0.0
  outer loop
    vertex 53.47900052829722 -144.99999999997894 7.7630411091102784
    vertex 51.000000000001755 -144.99999999997894 7.499999999999997
    vertex 52.832424109157415 -144.99999999997894 7.499999999999997
  endloop
endfacet
facet normal -0.0 -1.0 -0.0
  outer loop
    vertex 51.000000000001755 -144.99999999997894 7.499999999999997
    vertex 53.47900052829722 -144.99999999997894 7.7630411091102784
    vertex 51.50947997509339 -144.99999999997894 8.079981837344103
  endloop
endfacet
facet normal -0.0 -1.0 -0.0
  outer loop
    vertex 51.50947997509339 -144.99999999997894 8.079981837344103
    vertex 53.47900052829722 -144.99999999997894 7.7630411091102784
    vertex 54.230326545071485 -144.99999999997894 7.940405122333154
  endloop
endfacet
facet normal -0.0 -1.0 -0.0
  outer loop
    vertex 51.50947997509339 -144.99999999997894 8.079981837344103
    vertex 54.230326545071485 -144.99999999997894 7.940405122333154
    vertex 55.00000000000176 -144.99999999997894 7.9999999999999964
  endloop
endfacet
facet normal -0.0 -1.0 -0.0
  outer loop
    vertex 51.50947997509339 -144.99999999997894 6.5799818373441035
    vertex 41.00000000000264 -144.99999999997894 5.9999999999999964
    vertex 51.000000000001755 -144.99999999997894 5.9999999999999964
  endloop
endfacet
facet normal -0.0 -1.0 -0.0
  outer loop
    vertex 41.00000000000264 -144.99999999997894 5.9999999999999964
    vertex 51.50947997509339 -144.99999999997894 6.5799818373441035
    vertex 41.00000000000264 -144.99999999997894 7.499999999999997
  endloop
endfacet
facet normal -0.0 -1.0 -0.0
  outer loop
    vertex 41.00000000000264 -144.99999999997894 7.499999999999997
    vertex 51.50947997509339 -144.99999999997894 6.5799818373441035
    vertex 52.10216679573625 -144.99999999997894 7.074624242829798
  endloop
endfacet
facet normal -0.0 -1.0 -0.0
  outer loop
    vertex 41.00000000000264 -144.99999999997894 7.499999999999997
    vertex 52.10216679573625 -144.99999999997894 7.074624242829798
    vertex 52.763932022501976 -144.99999999997894 7.472135954999575
  endloop
endfacet
facet normal -0.0 -1.0 -0.0
  outer loop
    vertex 41.00000000000264 -144.99999999997894 7.499999999999997
    vertex 52.763932022501976 -144.99999999997894 7.472135954999575
    vertex 52.832424109157415 -144.99999999997894 7.499999999999997
  endloop
endfacet
facet normal -0.0 -1.0 -0.0
  outer loop
    vertex 41.00000000000264 -144.99999999997894 7.499999999999997
    vertex 52.832424109157415 -144.99999999997894 7.499999999999997
    vertex 51.000000000001755 -144.99999999997894 7.499999999999997
  endloop
endfacet
facet normal 0.0 1.0 0.0
  outer loop
    vertex 41.00000000000264 -136.99999999997894 7.499999999999997
    vertex 51.000000000001755 -136.99999999997894 5.9999999999999964
    vertex 41.00000000000264 -136.99999999997894 5.9999999999999964
  endloop
endfacet
facet normal 0.0 1.0 0.0
  outer loop
    vertex 51.000000000001755 -136.99999999997894 5.9999999999999964
    vertex 41.00000000000264 -136.99999999997894 7.499999999999997
    vertex 51.50947997509339 -136.99999999997894 6.5799818373441035
  endloop
endfacet
facet normal 0.0 1.0 0.0
  outer loop
    vertex 51.50947997509339 -136.99999999997894 6.5799818373441035
    vertex 41.00000000000264 -136.99999999997894 7.499999999999997
    vertex 52.10216679573625 -136.99999999997894 7.074624242829798
  endloop
endfacet
facet normal 0.0 1.0 0.0
  outer loop
    vertex 52.10216679573625 -136.99999999997894 7.074624242829798
    vertex 41.00000000000264 -136.99999999997894 7.499999999999997
    vertex 52.763932022501976 -136.99999999997894 7.472135954999575
  endloop
endfacet
facet normal 0.0 1.0 0.0
  outer loop
    vertex 52.763932022501976 -136.99999999997894 7.472135954999575
    vertex 41.00000000000264 -136.99999999997894 7.499999999999997
    vertex 52.832424109157415 -136.99999999997894 7.499999999999997
  endloop
endfacet
facet normal 0.0 1.0 0.0
  outer loop
    vertex 52.832424109157415 -136.99999999997894 7.499999999999997
    vertex 41.00000000000264 -136.99999999997894 7.499999999999997
    vertex 51.000000000001755 -136.99999999997894 7.499999999999997
  endloop
endfacet
facet normal 0.0 1.0 0.0
  outer loop
    vertex 52.832424109157415 -136.99999999997894 7.499999999999997
    vertex 51.000000000001755 -136.99999999997894 7.499999999999997
    vertex 51.50947997509339 -136.99999999997894 8.079981837344103
  endloop
endfacet
facet normal 0.0 1.0 0.0
  outer loop
    vertex 52.832424109157415 -136.99999999997894 7.499999999999997
    vertex 51.50947997509339 -136.99999999997894 8.079981837344103
    vertex 53.47900052829722 -136.99999999997894 7.7630411091102784
  endloop
endfacet
facet normal 0.0 1.0 0.0
  outer loop
    vertex 53.47900052829722 -136.99999999997894 7.7630411091102784
    vertex 51.50947997509339 -136.99999999997894 8.079981837344103
    vertex 54.230326545071485 -136.99999999997894 7.940405122333154
  endloop
endfacet
facet normal 0.0 1.0 0.0
  outer loop
    vertex 54.230326545071485 -136.99999999997894 7.940405122333154
    vertex 51.50947997509339 -136.99999999997894 8.079981837344103
    vertex 55.00000000000176 -136.99999999997894 7.9999999999999964
  endloop
endfacet
facet normal 0.0 1.0 0.0
  outer loop
    vertex 56.520999471706304 -136.99999999997894 7.763041109110281
    vertex 59.000000000001755 -136.99999999997894 7.499999999999997
    vertex 57.167575890846116 -136.99999999997894 7.499999999999997
  endloop
endfacet
facet normal 0.0 1.0 0.0
  outer loop
    vertex 59.000000000001755 -136.99999999997894 7.499999999999997
    vertex 56.520999471706304 -136.99999999997894 7.763041109110281
    vertex 58.490520024910126 -136.99999999997894 8.079981837344107
  endloop
endfacet
facet normal 0.0 1.0 0.0
  outer loop
    vertex 58.490520024910126 -136.99999999997894 8.079981837344107
    vertex 56.520999471706304 -136.99999999997894 7.763041109110281
    vertex 55.769673454932025 -136.99999999997894 7.940405122333154
  endloop
endfacet
facet normal 0.0 1.0 0.0
  outer loop
    vertex 58.490520024910126 -136.99999999997894 8.079981837344107
    vertex 55.769673454932025 -136.99999999997894 7.940405122333154
    vertex 55.00000000000176 -136.99999999997894 7.9999999999999964
  endloop
endfacet
facet normal 0.0 1.0 0.0
  outer loop
    vertex 58.490520024910126 -136.99999999997894 8.079981837344107
    vertex 55.00000000000176 -136.99999999997894 7.9999999999999964
    vertex 51.50947997509339 -136.99999999997894 8.079981837344103
  endloop
endfacet
facet normal 0.0 1.0 0.0
  outer loop
    vertex 58.490520024910126 -136.99999999997894 8.079981837344107
    vertex 51.50947997509339 -136.99999999997894 8.079981837344103
    vertex 52.10216679573625 -136.99999999997894 8.574624242829799
  endloop
endfacet
facet normal 0.0 1.0 0.0
  outer loop
    vertex 58.490520024910126 -136.99999999997894 8.079981837344107
    vertex 52.10216679573625 -136.99999999997894 8.574624242829799
    vertex 57.89783320426726 -136.99999999997894 8.5746242428298
  endloop
endfacet
facet normal 0.0 1.0 0.0
  outer loop
    vertex 57.89783320426726 -136.99999999997894 8.5746242428298
    vertex 52.10216679573625 -136.99999999997894 8.574624242829799
    vertex 52.763932022501976 -136.99999999997894 8.972135954999576
  endloop
endfacet
facet normal 0.0 1.0 0.0
  outer loop
    vertex 57.89783320426726 -136.99999999997894 8.5746242428298
    vertex 52.763932022501976 -136.99999999997894 8.972135954999576
    vertex 57.23606797750155 -136.99999999997894 8.972135954999578
  endloop
endfacet
facet normal 0.0 1.0 0.0
  outer loop
    vertex 57.23606797750155 -136.99999999997894 8.972135954999578
    vertex 52.763932022501976 -136.99999999997894 8.972135954999576
    vertex 53.47900052829722 -136.99999999997894 9.263041109110278
  endloop
endfacet
facet normal 0.0 1.0 0.0
  outer loop
    vertex 57.23606797750155 -136.99999999997894 8.972135954999578
    vertex 53.47900052829722 -136.99999999997894 9.263041109110278
    vertex 56.520999471706304 -136.99999999997894 9.263041109110281
  endloop
endfacet
facet normal 0.0 1.0 0.0
  outer loop
    vertex 56.520999471706304 -136.99999999997894 9.263041109110281
    vertex 53.47900052829722 -136.99999999997894 9.263041109110278
    vertex 54.230326545071485 -136.99999999997894 9.440405122333155
  endloop
endfacet
facet normal 0.0 1.0 0.0
  outer loop
    vertex 56.520999471706304 -136.99999999997894 9.263041109110281
    vertex 54.230326545071485 -136.99999999997894 9.440405122333155
    vertex 55.769673454932025 -136.99999999997894 9.440405122333155
  endloop
endfacet
facet normal 0.0 1.0 0.0
  outer loop
    vertex 55.769673454932025 -136.99999999997894 9.440405122333155
    vertex 54.230326545071485 -136.99999999997894 9.440405122333155
    vertex 55.00000000000176 -136.99999999997894 9.499999999999996
  endloop
endfacet
facet normal 0.0 1.0 0.0
  outer loop
    vertex 58.490520024910126 -136.99999999997894 6.579981837344106
    vertex 69.00000000000088 -136.99999999997894 5.9999999999999964
    vertex 59.000000000001755 -136.99999999997894 5.9999999999999964
  endloop
endfacet
facet normal 0.0 1.0 0.0
  outer loop
    vertex 69.00000000000088 -136.99999999997894 5.9999999999999964
    vertex 58.490520024910126 -136.99999999997894 6.579981837344106
    vertex 69.00000000000088 -136.99999999997894 7.499999999999997
  endloop
endfacet
facet normal 0.0 1.0 0.0
  outer loop
    vertex 69.00000000000088 -136.99999999997894 7.499999999999997
    vertex 58.490520024910126 -136.99999999997894 6.579981837344106
    vertex 57.89783320426726 -136.99999999997894 7.074624242829802
  endloop
endfacet
facet normal 0.0 1.0 0.0
  outer loop
    vertex 69.00000000000088 -136.99999999997894 7.499999999999997
    vertex 57.89783320426726 -136.99999999997894 7.074624242829802
    vertex 57.23606797750155 -136.99999999997894 7.472135954999578
  endloop
endfacet
facet normal 0.0 1.0 0.0
  outer loop
    vertex 69.00000000000088 -136.99999999997894 7.499999999999997
    vertex 57.23606797750155 -136.99999999997894 7.472135954999578
    vertex 57.167575890846116 -136.99999999997894 7.499999999999997
  endloop
endfacet
facet normal 0.0 1.0 0.0
  outer loop
    vertex 69.00000000000088 -136.99999999997894 7.499999999999997
    vertex 57.167575890846116 -136.99999999997894 7.499999999999997
    vertex 59.000000000001755 -136.99999999997894 7.499999999999997
  endloop
endfacet
facet normal -0.37683128355484224 0.0 -0.9262819137467871
  outer loop
    vertex 57.23606797750155 -136.99999999997894 7.472135954999578
    vertex 57.167575890846116 -144.99999999997894 7.499999999999997
    vertex 57.167575890846116 -136.99999999997894 7.499999999999997
  endloop
endfacet
facet normal -0.37683128355484224 0.0 -0.9262819137467871
  outer loop
    vertex 57.167575890846116 -144.99999999997894 7.499999999999997
    vertex 57.23606797750155 -136.99999999997894 7.472135954999578
    vertex 57.23606797750155 -144.99999999997894 7.472135954999578
  endloop
endfacet
facet normal -0.3768312835548436 0.0 -0.9262819137467864
  outer loop
    vertex 57.167575890846116 -136.99999999997894 7.499999999999997
    vertex 56.520999471706304 -144.99999999997894 7.763041109110281
    vertex 56.520999471706304 -136.99999999997894 7.763041109110281
  endloop
endfacet
facet normal -0.3768312835548436 0.0 -0.9262819137467864
  outer loop
    vertex 56.520999471706304 -144.99999999997894 7.763041109110281
    vertex 57.167575890846116 -136.99999999997894 7.499999999999997
    vertex 57.167575890846116 -144.99999999997894 7.499999999999997
  endloop
endfacet
facet normal -0.22975292054735663 0.0 -0.9732489894677312
  outer loop
    vertex 56.520999471706304 -136.99999999997894 7.763041109110281
    vertex 55.769673454932025 -144.99999999997894 7.940405122333154
    vertex 55.769673454932025 -136.99999999997894 7.940405122333154
  endloop
endfacet
facet normal -0.22975292054735663 0.0 -0.9732489894677312
  outer loop
    vertex 55.769673454932025 -144.99999999997894 7.940405122333154
    vertex 56.520999471706304 -136.99999999997894 7.763041109110281
    vertex 56.520999471706304 -144.99999999997894 7.763041109110281
  endloop
endfacet
facet normal -0.0771977186624339 0.0 -0.99701580340199
  outer loop
    vertex 55.769673454932025 -136.99999999997894 7.940405122333154
    vertex 55.00000000000176 -144.99999999997894 7.9999999999999964
    vertex 55.00000000000176 -136.99999999997894 7.9999999999999964
  endloop
endfacet
facet normal -0.0771977186624339 0.0 -0.99701580340199
  outer loop
    vertex 55.00000000000176 -144.99999999997894 7.9999999999999964
    vertex 55.769673454932025 -136.99999999997894 7.940405122333154
    vertex 55.769673454932025 -144.99999999997894 7.940405122333154
  endloop
endfacet
facet normal 0.07719771866243279 0.0 -0.9970158034019901
  outer loop
    vertex 55.00000000000176 -136.99999999997894 7.9999999999999964
    vertex 54.230326545071485 -144.99999999997894 7.940405122333154
    vertex 54.230326545071485 -136.99999999997894 7.940405122333154
  endloop
endfacet
facet normal 0.07719771866243279 0.0 -0.9970158034019901
  outer loop
    vertex 54.230326545071485 -144.99999999997894 7.940405122333154
    vertex 55.00000000000176 -136.99999999997894 7.9999999999999964
    vertex 55.00000000000176 -144.99999999997894 7.9999999999999964
  endloop
endfacet
facet normal 0.22975292054736335 0.0 -0.9732489894677296
  outer loop
    vertex 54.230326545071485 -136.99999999997894 7.940405122333154
    vertex 53.47900052829722 -144.99999999997894 7.7630411091102784
    vertex 53.47900052829722 -136.99999999997894 7.7630411091102784
  endloop
endfacet
facet normal 0.22975292054736335 0.0 -0.9732489894677296
  outer loop
    vertex 53.47900052829722 -144.99999999997894 7.7630411091102784
    vertex 54.230326545071485 -136.99999999997894 7.940405122333154
    vertex 54.230326545071485 -144.99999999997894 7.940405122333154
  endloop
endfacet
facet normal 0.37683128355484585 0.0 -0.9262819137467856
  outer loop
    vertex 53.47900052829722 -136.99999999997894 7.7630411091102784
    vertex 52.832424109157415 -144.99999999997894 7.499999999999997
    vertex 52.832424109157415 -136.99999999997894 7.499999999999997
  endloop
endfacet
facet normal 0.37683128355484585 0.0 -0.9262819137467856
  outer loop
    vertex 52.832424109157415 -144.99999999997894 7.499999999999997
    vertex 53.47900052829722 -136.99999999997894 7.7630411091102784
    vertex 53.47900052829722 -144.99999999997894 7.7630411091102784
  endloop
endfacet
facet normal 0.3768312835548217 0.0 -0.9262819137467955
  outer loop
    vertex 52.832424109157415 -136.99999999997894 7.499999999999997
    vertex 52.763932022501976 -144.99999999997894 7.472135954999575
    vertex 52.763932022501976 -136.99999999997894 7.472135954999575
  endloop
endfacet
facet normal 0.3768312835548217 0.0 -0.9262819137467955
  outer loop
    vertex 52.763932022501976 -144.99999999997894 7.472135954999575
    vertex 52.832424109157415 -136.99999999997894 7.499999999999997
    vertex 52.832424109157415 -144.99999999997894 7.499999999999997
  endloop
endfacet
facet normal 0.5149267608645193 0.0 -0.8572341750919489
  outer loop
    vertex 52.763932022501976 -136.99999999997894 7.472135954999575
    vertex 52.10216679573625 -144.99999999997894 7.074624242829798
    vertex 52.10216679573625 -136.99999999997894 7.074624242829798
  endloop
endfacet
facet normal 0.5149267608645193 0.0 -0.8572341750919489
  outer loop
    vertex 52.10216679573625 -144.99999999997894 7.074624242829798
    vertex 52.763932022501976 -136.99999999997894 7.472135954999575
    vertex 52.763932022501976 -144.99999999997894 7.472135954999575
  endloop
endfacet
facet normal 0.6407474392457733 0.0 -0.7677517301185222
  outer loop
    vertex 52.10216679573625 -136.99999999997894 7.074624242829798
    vertex 51.50947997509339 -144.99999999997894 6.5799818373441035
    vertex 51.50947997509339 -136.99999999997894 6.5799818373441035
  endloop
endfacet
facet normal 0.6407474392457733 0.0 -0.7677517301185222
  outer loop
    vertex 51.50947997509339 -144.99999999997894 6.5799818373441035
    vertex 52.10216679573625 -136.99999999997894 7.074624242829798
    vertex 52.10216679573625 -144.99999999997894 7.074624242829798
  endloop
endfacet
facet normal 0.7512940115241281 0.0 -0.6599676569711453
  outer loop
    vertex 51.000000000001755 -136.99999999997894 5.9999999999999964
    vertex 51.50947997509339 -144.99999999997894 6.5799818373441035
    vertex 51.000000000001755 -144.99999999997894 5.9999999999999964
  endloop
endfacet
facet normal 0.7512940115241281 0.0 -0.6599676569711453
  outer loop
    vertex 51.50947997509339 -144.99999999997894 6.5799818373441035
    vertex 51.000000000001755 -136.99999999997894 5.9999999999999964
    vertex 51.50947997509339 -136.99999999997894 6.5799818373441035
  endloop
endfacet
facet normal 0.0 0.0 -1.0
  outer loop
    vertex 41.00000000000264 -136.99999999997894 5.9999999999999964
    vertex 45.50325706179201 -139.6734403228756 5.9999999999999964
    vertex 41.00000000000264 -144.99999999997894 5.9999999999999964
  endloop
endfacet
facet normal 0.0 0.0 -1.0
  outer loop
    vertex 45.50325706179201 -139.6734403228756 5.9999999999999964
    vertex 41.00000000000264 -136.99999999997894 5.9999999999999964
    vertex 45.897596249568615 -139.3312561697195 5.9999999999999964
  endloop
endfacet
facet normal 0.0 0.0 -1.0
  outer loop
    vertex 45.897596249568615 -139.3312561697195 5.9999999999999964
    vertex 41.00000000000264 -136.99999999997894 5.9999999999999964
    vertex 46.36706243112896 -139.10279415086603 5.9999999999999964
  endloop
endfacet
facet normal 0.0 0.0 -1.0
  outer loop
    vertex 46.36706243112896 -139.10279415086603 5.9999999999999964
    vertex 41.00000000000264 -136.99999999997894 5.9999999999999964
    vertex 51.000000000001755 -136.99999999997894 5.9999999999999964
  endloop
endfacet
facet normal 0.0 0.0 -1.0
  outer loop
    vertex 41.00000000000264 -144.99999999997894 5.9999999999999964
    vertex 45.50325706179201 -139.6734403228756 5.9999999999999964
    vertex 45.21091843176981 -140.10602732578272 5.9999999999999964
  endloop
endfacet
facet normal 0.0 0.0 -1.0
  outer loop
    vertex 41.00000000000264 -144.99999999997894 5.9999999999999964
    vertex 45.21091843176981 -140.10602732578272 5.9999999999999964
    vertex 45.04050275402559 -140.59953708907665 5.9999999999999964
  endloop
endfacet
facet normal 0.0 0.0 -1.0
  outer loop
    vertex 41.00000000000264 -144.99999999997894 5.9999999999999964
    vertex 45.04050275402559 -140.59953708907665 5.9999999999999964
    vertex 45.0036235753724 -141.12033773795233 5.9999999999999964
  endloop
endfacet
facet normal 0.0 0.0 -1.0
  outer loop
    vertex 46.36706243112896 -139.10279415086603 5.9999999999999964
    vertex 51.000000000001755 -136.99999999997894 5.9999999999999964
    vertex 46.87966226202926 -139.0036235753487 5.9999999999999964
  endloop
endfacet
facet normal 0.0 0.0 -1.0
  outer loop
    vertex 46.87966226202926 -139.0036235753487 5.9999999999999964
    vertex 51.000000000001755 -136.99999999997894 5.9999999999999964
    vertex 47.40046291090492 -139.0405027540019 5.9999999999999964
  endloop
endfacet
facet normal 0.0 0.0 -1.0
  outer loop
    vertex 47.40046291090492 -139.0405027540019 5.9999999999999964
    vertex 51.000000000001755 -136.99999999997894 5.9999999999999964
    vertex 47.89397267419886 -139.2109184317461 5.9999999999999964
  endloop
endfacet
facet normal 0.0 0.0 -1.0
  outer loop
    vertex 47.89397267419886 -139.2109184317461 5.9999999999999964
    vertex 51.000000000001755 -136.99999999997894 5.9999999999999964
    vertex 48.32655967710602 -139.5032570617683 5.9999999999999964
  endloop
endfacet
facet normal 0.0 0.0 -1.0
  outer loop
    vertex 48.32655967710602 -139.5032570617683 5.9999999999999964
    vertex 51.000000000001755 -136.99999999997894 5.9999999999999964
    vertex 48.668743830262095 -139.89759624954493 5.9999999999999964
  endloop
endfacet
facet normal 0.0 0.0 -1.0
  outer loop
    vertex 48.668743830262095 -139.89759624954493 5.9999999999999964
    vertex 51.000000000001755 -136.99999999997894 5.9999999999999964
    vertex 48.89720584911556 -140.36706243110524 5.9999999999999964
  endloop
endfacet
facet normal 0.0 0.0 -1.0
  outer loop
    vertex 48.89720584911556 -140.36706243110524 5.9999999999999964
    vertex 51.000000000001755 -136.99999999997894 5.9999999999999964
    vertex 48.99637642463289 -140.87966226200555 5.9999999999999964
  endloop
endfacet
facet normal 0.0 0.0 -1.0
  outer loop
    vertex 41.00000000000264 -144.99999999997894 5.9999999999999964
    vertex 46.10602732580643 -142.78908156821177 5.9999999999999964
    vertex 51.000000000001755 -144.99999999997894 5.9999999999999964
  endloop
endfacet
facet normal 0.0 0.0 -1.0
  outer loop
    vertex 46.10602732580643 -142.78908156821177 5.9999999999999964
    vertex 41.00000000000264 -144.99999999997894 5.9999999999999964
    vertex 45.673440322899275 -142.49674293818958 5.9999999999999964
  endloop
endfacet
facet normal 0.0 0.0 -1.0
  outer loop
    vertex 45.673440322899275 -142.49674293818958 5.9999999999999964
    vertex 41.00000000000264 -144.99999999997894 5.9999999999999964
    vertex 45.3312561697432 -142.10240375041298 5.9999999999999964
  endloop
endfacet
facet normal 0.0 0.0 -1.0
  outer loop
    vertex 45.3312561697432 -142.10240375041298 5.9999999999999964
    vertex 41.00000000000264 -144.99999999997894 5.9999999999999964
    vertex 45.102794150889736 -141.63293756885264 5.9999999999999964
  endloop
endfacet
facet normal 0.0 0.0 -1.0
  outer loop
    vertex 45.102794150889736 -141.63293756885264 5.9999999999999964
    vertex 41.00000000000264 -144.99999999997894 5.9999999999999964
    vertex 45.0036235753724 -141.12033773795233 5.9999999999999964
  endloop
endfacet
facet normal 0.0 0.0 -1.0
  outer loop
    vertex 51.000000000001755 -144.99999999997894 5.9999999999999964
    vertex 46.10602732580643 -142.78908156821177 5.9999999999999964
    vertex 46.599537089100366 -142.959497245956 5.9999999999999964
  endloop
endfacet
facet normal 0.0 0.0 -1.0
  outer loop
    vertex 51.000000000001755 -144.99999999997894 5.9999999999999964
    vertex 46.599537089100366 -142.959497245956 5.9999999999999964
    vertex 47.12033773797603 -142.99637642460917 5.9999999999999964
  endloop
endfacet
facet normal 0.0 0.0 -1.0
  outer loop
    vertex 51.000000000001755 -144.99999999997894 5.9999999999999964
    vertex 47.12033773797603 -142.99637642460917 5.9999999999999964
    vertex 47.63293756887633 -142.89720584909188 5.9999999999999964
  endloop
endfacet
facet normal 0.0 0.0 -1.0
  outer loop
    vertex 51.000000000001755 -144.99999999997894 5.9999999999999964
    vertex 47.63293756887633 -142.89720584909188 5.9999999999999964
    vertex 48.10240375043668 -142.66874383023838 5.9999999999999964
  endloop
endfacet
facet normal 0.0 0.0 -1.0
  outer loop
    vertex 51.000000000001755 -144.99999999997894 5.9999999999999964
    vertex 48.10240375043668 -142.66874383023838 5.9999999999999964
    vertex 48.49674293821327 -142.32655967708232 5.9999999999999964
  endloop
endfacet
facet normal 0.0 0.0 -1.0
  outer loop
    vertex 51.000000000001755 -144.99999999997894 5.9999999999999964
    vertex 48.49674293821327 -142.32655967708232 5.9999999999999964
    vertex 48.789081568235474 -141.89397267417516 5.9999999999999964
  endloop
endfacet
facet normal 0.0 0.0 -1.0
  outer loop
    vertex 51.000000000001755 -144.99999999997894 5.9999999999999964
    vertex 48.789081568235474 -141.89397267417516 5.9999999999999964
    vertex 48.9594972459797 -141.40046291088123 5.9999999999999964
  endloop
endfacet
facet normal 0.0 0.0 -1.0
  outer loop
    vertex 51.000000000001755 -144.99999999997894 5.9999999999999964
    vertex 48.9594972459797 -141.40046291088123 5.9999999999999964
    vertex 48.99637642463289 -140.87966226200555 5.9999999999999964
  endloop
endfacet
facet normal 0.0 0.0 -1.0
  outer loop
    vertex 51.000000000001755 -144.99999999997894 5.9999999999999964
    vertex 48.99637642463289 -140.87966226200555 5.9999999999999964
    vertex 51.000000000001755 -136.99999999997894 5.9999999999999964
  endloop
endfacet
facet normal -1.0 0.0 0.0
  outer loop
    vertex 41.00000000000264 -136.99999999997894 7.499999999999997
    vertex 41.00000000000264 -144.99999999997894 5.9999999999999964
    vertex 41.00000000000264 -144.99999999997894 7.499999999999997
  endloop
endfacet
facet normal -1.0 0.0 0.0
  outer loop
    vertex 41.00000000000264 -144.99999999997894 5.9999999999999964
    vertex 41.00000000000264 -136.99999999997894 7.499999999999997
    vertex 41.00000000000264 -136.99999999997894 5.9999999999999964
  endloop
endfacet
facet normal -0.7512940115241277 0.0 0.6599676569711458
  outer loop
    vertex 51.50947997509339 -136.99999999997894 8.079981837344103
    vertex 51.000000000001755 -144.99999999997894 7.499999999999997
    vertex 51.50947997509339 -144.99999999997894 8.079981837344103
  endloop
endfacet
facet normal -0.7512940115241277 0.0 0.6599676569711458
  outer loop
    vertex 51.000000000001755 -144.99999999997894 7.499999999999997
    vertex 51.50947997509339 -136.99999999997894 8.079981837344103
    vertex 51.000000000001755 -136.99999999997894 7.499999999999997
  endloop
endfacet
facet normal -0.6407474392457733 0.0 0.7677517301185222
  outer loop
    vertex 52.10216679573625 -144.99999999997894 8.574624242829799
    vertex 51.50947997509339 -136.99999999997894 8.079981837344103
    vertex 51.50947997509339 -144.99999999997894 8.079981837344103
  endloop
endfacet
facet normal -0.6407474392457733 0.0 0.7677517301185222
  outer loop
    vertex 51.50947997509339 -136.99999999997894 8.079981837344103
    vertex 52.10216679573625 -144.99999999997894 8.574624242829799
    vertex 52.10216679573625 -136.99999999997894 8.574624242829799
  endloop
endfacet
facet normal -0.5149267608645206 0.0 0.8572341750919481
  outer loop
    vertex 52.763932022501976 -144.99999999997894 8.972135954999576
    vertex 52.10216679573625 -136.99999999997894 8.574624242829799
    vertex 52.10216679573625 -144.99999999997894 8.574624242829799
  endloop
endfacet
facet normal -0.5149267608645206 0.0 0.8572341750919481
  outer loop
    vertex 52.10216679573625 -136.99999999997894 8.574624242829799
    vertex 52.763932022501976 -144.99999999997894 8.972135954999576
    vertex 52.763932022501976 -136.99999999997894 8.972135954999576
  endloop
endfacet
facet normal -0.3768312835548419 0.0 0.926281913746787
  outer loop
    vertex 53.47900052829722 -144.99999999997894 9.263041109110278
    vertex 52.763932022501976 -136.99999999997894 8.972135954999576
    vertex 52.763932022501976 -144.99999999997894 8.972135954999576
  endloop
endfacet
facet normal -0.3768312835548419 0.0 0.926281913746787
  outer loop
    vertex 52.763932022501976 -136.99999999997894 8.972135954999576
    vertex 53.47900052829722 -144.99999999997894 9.263041109110278
    vertex 53.47900052829722 -136.99999999997894 9.263041109110278
  endloop
endfacet
facet normal -0.2297529205473651 0.0 0.9732489894677292
  outer loop
    vertex 54.230326545071485 -144.99999999997894 9.440405122333155
    vertex 53.47900052829722 -136.99999999997894 9.263041109110278
    vertex 53.47900052829722 -144.99999999997894 9.263041109110278
  endloop
endfacet
facet normal -0.2297529205473651 0.0 0.9732489894677292
  outer loop
    vertex 53.47900052829722 -136.99999999997894 9.263041109110278
    vertex 54.230326545071485 -144.99999999997894 9.440405122333155
    vertex 54.230326545071485 -136.99999999997894 9.440405122333155
  endloop
endfacet
facet normal -0.07719771866243098 0.0 0.9970158034019904
  outer loop
    vertex 55.00000000000176 -144.99999999997894 9.499999999999996
    vertex 54.230326545071485 -136.99999999997894 9.440405122333155
    vertex 54.230326545071485 -144.99999999997894 9.440405122333155
  endloop
endfacet
facet normal -0.07719771866243098 0.0 0.9970158034019904
  outer loop
    vertex 54.230326545071485 -136.99999999997894 9.440405122333155
    vertex 55.00000000000176 -144.99999999997894 9.499999999999996
    vertex 55.00000000000176 -136.99999999997894 9.499999999999996
  endloop
endfacet
facet normal 0.0771977186624321 0.0 0.9970158034019901
  outer loop
    vertex 55.769673454932025 -144.99999999997894 9.440405122333155
    vertex 55.00000000000176 -136.99999999997894 9.499999999999996
    vertex 55.00000000000176 -144.99999999997894 9.499999999999996
  endloop
endfacet
facet normal 0.0771977186624321 0.0 0.9970158034019901
  outer loop
    vertex 55.00000000000176 -136.99999999997894 9.499999999999996
    vertex 55.769673454932025 -144.99999999997894 9.440405122333155
    vertex 55.769673454932025 -136.99999999997894 9.440405122333155
  endloop
endfacet
facet normal 0.2297529205473584 0.0 0.973248989467731
  outer loop
    vertex 56.520999471706304 -144.99999999997894 9.263041109110281
    vertex 55.769673454932025 -136.99999999997894 9.440405122333155
    vertex 55.769673454932025 -144.99999999997894 9.440405122333155
  endloop
endfacet
facet normal 0.2297529205473584 0.0 0.973248989467731
  outer loop
    vertex 55.769673454932025 -136.99999999997894 9.440405122333155
    vertex 56.520999471706304 -144.99999999997894 9.263041109110281
    vertex 56.520999471706304 -136.99999999997894 9.263041109110281
  endloop
endfacet
facet normal 0.37683128355484347 0.0 0.9262819137467865
  outer loop
    vertex 57.23606797750155 -144.99999999997894 8.972135954999578
    vertex 56.520999471706304 -136.99999999997894 9.263041109110281
    vertex 56.520999471706304 -144.99999999997894 9.263041109110281
  endloop
endfacet
facet normal 0.37683128355484347 0.0 0.9262819137467865
  outer loop
    vertex 56.520999471706304 -136.99999999997894 9.263041109110281
    vertex 57.23606797750155 -144.99999999997894 8.972135954999578
    vertex 57.23606797750155 -136.99999999997894 8.972135954999578
  endloop
endfacet
facet normal 0.5149267608645257 0.0 0.857234175091945
  outer loop
    vertex 57.89783320426726 -144.99999999997894 8.5746242428298
    vertex 57.23606797750155 -136.99999999997894 8.972135954999578
    vertex 57.23606797750155 -144.99999999997894 8.972135954999578
  endloop
endfacet
facet normal 0.5149267608645257 0.0 0.857234175091945
  outer loop
    vertex 57.23606797750155 -136.99999999997894 8.972135954999578
    vertex 57.89783320426726 -144.99999999997894 8.5746242428298
    vertex 57.89783320426726 -136.99999999997894 8.5746242428298
  endloop
endfacet
facet normal 0.640747439245765 0.0 0.767751730118529
  outer loop
    vertex 58.490520024910126 -144.99999999997894 8.079981837344107
    vertex 57.89783320426726 -136.99999999997894 8.5746242428298
    vertex 57.89783320426726 -144.99999999997894 8.5746242428298
  endloop
endfacet
facet normal 0.640747439245765 0.0 0.767751730118529
  outer loop
    vertex 57.89783320426726 -136.99999999997894 8.5746242428298
    vertex 58.490520024910126 -144.99999999997894 8.079981837344107
    vertex 58.490520024910126 -136.99999999997894 8.079981837344107
  endloop
endfacet
facet normal 0.7512940115241373 0.0 0.6599676569711348
  outer loop
    vertex 59.000000000001755 -136.99999999997894 7.499999999999997
    vertex 58.490520024910126 -144.99999999997894 8.079981837344107
    vertex 59.000000000001755 -144.99999999997894 7.499999999999997
  endloop
endfacet
facet normal 0.7512940115241373 0.0 0.6599676569711348
  outer loop
    vertex 58.490520024910126 -144.99999999997894 8.079981837344107
    vertex 59.000000000001755 -136.99999999997894 7.499999999999997
    vertex 58.490520024910126 -136.99999999997894 8.079981837344107
  endloop
endfacet
facet normal 0.0 0.0 1.0
  outer loop
    vertex 59.000000000001755 -144.99999999997894 7.499999999999997
    vertex 61.09117520430499 -141.59698232746993 7.499999999999997
    vertex 59.000000000001755 -136.99999999997894 7.499999999999997
  endloop
endfacet
facet normal 0.0 0.0 1.0
  outer loop
    vertex 61.09117520430499 -141.59698232746993 7.499999999999997
    vertex 59.000000000001755 -144.99999999997894 7.499999999999997
    vertex 61.310727227921554 -142.07068085883066 7.499999999999997
  endloop
endfacet
facet normal 0.0 0.0 1.0
  outer loop
    vertex 61.310727227921554 -142.07068085883066 7.499999999999997
    vertex 59.000000000001755 -144.99999999997894 7.499999999999997
    vertex 61.64540039930009 -142.47141425904442 7.499999999999997
  endloop
endfacet
facet normal 0.0 0.0 1.0
  outer loop
    vertex 61.64540039930009 -142.47141425904442 7.499999999999997
    vertex 59.000000000001755 -144.99999999997894 7.499999999999997
    vertex 62.072387294884685 -142.77187320912992 7.499999999999997
  endloop
endfacet
facet normal 0.0 0.0 1.0
  outer loop
    vertex 62.072387294884685 -142.77187320912992 7.499999999999997
    vertex 59.000000000001755 -144.99999999997894 7.499999999999997
    vertex 62.56258946337047 -142.9515819281707 7.499999999999997
  endloop
endfacet
facet normal 0.0 0.0 1.0
  outer loop
    vertex 62.56258946337047 -142.9515819281707 7.499999999999997
    vertex 59.000000000001755 -144.99999999997894 7.499999999999997
    vertex 69.00000000000088 -144.99999999997894 7.499999999999997
  endloop
endfacet
facet normal 0.0 0.0 1.0
  outer loop
    vertex 59.000000000001755 -136.99999999997894 7.499999999999997
    vertex 61.09117520430499 -141.59698232746993 7.499999999999997
    vertex 61.001706436032975 -141.08260043705062 7.499999999999997
  endloop
endfacet
facet normal 0.0 0.0 1.0
  outer loop
    vertex 62.56258946337047 -142.9515819281707 7.499999999999997
    vertex 69.00000000000088 -144.99999999997894 7.499999999999997
    vertex 63.08260043707254 -142.99829356394685 7.499999999999997
  endloop
endfacet
facet normal 0.0 0.0 1.0
  outer loop
    vertex 63.08260043707254 -142.99829356394685 7.499999999999997
    vertex 69.00000000000088 -144.99999999997894 7.499999999999997
    vertex 63.596982327491844 -142.90882479567483 7.499999999999997
  endloop
endfacet
facet normal 0.0 0.0 1.0
  outer loop
    vertex 63.596982327491844 -142.90882479567483 7.499999999999997
    vertex 69.00000000000088 -144.99999999997894 7.499999999999997
    vertex 64.07068085885258 -142.68927277205827 7.499999999999997
  endloop
endfacet
facet normal 0.0 0.0 1.0
  outer loop
    vertex 64.07068085885258 -142.68927277205827 7.499999999999997
    vertex 69.00000000000088 -144.99999999997894 7.499999999999997
    vertex 64.47141425906636 -142.35459960067973 7.499999999999997
  endloop
endfacet
facet normal 0.0 0.0 1.0
  outer loop
    vertex 64.47141425906636 -142.35459960067973 7.499999999999997
    vertex 69.00000000000088 -144.99999999997894 7.499999999999997
    vertex 64.77187320915186 -141.92761270509516 7.499999999999997
  endloop
endfacet
facet normal 0.0 0.0 1.0
  outer loop
    vertex 64.77187320915186 -141.92761270509516 7.499999999999997
    vertex 69.00000000000088 -144.99999999997894 7.499999999999997
    vertex 64.95158192819264 -141.43741053660935 7.499999999999997
  endloop
endfacet
facet normal 0.0 0.0 1.0
  outer loop
    vertex 64.95158192819264 -141.43741053660935 7.499999999999997
    vertex 69.00000000000088 -144.99999999997894 7.499999999999997
    vertex 64.99829356396877 -140.9173995629073 7.499999999999997
  endloop
endfacet
facet normal 0.0 0.0 1.0
  outer loop
    vertex 59.000000000001755 -136.99999999997894 7.499999999999997
    vertex 62.40301767250991 -139.09117520428305 7.499999999999997
    vertex 69.00000000000088 -136.99999999997894 7.499999999999997
  endloop
endfacet
facet normal 0.0 0.0 1.0
  outer loop
    vertex 62.40301767250991 -139.09117520428305 7.499999999999997
    vertex 59.000000000001755 -136.99999999997894 7.499999999999997
    vertex 61.92931914114917 -139.31072722789963 7.499999999999997
  endloop
endfacet
facet normal 0.0 0.0 1.0
  outer loop
    vertex 61.92931914114917 -139.31072722789963 7.499999999999997
    vertex 59.000000000001755 -136.99999999997894 7.499999999999997
    vertex 61.52858574093539 -139.64540039927815 7.499999999999997
  endloop
endfacet
facet normal 0.0 0.0 1.0
  outer loop
    vertex 61.52858574093539 -139.64540039927815 7.499999999999997
    vertex 59.000000000001755 -136.99999999997894 7.499999999999997
    vertex 61.22812679084989 -140.07238729486275 7.499999999999997
  endloop
endfacet
facet normal 0.0 0.0 1.0
  outer loop
    vertex 61.22812679084989 -140.07238729486275 7.499999999999997
    vertex 59.000000000001755 -136.99999999997894 7.499999999999997
    vertex 61.04841807180911 -140.56258946334853 7.499999999999997
  endloop
endfacet
facet normal 0.0 0.0 1.0
  outer loop
    vertex 61.04841807180911 -140.56258946334853 7.499999999999997
    vertex 59.000000000001755 -136.99999999997894 7.499999999999997
    vertex 61.001706436032975 -141.08260043705062 7.499999999999997
  endloop
endfacet
facet normal 0.0 0.0 1.0
  outer loop
    vertex 69.00000000000088 -136.99999999997894 7.499999999999997
    vertex 62.40301767250991 -139.09117520428305 7.499999999999997
    vertex 62.91739956292921 -139.00170643601103 7.499999999999997
  endloop
endfacet
facet normal 0.0 0.0 1.0
  outer loop
    vertex 69.00000000000088 -136.99999999997894 7.499999999999997
    vertex 62.91739956292921 -139.00170643601103 7.499999999999997
    vertex 63.437410536631276 -139.04841807178718 7.499999999999997
  endloop
endfacet
facet normal 0.0 0.0 1.0
  outer loop
    vertex 69.00000000000088 -136.99999999997894 7.499999999999997
    vertex 63.437410536631276 -139.04841807178718 7.499999999999997
    vertex 63.92761270511707 -139.22812679082796 7.499999999999997
  endloop
endfacet
facet normal 0.0 0.0 1.0
  outer loop
    vertex 69.00000000000088 -136.99999999997894 7.499999999999997
    vertex 63.92761270511707 -139.22812679082796 7.499999999999997
    vertex 64.35459960070168 -139.52858574091346 7.499999999999997
  endloop
endfacet
facet normal 0.0 0.0 1.0
  outer loop
    vertex 69.00000000000088 -136.99999999997894 7.499999999999997
    vertex 64.35459960070168 -139.52858574091346 7.499999999999997
    vertex 64.6892727720802 -139.92931914112722 7.499999999999997
  endloop
endfacet
facet normal 0.0 0.0 1.0
  outer loop
    vertex 69.00000000000088 -136.99999999997894 7.499999999999997
    vertex 64.6892727720802 -139.92931914112722 7.499999999999997
    vertex 64.90882479569676 -140.40301767248798 7.499999999999997
  endloop
endfacet
facet normal 0.0 0.0 1.0
  outer loop
    vertex 69.00000000000088 -136.99999999997894 7.499999999999997
    vertex 64.90882479569676 -140.40301767248798 7.499999999999997
    vertex 64.99829356396877 -140.9173995629073 7.499999999999997
  endloop
endfacet
facet normal 0.0 0.0 1.0
  outer loop
    vertex 69.00000000000088 -136.99999999997894 7.499999999999997
    vertex 64.99829356396877 -140.9173995629073 7.499999999999997
    vertex 69.00000000000088 -144.99999999997894 7.499999999999997
  endloop
endfacet
facet normal 1.0 0.0 0.0
  outer loop
    vertex 69.00000000000088 -136.99999999997894 5.9999999999999964
    vertex 69.00000000000088 -144.99999999997894 7.499999999999997
    vertex 69.00000000000088 -144.99999999997894 5.9999999999999964
  endloop
endfacet
facet normal 1.0 0.0 0.0
  outer loop
    vertex 69.00000000000088 -144.99999999997894 7.499999999999997
    vertex 69.00000000000088 -136.99999999997894 5.9999999999999964
    vertex 69.00000000000088 -136.99999999997894 7.499999999999997
  endloop
endfacet
facet normal 0.0 0.0 -1.0
  outer loop
    vertex 59.000000000001755 -136.99999999997894 5.9999999999999964
    vertex 61.22812679084989 -140.07238729486275 5.9999999999999964
    vertex 59.000000000001755 -144.99999999997894 5.9999999999999964
  endloop
endfacet
facet normal 0.0 0.0 -1.0
  outer loop
    vertex 61.22812679084989 -140.07238729486275 5.9999999999999964
    vertex 59.000000000001755 -136.99999999997894 5.9999999999999964
    vertex 61.52858574093539 -139.64540039927815 5.9999999999999964
  endloop
endfacet
facet normal 0.0 0.0 -1.0
  outer loop
    vertex 61.52858574093539 -139.64540039927815 5.9999999999999964
    vertex 59.000000000001755 -136.99999999997894 5.9999999999999964
    vertex 61.92931914114917 -139.31072722789963 5.9999999999999964
  endloop
endfacet
facet normal 0.0 0.0 -1.0
  outer loop
    vertex 61.92931914114917 -139.31072722789963 5.9999999999999964
    vertex 59.000000000001755 -136.99999999997894 5.9999999999999964
    vertex 62.40301767250991 -139.09117520428305 5.9999999999999964
  endloop
endfacet
facet normal 0.0 0.0 -1.0
  outer loop
    vertex 62.40301767250991 -139.09117520428305 5.9999999999999964
    vertex 59.000000000001755 -136.99999999997894 5.9999999999999964
    vertex 69.00000000000088 -136.99999999997894 5.9999999999999964
  endloop
endfacet
facet normal 0.0 0.0 -1.0
  outer loop
    vertex 59.000000000001755 -144.99999999997894 5.9999999999999964
    vertex 61.22812679084989 -140.07238729486275 5.9999999999999964
    vertex 61.04841807180911 -140.56258946334853 5.9999999999999964
  endloop
endfacet
facet normal 0.0 0.0 -1.0
  outer loop
    vertex 59.000000000001755 -144.99999999997894 5.9999999999999964
    vertex 61.04841807180911 -140.56258946334853 5.9999999999999964
    vertex 61.001706436032975 -141.08260043705062 5.9999999999999964
  endloop
endfacet
facet normal 0.0 0.0 -1.0
  outer loop
    vertex 62.40301767250991 -139.09117520428305 5.9999999999999964
    vertex 69.00000000000088 -136.99999999997894 5.9999999999999964
    vertex 62.91739956292921 -139.00170643601103 5.9999999999999964
  endloop
endfacet
facet normal 0.0 0.0 -1.0
  outer loop
    vertex 62.91739956292921 -139.00170643601103 5.9999999999999964
    vertex 69.00000000000088 -136.99999999997894 5.9999999999999964
    vertex 63.437410536631276 -139.04841807178718 5.9999999999999964
  endloop
endfacet
facet normal 0.0 0.0 -1.0
  outer loop
    vertex 63.437410536631276 -139.04841807178718 5.9999999999999964
    vertex 69.00000000000088 -136.99999999997894 5.9999999999999964
    vertex 63.92761270511707 -139.22812679082796 5.9999999999999964
  endloop
endfacet
facet normal 0.0 0.0 -1.0
  outer loop
    vertex 63.92761270511707 -139.22812679082796 5.9999999999999964
    vertex 69.00000000000088 -136.99999999997894 5.9999999999999964
    vertex 64.35459960070168 -139.52858574091346 5.9999999999999964
  endloop
endfacet
facet normal 0.0 0.0 -1.0
  outer loop
    vertex 64.35459960070168 -139.52858574091346 5.9999999999999964
    vertex 69.00000000000088 -136.99999999997894 5.9999999999999964
    vertex 64.6892727720802 -139.92931914112722 5.9999999999999964
  endloop
endfacet
facet normal 0.0 0.0 -1.0
  outer loop
    vertex 64.6892727720802 -139.92931914112722 5.9999999999999964
    vertex 69.00000000000088 -136.99999999997894 5.9999999999999964
    vertex 64.90882479569676 -140.40301767248798 5.9999999999999964
  endloop
endfacet
facet normal 0.0 0.0 -1.0
  outer loop
    vertex 64.90882479569676 -140.40301767248798 5.9999999999999964
    vertex 69.00000000000088 -136.99999999997894 5.9999999999999964
    vertex 64.99829356396877 -140.9173995629073 5.9999999999999964
  endloop
endfacet
facet normal 0.0 0.0 -1.0
  outer loop
    vertex 59.000000000001755 -144.99999999997894 5.9999999999999964
    vertex 62.56258946337047 -142.9515819281707 5.9999999999999964
    vertex 69.00000000000088 -144.99999999997894 5.9999999999999964
  endloop
endfacet
facet normal 0.0 0.0 -1.0
  outer loop
    vertex 62.56258946337047 -142.9515819281707 5.9999999999999964
    vertex 59.000000000001755 -144.99999999997894 5.9999999999999964
    vertex 62.072387294884685 -142.77187320912992 5.9999999999999964
  endloop
endfacet
facet normal 0.0 0.0 -1.0
  outer loop
    vertex 62.072387294884685 -142.77187320912992 5.9999999999999964
    vertex 59.000000000001755 -144.99999999997894 5.9999999999999964
    vertex 61.64540039930009 -142.47141425904442 5.9999999999999964
  endloop
endfacet
facet normal 0.0 0.0 -1.0
  outer loop
    vertex 61.64540039930009 -142.47141425904442 5.9999999999999964
    vertex 59.000000000001755 -144.99999999997894 5.9999999999999964
    vertex 61.310727227921554 -142.07068085883066 5.9999999999999964
  endloop
endfacet
facet normal 0.0 0.0 -1.0
  outer loop
    vertex 61.310727227921554 -142.07068085883066 5.9999999999999964
    vertex 59.000000000001755 -144.99999999997894 5.9999999999999964
    vertex 61.09117520430499 -141.59698232746993 5.9999999999999964
  endloop
endfacet
facet normal 0.0 0.0 -1.0
  outer loop
    vertex 61.09117520430499 -141.59698232746993 5.9999999999999964
    vertex 59.000000000001755 -144.99999999997894 5.9999999999999964
    vertex 61.001706436032975 -141.08260043705062 5.9999999999999964
  endloop
endfacet
facet normal 0.0 0.0 -1.0
  outer loop
    vertex 69.00000000000088 -144.99999999997894 5.9999999999999964
    vertex 62.56258946337047 -142.9515819281707 5.9999999999999964
    vertex 63.08260043707254 -142.99829356394685 5.9999999999999964
  endloop
endfacet
facet normal 0.0 0.0 -1.0
  outer loop
    vertex 69.00000000000088 -144.99999999997894 5.9999999999999964
    vertex 63.08260043707254 -142.99829356394685 5.9999999999999964
    vertex 63.596982327491844 -142.90882479567483 5.9999999999999964
  endloop
endfacet
facet normal 0.0 0.0 -1.0
  outer loop
    vertex 69.00000000000088 -144.99999999997894 5.9999999999999964
    vertex 63.596982327491844 -142.90882479567483 5.9999999999999964
    vertex 64.07068085885258 -142.68927277205827 5.9999999999999964
  endloop
endfacet
facet normal 0.0 0.0 -1.0
  outer loop
    vertex 69.00000000000088 -144.99999999997894 5.9999999999999964
    vertex 64.07068085885258 -142.68927277205827 5.9999999999999964
    vertex 64.47141425906636 -142.35459960067973 5.9999999999999964
  endloop
endfacet
facet normal 0.0 0.0 -1.0
  outer loop
    vertex 69.00000000000088 -144.99999999997894 5.9999999999999964
    vertex 64.47141425906636 -142.35459960067973 5.9999999999999964
    vertex 64.77187320915186 -141.92761270509516 5.9999999999999964
  endloop
endfacet
facet normal 0.0 0.0 -1.0
  outer loop
    vertex 69.00000000000088 -144.99999999997894 5.9999999999999964
    vertex 64.77187320915186 -141.92761270509516 5.9999999999999964
    vertex 64.95158192819264 -141.43741053660935 5.9999999999999964
  endloop
endfacet
facet normal 0.0 0.0 -1.0
  outer loop
    vertex 69.00000000000088 -144.99999999997894 5.9999999999999964
    vertex 64.95158192819264 -141.43741053660935 5.9999999999999964
    vertex 64.99829356396877 -140.9173995629073 5.9999999999999964
  endloop
endfacet
facet normal 0.0 0.0 -1.0
  outer loop
    vertex 69.00000000000088 -144.99999999997894 5.9999999999999964
    vertex 64.99829356396877 -140.9173995629073 5.9999999999999964
    vertex 69.00000000000088 -136.99999999997894 5.9999999999999964
  endloop
endfacet
facet normal -0.7512940115241369 0.0 -0.6599676569711352
  outer loop
    vertex 58.490520024910126 -136.99999999997894 6.579981837344106
    vertex 59.000000000001755 -144.99999999997894 5.9999999999999964
    vertex 58.490520024910126 -144.99999999997894 6.579981837344106
  endloop
endfacet
facet normal -0.7512940115241369 0.0 -0.6599676569711352
  outer loop
    vertex 59.000000000001755 -144.99999999997894 5.9999999999999964
    vertex 58.490520024910126 -136.99999999997894 6.579981837344106
    vertex 59.000000000001755 -136.99999999997894 5.9999999999999964
  endloop
endfacet
facet normal -0.640747439245766 0.0 -0.7677517301185282
  outer loop
    vertex 58.490520024910126 -136.99999999997894 6.579981837344106
    vertex 57.89783320426726 -144.99999999997894 7.074624242829802
    vertex 57.89783320426726 -136.99999999997894 7.074624242829802
  endloop
endfacet
facet normal -0.640747439245766 0.0 -0.7677517301185282
  outer loop
    vertex 57.89783320426726 -144.99999999997894 7.074624242829802
    vertex 58.490520024910126 -136.99999999997894 6.579981837344106
    vertex 58.490520024910126 -144.99999999997894 6.579981837344106
  endloop
endfacet
facet normal -0.5149267608645257 0.0 -0.857234175091945
  outer loop
    vertex 57.89783320426726 -136.99999999997894 7.074624242829802
    vertex 57.23606797750155 -144.99999999997894 7.472135954999578
    vertex 57.23606797750155 -136.99999999997894 7.472135954999578
  endloop
endfacet
facet normal -0.5149267608645257 0.0 -0.857234175091945
  outer loop
    vertex 57.23606797750155 -144.99999999997894 7.472135954999578
    vertex 57.89783320426726 -136.99999999997894 7.074624242829802
    vertex 57.89783320426726 -144.99999999997894 7.074624242829802
  endloop
endfacet
facet normal 0.0 0.0 1.0
  outer loop
    vertex 41.00000000000264 -144.99999999997894 7.499999999999997
    vertex 45.3312561697432 -142.10240375041298 7.499999999999997
    vertex 41.00000000000264 -136.99999999997894 7.499999999999997
  endloop
endfacet
facet normal 0.0 0.0 1.0
  outer loop
    vertex 45.3312561697432 -142.10240375041298 7.499999999999997
    vertex 41.00000000000264 -144.99999999997894 7.499999999999997
    vertex 45.673440322899275 -142.49674293818958 7.499999999999997
  endloop
endfacet
facet normal 0.0 0.0 1.0
  outer loop
    vertex 45.673440322899275 -142.49674293818958 7.499999999999997
    vertex 41.00000000000264 -144.99999999997894 7.499999999999997
    vertex 46.10602732580643 -142.78908156821177 7.499999999999997
  endloop
endfacet
facet normal 0.0 0.0 1.0
  outer loop
    vertex 46.10602732580643 -142.78908156821177 7.499999999999997
    vertex 41.00000000000264 -144.99999999997894 7.499999999999997
    vertex 51.000000000001755 -144.99999999997894 7.499999999999997
  endloop
endfacet
facet normal 0.0 0.0 1.0
  outer loop
    vertex 41.00000000000264 -136.99999999997894 7.499999999999997
    vertex 45.3312561697432 -142.10240375041298 7.499999999999997
    vertex 45.102794150889736 -141.63293756885264 7.499999999999997
  endloop
endfacet
facet normal 0.0 0.0 1.0
  outer loop
    vertex 41.00000000000264 -136.99999999997894 7.499999999999997
    vertex 45.102794150889736 -141.63293756885264 7.499999999999997
    vertex 45.0036235753724 -141.12033773795233 7.499999999999997
  endloop
endfacet
facet normal 0.0 0.0 1.0
  outer loop
    vertex 46.10602732580643 -142.78908156821177 7.499999999999997
    vertex 51.000000000001755 -144.99999999997894 7.499999999999997
    vertex 46.599537089100366 -142.959497245956 7.499999999999997
  endloop
endfacet
facet normal 0.0 0.0 1.0
  outer loop
    vertex 46.599537089100366 -142.959497245956 7.499999999999997
    vertex 51.000000000001755 -144.99999999997894 7.499999999999997
    vertex 47.12033773797603 -142.99637642460917 7.499999999999997
  endloop
endfacet
facet normal 0.0 0.0 1.0
  outer loop
    vertex 47.12033773797603 -142.99637642460917 7.499999999999997
    vertex 51.000000000001755 -144.99999999997894 7.499999999999997
    vertex 47.63293756887633 -142.89720584909188 7.499999999999997
  endloop
endfacet
facet normal 0.0 0.0 1.0
  outer loop
    vertex 47.63293756887633 -142.89720584909188 7.499999999999997
    vertex 51.000000000001755 -144.99999999997894 7.499999999999997
    vertex 48.10240375043668 -142.66874383023838 7.499999999999997
  endloop
endfacet
facet normal 0.0 0.0 1.0
  outer loop
    vertex 48.10240375043668 -142.66874383023838 7.499999999999997
    vertex 51.000000000001755 -144.99999999997894 7.499999999999997
    vertex 48.49674293821327 -142.32655967708232 7.499999999999997
  endloop
endfacet
facet normal 0.0 0.0 1.0
  outer loop
    vertex 48.49674293821327 -142.32655967708232 7.499999999999997
    vertex 51.000000000001755 -144.99999999997894 7.499999999999997
    vertex 48.789081568235474 -141.89397267417516 7.499999999999997
  endloop
endfacet
facet normal 0.0 0.0 1.0
  outer loop
    vertex 48.789081568235474 -141.89397267417516 7.499999999999997
    vertex 51.000000000001755 -144.99999999997894 7.499999999999997
    vertex 48.9594972459797 -141.40046291088123 7.499999999999997
  endloop
endfacet
facet normal 0.0 0.0 1.0
  outer loop
    vertex 48.9594972459797 -141.40046291088123 7.499999999999997
    vertex 51.000000000001755 -144.99999999997894 7.499999999999997
    vertex 48.99637642463289 -140.87966226200555 7.499999999999997
  endloop
endfacet
facet normal 0.0 0.0 1.0
  outer loop
    vertex 41.00000000000264 -136.99999999997894 7.499999999999997
    vertex 46.36706243112896 -139.10279415086603 7.499999999999997
    vertex 51.000000000001755 -136.99999999997894 7.499999999999997
  endloop
endfacet
facet normal 0.0 0.0 1.0
  outer loop
    vertex 46.36706243112896 -139.10279415086603 7.499999999999997
    vertex 41.00000000000264 -136.99999999997894 7.499999999999997
    vertex 45.897596249568615 -139.3312561697195 7.499999999999997
  endloop
endfacet
facet normal 0.0 0.0 1.0
  outer loop
    vertex 45.897596249568615 -139.3312561697195 7.499999999999997
    vertex 41.00000000000264 -136.99999999997894 7.499999999999997
    vertex 45.50325706179201 -139.6734403228756 7.499999999999997
  endloop
endfacet
facet normal 0.0 0.0 1.0
  outer loop
    vertex 45.50325706179201 -139.6734403228756 7.499999999999997
    vertex 41.00000000000264 -136.99999999997894 7.499999999999997
    vertex 45.21091843176981 -140.10602732578272 7.499999999999997
  endloop
endfacet
facet normal 0.0 0.0 1.0
  outer loop
    vertex 45.21091843176981 -140.10602732578272 7.499999999999997
    vertex 41.00000000000264 -136.99999999997894 7.499999999999997
    vertex 45.04050275402559 -140.59953708907665 7.499999999999997
  endloop
endfacet
facet normal 0.0 0.0 1.0
  outer loop
    vertex 45.04050275402559 -140.59953708907665 7.499999999999997
    vertex 41.00000000000264 -136.99999999997894 7.499999999999997
    vertex 45.0036235753724 -141.12033773795233 7.499999999999997
  endloop
endfacet
facet normal 0.0 0.0 1.0
  outer loop
    vertex 51.000000000001755 -136.99999999997894 7.499999999999997
    vertex 46.36706243112896 -139.10279415086603 7.499999999999997
    vertex 46.87966226202926 -139.0036235753487 7.499999999999997
  endloop
endfacet
facet normal 0.0 0.0 1.0
  outer loop
    vertex 51.000000000001755 -136.99999999997894 7.499999999999997
    vertex 46.87966226202926 -139.0036235753487 7.499999999999997
    vertex 47.40046291090492 -139.0405027540019 7.499999999999997
  endloop
endfacet
facet normal 0.0 0.0 1.0
  outer loop
    vertex 51.000000000001755 -136.99999999997894 7.499999999999997
    vertex 47.40046291090492 -139.0405027540019 7.499999999999997
    vertex 47.89397267419886 -139.2109184317461 7.499999999999997
  endloop
endfacet
facet normal 0.0 0.0 1.0
  outer loop
    vertex 51.000000000001755 -136.99999999997894 7.499999999999997
    vertex 47.89397267419886 -139.2109184317461 7.499999999999997
    vertex 48.32655967710602 -139.5032570617683 7.499999999999997
  endloop
endfacet
facet normal 0.0 0.0 1.0
  outer loop
    vertex 51.000000000001755 -136.99999999997894 7.499999999999997
    vertex 48.32655967710602 -139.5032570617683 7.499999999999997
    vertex 48.668743830262095 -139.89759624954493 7.499999999999997
  endloop
endfacet
facet normal 0.0 0.0 1.0
  outer loop
    vertex 51.000000000001755 -136.99999999997894 7.499999999999997
    vertex 48.668743830262095 -139.89759624954493 7.499999999999997
    vertex 48.89720584911556 -140.36706243110524 7.499999999999997
  endloop
endfacet
facet normal 0.0 0.0 1.0
  outer loop
    vertex 51.000000000001755 -136.99999999997894 7.499999999999997
    vertex 48.89720584911556 -140.36706243110524 7.499999999999997
    vertex 48.99637642463289 -140.87966226200555 7.499999999999997
  endloop
endfacet
facet normal 0.0 0.0 1.0
  outer loop
    vertex 51.000000000001755 -136.99999999997894 7.499999999999997
    vertex 48.99637642463289 -140.87966226200555 7.499999999999997
    vertex 51.000000000001755 -144.99999999997894 7.499999999999997
  endloop
endfacet
facet normal -0.07063559050087537 -0.9975021871427614 -0.0
  outer loop
    vertex 47.40046291090492 -139.0405027540019 7.499999999999997
    vertex 46.87966226202926 -139.0036235753487 5.9999999999999964
    vertex 47.40046291090492 -139.0405027540019 5.9999999999999964
  endloop
endfacet
facet normal -0.07063559050087537 -0.9975021871427614 -0.0
  outer loop
    vertex 46.87966226202926 -139.0036235753487 5.9999999999999964
    vertex 47.40046291090492 -139.0405027540019 7.499999999999997
    vertex 46.87966226202926 -139.0036235753487 7.499999999999997
  endloop
endfacet
facet normal 0.18994382244393157 -0.9817949604247255 0.0
  outer loop
    vertex 46.87966226202926 -139.0036235753487 7.499999999999997
    vertex 46.36706243112896 -139.10279415086603 5.9999999999999964
    vertex 46.87966226202926 -139.0036235753487 5.9999999999999964
  endloop
endfacet
facet normal 0.18994382244393157 -0.9817949604247255 0.0
  outer loop
    vertex 46.36706243112896 -139.10279415086603 5.9999999999999964
    vertex 46.87966226202926 -139.0036235753487 7.499999999999997
    vertex 46.36706243112896 -139.10279415086603 7.499999999999997
  endloop
endfacet
facet normal 0.4375788777862885 -0.8991800296466178 0.0
  outer loop
    vertex 46.36706243112896 -139.10279415086603 7.499999999999997
    vertex 45.897596249568615 -139.3312561697195 5.9999999999999964
    vertex 46.36706243112896 -139.10279415086603 5.9999999999999964
  endloop
endfacet
facet normal 0.4375788777862885 -0.8991800296466178 0.0
  outer loop
    vertex 45.897596249568615 -139.3312561697195 5.9999999999999964
    vertex 46.36706243112896 -139.10279415086603 7.499999999999997
    vertex 45.897596249568615 -139.3312561697195 7.499999999999997
  endloop
endfacet
facet normal 0.655393655740767 -0.7552874658133505 0.0
  outer loop
    vertex 45.897596249568615 -139.3312561697195 7.499999999999997
    vertex 45.50325706179201 -139.6734403228756 5.9999999999999964
    vertex 45.897596249568615 -139.3312561697195 5.9999999999999964
  endloop
endfacet
facet normal 0.655393655740767 -0.7552874658133505 0.0
  outer loop
    vertex 45.50325706179201 -139.6734403228756 5.9999999999999964
    vertex 45.897596249568615 -139.3312561697195 7.499999999999997
    vertex 45.50325706179201 -139.6734403228756 7.499999999999997
  endloop
endfacet
facet normal 0.8285444391457154 -0.5599233093564795 0.0
  outer loop
    vertex 45.50325706179201 -139.6734403228756 5.9999999999999964
    vertex 45.21091843176981 -140.10602732578272 7.499999999999997
    vertex 45.21091843176981 -140.10602732578272 5.9999999999999964
  endloop
endfacet
facet normal 0.8285444391457154 -0.5599233093564795 0.0
  outer loop
    vertex 45.21091843176981 -140.10602732578272 7.499999999999997
    vertex 45.50325706179201 -139.6734403228756 5.9999999999999964
    vertex 45.50325706179201 -139.6734403228756 7.499999999999997
  endloop
endfacet
facet normal 0.9452312882573256 -0.32640130468396833 0.0
  outer loop
    vertex 45.21091843176981 -140.10602732578272 5.9999999999999964
    vertex 45.04050275402559 -140.59953708907665 7.499999999999997
    vertex 45.04050275402559 -140.59953708907665 5.9999999999999964
  endloop
endfacet
facet normal 0.9452312882573256 -0.32640130468396833 0.0
  outer loop
    vertex 45.04050275402559 -140.59953708907665 7.499999999999997
    vertex 45.21091843176981 -140.10602732578272 5.9999999999999964
    vertex 45.21091843176981 -140.10602732578272 7.499999999999997
  endloop
endfacet
facet normal 0.9975021871427594 -0.0706355905009061 0.0
  outer loop
    vertex 45.04050275402559 -140.59953708907665 5.9999999999999964
    vertex 45.0036235753724 -141.12033773795233 7.499999999999997
    vertex 45.0036235753724 -141.12033773795233 5.9999999999999964
  endloop
endfacet
facet normal 0.9975021871427594 -0.0706355905009061 0.0
  outer loop
    vertex 45.0036235753724 -141.12033773795233 7.499999999999997
    vertex 45.04050275402559 -140.59953708907665 5.9999999999999964
    vertex 45.04050275402559 -140.59953708907665 7.499999999999997
  endloop
endfacet
facet normal 0.9817949604247183 0.18994382244396923 0.0
  outer loop
    vertex 45.0036235753724 -141.12033773795233 5.9999999999999964
    vertex 45.102794150889736 -141.63293756885264 7.499999999999997
    vertex 45.102794150889736 -141.63293756885264 5.9999999999999964
  endloop
endfacet
facet normal 0.9817949604247183 0.18994382244396923 0.0
  outer loop
    vertex 45.102794150889736 -141.63293756885264 7.499999999999997
    vertex 45.0036235753724 -141.12033773795233 5.9999999999999964
    vertex 45.0036235753724 -141.12033773795233 7.499999999999997
  endloop
endfacet
facet normal 0.8991800296466137 0.4375788777862968 0.0
  outer loop
    vertex 45.102794150889736 -141.63293756885264 5.9999999999999964
    vertex 45.3312561697432 -142.10240375041298 7.499999999999997
    vertex 45.3312561697432 -142.10240375041298 5.9999999999999964
  endloop
endfacet
facet normal 0.8991800296466137 0.4375788777862968 0.0
  outer loop
    vertex 45.3312561697432 -142.10240375041298 7.499999999999997
    vertex 45.102794150889736 -141.63293756885264 5.9999999999999964
    vertex 45.102794150889736 -141.63293756885264 7.499999999999997
  endloop
endfacet
facet normal 0.7552874658133705 0.6553936557407439 0.0
  outer loop
    vertex 45.3312561697432 -142.10240375041298 5.9999999999999964
    vertex 45.673440322899275 -142.49674293818958 7.499999999999997
    vertex 45.673440322899275 -142.49674293818958 5.9999999999999964
  endloop
endfacet
facet normal 0.7552874658133705 0.6553936557407439 0.0
  outer loop
    vertex 45.673440322899275 -142.49674293818958 7.499999999999997
    vertex 45.3312561697432 -142.10240375041298 5.9999999999999964
    vertex 45.3312561697432 -142.10240375041298 7.499999999999997
  endloop
endfacet
facet normal 0.5599233093564819 0.8285444391457139 0.0
  outer loop
    vertex 45.673440322899275 -142.49674293818958 7.499999999999997
    vertex 46.10602732580643 -142.78908156821177 5.9999999999999964
    vertex 45.673440322899275 -142.49674293818958 5.9999999999999964
  endloop
endfacet
facet normal 0.5599233093564819 0.8285444391457139 0.0
  outer loop
    vertex 46.10602732580643 -142.78908156821177 5.9999999999999964
    vertex 45.673440322899275 -142.49674293818958 7.499999999999997
    vertex 46.10602732580643 -142.78908156821177 7.499999999999997
  endloop
endfacet
facet normal 0.32640130468396167 0.9452312882573279 0.0
  outer loop
    vertex 46.10602732580643 -142.78908156821177 7.499999999999997
    vertex 46.599537089100366 -142.959497245956 5.9999999999999964
    vertex 46.10602732580643 -142.78908156821177 5.9999999999999964
  endloop
endfacet
facet normal 0.32640130468396167 0.9452312882573279 0.0
  outer loop
    vertex 46.599537089100366 -142.959497245956 5.9999999999999964
    vertex 46.10602732580643 -142.78908156821177 7.499999999999997
    vertex 46.599537089100366 -142.959497245956 7.499999999999997
  endloop
endfacet
facet normal 0.07063559050087537 0.9975021871427614 0.0
  outer loop
    vertex 46.599537089100366 -142.959497245956 7.499999999999997
    vertex 47.12033773797603 -142.99637642460917 5.9999999999999964
    vertex 46.599537089100366 -142.959497245956 5.9999999999999964
  endloop
endfacet
facet normal 0.07063559050087537 0.9975021871427614 0.0
  outer loop
    vertex 47.12033773797603 -142.99637642460917 5.9999999999999964
    vertex 46.599537089100366 -142.959497245956 7.499999999999997
    vertex 47.12033773797603 -142.99637642460917 7.499999999999997
  endloop
endfacet
facet normal -0.18994382244393157 0.9817949604247255 0.0
  outer loop
    vertex 47.12033773797603 -142.99637642460917 7.499999999999997
    vertex 47.63293756887633 -142.89720584909188 5.9999999999999964
    vertex 47.12033773797603 -142.99637642460917 5.9999999999999964
  endloop
endfacet
facet normal -0.18994382244393157 0.9817949604247255 0.0
  outer loop
    vertex 47.63293756887633 -142.89720584909188 5.9999999999999964
    vertex 47.12033773797603 -142.99637642460917 7.499999999999997
    vertex 47.63293756887633 -142.89720584909188 7.499999999999997
  endloop
endfacet
facet normal -0.4375788777862885 0.8991800296466178 0.0
  outer loop
    vertex 47.63293756887633 -142.89720584909188 7.499999999999997
    vertex 48.10240375043668 -142.66874383023838 5.9999999999999964
    vertex 47.63293756887633 -142.89720584909188 5.9999999999999964
  endloop
endfacet
facet normal -0.4375788777862885 0.8991800296466178 0.0
  outer loop
    vertex 48.10240375043668 -142.66874383023838 5.9999999999999964
    vertex 47.63293756887633 -142.89720584909188 7.499999999999997
    vertex 48.10240375043668 -142.66874383023838 7.499999999999997
  endloop
endfacet
facet normal -0.655393655740767 0.7552874658133505 0.0
  outer loop
    vertex 48.10240375043668 -142.66874383023838 7.499999999999997
    vertex 48.49674293821327 -142.32655967708232 5.9999999999999964
    vertex 48.10240375043668 -142.66874383023838 5.9999999999999964
  endloop
endfacet
facet normal -0.655393655740767 0.7552874658133505 0.0
  outer loop
    vertex 48.49674293821327 -142.32655967708232 5.9999999999999964
    vertex 48.10240375043668 -142.66874383023838 7.499999999999997
    vertex 48.49674293821327 -142.32655967708232 7.499999999999997
  endloop
endfacet
facet normal -0.8285444391457205 0.559923309356472 0.0
  outer loop
    vertex 48.789081568235474 -141.89397267417516 7.499999999999997
    vertex 48.49674293821327 -142.32655967708232 5.9999999999999964
    vertex 48.49674293821327 -142.32655967708232 7.499999999999997
  endloop
endfacet
facet normal -0.8285444391457205 0.559923309356472 0.0
  outer loop
    vertex 48.49674293821327 -142.32655967708232 5.9999999999999964
    vertex 48.789081568235474 -141.89397267417516 7.499999999999997
    vertex 48.789081568235474 -141.89397267417516 5.9999999999999964
  endloop
endfacet
facet normal -0.945231288257319 0.32640130468398765 0.0
  outer loop
    vertex 48.9594972459797 -141.40046291088123 7.499999999999997
    vertex 48.789081568235474 -141.89397267417516 5.9999999999999964
    vertex 48.789081568235474 -141.89397267417516 7.499999999999997
  endloop
endfacet
facet normal -0.945231288257319 0.32640130468398765 0.0
  outer loop
    vertex 48.789081568235474 -141.89397267417516 5.9999999999999964
    vertex 48.9594972459797 -141.40046291088123 7.499999999999997
    vertex 48.9594972459797 -141.40046291088123 5.9999999999999964
  endloop
endfacet
facet normal -0.99750218714276 0.07063559050089534 0.0
  outer loop
    vertex 48.99637642463289 -140.87966226200555 7.499999999999997
    vertex 48.9594972459797 -141.40046291088123 5.9999999999999964
    vertex 48.9594972459797 -141.40046291088123 7.499999999999997
  endloop
endfacet
facet normal -0.99750218714276 0.07063559050089534 0.0
  outer loop
    vertex 48.9594972459797 -141.40046291088123 5.9999999999999964
    vertex 48.99637642463289 -140.87966226200555 7.499999999999997
    vertex 48.99637642463289 -140.87966226200555 5.9999999999999964
  endloop
endfacet
facet normal -0.9817949604247183 -0.18994382244396923 -0.0
  outer loop
    vertex 48.89720584911556 -140.36706243110524 7.499999999999997
    vertex 48.99637642463289 -140.87966226200555 5.9999999999999964
    vertex 48.99637642463289 -140.87966226200555 7.499999999999997
  endloop
endfacet
facet normal -0.9817949604247183 -0.18994382244396923 -0.0
  outer loop
    vertex 48.99637642463289 -140.87966226200555 5.9999999999999964
    vertex 48.89720584911556 -140.36706243110524 7.499999999999997
    vertex 48.89720584911556 -140.36706243110524 5.9999999999999964
  endloop
endfacet
facet normal -0.899180029646618 -0.43757887778628807 -0.0
  outer loop
    vertex 48.668743830262095 -139.89759624954493 7.499999999999997
    vertex 48.89720584911556 -140.36706243110524 5.9999999999999964
    vertex 48.89720584911556 -140.36706243110524 7.499999999999997
  endloop
endfacet
facet normal -0.899180029646618 -0.43757887778628807 -0.0
  outer loop
    vertex 48.89720584911556 -140.36706243110524 5.9999999999999964
    vertex 48.668743830262095 -139.89759624954493 7.499999999999997
    vertex 48.668743830262095 -139.89759624954493 5.9999999999999964
  endloop
endfacet
facet normal -0.7552874658133705 -0.6553936557407439 -0.0
  outer loop
    vertex 48.32655967710602 -139.5032570617683 7.499999999999997
    vertex 48.668743830262095 -139.89759624954493 5.9999999999999964
    vertex 48.668743830262095 -139.89759624954493 7.499999999999997
  endloop
endfacet
facet normal -0.7552874658133705 -0.6553936557407439 -0.0
  outer loop
    vertex 48.668743830262095 -139.89759624954493 5.9999999999999964
    vertex 48.32655967710602 -139.5032570617683 7.499999999999997
    vertex 48.32655967710602 -139.5032570617683 5.9999999999999964
  endloop
endfacet
facet normal -0.5599233093564769 -0.8285444391457172 -0.0
  outer loop
    vertex 48.32655967710602 -139.5032570617683 7.499999999999997
    vertex 47.89397267419886 -139.2109184317461 5.9999999999999964
    vertex 48.32655967710602 -139.5032570617683 5.9999999999999964
  endloop
endfacet
facet normal -0.5599233093564769 -0.8285444391457172 -0.0
  outer loop
    vertex 47.89397267419886 -139.2109184317461 5.9999999999999964
    vertex 48.32655967710602 -139.5032570617683 7.499999999999997
    vertex 47.89397267419886 -139.2109184317461 7.499999999999997
  endloop
endfacet
facet normal -0.32640130468396167 -0.9452312882573279 -0.0
  outer loop
    vertex 47.89397267419886 -139.2109184317461 7.499999999999997
    vertex 47.40046291090492 -139.0405027540019 5.9999999999999964
    vertex 47.89397267419886 -139.2109184317461 5.9999999999999964
  endloop
endfacet
facet normal -0.32640130468396167 -0.9452312882573279 -0.0
  outer loop
    vertex 47.40046291090492 -139.0405027540019 5.9999999999999964
    vertex 47.89397267419886 -139.2109184317461 7.499999999999997
    vertex 47.40046291090492 -139.0405027540019 7.499999999999997
  endloop
endfacet
facet normal -0.99598970301951 0.08946793548030725 0.0
  outer loop
    vertex 64.99829356396877 -140.9173995629073 7.499999999999997
    vertex 64.95158192819264 -141.43741053660935 5.9999999999999964
    vertex 64.95158192819264 -141.43741053660935 7.499999999999997
  endloop
endfacet
facet normal -0.99598970301951 0.08946793548030725 0.0
  outer loop
    vertex 64.95158192819264 -141.43741053660935 5.9999999999999964
    vertex 64.99829356396877 -140.9173995629073 7.499999999999997
    vertex 64.99829356396877 -140.9173995629073 5.9999999999999964
  endloop
endfacet
facet normal -0.9852081824928344 -0.17136171436223993 -0.0
  outer loop
    vertex 64.90882479569676 -140.40301767248798 7.499999999999997
    vertex 64.99829356396877 -140.9173995629073 5.9999999999999964
    vertex 64.99829356396877 -140.9173995629073 7.499999999999997
  endloop
endfacet
facet normal -0.9852081824928344 -0.17136171436223993 -0.0
  outer loop
    vertex 64.99829356396877 -140.9173995629073 5.9999999999999964
    vertex 64.90882479569676 -140.40301767248798 7.499999999999997
    vertex 64.90882479569676 -140.40301767248798 5.9999999999999964
  endloop
endfacet
facet normal -0.907286352462771 -0.42051334655965483 -0.0
  outer loop
    vertex 64.6892727720802 -139.92931914112722 7.499999999999997
    vertex 64.90882479569676 -140.40301767248798 5.9999999999999964
    vertex 64.90882479569676 -140.40301767248798 7.499999999999997
  endloop
endfacet
facet normal -0.907286352462771 -0.42051334655965483 -0.0
  outer loop
    vertex 64.90882479569676 -140.40301767248798 5.9999999999999964
    vertex 64.6892727720802 -139.92931914112722 7.499999999999997
    vertex 64.6892727720802 -139.92931914112722 5.9999999999999964
  endloop
endfacet
facet normal -0.7675344568739616 -0.6410076891201798 -0.0
  outer loop
    vertex 64.35459960070168 -139.52858574091346 7.499999999999997
    vertex 64.6892727720802 -139.92931914112722 5.9999999999999964
    vertex 64.6892727720802 -139.92931914112722 7.499999999999997
  endloop
endfacet
facet normal -0.7675344568739616 -0.6410076891201798 -0.0
  outer loop
    vertex 64.6892727720802 -139.92931914112722 5.9999999999999964
    vertex 64.35459960070168 -139.52858574091346 7.499999999999997
    vertex 64.35459960070168 -139.52858574091346 5.9999999999999964
  endloop
endfacet
facet normal -0.5754763564598608 -0.8178184169824517 -0.0
  outer loop
    vertex 64.35459960070168 -139.52858574091346 7.499999999999997
    vertex 63.92761270511707 -139.22812679082796 5.9999999999999964
    vertex 64.35459960070168 -139.52858574091346 5.9999999999999964
  endloop
endfacet
facet normal -0.5754763564598608 -0.8178184169824517 -0.0
  outer loop
    vertex 63.92761270511707 -139.22812679082796 5.9999999999999964
    vertex 64.35459960070168 -139.52858574091346 7.499999999999997
    vertex 63.92761270511707 -139.22812679082796 7.499999999999997
  endloop
endfacet
facet normal -0.34420049337263775 -0.9388961712362197 -0.0
  outer loop
    vertex 63.92761270511707 -139.22812679082796 7.499999999999997
    vertex 63.437410536631276 -139.04841807178718 5.9999999999999964
    vertex 63.92761270511707 -139.22812679082796 5.9999999999999964
  endloop
endfacet
facet normal -0.34420049337263775 -0.9388961712362197 -0.0
  outer loop
    vertex 63.437410536631276 -139.04841807178718 5.9999999999999964
    vertex 63.92761270511707 -139.22812679082796 7.499999999999997
    vertex 63.437410536631276 -139.04841807178718 7.499999999999997
  endloop
endfacet
facet normal -0.0894679354803501 -0.9959897030195061 -0.0
  outer loop
    vertex 63.437410536631276 -139.04841807178718 7.499999999999997
    vertex 62.91739956292921 -139.00170643601103 5.9999999999999964
    vertex 63.437410536631276 -139.04841807178718 5.9999999999999964
  endloop
endfacet
facet normal -0.0894679354803501 -0.9959897030195061 -0.0
  outer loop
    vertex 62.91739956292921 -139.00170643601103 5.9999999999999964
    vertex 63.437410536631276 -139.04841807178718 7.499999999999997
    vertex 62.91739956292921 -139.00170643601103 7.499999999999997
  endloop
endfacet
facet normal 0.17136171436226455 -0.9852081824928302 0.0
  outer loop
    vertex 62.91739956292921 -139.00170643601103 7.499999999999997
    vertex 62.40301767250991 -139.09117520428305 5.9999999999999964
    vertex 62.91739956292921 -139.00170643601103 5.9999999999999964
  endloop
endfacet
facet normal 0.17136171436226455 -0.9852081824928302 0.0
  outer loop
    vertex 62.40301767250991 -139.09117520428305 5.9999999999999964
    vertex 62.91739956292921 -139.00170643601103 7.499999999999997
    vertex 62.40301767250991 -139.09117520428305 7.499999999999997
  endloop
endfacet
facet normal 0.42051334655964656 -0.9072863524627749 0.0
  outer loop
    vertex 62.40301767250991 -139.09117520428305 7.499999999999997
    vertex 61.92931914114917 -139.31072722789963 5.9999999999999964
    vertex 62.40301767250991 -139.09117520428305 5.9999999999999964
  endloop
endfacet
facet normal 0.42051334655964656 -0.9072863524627749 0.0
  outer loop
    vertex 61.92931914114917 -139.31072722789963 5.9999999999999964
    vertex 62.40301767250991 -139.09117520428305 7.499999999999997
    vertex 61.92931914114917 -139.31072722789963 7.499999999999997
  endloop
endfacet
facet normal 0.641007689120167 -0.767534456873972 0.0
  outer loop
    vertex 61.92931914114917 -139.31072722789963 7.499999999999997
    vertex 61.52858574093539 -139.64540039927815 5.9999999999999964
    vertex 61.92931914114917 -139.31072722789963 5.9999999999999964
  endloop
endfacet
facet normal 0.641007689120167 -0.767534456873972 0.0
  outer loop
    vertex 61.52858574093539 -139.64540039927815 5.9999999999999964
    vertex 61.92931914114917 -139.31072722789963 7.499999999999997
    vertex 61.52858574093539 -139.64540039927815 7.499999999999997
  endloop
endfacet
facet normal 0.8178184169824517 -0.5754763564598608 0.0
  outer loop
    vertex 61.52858574093539 -139.64540039927815 5.9999999999999964
    vertex 61.22812679084989 -140.07238729486275 7.499999999999997
    vertex 61.22812679084989 -140.07238729486275 5.9999999999999964
  endloop
endfacet
facet normal 0.8178184169824517 -0.5754763564598608 0.0
  outer loop
    vertex 61.22812679084989 -140.07238729486275 7.499999999999997
    vertex 61.52858574093539 -139.64540039927815 5.9999999999999964
    vertex 61.52858574093539 -139.64540039927815 7.499999999999997
  endloop
endfacet
facet normal 0.9388961712362153 -0.34420049337264985 0.0
  outer loop
    vertex 61.22812679084989 -140.07238729486275 5.9999999999999964
    vertex 61.04841807180911 -140.56258946334853 7.499999999999997
    vertex 61.04841807180911 -140.56258946334853 5.9999999999999964
  endloop
endfacet
facet normal 0.9388961712362153 -0.34420049337264985 0.0
  outer loop
    vertex 61.04841807180911 -140.56258946334853 7.499999999999997
    vertex 61.22812679084989 -140.07238729486275 5.9999999999999964
    vertex 61.22812679084989 -140.07238729486275 7.499999999999997
  endloop
endfacet
facet normal 0.99598970301951 -0.08946793548030725 0.0
  outer loop
    vertex 61.04841807180911 -140.56258946334853 5.9999999999999964
    vertex 61.001706436032975 -141.08260043705062 7.499999999999997
    vertex 61.001706436032975 -141.08260043705062 5.9999999999999964
  endloop
endfacet
facet normal 0.99598970301951 -0.08946793548030725 0.0
  outer loop
    vertex 61.001706436032975 -141.08260043705062 7.499999999999997
    vertex 61.04841807180911 -140.56258946334853 5.9999999999999964
    vertex 61.04841807180911 -140.56258946334853 7.499999999999997
  endloop
endfacet
facet normal 0.9852081824928344 0.17136171436223993 0.0
  outer loop
    vertex 61.001706436032975 -141.08260043705062 5.9999999999999964
    vertex 61.09117520430499 -141.59698232746993 7.499999999999997
    vertex 61.09117520430499 -141.59698232746993 5.9999999999999964
  endloop
endfacet
facet normal 0.9852081824928344 0.17136171436223993 0.0
  outer loop
    vertex 61.09117520430499 -141.59698232746993 7.499999999999997
    vertex 61.001706436032975 -141.08260043705062 5.9999999999999964
    vertex 61.001706436032975 -141.08260043705062 7.499999999999997
  endloop
endfacet
facet normal 0.907286352462771 0.42051334655965483 0.0
  outer loop
    vertex 61.09117520430499 -141.59698232746993 5.9999999999999964
    vertex 61.310727227921554 -142.07068085883066 7.499999999999997
    vertex 61.310727227921554 -142.07068085883066 5.9999999999999964
  endloop
endfacet
facet normal 0.907286352462771 0.42051334655965483 0.0
  outer loop
    vertex 61.310727227921554 -142.07068085883066 7.499999999999997
    vertex 61.09117520430499 -141.59698232746993 5.9999999999999964
    vertex 61.09117520430499 -141.59698232746993 7.499999999999997
  endloop
endfacet
facet normal 0.7675344568739616 0.6410076891201798 0.0
  outer loop
    vertex 61.310727227921554 -142.07068085883066 5.9999999999999964
    vertex 61.64540039930009 -142.47141425904442 7.499999999999997
    vertex 61.64540039930009 -142.47141425904442 5.9999999999999964
  endloop
endfacet
facet normal 0.7675344568739616 0.6410076891201798 0.0
  outer loop
    vertex 61.64540039930009 -142.47141425904442 7.499999999999997
    vertex 61.310727227921554 -142.07068085883066 5.9999999999999964
    vertex 61.310727227921554 -142.07068085883066 7.499999999999997
  endloop
endfacet
facet normal 0.5754763564598608 0.8178184169824517 0.0
  outer loop
    vertex 61.64540039930009 -142.47141425904442 7.499999999999997
    vertex 62.072387294884685 -142.77187320912992 5.9999999999999964
    vertex 61.64540039930009 -142.47141425904442 5.9999999999999964
  endloop
endfacet
facet normal 0.5754763564598608 0.8178184169824517 0.0
  outer loop
    vertex 62.072387294884685 -142.77187320912992 5.9999999999999964
    vertex 61.64540039930009 -142.47141425904442 7.499999999999997
    vertex 62.072387294884685 -142.77187320912992 7.499999999999997
  endloop
endfacet
facet normal 0.34420049337263775 0.9388961712362197 0.0
  outer loop
    vertex 62.072387294884685 -142.77187320912992 7.499999999999997
    vertex 62.56258946337047 -142.9515819281707 5.9999999999999964
    vertex 62.072387294884685 -142.77187320912992 5.9999999999999964
  endloop
endfacet
facet normal 0.34420049337263775 0.9388961712362197 0.0
  outer loop
    vertex 62.56258946337047 -142.9515819281707 5.9999999999999964
    vertex 62.072387294884685 -142.77187320912992 7.499999999999997
    vertex 62.56258946337047 -142.9515819281707 7.499999999999997
  endloop
endfacet
facet normal 0.0894679354803501 0.9959897030195061 0.0
  outer loop
    vertex 62.56258946337047 -142.9515819281707 7.499999999999997
    vertex 63.08260043707254 -142.99829356394685 5.9999999999999964
    vertex 62.56258946337047 -142.9515819281707 5.9999999999999964
  endloop
endfacet
facet normal 0.0894679354803501 0.9959897030195061 0.0
  outer loop
    vertex 63.08260043707254 -142.99829356394685 5.9999999999999964
    vertex 62.56258946337047 -142.9515819281707 7.499999999999997
    vertex 63.08260043707254 -142.99829356394685 7.499999999999997
  endloop
endfacet
facet normal -0.17136171436226455 0.9852081824928302 0.0
  outer loop
    vertex 63.08260043707254 -142.99829356394685 7.499999999999997
    vertex 63.596982327491844 -142.90882479567483 5.9999999999999964
    vertex 63.08260043707254 -142.99829356394685 5.9999999999999964
  endloop
endfacet
facet normal -0.17136171436226455 0.9852081824928302 0.0
  outer loop
    vertex 63.596982327491844 -142.90882479567483 5.9999999999999964
    vertex 63.08260043707254 -142.99829356394685 7.499999999999997
    vertex 63.596982327491844 -142.90882479567483 7.499999999999997
  endloop
endfacet
facet normal -0.42051334655964656 0.9072863524627749 0.0
  outer loop
    vertex 63.596982327491844 -142.90882479567483 7.499999999999997
    vertex 64.07068085885258 -142.68927277205827 5.9999999999999964
    vertex 63.596982327491844 -142.90882479567483 5.9999999999999964
  endloop
endfacet
facet normal -0.42051334655964656 0.9072863524627749 0.0
  outer loop
    vertex 64.07068085885258 -142.68927277205827 5.9999999999999964
    vertex 63.596982327491844 -142.90882479567483 7.499999999999997
    vertex 64.07068085885258 -142.68927277205827 7.499999999999997
  endloop
endfacet
facet normal -0.641007689120167 0.767534456873972 0.0
  outer loop
    vertex 64.07068085885258 -142.68927277205827 7.499999999999997
    vertex 64.47141425906636 -142.35459960067973 5.9999999999999964
    vertex 64.07068085885258 -142.68927277205827 5.9999999999999964
  endloop
endfacet
facet normal -0.641007689120167 0.767534456873972 0.0
  outer loop
    vertex 64.47141425906636 -142.35459960067973 5.9999999999999964
    vertex 64.07068085885258 -142.68927277205827 7.499999999999997
    vertex 64.47141425906636 -142.35459960067973 7.499999999999997
  endloop
endfacet
facet normal -0.8178184169824517 0.5754763564598608 0.0
  outer loop
    vertex 64.77187320915186 -141.92761270509516 7.499999999999997
    vertex 64.47141425906636 -142.35459960067973 5.9999999999999964
    vertex 64.47141425906636 -142.35459960067973 7.499999999999997
  endloop
endfacet
facet normal -0.8178184169824517 0.5754763564598608 0.0
  outer loop
    vertex 64.47141425906636 -142.35459960067973 5.9999999999999964
    vertex 64.77187320915186 -141.92761270509516 7.499999999999997
    vertex 64.77187320915186 -141.92761270509516 5.9999999999999964
  endloop
endfacet
facet normal -0.9388961712362153 0.34420049337264985 0.0
  outer loop
    vertex 64.95158192819264 -141.43741053660935 7.499999999999997
    vertex 64.77187320915186 -141.92761270509516 5.9999999999999964
    vertex 64.77187320915186 -141.92761270509516 7.499999999999997
  endloop
endfacet
facet normal -0.9388961712362153 0.34420049337264985 0.0
  outer loop
    vertex 64.77187320915186 -141.92761270509516 5.9999999999999964
    vertex 64.95158192819264 -141.43741053660935 7.499999999999997
    vertex 64.95158192819264 -141.43741053660935 5.9999999999999964
  endloop
endfacet
endsolid salon_case
