solid salon_case
facet normal -0.99144486137381 -0.13052619222005538 0.0
  outer loop
    vertex 68.7499999999997 -142.50000000000003 62.0
    vertex 68.8777781514157 -143.4705714191345 59.00000000000001
    vertex 68.8777781514157 -143.4705714191345 62.0
  endloop
endfacet
facet normal -0.99144486137381 -0.13052619222005538 0.0
  outer loop
    vertex 68.8777781514157 -143.4705714191345 59.00000000000001
    vertex 68.7499999999997 -142.50000000000003 62.0
    vertex 68.7499999999997 -142.50000000000003 59.00000000000001
  endloop
endfacet
facet normal -0.99144486137381 0.13052619222005538 0.0
  outer loop
    vertex 68.8777781514157 -141.52942858086558 62.0
    vertex 68.7499999999997 -142.50000000000003 59.00000000000001
    vertex 68.7499999999997 -142.50000000000003 62.0
  endloop
endfacet
facet normal -0.99144486137381 0.13052619222005538 0.0
  outer loop
    vertex 68.7499999999997 -142.50000000000003 59.00000000000001
    vertex 68.8777781514157 -141.52942858086558 62.0
    vertex 68.8777781514157 -141.52942858086558 59.00000000000001
  endloop
endfacet
facet normal -0.9238795325112911 0.3826834323650797 0.0
  outer loop
    vertex 69.25240473580807 -140.625 62.0
    vertex 68.8777781514157 -141.52942858086558 59.00000000000001
    vertex 68.8777781514157 -141.52942858086558 62.0
  endloop
endfacet
facet normal -0.9238795325112911 0.3826834323650797 0.0
  outer loop
    vertex 68.8777781514157 -141.52942858086558 59.00000000000001
    vertex 69.25240473580807 -140.625 62.0
    vertex 69.25240473580807 -140.625 59.00000000000001
  endloop
endfacet
facet normal -0.7933533402912145 0.6087614290087475 0.0
  outer loop
    vertex 69.84834957055018 -139.84834957055048 62.0
    vertex 69.25240473580807 -140.625 59.00000000000001
    vertex 69.25240473580807 -140.625 62.0
  endloop
endfacet
facet normal -0.7933533402912145 0.6087614290087475 0.0
  outer loop
    vertex 69.25240473580807 -140.625 59.00000000000001
    vertex 69.84834957055018 -139.84834957055048 62.0
    vertex 69.84834957055018 -139.84834957055048 59.00000000000001
  endloop
endfacet
facet normal -0.6087614290087275 0.79335334029123 0.0
  outer loop
    vertex 69.84834957055018 -139.84834957055048 62.0
    vertex 70.6249999999997 -139.2524047358084 59.00000000000001
    vertex 69.84834957055018 -139.84834957055048 59.00000000000001
  endloop
endfacet
facet normal -0.6087614290087275 0.79335334029123 0.0
  outer loop
    vertex 70.6249999999997 -139.2524047358084 59.00000000000001
    vertex 69.84834957055018 -139.84834957055048 62.0
    vertex 70.6249999999997 -139.2524047358084 62.0
  endloop
endfacet
facet normal -0.3826834323650976 0.9238795325112835 0.0
  outer loop
    vertex 70.6249999999997 -139.2524047358084 62.0
    vertex 71.52942858086526 -138.87777815141604 59.00000000000001
    vertex 70.6249999999997 -139.2524047358084 59.00000000000001
  endloop
endfacet
facet normal -0.3826834323650976 0.9238795325112835 0.0
  outer loop
    vertex 71.52942858086526 -138.87777815141604 59.00000000000001
    vertex 70.6249999999997 -139.2524047358084 62.0
    vertex 71.52942858086526 -138.87777815141604 62.0
  endloop
endfacet
facet normal -0.9238795325112911 -0.3826834323650797 0.0
  outer loop
    vertex 68.8777781514157 -143.4705714191345 62.0
    vertex 69.25240473580807 -144.37500000000006 59.00000000000001
    vertex 69.25240473580807 -144.37500000000006 62.0
  endloop
endfacet
facet normal -0.9238795325112911 -0.3826834323650797 0.0
  outer loop
    vertex 69.25240473580807 -144.37500000000006 59.00000000000001
    vertex 68.8777781514157 -143.4705714191345 62.0
    vertex 68.8777781514157 -143.4705714191345 59.00000000000001
  endloop
endfacet
facet normal -0.1305261922200546 0.99144486137381 0.0
  outer loop
    vertex 71.52942858086526 -138.87777815141604 62.0
    vertex 72.49999999999972 -138.75000000000003 59.00000000000001
    vertex 71.52942858086526 -138.87777815141604 59.00000000000001
  endloop
endfacet
facet normal -0.1305261922200546 0.99144486137381 0.0
  outer loop
    vertex 72.49999999999972 -138.75000000000003 59.00000000000001
    vertex 71.52942858086526 -138.87777815141604 62.0
    vertex 72.49999999999972 -138.75000000000003 62.0
  endloop
endfacet
facet normal 0.13052619222005538 0.99144486137381 0.0
  outer loop
    vertex 72.49999999999972 -138.75000000000003 62.0
    vertex 73.47057141913417 -138.87777815141604 59.00000000000001
    vertex 72.49999999999972 -138.75000000000003 59.00000000000001
  endloop
endfacet
facet normal 0.13052619222005538 0.99144486137381 0.0
  outer loop
    vertex 73.47057141913417 -138.87777815141604 59.00000000000001
    vertex 72.49999999999972 -138.75000000000003 62.0
    vertex 73.47057141913417 -138.87777815141604 62.0
  endloop
endfacet
facet normal 0.3826834323650976 0.9238795325112835 0.0
  outer loop
    vertex 73.47057141913417 -138.87777815141604 62.0
    vertex 74.37499999999972 -139.2524047358084 59.00000000000001
    vertex 73.47057141913417 -138.87777815141604 59.00000000000001
  endloop
endfacet
facet normal 0.3826834323650976 0.9238795325112835 0.0
  outer loop
    vertex 74.37499999999972 -139.2524047358084 59.00000000000001
    vertex 73.47057141913417 -138.87777815141604 62.0
    vertex 74.37499999999972 -139.2524047358084 62.0
  endloop
endfacet
facet normal 0.6087614290087193 0.7933533402912363 0.0
  outer loop
    vertex 74.37499999999972 -139.2524047358084 62.0
    vertex 75.15165042944928 -139.84834957055048 59.00000000000001
    vertex 74.37499999999972 -139.2524047358084 59.00000000000001
  endloop
endfacet
facet normal 0.6087614290087193 0.7933533402912363 0.0
  outer loop
    vertex 75.15165042944928 -139.84834957055048 59.00000000000001
    vertex 74.37499999999972 -139.2524047358084 62.0
    vertex 75.15165042944928 -139.84834957055048 62.0
  endloop
endfacet
facet normal 0.7933533402912228 0.6087614290087366 0.0
  outer loop
    vertex 75.15165042944928 -139.84834957055048 59.00000000000001
    vertex 75.74759526419138 -140.625 62.0
    vertex 75.74759526419138 -140.625 59.00000000000001
  endloop
endfacet
facet normal 0.7933533402912228 0.6087614290087366 0.0
  outer loop
    vertex 75.74759526419138 -140.625 62.0
    vertex 75.15165042944928 -139.84834957055048 59.00000000000001
    vertex 75.15165042944928 -139.84834957055048 62.0
  endloop
endfacet
facet normal 0.923879532511289 0.3826834323650845 0.0
  outer loop
    vertex 75.74759526419138 -140.625 59.00000000000001
    vertex 76.12222184858373 -141.52942858086558 62.0
    vertex 76.12222184858373 -141.52942858086558 59.00000000000001
  endloop
endfacet
facet normal 0.923879532511289 0.3826834323650845 0.0
  outer loop
    vertex 76.12222184858373 -141.52942858086558 62.0
    vertex 75.74759526419138 -140.625 59.00000000000001
    vertex 75.74759526419138 -140.625 62.0
  endloop
endfacet
facet normal 0.793353340291206 -0.608761429008759 0.0
  outer loop
    vertex 75.74759526419138 -144.37500000000006 59.00000000000001
    vertex 75.15165042944928 -145.15165042944955 62.0
    vertex 75.15165042944928 -145.15165042944955 59.00000000000001
  endloop
endfacet
facet normal 0.793353340291206 -0.608761429008759 0.0
  outer loop
    vertex 75.15165042944928 -145.15165042944955 62.0
    vertex 75.74759526419138 -144.37500000000006 59.00000000000001
    vertex 75.74759526419138 -144.37500000000006 62.0
  endloop
endfacet
facet normal 0.6087614290087482 -0.7933533402912142 0.0
  outer loop
    vertex 75.15165042944928 -145.15165042944955 62.0
    vertex 74.37499999999972 -145.74759526419166 59.00000000000001
    vertex 75.15165042944928 -145.15165042944955 59.00000000000001
  endloop
endfacet
facet normal 0.6087614290087482 -0.7933533402912142 0.0
  outer loop
    vertex 74.37499999999972 -145.74759526419166 59.00000000000001
    vertex 75.15165042944928 -145.15165042944955 62.0
    vertex 74.37499999999972 -145.74759526419166 62.0
  endloop
endfacet
facet normal 0.9238795325112911 -0.3826834323650797 0.0
  outer loop
    vertex 76.12222184858372 -143.4705714191345 59.00000000000001
    vertex 75.74759526419138 -144.37500000000006 62.0
    vertex 75.74759526419138 -144.37500000000006 59.00000000000001
  endloop
endfacet
facet normal 0.9238795325112911 -0.3826834323650797 0.0
  outer loop
    vertex 75.74759526419138 -144.37500000000006 62.0
    vertex 76.12222184858372 -143.4705714191345 59.00000000000001
    vertex 76.12222184858372 -143.4705714191345 62.0
  endloop
endfacet
facet normal 0.3826834323650562 -0.9238795325113007 0.0
  outer loop
    vertex 74.37499999999972 -145.74759526419166 62.0
    vertex 73.47057141913416 -146.122221848584 59.00000000000001
    vertex 74.37499999999972 -145.74759526419166 59.00000000000001
  endloop
endfacet
facet normal 0.3826834323650562 -0.9238795325113007 0.0
  outer loop
    vertex 73.47057141913416 -146.122221848584 59.00000000000001
    vertex 74.37499999999972 -145.74759526419166 62.0
    vertex 73.47057141913416 -146.122221848584 62.0
  endloop
endfacet
facet normal 0.13052619222014672 -0.9914448613737981 0.0
  outer loop
    vertex 73.47057141913416 -146.122221848584 62.0
    vertex 72.49999999999972 -146.25000000000009 59.00000000000001
    vertex 73.47057141913416 -146.122221848584 59.00000000000001
  endloop
endfacet
facet normal 0.13052619222014672 -0.9914448613737981 0.0
  outer loop
    vertex 72.49999999999972 -146.25000000000009 59.00000000000001
    vertex 73.47057141913416 -146.122221848584 62.0
    vertex 72.49999999999972 -146.25000000000009 62.0
  endloop
endfacet
facet normal -0.13052619222014522 -0.9914448613737981 0.0
  outer loop
    vertex 72.49999999999972 -146.25000000000009 62.0
    vertex 71.52942858086526 -146.122221848584 59.00000000000001
    vertex 72.49999999999972 -146.25000000000009 59.00000000000001
  endloop
endfacet
facet normal -0.13052619222014522 -0.9914448613737981 0.0
  outer loop
    vertex 71.52942858086526 -146.122221848584 59.00000000000001
    vertex 72.49999999999972 -146.25000000000009 62.0
    vertex 71.52942858086526 -146.122221848584 62.0
  endloop
endfacet
facet normal -0.6087614290087565 -0.7933533402912077 0.0
  outer loop
    vertex 70.6249999999997 -145.74759526419166 62.0
    vertex 69.84834957055018 -145.15165042944955 59.00000000000001
    vertex 70.6249999999997 -145.74759526419166 59.00000000000001
  endloop
endfacet
facet normal -0.6087614290087565 -0.7933533402912077 0.0
  outer loop
    vertex 69.84834957055018 -145.15165042944955 59.00000000000001
    vertex 70.6249999999997 -145.74759526419166 62.0
    vertex 69.84834957055018 -145.15165042944955 62.0
  endloop
endfacet
facet normal -0.3826834323650583 -0.9238795325112998 0.0
  outer loop
    vertex 71.52942858086526 -146.122221848584 62.0
    vertex 70.6249999999997 -145.74759526419166 59.00000000000001
    vertex 71.52942858086526 -146.122221848584 59.00000000000001
  endloop
endfacet
facet normal -0.3826834323650583 -0.9238795325112998 0.0
  outer loop
    vertex 70.6249999999997 -145.74759526419166 59.00000000000001
    vertex 71.52942858086526 -146.122221848584 62.0
    vertex 70.6249999999997 -145.74759526419166 62.0
  endloop
endfacet
facet normal -0.7933533402911974 -0.6087614290087698 0.0
  outer loop
    vertex 69.25240473580807 -144.37500000000006 62.0
    vertex 69.84834957055018 -145.15165042944955 59.00000000000001
    vertex 69.84834957055018 -145.15165042944955 62.0
  endloop
endfacet
facet normal -0.7933533402911974 -0.6087614290087698 0.0
  outer loop
    vertex 69.84834957055018 -145.15165042944955 59.00000000000001
    vertex 69.25240473580807 -144.37500000000006 62.0
    vertex 69.25240473580807 -144.37500000000006 59.00000000000001
  endloop
endfacet
facet normal 0.9914448613738107 0.13052619222004969 0.0
  outer loop
    vertex 76.12222184858373 -141.52942858086558 59.00000000000001
    vertex 76.24999999999973 -142.50000000000003 62.0
    vertex 76.24999999999973 -142.50000000000003 59.00000000000001
  endloop
endfacet
facet normal 0.9914448613738107 0.13052619222004969 0.0
  outer loop
    vertex 76.24999999999973 -142.50000000000003 62.0
    vertex 76.12222184858373 -141.52942858086558 59.00000000000001
    vertex 76.12222184858373 -141.52942858086558 62.0
  endloop
endfacet
facet normal 0.99144486137381 -0.13052619222005538 0.0
  outer loop
    vertex 76.24999999999973 -142.50000000000003 59.00000000000001
    vertex 76.12222184858372 -143.4705714191345 62.0
    vertex 76.12222184858372 -143.4705714191345 59.00000000000001
  endloop
endfacet
facet normal 0.99144486137381 -0.13052619222005538 0.0
  outer loop
    vertex 76.12222184858372 -143.4705714191345 62.0
    vertex 76.24999999999973 -142.50000000000003 59.00000000000001
    vertex 76.24999999999973 -142.50000000000003 62.0
  endloop
endfacet
facet normal 0.0 0.0 1.0
  outer loop
    vertex 68.8777781514157 -143.4705714191345 62.0
    vertex 68.8777781514157 -141.52942858086558 62.0
    vertex 68.7499999999997 -142.50000000000003 62.0
  endloop
endfacet
facet normal 0.0 0.0 1.0
  outer loop
    vertex 68.8777781514157 -141.52942858086558 62.0
    vertex 68.8777781514157 -143.4705714191345 62.0
    vertex 69.25240473580807 -144.37500000000006 62.0
  endloop
endfacet
facet normal 0.0 0.0 1.0
  outer loop
    vertex 68.8777781514157 -141.52942858086558 62.0
    vertex 69.25240473580807 -144.37500000000006 62.0
    vertex 69.25240473580807 -140.625 62.0
  endloop
endfacet
facet normal 0.0 0.0 1.0
  outer loop
    vertex 69.25240473580807 -140.625 62.0
    vertex 69.25240473580807 -144.37500000000006 62.0
    vertex 69.84834957055018 -145.15165042944955 62.0
  endloop
endfacet
facet normal 0.0 0.0 1.0
  outer loop
    vertex 69.25240473580807 -140.625 62.0
    vertex 69.84834957055018 -145.15165042944955 62.0
    vertex 69.84834957055018 -139.84834957055048 62.0
  endloop
endfacet
facet normal 0.0 0.0 1.0
  outer loop
    vertex 69.84834957055018 -139.84834957055048 62.0
    vertex 69.84834957055018 -145.15165042944955 62.0
    vertex 69.99999999999973 -142.50000000000003 62.0
  endloop
endfacet
facet normal 0.0 0.0 1.0
  outer loop
    vertex 69.99999999999973 -142.50000000000003 62.0
    vertex 69.84834957055018 -145.15165042944955 62.0
    vertex 70.08518543427705 -143.14704761275632 62.0
  endloop
endfacet
facet normal 0.0 0.0 1.0
  outer loop
    vertex 70.08518543427705 -143.14704761275632 62.0
    vertex 69.84834957055018 -145.15165042944955 62.0
    vertex 70.6249999999997 -145.74759526419166 62.0
  endloop
endfacet
facet normal 0.0 0.0 1.0
  outer loop
    vertex 70.08518543427705 -143.14704761275632 62.0
    vertex 70.6249999999997 -145.74759526419166 62.0
    vertex 70.33493649053862 -143.75000000000003 62.0
  endloop
endfacet
facet normal 0.0 0.0 1.0
  outer loop
    vertex 70.33493649053862 -143.75000000000003 62.0
    vertex 70.6249999999997 -145.74759526419166 62.0
    vertex 70.73223304703336 -144.2677669529664 62.0
  endloop
endfacet
facet normal 0.0 0.0 1.0
  outer loop
    vertex 70.73223304703336 -144.2677669529664 62.0
    vertex 70.6249999999997 -145.74759526419166 62.0
    vertex 71.52942858086526 -146.122221848584 62.0
  endloop
endfacet
facet normal 0.0 0.0 1.0
  outer loop
    vertex 70.73223304703336 -144.2677669529664 62.0
    vertex 71.52942858086526 -146.122221848584 62.0
    vertex 71.24999999999972 -144.6650635094611 62.0
  endloop
endfacet
facet normal 0.0 0.0 1.0
  outer loop
    vertex 71.24999999999972 -144.6650635094611 62.0
    vertex 71.52942858086526 -146.122221848584 62.0
    vertex 71.85295238724342 -144.9148145657227 62.0
  endloop
endfacet
facet normal 0.0 0.0 1.0
  outer loop
    vertex 71.85295238724342 -144.9148145657227 62.0
    vertex 71.52942858086526 -146.122221848584 62.0
    vertex 72.49999999999972 -146.25000000000009 62.0
  endloop
endfacet
facet normal 0.0 0.0 1.0
  outer loop
    vertex 71.85295238724342 -144.9148145657227 62.0
    vertex 72.49999999999972 -146.25000000000009 62.0
    vertex 72.49999999999972 -145.00000000000003 62.0
  endloop
endfacet
facet normal 0.0 0.0 1.0
  outer loop
    vertex 72.49999999999972 -145.00000000000003 62.0
    vertex 72.49999999999972 -146.25000000000009 62.0
    vertex 73.47057141913416 -146.122221848584 62.0
  endloop
endfacet
facet normal 0.0 0.0 1.0
  outer loop
    vertex 72.49999999999972 -145.00000000000003 62.0
    vertex 73.47057141913416 -146.122221848584 62.0
    vertex 73.14704761275603 -144.9148145657227 62.0
  endloop
endfacet
facet normal 0.0 0.0 1.0
  outer loop
    vertex 73.14704761275603 -144.9148145657227 62.0
    vertex 73.47057141913416 -146.122221848584 62.0
    vertex 73.74999999999972 -144.6650635094611 62.0
  endloop
endfacet
facet normal 0.0 0.0 1.0
  outer loop
    vertex 73.74999999999972 -144.6650635094611 62.0
    vertex 73.47057141913416 -146.122221848584 62.0
    vertex 74.37499999999972 -145.74759526419166 62.0
  endloop
endfacet
facet normal 0.0 0.0 1.0
  outer loop
    vertex 73.74999999999972 -144.6650635094611 62.0
    vertex 74.37499999999972 -145.74759526419166 62.0
    vertex 74.26776695296608 -144.2677669529664 62.0
  endloop
endfacet
facet normal 0.0 0.0 1.0
  outer loop
    vertex 74.26776695296608 -144.2677669529664 62.0
    vertex 74.37499999999972 -145.74759526419166 62.0
    vertex 74.66506350946082 -143.75000000000003 62.0
  endloop
endfacet
facet normal 0.0 0.0 1.0
  outer loop
    vertex 74.66506350946082 -143.75000000000003 62.0
    vertex 74.37499999999972 -145.74759526419166 62.0
    vertex 75.15165042944928 -145.15165042944955 62.0
  endloop
endfacet
facet normal 0.0 0.0 1.0
  outer loop
    vertex 74.66506350946082 -143.75000000000003 62.0
    vertex 75.15165042944928 -145.15165042944955 62.0
    vertex 74.91481456572238 -143.14704761275632 62.0
  endloop
endfacet
facet normal 0.0 0.0 1.0
  outer loop
    vertex 74.91481456572238 -143.14704761275632 62.0
    vertex 75.15165042944928 -145.15165042944955 62.0
    vertex 74.99999999999972 -142.50000000000003 62.0
  endloop
endfacet
facet normal 0.0 0.0 1.0
  outer loop
    vertex 69.84834957055018 -139.84834957055048 62.0
    vertex 70.08518543427705 -141.85295238724373 62.0
    vertex 70.6249999999997 -139.2524047358084 62.0
  endloop
endfacet
facet normal 0.0 0.0 1.0
  outer loop
    vertex 70.08518543427705 -141.85295238724373 62.0
    vertex 69.84834957055018 -139.84834957055048 62.0
    vertex 69.99999999999973 -142.50000000000003 62.0
  endloop
endfacet
facet normal 0.0 0.0 1.0
  outer loop
    vertex 70.6249999999997 -139.2524047358084 62.0
    vertex 70.08518543427705 -141.85295238724373 62.0
    vertex 70.33493649053862 -141.25000000000003 62.0
  endloop
endfacet
facet normal 0.0 0.0 1.0
  outer loop
    vertex 70.6249999999997 -139.2524047358084 62.0
    vertex 70.33493649053862 -141.25000000000003 62.0
    vertex 70.73223304703336 -140.73223304703365 62.0
  endloop
endfacet
facet normal 0.0 0.0 1.0
  outer loop
    vertex 70.6249999999997 -139.2524047358084 62.0
    vertex 70.73223304703336 -140.73223304703365 62.0
    vertex 71.52942858086526 -138.87777815141604 62.0
  endloop
endfacet
facet normal 0.0 0.0 1.0
  outer loop
    vertex 71.52942858086526 -138.87777815141604 62.0
    vertex 70.73223304703336 -140.73223304703365 62.0
    vertex 71.24999999999972 -140.33493649053895 62.0
  endloop
endfacet
facet normal 0.0 0.0 1.0
  outer loop
    vertex 71.52942858086526 -138.87777815141604 62.0
    vertex 71.24999999999972 -140.33493649053895 62.0
    vertex 71.85295238724342 -140.08518543427738 62.0
  endloop
endfacet
facet normal 0.0 0.0 1.0
  outer loop
    vertex 71.52942858086526 -138.87777815141604 62.0
    vertex 71.85295238724342 -140.08518543427738 62.0
    vertex 72.49999999999972 -138.75000000000003 62.0
  endloop
endfacet
facet normal 0.0 0.0 1.0
  outer loop
    vertex 72.49999999999972 -138.75000000000003 62.0
    vertex 71.85295238724342 -140.08518543427738 62.0
    vertex 72.49999999999972 -140.00000000000003 62.0
  endloop
endfacet
facet normal 0.0 0.0 1.0
  outer loop
    vertex 72.49999999999972 -138.75000000000003 62.0
    vertex 72.49999999999972 -140.00000000000003 62.0
    vertex 73.14704761275603 -140.08518543427738 62.0
  endloop
endfacet
facet normal 0.0 0.0 1.0
  outer loop
    vertex 72.49999999999972 -138.75000000000003 62.0
    vertex 73.14704761275603 -140.08518543427738 62.0
    vertex 73.47057141913417 -138.87777815141604 62.0
  endloop
endfacet
facet normal 0.0 0.0 1.0
  outer loop
    vertex 73.47057141913417 -138.87777815141604 62.0
    vertex 73.14704761275603 -140.08518543427738 62.0
    vertex 73.74999999999972 -140.33493649053895 62.0
  endloop
endfacet
facet normal 0.0 0.0 1.0
  outer loop
    vertex 73.47057141913417 -138.87777815141604 62.0
    vertex 73.74999999999972 -140.33493649053895 62.0
    vertex 74.37499999999972 -139.2524047358084 62.0
  endloop
endfacet
facet normal 0.0 0.0 1.0
  outer loop
    vertex 74.37499999999972 -139.2524047358084 62.0
    vertex 73.74999999999972 -140.33493649053895 62.0
    vertex 74.26776695296608 -140.73223304703365 62.0
  endloop
endfacet
facet normal 0.0 0.0 1.0
  outer loop
    vertex 74.37499999999972 -139.2524047358084 62.0
    vertex 74.26776695296608 -140.73223304703365 62.0
    vertex 74.66506350946082 -141.25000000000006 62.0
  endloop
endfacet
facet normal 0.0 0.0 1.0
  outer loop
    vertex 74.37499999999972 -139.2524047358084 62.0
    vertex 74.66506350946082 -141.25000000000006 62.0
    vertex 75.15165042944928 -139.84834957055048 62.0
  endloop
endfacet
facet normal 0.0 0.0 1.0
  outer loop
    vertex 75.15165042944928 -139.84834957055048 62.0
    vertex 74.66506350946082 -141.25000000000006 62.0
    vertex 74.91481456572238 -141.85295238724373 62.0
  endloop
endfacet
facet normal 0.0 0.0 1.0
  outer loop
    vertex 75.15165042944928 -139.84834957055048 62.0
    vertex 74.91481456572238 -141.85295238724373 62.0
    vertex 74.99999999999972 -142.50000000000003 62.0
  endloop
endfacet
facet normal 0.0 0.0 1.0
  outer loop
    vertex 75.15165042944928 -139.84834957055048 62.0
    vertex 74.99999999999972 -142.50000000000003 62.0
    vertex 75.15165042944928 -145.15165042944955 62.0
  endloop
endfacet
facet normal 0.0 0.0 1.0
  outer loop
    vertex 75.15165042944928 -139.84834957055048 62.0
    vertex 75.15165042944928 -145.15165042944955 62.0
    vertex 75.74759526419138 -144.37500000000006 62.0
  endloop
endfacet
facet normal 0.0 0.0 1.0
  outer loop
    vertex 75.15165042944928 -139.84834957055048 62.0
    vertex 75.74759526419138 -144.37500000000006 62.0
    vertex 75.74759526419138 -140.625 62.0
  endloop
endfacet
facet normal 0.0 0.0 1.0
  outer loop
    vertex 75.74759526419138 -140.625 62.0
    vertex 75.74759526419138 -144.37500000000006 62.0
    vertex 76.12222184858372 -143.4705714191345 62.0
  endloop
endfacet
facet normal 0.0 0.0 1.0
  outer loop
    vertex 75.74759526419138 -140.625 62.0
    vertex 76.12222184858372 -143.4705714191345 62.0
    vertex 76.12222184858373 -141.52942858086558 62.0
  endloop
endfacet
facet normal 0.0 0.0 1.0
  outer loop
    vertex 76.12222184858373 -141.52942858086558 62.0
    vertex 76.12222184858372 -143.4705714191345 62.0
    vertex 76.24999999999973 -142.50000000000003 62.0
  endloop
endfacet
facet normal 0.14157949653351168 -0.9899268893010825 0.0
  outer loop
    vertex 72.48326468468366 -141.00009335983165 92.0
    vertex 72.09563052237353 -141.0555328575685 58.99999999999996
    vertex 72.48326468468366 -141.00009335983165 58.99999999999996
  endloop
endfacet
facet normal 0.14157949653351168 -0.9899268893010825 0.0
  outer loop
    vertex 72.09563052237353 -141.0555328575685 58.99999999999996
    vertex 72.48326468468366 -141.00009335983165 92.0
    vertex 72.09563052237353 -141.0555328575685 92.0
  endloop
endfacet
facet normal 0.3929672243849686 -0.9195524784150024 0.0
  outer loop
    vertex 72.09563052237353 -141.0555328575685 92.0
    vertex 71.73555347171146 -141.20941040396727 58.99999999999996
    vertex 72.09563052237353 -141.0555328575685 58.99999999999996
  endloop
endfacet
facet normal 0.3929672243849686 -0.9195524784150024 0.0
  outer loop
    vertex 71.73555347171146 -141.20941040396727 58.99999999999996
    vertex 72.09563052237353 -141.0555328575685 92.0
    vertex 71.73555347171146 -141.20941040396727 92.0
  endloop
endfacet
facet normal 0.61757488530361 -0.7865120857572584 0.0
  outer loop
    vertex 71.73555347171146 -141.20941040396727 92.0
    vertex 71.42757218864463 -141.4512394985355 58.99999999999996
    vertex 71.73555347171146 -141.20941040396727 58.99999999999996
  endloop
endfacet
facet normal 0.61757488530361 -0.7865120857572584 0.0
  outer loop
    vertex 71.42757218864463 -141.4512394985355 58.99999999999996
    vertex 71.73555347171146 -141.20941040396727 92.0
    vertex 71.42757218864463 -141.4512394985355 92.0
  endloop
endfacet
facet normal 0.8000958383795436 -0.5998721942278499 0.0
  outer loop
    vertex 71.42757218864463 -141.4512394985355 58.99999999999996
    vertex 71.19267508865089 -141.76453988811988 92.0
    vertex 71.19267508865089 -141.76453988811988 58.99999999999996
  endloop
endfacet
facet normal 0.8000958383795436 -0.5998721942278499 0.0
  outer loop
    vertex 71.19267508865089 -141.76453988811988 92.0
    vertex 71.42757218864463 -141.4512394985355 58.99999999999996
    vertex 71.42757218864463 -141.4512394985355 92.0
  endloop
endfacet
facet normal 0.9280915822908161 -0.3723520039974665 0.0
  outer loop
    vertex 71.19267508865089 -141.76453988811988 58.99999999999996
    vertex 71.046870020909 -142.12796066892358 92.0
    vertex 71.046870020909 -142.12796066892358 58.99999999999996
  endloop
endfacet
facet normal 0.9280915822908161 -0.3723520039974665 0.0
  outer loop
    vertex 71.046870020909 -142.12796066892358 92.0
    vertex 71.19267508865089 -141.76453988811988 58.99999999999996
    vertex 71.19267508865089 -141.76453988811988 92.0
  endloop
endfacet
facet normal 0.9928394186128193 -0.11945664003544934 0.0
  outer loop
    vertex 71.046870020909 -142.12796066892358 58.99999999999996
    vertex 71.00009335983131 -142.51673531531608 92.0
    vertex 71.00009335983131 -142.51673531531608 58.99999999999996
  endloop
endfacet
facet normal 0.9928394186128193 -0.11945664003544934 0.0
  outer loop
    vertex 71.00009335983131 -142.51673531531608 92.0
    vertex 71.046870020909 -142.12796066892358 58.99999999999996
    vertex 71.046870020909 -142.12796066892358 92.0
  endloop
endfacet
facet normal 0.989926889301079 0.14157949653353585 0.0
  outer loop
    vertex 71.00009335983131 -142.51673531531608 58.99999999999996
    vertex 71.05553285756818 -142.90436947762623 92.0
    vertex 71.05553285756818 -142.90436947762623 58.99999999999996
  endloop
endfacet
facet normal 0.989926889301079 0.14157949653353585 0.0
  outer loop
    vertex 71.05553285756818 -142.90436947762623 92.0
    vertex 71.00009335983131 -142.51673531531608 58.99999999999996
    vertex 71.00009335983131 -142.51673531531608 92.0
  endloop
endfacet
facet normal 0.9195524784150071 0.3929672243849583 0.0
  outer loop
    vertex 71.05553285756818 -142.90436947762623 58.99999999999996
    vertex 71.20941040396694 -143.26444652828832 92.0
    vertex 71.20941040396694 -143.26444652828832 58.99999999999996
  endloop
endfacet
facet normal 0.9195524784150071 0.3929672243849583 0.0
  outer loop
    vertex 71.20941040396694 -143.26444652828832 92.0
    vertex 71.05553285756818 -142.90436947762623 58.99999999999996
    vertex 71.05553285756818 -142.90436947762623 92.0
  endloop
endfacet
facet normal 0.7865120857572334 0.6175748853036418 0.0
  outer loop
    vertex 71.20941040396694 -143.26444652828832 58.99999999999996
    vertex 71.45123949853519 -143.5724278113551 92.0
    vertex 71.45123949853519 -143.5724278113551 58.99999999999996
  endloop
endfacet
facet normal 0.7865120857572334 0.6175748853036418 0.0
  outer loop
    vertex 71.45123949853519 -143.5724278113551 92.0
    vertex 71.20941040396694 -143.26444652828832 58.99999999999996
    vertex 71.20941040396694 -143.26444652828832 92.0
  endloop
endfacet
facet normal 0.5998721942278176 0.8000958383795678 0.0
  outer loop
    vertex 71.45123949853519 -143.5724278113551 92.0
    vertex 71.76453988811957 -143.80732491134887 58.99999999999996
    vertex 71.45123949853519 -143.5724278113551 58.99999999999996
  endloop
endfacet
facet normal 0.5998721942278176 0.8000958383795678 0.0
  outer loop
    vertex 71.76453988811957 -143.80732491134887 58.99999999999996
    vertex 71.45123949853519 -143.5724278113551 92.0
    vertex 71.76453988811957 -143.80732491134887 92.0
  endloop
endfacet
facet normal 0.37235200399751117 0.9280915822907982 0.0
  outer loop
    vertex 71.76453988811957 -143.80732491134887 92.0
    vertex 72.12796066892327 -143.95312997909076 58.99999999999996
    vertex 71.76453988811957 -143.80732491134887 58.99999999999996
  endloop
endfacet
facet normal 0.37235200399751117 0.9280915822907982 0.0
  outer loop
    vertex 72.12796066892327 -143.95312997909076 58.99999999999996
    vertex 71.76453988811957 -143.80732491134887 92.0
    vertex 72.12796066892327 -143.95312997909076 92.0
  endloop
endfacet
facet normal 0.11945664003538574 0.9928394186128271 0.0
  outer loop
    vertex 72.12796066892327 -143.95312997909076 92.0
    vertex 72.51673531531578 -143.99990664016843 58.99999999999996
    vertex 72.12796066892327 -143.95312997909076 58.99999999999996
  endloop
endfacet
facet normal 0.11945664003538574 0.9928394186128271 0.0
  outer loop
    vertex 72.51673531531578 -143.99990664016843 58.99999999999996
    vertex 72.12796066892327 -143.95312997909076 92.0
    vertex 72.51673531531578 -143.99990664016843 92.0
  endloop
endfacet
facet normal -0.14157949653351168 0.9899268893010825 0.0
  outer loop
    vertex 72.51673531531578 -143.99990664016843 92.0
    vertex 72.90436947762592 -143.94446714243156 58.99999999999996
    vertex 72.51673531531578 -143.99990664016843 58.99999999999996
  endloop
endfacet
facet normal -0.14157949653351168 0.9899268893010825 0.0
  outer loop
    vertex 72.90436947762592 -143.94446714243156 58.99999999999996
    vertex 72.51673531531578 -143.99990664016843 92.0
    vertex 72.90436947762592 -143.94446714243156 92.0
  endloop
endfacet
facet normal -0.3929672243849686 0.9195524784150024 0.0
  outer loop
    vertex 72.90436947762592 -143.94446714243156 92.0
    vertex 73.26444652828798 -143.79058959603282 58.99999999999996
    vertex 72.90436947762592 -143.94446714243156 58.99999999999996
  endloop
endfacet
facet normal -0.3929672243849686 0.9195524784150024 0.0
  outer loop
    vertex 73.26444652828798 -143.79058959603282 58.99999999999996
    vertex 72.90436947762592 -143.94446714243156 92.0
    vertex 73.26444652828798 -143.79058959603282 92.0
  endloop
endfacet
facet normal -0.61757488530361 0.7865120857572584 0.0
  outer loop
    vertex 73.26444652828798 -143.79058959603282 92.0
    vertex 73.57242781135481 -143.54876050146456 58.99999999999996
    vertex 73.26444652828798 -143.79058959603282 58.99999999999996
  endloop
endfacet
facet normal -0.61757488530361 0.7865120857572584 0.0
  outer loop
    vertex 73.57242781135481 -143.54876050146456 58.99999999999996
    vertex 73.26444652828798 -143.79058959603282 92.0
    vertex 73.57242781135481 -143.54876050146456 92.0
  endloop
endfacet
facet normal -0.8000958383795436 0.5998721942278499 0.0
  outer loop
    vertex 73.80732491134856 -143.2354601118802 92.0
    vertex 73.57242781135481 -143.54876050146456 58.99999999999996
    vertex 73.57242781135481 -143.54876050146456 92.0
  endloop
endfacet
facet normal -0.8000958383795436 0.5998721942278499 0.0
  outer loop
    vertex 73.57242781135481 -143.54876050146456 58.99999999999996
    vertex 73.80732491134856 -143.2354601118802 92.0
    vertex 73.80732491134856 -143.2354601118802 58.99999999999996
  endloop
endfacet
facet normal -0.9280915822908161 0.3723520039974665 0.0
  outer loop
    vertex 73.95312997909045 -142.87203933107648 92.0
    vertex 73.80732491134856 -143.2354601118802 58.99999999999996
    vertex 73.80732491134856 -143.2354601118802 92.0
  endloop
endfacet
facet normal -0.9280915822908161 0.3723520039974665 0.0
  outer loop
    vertex 73.80732491134856 -143.2354601118802 58.99999999999996
    vertex 73.95312997909045 -142.87203933107648 92.0
    vertex 73.95312997909045 -142.87203933107648 58.99999999999996
  endloop
endfacet
facet normal -0.9928394186128193 0.11945664003544934 0.0
  outer loop
    vertex 73.99990664016813 -142.48326468468397 92.0
    vertex 73.95312997909045 -142.87203933107648 58.99999999999996
    vertex 73.95312997909045 -142.87203933107648 92.0
  endloop
endfacet
facet normal -0.9928394186128193 0.11945664003544934 0.0
  outer loop
    vertex 73.95312997909045 -142.87203933107648 58.99999999999996
    vertex 73.99990664016813 -142.48326468468397 92.0
    vertex 73.99990664016813 -142.48326468468397 58.99999999999996
  endloop
endfacet
facet normal -0.989926889301079 -0.14157949653353585 -0.0
  outer loop
    vertex 73.94446714243126 -142.09563052237385 92.0
    vertex 73.99990664016813 -142.48326468468397 58.99999999999996
    vertex 73.99990664016813 -142.48326468468397 92.0
  endloop
endfacet
facet normal -0.989926889301079 -0.14157949653353585 -0.0
  outer loop
    vertex 73.99990664016813 -142.48326468468397 58.99999999999996
    vertex 73.94446714243126 -142.09563052237385 92.0
    vertex 73.94446714243126 -142.09563052237385 58.99999999999996
  endloop
endfacet
facet normal -0.9195524784149967 -0.3929672243849826 -0.0
  outer loop
    vertex 73.79058959603249 -141.73555347171177 92.0
    vertex 73.94446714243126 -142.09563052237385 58.99999999999996
    vertex 73.94446714243126 -142.09563052237385 92.0
  endloop
endfacet
facet normal -0.9195524784149967 -0.3929672243849826 -0.0
  outer loop
    vertex 73.94446714243126 -142.09563052237385 58.99999999999996
    vertex 73.79058959603249 -141.73555347171177 92.0
    vertex 73.79058959603249 -141.73555347171177 58.99999999999996
  endloop
endfacet
facet normal -0.7865120857572473 -0.617574885303624 -0.0
  outer loop
    vertex 73.54876050146426 -141.42757218864494 92.0
    vertex 73.79058959603249 -141.73555347171177 58.99999999999996
    vertex 73.79058959603249 -141.73555347171177 92.0
  endloop
endfacet
facet normal -0.7865120857572473 -0.617574885303624 -0.0
  outer loop
    vertex 73.79058959603249 -141.73555347171177 58.99999999999996
    vertex 73.54876050146426 -141.42757218864494 92.0
    vertex 73.54876050146426 -141.42757218864494 58.99999999999996
  endloop
endfacet
facet normal -0.5998721942278176 -0.8000958383795678 -0.0
  outer loop
    vertex 73.54876050146426 -141.42757218864494 92.0
    vertex 73.23546011187987 -141.1926750886512 58.99999999999996
    vertex 73.54876050146426 -141.42757218864494 58.99999999999996
  endloop
endfacet
facet normal -0.5998721942278176 -0.8000958383795678 -0.0
  outer loop
    vertex 73.23546011187987 -141.1926750886512 58.99999999999996
    vertex 73.54876050146426 -141.42757218864494 92.0
    vertex 73.23546011187987 -141.1926750886512 92.0
  endloop
endfacet
facet normal -0.37235200399751117 -0.9280915822907982 -0.0
  outer loop
    vertex 73.23546011187987 -141.1926750886512 92.0
    vertex 72.87203933107617 -141.0468700209093 58.99999999999996
    vertex 73.23546011187987 -141.1926750886512 58.99999999999996
  endloop
endfacet
facet normal -0.37235200399751117 -0.9280915822907982 -0.0
  outer loop
    vertex 72.87203933107617 -141.0468700209093 58.99999999999996
    vertex 73.23546011187987 -141.1926750886512 92.0
    vertex 72.87203933107617 -141.0468700209093 92.0
  endloop
endfacet
facet normal -0.11945664003538574 -0.9928394186128271 -0.0
  outer loop
    vertex 72.87203933107617 -141.0468700209093 92.0
    vertex 72.48326468468366 -141.00009335983165 58.99999999999996
    vertex 72.87203933107617 -141.0468700209093 58.99999999999996
  endloop
endfacet
facet normal -0.11945664003538574 -0.9928394186128271 -0.0
  outer loop
    vertex 72.48326468468366 -141.00009335983165 58.99999999999996
    vertex 72.87203933107617 -141.0468700209093 92.0
    vertex 72.48326468468366 -141.00009335983165 92.0
  endloop
endfacet
facet normal 0.0 0.0 1.0
  outer loop
    vertex 70.08518543427705 -143.14704761275632 92.0
    vertex 70.08518543427705 -141.85295238724373 92.0
    vertex 69.99999999999973 -142.50000000000003 92.0
  endloop
endfacet
facet normal 0.0 0.0 1.0
  outer loop
    vertex 70.08518543427705 -141.85295238724373 92.0
    vertex 70.08518543427705 -143.14704761275632 92.0
    vertex 70.33493649053862 -143.75000000000003 92.0
  endloop
endfacet
facet normal 0.0 0.0 1.0
  outer loop
    vertex 70.08518543427705 -141.85295238724373 92.0
    vertex 70.33493649053862 -143.75000000000003 92.0
    vertex 70.33493649053862 -141.25000000000003 92.0
  endloop
endfacet
facet normal 0.0 0.0 1.0
  outer loop
    vertex 70.33493649053862 -141.25000000000003 92.0
    vertex 70.33493649053862 -143.75000000000003 92.0
    vertex 70.73223304703336 -144.2677669529664 92.0
  endloop
endfacet
facet normal 0.0 0.0 1.0
  outer loop
    vertex 70.33493649053862 -141.25000000000003 92.0
    vertex 70.73223304703336 -144.2677669529664 92.0
    vertex 70.73223304703336 -140.73223304703365 92.0
  endloop
endfacet
facet normal 0.0 0.0 1.0
  outer loop
    vertex 70.73223304703336 -140.73223304703365 92.0
    vertex 70.73223304703336 -144.2677669529664 92.0
    vertex 71.24999999999972 -144.6650635094611 92.0
  endloop
endfacet
facet normal 0.0 0.0 1.0
  outer loop
    vertex 70.73223304703336 -140.73223304703365 92.0
    vertex 71.24999999999972 -144.6650635094611 92.0
    vertex 71.00009335983131 -142.51673531531608 92.0
  endloop
endfacet
facet normal 0.0 0.0 1.0
  outer loop
    vertex 71.00009335983131 -142.51673531531608 92.0
    vertex 71.24999999999972 -144.6650635094611 92.0
    vertex 71.05553285756818 -142.90436947762623 92.0
  endloop
endfacet
facet normal 0.0 0.0 1.0
  outer loop
    vertex 71.05553285756818 -142.90436947762623 92.0
    vertex 71.24999999999972 -144.6650635094611 92.0
    vertex 71.20941040396694 -143.26444652828832 92.0
  endloop
endfacet
facet normal 0.0 0.0 1.0
  outer loop
    vertex 71.20941040396694 -143.26444652828832 92.0
    vertex 71.24999999999972 -144.6650635094611 92.0
    vertex 71.45123949853519 -143.5724278113551 92.0
  endloop
endfacet
facet normal 0.0 0.0 1.0
  outer loop
    vertex 71.45123949853519 -143.5724278113551 92.0
    vertex 71.24999999999972 -144.6650635094611 92.0
    vertex 71.85295238724342 -144.9148145657227 92.0
  endloop
endfacet
facet normal 0.0 0.0 1.0
  outer loop
    vertex 71.45123949853519 -143.5724278113551 92.0
    vertex 71.85295238724342 -144.9148145657227 92.0
    vertex 71.76453988811957 -143.80732491134887 92.0
  endloop
endfacet
facet normal 0.0 0.0 1.0
  outer loop
    vertex 71.76453988811957 -143.80732491134887 92.0
    vertex 71.85295238724342 -144.9148145657227 92.0
    vertex 72.12796066892327 -143.95312997909076 92.0
  endloop
endfacet
facet normal 0.0 0.0 1.0
  outer loop
    vertex 72.12796066892327 -143.95312997909076 92.0
    vertex 71.85295238724342 -144.9148145657227 92.0
    vertex 72.49999999999972 -145.00000000000003 92.0
  endloop
endfacet
facet normal 0.0 0.0 1.0
  outer loop
    vertex 72.12796066892327 -143.95312997909076 92.0
    vertex 72.49999999999972 -145.00000000000003 92.0
    vertex 72.51673531531578 -143.99990664016843 92.0
  endloop
endfacet
facet normal 0.0 0.0 1.0
  outer loop
    vertex 72.51673531531578 -143.99990664016843 92.0
    vertex 72.49999999999972 -145.00000000000003 92.0
    vertex 73.14704761275603 -144.9148145657227 92.0
  endloop
endfacet
facet normal 0.0 0.0 1.0
  outer loop
    vertex 72.51673531531578 -143.99990664016843 92.0
    vertex 73.14704761275603 -144.9148145657227 92.0
    vertex 72.90436947762592 -143.94446714243156 92.0
  endloop
endfacet
facet normal 0.0 0.0 1.0
  outer loop
    vertex 72.90436947762592 -143.94446714243156 92.0
    vertex 73.14704761275603 -144.9148145657227 92.0
    vertex 73.26444652828798 -143.79058959603282 92.0
  endloop
endfacet
facet normal 0.0 0.0 1.0
  outer loop
    vertex 73.26444652828798 -143.79058959603282 92.0
    vertex 73.14704761275603 -144.9148145657227 92.0
    vertex 73.74999999999972 -144.6650635094611 92.0
  endloop
endfacet
facet normal 0.0 0.0 1.0
  outer loop
    vertex 73.26444652828798 -143.79058959603282 92.0
    vertex 73.74999999999972 -144.6650635094611 92.0
    vertex 73.57242781135481 -143.54876050146456 92.0
  endloop
endfacet
facet normal 0.0 0.0 1.0
  outer loop
    vertex 73.57242781135481 -143.54876050146456 92.0
    vertex 73.74999999999972 -144.6650635094611 92.0
    vertex 73.80732491134856 -143.2354601118802 92.0
  endloop
endfacet
facet normal 0.0 0.0 1.0
  outer loop
    vertex 73.80732491134856 -143.2354601118802 92.0
    vertex 73.74999999999972 -144.6650635094611 92.0
    vertex 74.26776695296608 -144.2677669529664 92.0
  endloop
endfacet
facet normal 0.0 0.0 1.0
  outer loop
    vertex 73.80732491134856 -143.2354601118802 92.0
    vertex 74.26776695296608 -144.2677669529664 92.0
    vertex 73.95312997909045 -142.87203933107648 92.0
  endloop
endfacet
facet normal 0.0 0.0 1.0
  outer loop
    vertex 73.95312997909045 -142.87203933107648 92.0
    vertex 74.26776695296608 -144.2677669529664 92.0
    vertex 73.99990664016813 -142.48326468468397 92.0
  endloop
endfacet
facet normal 0.0 0.0 1.0
  outer loop
    vertex 71.00009335983131 -142.51673531531608 92.0
    vertex 71.24999999999972 -140.33493649053895 92.0
    vertex 70.73223304703336 -140.73223304703365 92.0
  endloop
endfacet
facet normal 0.0 0.0 1.0
  outer loop
    vertex 71.24999999999972 -140.33493649053895 92.0
    vertex 71.00009335983131 -142.51673531531608 92.0
    vertex 71.046870020909 -142.12796066892358 92.0
  endloop
endfacet
facet normal 0.0 0.0 1.0
  outer loop
    vertex 71.24999999999972 -140.33493649053895 92.0
    vertex 71.046870020909 -142.12796066892358 92.0
    vertex 71.19267508865089 -141.76453988811988 92.0
  endloop
endfacet
facet normal 0.0 0.0 1.0
  outer loop
    vertex 71.24999999999972 -140.33493649053895 92.0
    vertex 71.19267508865089 -141.76453988811988 92.0
    vertex 71.42757218864463 -141.4512394985355 92.0
  endloop
endfacet
facet normal 0.0 0.0 1.0
  outer loop
    vertex 71.24999999999972 -140.33493649053895 92.0
    vertex 71.42757218864463 -141.4512394985355 92.0
    vertex 71.85295238724342 -140.08518543427738 92.0
  endloop
endfacet
facet normal 0.0 0.0 1.0
  outer loop
    vertex 71.85295238724342 -140.08518543427738 92.0
    vertex 71.42757218864463 -141.4512394985355 92.0
    vertex 71.73555347171146 -141.20941040396727 92.0
  endloop
endfacet
facet normal 0.0 0.0 1.0
  outer loop
    vertex 71.85295238724342 -140.08518543427738 92.0
    vertex 71.73555347171146 -141.20941040396727 92.0
    vertex 72.09563052237353 -141.0555328575685 92.0
  endloop
endfacet
facet normal 0.0 0.0 1.0
  outer loop
    vertex 71.85295238724342 -140.08518543427738 92.0
    vertex 72.09563052237353 -141.0555328575685 92.0
    vertex 72.49999999999972 -140.00000000000003 92.0
  endloop
endfacet
facet normal 0.0 0.0 1.0
  outer loop
    vertex 72.49999999999972 -140.00000000000003 92.0
    vertex 72.09563052237353 -141.0555328575685 92.0
    vertex 72.48326468468366 -141.00009335983165 92.0
  endloop
endfacet
facet normal 0.0 0.0 1.0
  outer loop
    vertex 72.49999999999972 -140.00000000000003 92.0
    vertex 72.48326468468366 -141.00009335983165 92.0
    vertex 72.87203933107617 -141.0468700209093 92.0
  endloop
endfacet
facet normal 0.0 0.0 1.0
  outer loop
    vertex 72.49999999999972 -140.00000000000003 92.0
    vertex 72.87203933107617 -141.0468700209093 92.0
    vertex 73.14704761275603 -140.08518543427738 92.0
  endloop
endfacet
facet normal 0.0 0.0 1.0
  outer loop
    vertex 73.14704761275603 -140.08518543427738 92.0
    vertex 72.87203933107617 -141.0468700209093 92.0
    vertex 73.23546011187987 -141.1926750886512 92.0
  endloop
endfacet
facet normal 0.0 0.0 1.0
  outer loop
    vertex 73.14704761275603 -140.08518543427738 92.0
    vertex 73.23546011187987 -141.1926750886512 92.0
    vertex 73.74999999999972 -140.33493649053895 92.0
  endloop
endfacet
facet normal 0.0 0.0 1.0
  outer loop
    vertex 73.74999999999972 -140.33493649053895 92.0
    vertex 73.23546011187987 -141.1926750886512 92.0
    vertex 73.54876050146426 -141.42757218864494 92.0
  endloop
endfacet
facet normal 0.0 0.0 1.0
  outer loop
    vertex 73.74999999999972 -140.33493649053895 92.0
    vertex 73.54876050146426 -141.42757218864494 92.0
    vertex 73.79058959603249 -141.73555347171177 92.0
  endloop
endfacet
facet normal 0.0 0.0 1.0
  outer loop
    vertex 73.74999999999972 -140.33493649053895 92.0
    vertex 73.79058959603249 -141.73555347171177 92.0
    vertex 74.26776695296608 -140.73223304703365 92.0
  endloop
endfacet
facet normal 0.0 0.0 1.0
  outer loop
    vertex 74.26776695296608 -140.73223304703365 92.0
    vertex 73.79058959603249 -141.73555347171177 92.0
    vertex 73.94446714243126 -142.09563052237385 92.0
  endloop
endfacet
facet normal 0.0 0.0 1.0
  outer loop
    vertex 74.26776695296608 -140.73223304703365 92.0
    vertex 73.94446714243126 -142.09563052237385 92.0
    vertex 73.99990664016813 -142.48326468468397 92.0
  endloop
endfacet
facet normal 0.0 0.0 1.0
  outer loop
    vertex 74.26776695296608 -140.73223304703365 92.0
    vertex 73.99990664016813 -142.48326468468397 92.0
    vertex 74.26776695296608 -144.2677669529664 92.0
  endloop
endfacet
facet normal 0.0 0.0 1.0
  outer loop
    vertex 74.26776695296608 -140.73223304703365 92.0
    vertex 74.26776695296608 -144.2677669529664 92.0
    vertex 74.66506350946082 -143.75000000000003 92.0
  endloop
endfacet
facet normal 0.0 0.0 1.0
  outer loop
    vertex 74.26776695296608 -140.73223304703365 92.0
    vertex 74.66506350946082 -143.75000000000003 92.0
    vertex 74.66506350946082 -141.25000000000006 92.0
  endloop
endfacet
facet normal 0.0 0.0 1.0
  outer loop
    vertex 74.66506350946082 -141.25000000000006 92.0
    vertex 74.66506350946082 -143.75000000000003 92.0
    vertex 74.91481456572238 -143.14704761275632 92.0
  endloop
endfacet
facet normal 0.0 0.0 1.0
  outer loop
    vertex 74.66506350946082 -141.25000000000006 92.0
    vertex 74.91481456572238 -143.14704761275632 92.0
    vertex 74.91481456572238 -141.85295238724373 92.0
  endloop
endfacet
facet normal 0.0 0.0 1.0
  outer loop
    vertex 74.91481456572238 -141.85295238724373 92.0
    vertex 74.91481456572238 -143.14704761275632 92.0
    vertex 74.99999999999972 -142.50000000000003 92.0
  endloop
endfacet
facet normal 0.13052619222005613 -0.9914448613738099 0.0
  outer loop
    vertex 73.14704761275603 -144.9148145657227 92.0
    vertex 72.49999999999972 -145.00000000000003 62.0
    vertex 73.14704761275603 -144.9148145657227 62.0
  endloop
endfacet
facet normal 0.13052619222005613 -0.9914448613738099 0.0
  outer loop
    vertex 72.49999999999972 -145.00000000000003 62.0
    vertex 73.14704761275603 -144.9148145657227 92.0
    vertex 72.49999999999972 -145.00000000000003 92.0
  endloop
endfacet
facet normal 0.3826834323650976 -0.9238795325112836 0.0
  outer loop
    vertex 73.74999999999972 -144.6650635094611 92.0
    vertex 73.14704761275603 -144.9148145657227 62.0
    vertex 73.74999999999972 -144.6650635094611 62.0
  endloop
endfacet
facet normal 0.3826834323650976 -0.9238795325112836 0.0
  outer loop
    vertex 73.14704761275603 -144.9148145657227 62.0
    vertex 73.74999999999972 -144.6650635094611 92.0
    vertex 73.14704761275603 -144.9148145657227 92.0
  endloop
endfacet
facet normal 0.6087614290087074 -0.7933533402912453 0.0
  outer loop
    vertex 74.26776695296608 -144.2677669529664 92.0
    vertex 73.74999999999972 -144.6650635094611 62.0
    vertex 74.26776695296608 -144.2677669529664 62.0
  endloop
endfacet
facet normal 0.6087614290087074 -0.7933533402912453 0.0
  outer loop
    vertex 73.74999999999972 -144.6650635094611 62.0
    vertex 74.26776695296608 -144.2677669529664 92.0
    vertex 73.74999999999972 -144.6650635094611 92.0
  endloop
endfacet
facet normal 0.7933533402912287 -0.6087614290087292 0.0
  outer loop
    vertex 74.66506350946082 -143.75000000000003 62.0
    vertex 74.26776695296608 -144.2677669529664 92.0
    vertex 74.26776695296608 -144.2677669529664 62.0
  endloop
endfacet
facet normal 0.7933533402912287 -0.6087614290087292 0.0
  outer loop
    vertex 74.26776695296608 -144.2677669529664 92.0
    vertex 74.66506350946082 -143.75000000000003 62.0
    vertex 74.66506350946082 -143.75000000000003 92.0
  endloop
endfacet
facet normal 0.9238795325112947 -0.38268343236507063 0.0
  outer loop
    vertex 74.91481456572238 -143.14704761275632 62.0
    vertex 74.66506350946082 -143.75000000000003 92.0
    vertex 74.66506350946082 -143.75000000000003 62.0
  endloop
endfacet
facet normal 0.9238795325112947 -0.38268343236507063 0.0
  outer loop
    vertex 74.66506350946082 -143.75000000000003 92.0
    vertex 74.91481456572238 -143.14704761275632 62.0
    vertex 74.91481456572238 -143.14704761275632 92.0
  endloop
endfacet
facet normal 0.9914448613738096 -0.13052619222005837 0.0
  outer loop
    vertex 74.99999999999972 -142.50000000000003 62.0
    vertex 74.91481456572238 -143.14704761275632 92.0
    vertex 74.91481456572238 -143.14704761275632 62.0
  endloop
endfacet
facet normal 0.9914448613738096 -0.13052619222005837 0.0
  outer loop
    vertex 74.91481456572238 -143.14704761275632 92.0
    vertex 74.99999999999972 -142.50000000000003 62.0
    vertex 74.99999999999972 -142.50000000000003 92.0
  endloop
endfacet
facet normal 0.9914448613738096 0.13052619222005837 0.0
  outer loop
    vertex 74.91481456572238 -141.85295238724373 62.0
    vertex 74.99999999999972 -142.50000000000003 92.0
    vertex 74.99999999999972 -142.50000000000003 62.0
  endloop
endfacet
facet normal 0.9914448613738096 0.13052619222005837 0.0
  outer loop
    vertex 74.99999999999972 -142.50000000000003 92.0
    vertex 74.91481456572238 -141.85295238724373 62.0
    vertex 74.91481456572238 -141.85295238724373 92.0
  endloop
endfacet
facet normal 0.9238795325112896 0.38268343236508284 0.0
  outer loop
    vertex 74.66506350946082 -141.25000000000006 62.0
    vertex 74.91481456572238 -141.85295238724373 92.0
    vertex 74.91481456572238 -141.85295238724373 62.0
  endloop
endfacet
facet normal 0.9238795325112896 0.38268343236508284 0.0
  outer loop
    vertex 74.91481456572238 -141.85295238724373 92.0
    vertex 74.66506350946082 -141.25000000000006 62.0
    vertex 74.66506350946082 -141.25000000000006 92.0
  endloop
endfacet
facet normal 0.7933533402912414 0.6087614290087124 0.0
  outer loop
    vertex 74.26776695296608 -140.73223304703365 62.0
    vertex 74.66506350946082 -141.25000000000006 92.0
    vertex 74.66506350946082 -141.25000000000006 62.0
  endloop
endfacet
facet normal 0.7933533402912414 0.6087614290087124 0.0
  outer loop
    vertex 74.66506350946082 -141.25000000000006 92.0
    vertex 74.26776695296608 -140.73223304703365 62.0
    vertex 74.26776695296608 -140.73223304703365 92.0
  endloop
endfacet
facet normal 0.6087614290087074 0.7933533402912453 0.0
  outer loop
    vertex 73.74999999999972 -140.33493649053895 92.0
    vertex 74.26776695296608 -140.73223304703365 62.0
    vertex 73.74999999999972 -140.33493649053895 62.0
  endloop
endfacet
facet normal 0.6087614290087074 0.7933533402912453 0.0
  outer loop
    vertex 74.26776695296608 -140.73223304703365 62.0
    vertex 73.74999999999972 -140.33493649053895 92.0
    vertex 74.26776695296608 -140.73223304703365 92.0
  endloop
endfacet
facet normal 0.3826834323650976 0.9238795325112836 0.0
  outer loop
    vertex 73.14704761275603 -140.08518543427738 92.0
    vertex 73.74999999999972 -140.33493649053895 62.0
    vertex 73.14704761275603 -140.08518543427738 62.0
  endloop
endfacet
facet normal 0.3826834323650976 0.9238795325112836 0.0
  outer loop
    vertex 73.74999999999972 -140.33493649053895 62.0
    vertex 73.14704761275603 -140.08518543427738 92.0
    vertex 73.74999999999972 -140.33493649053895 92.0
  endloop
endfacet
facet normal 0.13052619222005613 0.9914448613738099 0.0
  outer loop
    vertex 72.49999999999972 -140.00000000000003 92.0
    vertex 73.14704761275603 -140.08518543427738 62.0
    vertex 72.49999999999972 -140.00000000000003 62.0
  endloop
endfacet
facet normal 0.13052619222005613 0.9914448613738099 0.0
  outer loop
    vertex 73.14704761275603 -140.08518543427738 62.0
    vertex 72.49999999999972 -140.00000000000003 92.0
    vertex 73.14704761275603 -140.08518543427738 92.0
  endloop
endfacet
facet normal -0.13052619222005613 0.9914448613738099 0.0
  outer loop
    vertex 71.85295238724342 -140.08518543427738 92.0
    vertex 72.49999999999972 -140.00000000000003 62.0
    vertex 71.85295238724342 -140.08518543427738 62.0
  endloop
endfacet
facet normal -0.13052619222005613 0.9914448613738099 0.0
  outer loop
    vertex 72.49999999999972 -140.00000000000003 62.0
    vertex 71.85295238724342 -140.08518543427738 92.0
    vertex 72.49999999999972 -140.00000000000003 92.0
  endloop
endfacet
facet normal -0.3826834323650976 0.9238795325112836 0.0
  outer loop
    vertex 71.24999999999972 -140.33493649053895 92.0
    vertex 71.85295238724342 -140.08518543427738 62.0
    vertex 71.24999999999972 -140.33493649053895 62.0
  endloop
endfacet
facet normal -0.3826834323650976 0.9238795325112836 0.0
  outer loop
    vertex 71.85295238724342 -140.08518543427738 62.0
    vertex 71.24999999999972 -140.33493649053895 92.0
    vertex 71.85295238724342 -140.08518543427738 92.0
  endloop
endfacet
facet normal -0.6087614290087074 0.7933533402912453 0.0
  outer loop
    vertex 70.73223304703336 -140.73223304703365 92.0
    vertex 71.24999999999972 -140.33493649053895 62.0
    vertex 70.73223304703336 -140.73223304703365 62.0
  endloop
endfacet
facet normal -0.6087614290087074 0.7933533402912453 0.0
  outer loop
    vertex 71.24999999999972 -140.33493649053895 62.0
    vertex 70.73223304703336 -140.73223304703365 92.0
    vertex 71.24999999999972 -140.33493649053895 92.0
  endloop
endfacet
facet normal -0.7933533402912287 0.6087614290087292 0.0
  outer loop
    vertex 70.73223304703336 -140.73223304703365 92.0
    vertex 70.33493649053862 -141.25000000000003 62.0
    vertex 70.33493649053862 -141.25000000000003 92.0
  endloop
endfacet
facet normal -0.7933533402912287 0.6087614290087292 0.0
  outer loop
    vertex 70.33493649053862 -141.25000000000003 62.0
    vertex 70.73223304703336 -140.73223304703365 92.0
    vertex 70.73223304703336 -140.73223304703365 62.0
  endloop
endfacet
facet normal -0.9238795325112896 0.38268343236508284 0.0
  outer loop
    vertex 70.33493649053862 -141.25000000000003 92.0
    vertex 70.08518543427705 -141.85295238724373 62.0
    vertex 70.08518543427705 -141.85295238724373 92.0
  endloop
endfacet
facet normal -0.9238795325112896 0.38268343236508284 0.0
  outer loop
    vertex 70.08518543427705 -141.85295238724373 62.0
    vertex 70.33493649053862 -141.25000000000003 92.0
    vertex 70.33493649053862 -141.25000000000003 62.0
  endloop
endfacet
facet normal -0.9914448613738102 0.13052619222005388 0.0
  outer loop
    vertex 70.08518543427705 -141.85295238724373 92.0
    vertex 69.99999999999973 -142.50000000000003 62.0
    vertex 69.99999999999973 -142.50000000000003 92.0
  endloop
endfacet
facet normal -0.9914448613738102 0.13052619222005388 0.0
  outer loop
    vertex 69.99999999999973 -142.50000000000003 62.0
    vertex 70.08518543427705 -141.85295238724373 92.0
    vertex 70.08518543427705 -141.85295238724373 62.0
  endloop
endfacet
facet normal -0.9914448613738096 -0.13052619222005837 -0.0
  outer loop
    vertex 69.99999999999973 -142.50000000000003 92.0
    vertex 70.08518543427705 -143.14704761275632 62.0
    vertex 70.08518543427705 -143.14704761275632 92.0
  endloop
endfacet
facet normal -0.9914448613738096 -0.13052619222005837 -0.0
  outer loop
    vertex 70.08518543427705 -143.14704761275632 62.0
    vertex 69.99999999999973 -142.50000000000003 92.0
    vertex 69.99999999999973 -142.50000000000003 62.0
  endloop
endfacet
facet normal -0.9238795325112896 -0.38268343236508284 -0.0
  outer loop
    vertex 70.08518543427705 -143.14704761275632 92.0
    vertex 70.33493649053862 -143.75000000000003 62.0
    vertex 70.33493649053862 -143.75000000000003 92.0
  endloop
endfacet
facet normal -0.9238795325112896 -0.38268343236508284 -0.0
  outer loop
    vertex 70.33493649053862 -143.75000000000003 62.0
    vertex 70.08518543427705 -143.14704761275632 92.0
    vertex 70.08518543427705 -143.14704761275632 62.0
  endloop
endfacet
facet normal -0.7933533402912414 -0.6087614290087124 -0.0
  outer loop
    vertex 70.33493649053862 -143.75000000000003 92.0
    vertex 70.73223304703336 -144.2677669529664 62.0
    vertex 70.73223304703336 -144.2677669529664 92.0
  endloop
endfacet
facet normal -0.7933533402912414 -0.6087614290087124 -0.0
  outer loop
    vertex 70.73223304703336 -144.2677669529664 62.0
    vertex 70.33493649053862 -143.75000000000003 92.0
    vertex 70.33493649053862 -143.75000000000003 62.0
  endloop
endfacet
facet normal -0.6087614290087074 -0.7933533402912453 -0.0
  outer loop
    vertex 71.24999999999972 -144.6650635094611 92.0
    vertex 70.73223304703336 -144.2677669529664 62.0
    vertex 71.24999999999972 -144.6650635094611 62.0
  endloop
endfacet
facet normal -0.6087614290087074 -0.7933533402912453 -0.0
  outer loop
    vertex 70.73223304703336 -144.2677669529664 62.0
    vertex 71.24999999999972 -144.6650635094611 92.0
    vertex 70.73223304703336 -144.2677669529664 92.0
  endloop
endfacet
facet normal -0.3826834323650976 -0.9238795325112836 -0.0
  outer loop
    vertex 71.85295238724342 -144.9148145657227 92.0
    vertex 71.24999999999972 -144.6650635094611 62.0
    vertex 71.85295238724342 -144.9148145657227 62.0
  endloop
endfacet
facet normal -0.3826834323650976 -0.9238795325112836 -0.0
  outer loop
    vertex 71.24999999999972 -144.6650635094611 62.0
    vertex 71.85295238724342 -144.9148145657227 92.0
    vertex 71.24999999999972 -144.6650635094611 92.0
  endloop
endfacet
facet normal -0.13052619222005613 -0.9914448613738099 -0.0
  outer loop
    vertex 72.49999999999972 -145.00000000000003 92.0
    vertex 71.85295238724342 -144.9148145657227 62.0
    vertex 72.49999999999972 -145.00000000000003 62.0
  endloop
endfacet
facet normal -0.13052619222005613 -0.9914448613738099 -0.0
  outer loop
    vertex 71.85295238724342 -144.9148145657227 62.0
    vertex 72.49999999999972 -145.00000000000003 92.0
    vertex 71.85295238724342 -144.9148145657227 92.0
  endloop
endfacet
endsolid salon_case
