solid Untitled-5825b0e8
facet normal -0.0 -0.0 -1.0
  outer loop
    vertex -37.672105064623075 21.750000000000018 54.0
    vertex -34.29036683326192 9.188076101139496 54.0
    vertex -35.5 5.639932965095795e-15 54.0
  endloop
endfacet
facet normal -0.0 -0.0 -1.0
  outer loop
    vertex -34.29036683326192 9.188076101139496 54.0
    vertex -37.672105064623075 21.750000000000018 54.0
    vertex -30.759144981614813 30.759144981614813 54.0
  endloop
endfacet
facet normal -0.0 -0.0 -1.0
  outer loop
    vertex -34.29036683326192 9.188076101139496 54.0
    vertex -30.759144981614813 30.759144981614813 54.0
    vertex -30.743901834347565 17.750000000000014 54.0
  endloop
endfacet
facet normal -0.0 -0.0 -1.0
  outer loop
    vertex -30.743901834347565 17.750000000000014 54.0
    vertex -30.759144981614813 30.759144981614813 54.0
    vertex -21.749999999999993 37.67210506462308 54.0
  endloop
endfacet
facet normal -0.0 -0.0 -1.0
  outer loop
    vertex -30.743901834347565 17.750000000000014 54.0
    vertex -21.749999999999993 37.67210506462308 54.0
    vertex -25.102290732122434 25.102290732122444 54.0
  endloop
endfacet
facet normal -0.0 -0.0 -1.0
  outer loop
    vertex -25.102290732122434 25.102290732122444 54.0
    vertex -21.749999999999993 37.67210506462308 54.0
    vertex -17.74999999999999 30.74390183434757 54.0
  endloop
endfacet
facet normal -0.0 -0.0 -1.0
  outer loop
    vertex -17.74999999999999 30.74390183434757 54.0
    vertex -21.749999999999993 37.67210506462308 54.0
    vertex -11.258628461959644 42.01777344357447 54.0
  endloop
endfacet
facet normal -0.0 -0.0 -1.0
  outer loop
    vertex -17.74999999999999 30.74390183434757 54.0
    vertex -11.258628461959644 42.01777344357447 54.0
    vertex -9.188076101139485 34.29036683326193 54.0
  endloop
endfacet
facet normal -0.0 -0.0 -1.0
  outer loop
    vertex -9.188076101139485 34.29036683326193 54.0
    vertex -11.258628461959644 42.01777344357447 54.0
    vertex 0.0 43.5 54.0
  endloop
endfacet
facet normal -0.0 -0.0 -1.0
  outer loop
    vertex -9.188076101139485 34.29036683326193 54.0
    vertex 0.0 43.5 54.0
    vertex 0.0 35.49999999999999 54.0
  endloop
endfacet
facet normal -0.0 -0.0 -1.0
  outer loop
    vertex 0.0 35.49999999999999 54.0
    vertex 0.0 43.5 54.0
    vertex 11.258628461959656 42.01777344357446 54.0
  endloop
endfacet
facet normal -0.0 -0.0 -1.0
  outer loop
    vertex 0.0 35.49999999999999 54.0
    vertex 11.258628461959656 42.01777344357446 54.0
    vertex 9.188076101139496 34.29036683326192 54.0
  endloop
endfacet
facet normal -0.0 -0.0 -1.0
  outer loop
    vertex 9.188076101139496 34.29036683326192 54.0
    vertex 11.258628461959656 42.01777344357446 54.0
    vertex 17.75 30.74390183434756 54.0
  endloop
endfacet
facet normal -0.0 -0.0 -1.0
  outer loop
    vertex 17.75 30.74390183434756 54.0
    vertex 11.258628461959656 42.01777344357446 54.0
    vertex 21.750000000000004 37.672105064623075 54.0
  endloop
endfacet
facet normal -0.0 -0.0 -1.0
  outer loop
    vertex 17.75 30.74390183434756 54.0
    vertex 21.750000000000004 37.672105064623075 54.0
    vertex 25.102290732122444 25.102290732122434 54.0
  endloop
endfacet
facet normal -0.0 -0.0 -1.0
  outer loop
    vertex 25.102290732122444 25.102290732122434 54.0
    vertex 21.750000000000004 37.672105064623075 54.0
    vertex 30.759144981614813 30.759144981614813 54.0
  endloop
endfacet
facet normal -0.0 -0.0 -1.0
  outer loop
    vertex 25.102290732122444 25.102290732122434 54.0
    vertex 30.759144981614813 30.759144981614813 54.0
    vertex 30.74390183434757 17.74999999999999 54.0
  endloop
endfacet
facet normal -0.0 -0.0 -1.0
  outer loop
    vertex 30.74390183434757 17.74999999999999 54.0
    vertex 30.759144981614813 30.759144981614813 54.0
    vertex 34.29036683326193 9.188076101139485 54.0
  endloop
endfacet
facet normal -0.0 -0.0 -1.0
  outer loop
    vertex 34.29036683326193 9.188076101139485 54.0
    vertex 30.759144981614813 30.759144981614813 54.0
    vertex 37.67210506462308 21.749999999999993 54.0
  endloop
endfacet
facet normal -0.0 -0.0 -1.0
  outer loop
    vertex 34.29036683326193 9.188076101139485 54.0
    vertex 37.67210506462308 21.749999999999993 54.0
    vertex 35.49999999999999 0.0 54.0
  endloop
endfacet
facet normal -0.0 -0.0 -1.0
  outer loop
    vertex 35.49999999999999 0.0 54.0
    vertex 37.67210506462308 21.749999999999993 54.0
    vertex 37.672105064623075 -21.750000000000018 54.0
  endloop
endfacet
facet normal -0.0 -0.0 -1.0
  outer loop
    vertex 37.672105064623075 -21.750000000000018 54.0
    vertex 37.67210506462308 21.749999999999993 54.0
    vertex 42.01777344357446 -11.25862846195969 54.0
  endloop
endfacet
facet normal -0.0 -0.0 -1.0
  outer loop
    vertex 42.01777344357446 -11.25862846195969 54.0
    vertex 37.67210506462308 21.749999999999993 54.0
    vertex 42.01777344357447 11.258628461959656 54.0
  endloop
endfacet
facet normal -0.0 -0.0 -1.0
  outer loop
    vertex 42.01777344357446 -11.25862846195969 54.0
    vertex 42.01777344357447 11.258628461959656 54.0
    vertex 43.5 0.0 54.0
  endloop
endfacet
facet normal -0.0 -0.0 -1.0
  outer loop
    vertex -42.01777344357446 11.258628461959667 54.0
    vertex -42.01777344357448 -11.258628461959633 54.0
    vertex -43.5 5.639932965095795e-15 54.0
  endloop
endfacet
facet normal -0.0 -0.0 -1.0
  outer loop
    vertex -42.01777344357448 -11.258628461959633 54.0
    vertex -42.01777344357446 11.258628461959667 54.0
    vertex -37.67210506462309 -21.74999999999999 54.0
  endloop
endfacet
facet normal -0.0 -0.0 -1.0
  outer loop
    vertex -37.67210506462309 -21.74999999999999 54.0
    vertex -42.01777344357446 11.258628461959667 54.0
    vertex -37.672105064623075 21.750000000000018 54.0
  endloop
endfacet
facet normal -0.0 -0.0 -1.0
  outer loop
    vertex -37.67210506462309 -21.74999999999999 54.0
    vertex -37.672105064623075 21.750000000000018 54.0
    vertex -35.5 5.639932965095795e-15 54.0
  endloop
endfacet
facet normal -0.0 -0.0 -1.0
  outer loop
    vertex -37.67210506462309 -21.74999999999999 54.0
    vertex -35.5 5.639932965095795e-15 54.0
    vertex -34.29036683326193 -9.188076101139474 54.0
  endloop
endfacet
facet normal -0.0 -0.0 -1.0
  outer loop
    vertex -37.67210506462309 -21.74999999999999 54.0
    vertex -34.29036683326193 -9.188076101139474 54.0
    vertex -30.75914498161483 -30.7591449816148 54.0
  endloop
endfacet
facet normal -0.0 -0.0 -1.0
  outer loop
    vertex -30.75914498161483 -30.7591449816148 54.0
    vertex -34.29036683326193 -9.188076101139474 54.0
    vertex -30.743901834347575 -17.74999999999999 54.0
  endloop
endfacet
facet normal -0.0 -0.0 -1.0
  outer loop
    vertex -30.75914498161483 -30.7591449816148 54.0
    vertex -30.743901834347575 -17.74999999999999 54.0
    vertex -21.750000000000018 -37.67210506462307 54.0
  endloop
endfacet
facet normal -0.0 -0.0 -1.0
  outer loop
    vertex -21.750000000000018 -37.67210506462307 54.0
    vertex -30.743901834347575 -17.74999999999999 54.0
    vertex -25.102290732122448 -25.10229073212242 54.0
  endloop
endfacet
facet normal -0.0 -0.0 -1.0
  outer loop
    vertex -21.750000000000018 -37.67210506462307 54.0
    vertex -25.102290732122448 -25.10229073212242 54.0
    vertex -17.750000000000014 -30.74390183434756 54.0
  endloop
endfacet
facet normal -0.0 -0.0 -1.0
  outer loop
    vertex -21.750000000000018 -37.67210506462307 54.0
    vertex -17.750000000000014 -30.74390183434756 54.0
    vertex -11.258628461959685 -42.01777344357446 54.0
  endloop
endfacet
facet normal -0.0 -0.0 -1.0
  outer loop
    vertex -11.258628461959685 -42.01777344357446 54.0
    vertex -17.750000000000014 -30.74390183434756 54.0
    vertex -9.188076101139513 -34.29036683326192 54.0
  endloop
endfacet
facet normal -0.0 -0.0 -1.0
  outer loop
    vertex -11.258628461959685 -42.01777344357446 54.0
    vertex -9.188076101139513 -34.29036683326192 54.0
    vertex -5.639932965095795e-15 -43.5 54.0
  endloop
endfacet
facet normal -0.0 -0.0 -1.0
  outer loop
    vertex -5.639932965095795e-15 -43.5 54.0
    vertex -9.188076101139513 -34.29036683326192 54.0
    vertex -5.639932965095795e-15 -35.5 54.0
  endloop
endfacet
facet normal -0.0 -0.0 -1.0
  outer loop
    vertex -5.639932965095795e-15 -43.5 54.0
    vertex -5.639932965095795e-15 -35.5 54.0
    vertex 9.188076101139474 -34.29036683326193 54.0
  endloop
endfacet
facet normal -0.0 -0.0 -1.0
  outer loop
    vertex -5.639932965095795e-15 -43.5 54.0
    vertex 9.188076101139474 -34.29036683326193 54.0
    vertex 11.258628461959633 -42.01777344357448 54.0
  endloop
endfacet
facet normal -0.0 -0.0 -1.0
  outer loop
    vertex 11.258628461959633 -42.01777344357448 54.0
    vertex 9.188076101139474 -34.29036683326193 54.0
    vertex 17.749999999999968 -30.743901834347582 54.0
  endloop
endfacet
facet normal -0.0 -0.0 -1.0
  outer loop
    vertex 11.258628461959633 -42.01777344357448 54.0
    vertex 17.749999999999968 -30.743901834347582 54.0
    vertex 21.74999999999997 -37.672105064623096 54.0
  endloop
endfacet
facet normal -0.0 -0.0 -1.0
  outer loop
    vertex 21.74999999999997 -37.672105064623096 54.0
    vertex 17.749999999999968 -30.743901834347582 54.0
    vertex 25.102290732122434 -25.10229073212244 54.0
  endloop
endfacet
facet normal -0.0 -0.0 -1.0
  outer loop
    vertex 21.74999999999997 -37.672105064623096 54.0
    vertex 25.102290732122434 -25.10229073212244 54.0
    vertex 30.759144981614813 -30.759144981614828 54.0
  endloop
endfacet
facet normal -0.0 -0.0 -1.0
  outer loop
    vertex 30.759144981614813 -30.759144981614828 54.0
    vertex 25.102290732122434 -25.10229073212244 54.0
    vertex 30.74390183434756 -17.750000000000014 54.0
  endloop
endfacet
facet normal -0.0 -0.0 -1.0
  outer loop
    vertex 30.759144981614813 -30.759144981614828 54.0
    vertex 30.74390183434756 -17.750000000000014 54.0
    vertex 34.29036683326192 -9.188076101139513 54.0
  endloop
endfacet
facet normal -0.0 -0.0 -1.0
  outer loop
    vertex 30.759144981614813 -30.759144981614828 54.0
    vertex 34.29036683326192 -9.188076101139513 54.0
    vertex 37.672105064623075 -21.750000000000018 54.0
  endloop
endfacet
facet normal -0.0 -0.0 -1.0
  outer loop
    vertex 37.672105064623075 -21.750000000000018 54.0
    vertex 34.29036683326192 -9.188076101139513 54.0
    vertex 35.49999999999999 0.0 54.0
  endloop
endfacet
facet normal -0.7933533402912347 0.6087614290087211 0.0
  outer loop
    vertex -30.759144981614813 30.759144981614813 56.50000000000001
    vertex -37.672105064623075 21.750000000000018 54.0
    vertex -37.672105064623075 21.750000000000018 56.50000000000001
  endloop
endfacet
facet normal -0.7933533402912347 0.6087614290087211 0.0
  outer loop
    vertex -37.672105064623075 21.750000000000018 54.0
    vertex -30.759144981614813 30.759144981614813 56.50000000000001
    vertex -30.759144981614813 30.759144981614813 54.0
  endloop
endfacet
facet normal -0.7933533402912352 -0.6087614290087205 0.0
  outer loop
    vertex -37.67210506462309 -21.74999999999999 56.50000000000001
    vertex -30.75914498161483 -30.7591449816148 54.0
    vertex -30.75914498161483 -30.7591449816148 56.50000000000001
  endloop
endfacet
facet normal -0.7933533402912352 -0.6087614290087205 0.0
  outer loop
    vertex -30.75914498161483 -30.7591449816148 54.0
    vertex -37.67210506462309 -21.74999999999999 56.50000000000001
    vertex -37.67210506462309 -21.74999999999999 54.0
  endloop
endfacet
facet normal 0.793353340291235 -0.6087614290087207 0.0
  outer loop
    vertex 37.672105064623075 -21.750000000000018 54.0
    vertex 30.759144981614813 -30.759144981614828 56.50000000000001
    vertex 30.759144981614813 -30.759144981614828 54.0
  endloop
endfacet
facet normal 0.793353340291235 -0.6087614290087207 0.0
  outer loop
    vertex 30.759144981614813 -30.759144981614828 56.50000000000001
    vertex 37.672105064623075 -21.750000000000018 54.0
    vertex 37.672105064623075 -21.750000000000018 56.50000000000001
  endloop
endfacet
facet normal 0.793353340291235 0.6087614290087208 0.0
  outer loop
    vertex 30.759144981614813 30.759144981614813 54.0
    vertex 37.67210506462308 21.749999999999993 56.50000000000001
    vertex 37.67210506462308 21.749999999999993 54.0
  endloop
endfacet
facet normal 0.793353340291235 0.6087614290087208 0.0
  outer loop
    vertex 37.67210506462308 21.749999999999993 56.50000000000001
    vertex 30.759144981614813 30.759144981614813 54.0
    vertex 30.759144981614813 30.759144981614813 56.50000000000001
  endloop
endfacet
facet normal -0.7933533402912353 -0.6087614290087205 -0.0
  outer loop
    vertex -30.743901834347575 -17.74999999999999 54.0
    vertex -25.102290732122448 -25.10229073212242 0.0
    vertex -25.102290732122448 -25.10229073212242 54.0
  endloop
endfacet
facet normal -0.7933533402912353 -0.6087614290087205 -0.0
  outer loop
    vertex -25.102290732122448 -25.10229073212242 0.0
    vertex -30.743901834347575 -17.74999999999999 54.0
    vertex -30.743901834347575 -17.74999999999999 0.0
  endloop
endfacet
facet normal -0.9914448613738105 -0.130526192220051 -0.0
  outer loop
    vertex -35.5 5.639932965095795e-15 54.0
    vertex -34.29036683326193 -9.188076101139474 0.0
    vertex -34.29036683326193 -9.188076101139474 54.0
  endloop
endfacet
facet normal -0.9914448613738105 -0.130526192220051 -0.0
  outer loop
    vertex -34.29036683326193 -9.188076101139474 0.0
    vertex -35.5 5.639932965095795e-15 54.0
    vertex -35.5 5.639932965095795e-15 0.0
  endloop
endfacet
facet normal 0.9914448613738104 0.13052619222005146 0.0
  outer loop
    vertex 42.01777344357447 11.258628461959656 54.0
    vertex 43.5 0.0 56.50000000000001
    vertex 43.5 0.0 54.0
  endloop
endfacet
facet normal 0.9914448613738104 0.13052619222005146 0.0
  outer loop
    vertex 43.5 0.0 56.50000000000001
    vertex 42.01777344357447 11.258628461959656 54.0
    vertex 42.01777344357447 11.258628461959656 56.50000000000001
  endloop
endfacet
facet normal 0.9238795325112867 0.38268343236508984 0.0
  outer loop
    vertex 37.67210506462308 21.749999999999993 54.0
    vertex 42.01777344357447 11.258628461959656 56.50000000000001
    vertex 42.01777344357447 11.258628461959656 54.0
  endloop
endfacet
facet normal 0.9238795325112867 0.38268343236508984 0.0
  outer loop
    vertex 42.01777344357447 11.258628461959656 56.50000000000001
    vertex 37.67210506462308 21.749999999999993 54.0
    vertex 37.67210506462308 21.749999999999993 56.50000000000001
  endloop
endfacet
facet normal 0.38268343236508956 0.923879532511287 0.0
  outer loop
    vertex 11.258628461959656 42.01777344357446 56.50000000000001
    vertex 21.750000000000004 37.672105064623075 54.0
    vertex 11.258628461959656 42.01777344357446 54.0
  endloop
endfacet
facet normal 0.38268343236508956 0.923879532511287 0.0
  outer loop
    vertex 21.750000000000004 37.672105064623075 54.0
    vertex 11.258628461959656 42.01777344357446 56.50000000000001
    vertex 21.750000000000004 37.672105064623075 56.50000000000001
  endloop
endfacet
facet normal -0.9914448613738105 -0.13052619222005118 0.0
  outer loop
    vertex -43.5 5.639932965095795e-15 56.50000000000001
    vertex -42.01777344357448 -11.258628461959633 54.0
    vertex -42.01777344357448 -11.258628461959633 56.50000000000001
  endloop
endfacet
facet normal -0.9914448613738105 -0.13052619222005118 0.0
  outer loop
    vertex -42.01777344357448 -11.258628461959633 54.0
    vertex -43.5 5.639932965095795e-15 56.50000000000001
    vertex -43.5 5.639932965095795e-15 54.0
  endloop
endfacet
facet normal -0.923879532511287 -0.3826834323650893 0.0
  outer loop
    vertex -42.01777344357448 -11.258628461959633 56.50000000000001
    vertex -37.67210506462309 -21.74999999999999 54.0
    vertex -37.67210506462309 -21.74999999999999 56.50000000000001
  endloop
endfacet
facet normal -0.923879532511287 -0.3826834323650893 0.0
  outer loop
    vertex -37.67210506462309 -21.74999999999999 54.0
    vertex -42.01777344357448 -11.258628461959633 56.50000000000001
    vertex -42.01777344357448 -11.258628461959633 54.0
  endloop
endfacet
facet normal -0.38268343236509034 -0.9238795325112865 0.0
  outer loop
    vertex -11.258628461959685 -42.01777344357446 56.50000000000001
    vertex -21.750000000000018 -37.67210506462307 54.0
    vertex -11.258628461959685 -42.01777344357446 54.0
  endloop
endfacet
facet normal -0.38268343236509034 -0.9238795325112865 0.0
  outer loop
    vertex -21.750000000000018 -37.67210506462307 54.0
    vertex -11.258628461959685 -42.01777344357446 56.50000000000001
    vertex -21.750000000000018 -37.67210506462307 56.50000000000001
  endloop
endfacet
facet normal -0.6087614290087208 0.7933533402912353 0.0
  outer loop
    vertex -30.759144981614813 30.759144981614813 56.50000000000001
    vertex -21.749999999999993 37.67210506462308 54.0
    vertex -30.759144981614813 30.759144981614813 54.0
  endloop
endfacet
facet normal -0.6087614290087208 0.7933533402912353 0.0
  outer loop
    vertex -21.749999999999993 37.67210506462308 54.0
    vertex -30.759144981614813 30.759144981614813 56.50000000000001
    vertex -21.749999999999993 37.67210506462308 56.50000000000001
  endloop
endfacet
facet normal 0.3826834323650896 -0.9238795325112868 0.0
  outer loop
    vertex 17.749999999999968 -30.743901834347582 54.0
    vertex 9.188076101139474 -34.29036683326193 0.0
    vertex 17.749999999999968 -30.743901834347582 0.0
  endloop
endfacet
facet normal 0.3826834323650896 -0.9238795325112868 0.0
  outer loop
    vertex 9.188076101139474 -34.29036683326193 0.0
    vertex 17.749999999999968 -30.743901834347582 54.0
    vertex 9.188076101139474 -34.29036683326193 54.0
  endloop
endfacet
facet normal 0.0 0.0 -1.0
  outer loop
    vertex -9.188076101139485 34.29036683326193 0.0
    vertex -7.727406610312543 2.070552360820171 0.0
    vertex -7.9999999999999964 0.0 0.0
  endloop
endfacet
facet normal 0.0 0.0 -1.0
  outer loop
    vertex -7.727406610312543 2.070552360820171 0.0
    vertex -9.188076101139485 34.29036683326193 0.0
    vertex 0.0 35.49999999999999 0.0
  endloop
endfacet
facet normal 0.0 0.0 -1.0
  outer loop
    vertex -7.727406610312543 2.070552360820171 0.0
    vertex 0.0 35.49999999999999 0.0
    vertex -6.928203230275508 4.0000000000000036 0.0
  endloop
endfacet
facet normal 0.0 0.0 -1.0
  outer loop
    vertex -6.928203230275508 4.0000000000000036 0.0
    vertex 0.0 35.49999999999999 0.0
    vertex -5.656854249492377 5.656854249492383 0.0
  endloop
endfacet
facet normal 0.0 0.0 -1.0
  outer loop
    vertex -5.656854249492377 5.656854249492383 0.0
    vertex 0.0 35.49999999999999 0.0
    vertex -3.9999999999999982 6.928203230275508 0.0
  endloop
endfacet
facet normal 0.0 0.0 -1.0
  outer loop
    vertex -3.9999999999999982 6.928203230275508 0.0
    vertex 0.0 35.49999999999999 0.0
    vertex -2.070552360820165 7.727406610312543 0.0
  endloop
endfacet
facet normal 0.0 0.0 -1.0
  outer loop
    vertex -2.070552360820165 7.727406610312543 0.0
    vertex 0.0 35.49999999999999 0.0
    vertex 0.0 7.9999999999999964 0.0
  endloop
endfacet
facet normal 0.0 0.0 -1.0
  outer loop
    vertex 0.0 7.9999999999999964 0.0
    vertex 0.0 35.49999999999999 0.0
    vertex 9.188076101139496 34.29036683326192 0.0
  endloop
endfacet
facet normal 0.0 0.0 -1.0
  outer loop
    vertex 0.0 7.9999999999999964 0.0
    vertex 9.188076101139496 34.29036683326192 0.0
    vertex 2.070552360820171 7.727406610312543 0.0
  endloop
endfacet
facet normal 0.0 0.0 -1.0
  outer loop
    vertex 2.070552360820171 7.727406610312543 0.0
    vertex 9.188076101139496 34.29036683326192 0.0
    vertex 4.0000000000000036 6.928203230275508 0.0
  endloop
endfacet
facet normal 0.0 0.0 -1.0
  outer loop
    vertex 4.0000000000000036 6.928203230275508 0.0
    vertex 9.188076101139496 34.29036683326192 0.0
    vertex 5.656854249492383 5.656854249492377 0.0
  endloop
endfacet
facet normal 0.0 0.0 -1.0
  outer loop
    vertex 5.656854249492383 5.656854249492377 0.0
    vertex 9.188076101139496 34.29036683326192 0.0
    vertex 6.928203230275508 3.9999999999999982 0.0
  endloop
endfacet
facet normal 0.0 0.0 -1.0
  outer loop
    vertex 6.928203230275508 3.9999999999999982 0.0
    vertex 9.188076101139496 34.29036683326192 0.0
    vertex 7.727406610312543 2.070552360820165 0.0
  endloop
endfacet
facet normal 0.0 0.0 -1.0
  outer loop
    vertex 7.727406610312543 2.070552360820165 0.0
    vertex 9.188076101139496 34.29036683326192 0.0
    vertex 7.9999999999999964 0.0 0.0
  endloop
endfacet
facet normal 0.0 0.0 -1.0
  outer loop
    vertex 7.9999999999999964 0.0 0.0
    vertex 9.188076101139496 34.29036683326192 0.0
    vertex 9.188076101139474 -34.29036683326193 0.0
  endloop
endfacet
facet normal 0.0 0.0 -1.0
  outer loop
    vertex 9.188076101139474 -34.29036683326193 0.0
    vertex 9.188076101139496 34.29036683326192 0.0
    vertex 17.749999999999968 -30.743901834347582 0.0
  endloop
endfacet
facet normal 0.0 0.0 -1.0
  outer loop
    vertex 17.749999999999968 -30.743901834347582 0.0
    vertex 9.188076101139496 34.29036683326192 0.0
    vertex 17.75 30.74390183434756 0.0
  endloop
endfacet
facet normal 0.0 0.0 -1.0
  outer loop
    vertex 17.749999999999968 -30.743901834347582 0.0
    vertex 17.75 30.74390183434756 0.0
    vertex 25.102290732122434 -25.10229073212244 0.0
  endloop
endfacet
facet normal 0.0 0.0 -1.0
  outer loop
    vertex 25.102290732122434 -25.10229073212244 0.0
    vertex 17.75 30.74390183434756 0.0
    vertex 25.102290732122444 25.102290732122434 0.0
  endloop
endfacet
facet normal 0.0 0.0 -1.0
  outer loop
    vertex 25.102290732122434 -25.10229073212244 0.0
    vertex 25.102290732122444 25.102290732122434 0.0
    vertex 30.74390183434756 -17.750000000000014 0.0
  endloop
endfacet
facet normal 0.0 0.0 -1.0
  outer loop
    vertex 30.74390183434756 -17.750000000000014 0.0
    vertex 25.102290732122444 25.102290732122434 0.0
    vertex 30.74390183434757 17.74999999999999 0.0
  endloop
endfacet
facet normal 0.0 0.0 -1.0
  outer loop
    vertex 30.74390183434756 -17.750000000000014 0.0
    vertex 30.74390183434757 17.74999999999999 0.0
    vertex 34.29036683326192 -9.188076101139513 0.0
  endloop
endfacet
facet normal 0.0 0.0 -1.0
  outer loop
    vertex 34.29036683326192 -9.188076101139513 0.0
    vertex 30.74390183434757 17.74999999999999 0.0
    vertex 34.29036683326193 9.188076101139485 0.0
  endloop
endfacet
facet normal 0.0 0.0 -1.0
  outer loop
    vertex 34.29036683326192 -9.188076101139513 0.0
    vertex 34.29036683326193 9.188076101139485 0.0
    vertex 35.49999999999999 0.0 0.0
  endloop
endfacet
facet normal 0.0 0.0 -1.0
  outer loop
    vertex -34.29036683326192 9.188076101139496 0.0
    vertex -34.29036683326193 -9.188076101139474 0.0
    vertex -35.5 5.639932965095795e-15 0.0
  endloop
endfacet
facet normal 0.0 0.0 -1.0
  outer loop
    vertex -34.29036683326193 -9.188076101139474 0.0
    vertex -34.29036683326192 9.188076101139496 0.0
    vertex -30.743901834347575 -17.74999999999999 0.0
  endloop
endfacet
facet normal 0.0 0.0 -1.0
  outer loop
    vertex -30.743901834347575 -17.74999999999999 0.0
    vertex -34.29036683326192 9.188076101139496 0.0
    vertex -30.743901834347565 17.750000000000014 0.0
  endloop
endfacet
facet normal 0.0 0.0 -1.0
  outer loop
    vertex -30.743901834347575 -17.74999999999999 0.0
    vertex -30.743901834347565 17.750000000000014 0.0
    vertex -25.102290732122448 -25.10229073212242 0.0
  endloop
endfacet
facet normal 0.0 0.0 -1.0
  outer loop
    vertex -25.102290732122448 -25.10229073212242 0.0
    vertex -30.743901834347565 17.750000000000014 0.0
    vertex -25.102290732122434 25.102290732122444 0.0
  endloop
endfacet
facet normal 0.0 0.0 -1.0
  outer loop
    vertex -25.102290732122448 -25.10229073212242 0.0
    vertex -25.102290732122434 25.102290732122444 0.0
    vertex -17.750000000000014 -30.74390183434756 0.0
  endloop
endfacet
facet normal 0.0 0.0 -1.0
  outer loop
    vertex -17.750000000000014 -30.74390183434756 0.0
    vertex -25.102290732122434 25.102290732122444 0.0
    vertex -17.74999999999999 30.74390183434757 0.0
  endloop
endfacet
facet normal 0.0 0.0 -1.0
  outer loop
    vertex -17.750000000000014 -30.74390183434756 0.0
    vertex -17.74999999999999 30.74390183434757 0.0
    vertex -9.188076101139513 -34.29036683326192 0.0
  endloop
endfacet
facet normal 0.0 0.0 -1.0
  outer loop
    vertex -9.188076101139513 -34.29036683326192 0.0
    vertex -17.74999999999999 30.74390183434757 0.0
    vertex -9.188076101139485 34.29036683326193 0.0
  endloop
endfacet
facet normal 0.0 0.0 -1.0
  outer loop
    vertex -9.188076101139513 -34.29036683326192 0.0
    vertex -9.188076101139485 34.29036683326193 0.0
    vertex -7.9999999999999964 0.0 0.0
  endloop
endfacet
facet normal 0.0 0.0 -1.0
  outer loop
    vertex -9.188076101139513 -34.29036683326192 0.0
    vertex -7.9999999999999964 0.0 0.0
    vertex -7.727406610312548 -2.0705523608201597 0.0
  endloop
endfacet
facet normal 0.0 0.0 -1.0
  outer loop
    vertex -9.188076101139513 -34.29036683326192 0.0
    vertex -7.727406610312548 -2.0705523608201597 0.0
    vertex -5.639932965095795e-15 -35.5 0.0
  endloop
endfacet
facet normal 0.0 0.0 -1.0
  outer loop
    vertex -5.639932965095795e-15 -35.5 0.0
    vertex -7.727406610312548 -2.0705523608201597 0.0
    vertex -6.928203230275513 -3.9999999999999925 0.0
  endloop
endfacet
facet normal 0.0 0.0 -1.0
  outer loop
    vertex -5.639932965095795e-15 -35.5 0.0
    vertex -6.928203230275513 -3.9999999999999925 0.0
    vertex -5.656854249492383 -5.656854249492377 0.0
  endloop
endfacet
facet normal 0.0 0.0 -1.0
  outer loop
    vertex -5.639932965095795e-15 -35.5 0.0
    vertex -5.656854249492383 -5.656854249492377 0.0
    vertex -4.0000000000000036 -6.928203230275502 0.0
  endloop
endfacet
facet normal 0.0 0.0 -1.0
  outer loop
    vertex -5.639932965095795e-15 -35.5 0.0
    vertex -4.0000000000000036 -6.928203230275502 0.0
    vertex -2.070552360820171 -7.727406610312543 0.0
  endloop
endfacet
facet normal 0.0 0.0 -1.0
  outer loop
    vertex -5.639932965095795e-15 -35.5 0.0
    vertex -2.070552360820171 -7.727406610312543 0.0
    vertex 0.0 -7.9999999999999964 0.0
  endloop
endfacet
facet normal 0.0 0.0 -1.0
  outer loop
    vertex -5.639932965095795e-15 -35.5 0.0
    vertex 0.0 -7.9999999999999964 0.0
    vertex 9.188076101139474 -34.29036683326193 0.0
  endloop
endfacet
facet normal 0.0 0.0 -1.0
  outer loop
    vertex 9.188076101139474 -34.29036683326193 0.0
    vertex 0.0 -7.9999999999999964 0.0
    vertex 2.070552360820165 -7.727406610312543 0.0
  endloop
endfacet
facet normal 0.0 0.0 -1.0
  outer loop
    vertex 9.188076101139474 -34.29036683326193 0.0
    vertex 2.070552360820165 -7.727406610312543 0.0
    vertex 3.9999999999999982 -6.928203230275508 0.0
  endloop
endfacet
facet normal 0.0 0.0 -1.0
  outer loop
    vertex 9.188076101139474 -34.29036683326193 0.0
    vertex 3.9999999999999982 -6.928203230275508 0.0
    vertex 5.656854249492377 -5.656854249492377 0.0
  endloop
endfacet
facet normal 0.0 0.0 -1.0
  outer loop
    vertex 9.188076101139474 -34.29036683326193 0.0
    vertex 5.656854249492377 -5.656854249492377 0.0
    vertex 6.928203230275508 -3.9999999999999982 0.0
  endloop
endfacet
facet normal 0.0 0.0 -1.0
  outer loop
    vertex 9.188076101139474 -34.29036683326193 0.0
    vertex 6.928203230275508 -3.9999999999999982 0.0
    vertex 7.727406610312543 -2.070552360820165 0.0
  endloop
endfacet
facet normal 0.0 0.0 -1.0
  outer loop
    vertex 9.188076101139474 -34.29036683326193 0.0
    vertex 7.727406610312543 -2.070552360820165 0.0
    vertex 7.9999999999999964 0.0 0.0
  endloop
endfacet
facet normal 0.3826834323650894 -0.9238795325112868 0.0
  outer loop
    vertex 21.74999999999997 -37.672105064623096 56.50000000000001
    vertex 11.258628461959633 -42.01777344357448 54.0
    vertex 21.74999999999997 -37.672105064623096 54.0
  endloop
endfacet
facet normal 0.3826834323650894 -0.9238795325112868 0.0
  outer loop
    vertex 11.258628461959633 -42.01777344357448 54.0
    vertex 21.74999999999997 -37.672105064623096 56.50000000000001
    vertex 11.258628461959633 -42.01777344357448 56.50000000000001
  endloop
endfacet
facet normal 0.130526192220051 -0.9914448613738105 0.0
  outer loop
    vertex 9.188076101139474 -34.29036683326193 54.0
    vertex -5.639932965095795e-15 -35.5 0.0
    vertex 9.188076101139474 -34.29036683326193 0.0
  endloop
endfacet
facet normal 0.130526192220051 -0.9914448613738105 0.0
  outer loop
    vertex -5.639932965095795e-15 -35.5 0.0
    vertex 9.188076101139474 -34.29036683326193 54.0
    vertex -5.639932965095795e-15 -35.5 54.0
  endloop
endfacet
facet normal -0.6087614290087211 -0.7933533402912347 0.0
  outer loop
    vertex -21.750000000000018 -37.67210506462307 56.50000000000001
    vertex -30.75914498161483 -30.7591449816148 54.0
    vertex -21.750000000000018 -37.67210506462307 54.0
  endloop
endfacet
facet normal -0.6087614290087211 -0.7933533402912347 0.0
  outer loop
    vertex -30.75914498161483 -30.7591449816148 54.0
    vertex -21.750000000000018 -37.67210506462307 56.50000000000001
    vertex -30.75914498161483 -30.7591449816148 56.50000000000001
  endloop
endfacet
facet normal -0.923879532511287 -0.3826834323650896 -0.0
  outer loop
    vertex -34.29036683326193 -9.188076101139474 54.0
    vertex -30.743901834347575 -17.74999999999999 0.0
    vertex -30.743901834347575 -17.74999999999999 54.0
  endloop
endfacet
facet normal -0.923879532511287 -0.3826834323650896 -0.0
  outer loop
    vertex -30.743901834347575 -17.74999999999999 0.0
    vertex -34.29036683326193 -9.188076101139474 54.0
    vertex -34.29036683326193 -9.188076101139474 0.0
  endloop
endfacet
facet normal 0.6087614290087199 -0.7933533402912359 0.0
  outer loop
    vertex 30.759144981614813 -30.759144981614828 56.50000000000001
    vertex 21.74999999999997 -37.672105064623096 54.0
    vertex 30.759144981614813 -30.759144981614828 54.0
  endloop
endfacet
facet normal 0.6087614290087199 -0.7933533402912359 0.0
  outer loop
    vertex 21.74999999999997 -37.672105064623096 54.0
    vertex 30.759144981614813 -30.759144981614828 56.50000000000001
    vertex 21.74999999999997 -37.672105064623096 56.50000000000001
  endloop
endfacet
facet normal 0.9238795325112864 -0.3826834323650907 0.0
  outer loop
    vertex 34.29036683326192 -9.188076101139513 0.0
    vertex 30.74390183434756 -17.750000000000014 54.0
    vertex 30.74390183434756 -17.750000000000014 0.0
  endloop
endfacet
facet normal 0.9238795325112864 -0.3826834323650907 0.0
  outer loop
    vertex 30.74390183434756 -17.750000000000014 54.0
    vertex 34.29036683326192 -9.188076101139513 0.0
    vertex 34.29036683326192 -9.188076101139513 54.0
  endloop
endfacet
facet normal 0.793353340291235 -0.608761429008721 0.0
  outer loop
    vertex 30.74390183434756 -17.750000000000014 0.0
    vertex 25.102290732122434 -25.10229073212244 54.0
    vertex 25.102290732122434 -25.10229073212244 0.0
  endloop
endfacet
facet normal 0.793353340291235 -0.608761429008721 0.0
  outer loop
    vertex 25.102290732122434 -25.10229073212244 54.0
    vertex 30.74390183434756 -17.750000000000014 0.0
    vertex 30.74390183434756 -17.750000000000014 54.0
  endloop
endfacet
facet normal 0.13052619222005243 0.9914448613738103 0.0
  outer loop
    vertex 0.0 43.5 56.50000000000001
    vertex 11.258628461959656 42.01777344357446 54.0
    vertex 0.0 43.5 54.0
  endloop
endfacet
facet normal 0.13052619222005243 0.9914448613738103 0.0
  outer loop
    vertex 11.258628461959656 42.01777344357446 54.0
    vertex 0.0 43.5 56.50000000000001
    vertex 11.258628461959656 42.01777344357446 56.50000000000001
  endloop
endfacet
facet normal 0.9914448613738104 0.13052619222005146 0.0
  outer loop
    vertex 34.29036683326193 9.188076101139485 0.0
    vertex 35.49999999999999 0.0 54.0
    vertex 35.49999999999999 0.0 0.0
  endloop
endfacet
facet normal 0.9914448613738104 0.13052619222005146 0.0
  outer loop
    vertex 35.49999999999999 0.0 54.0
    vertex 34.29036683326193 9.188076101139485 0.0
    vertex 34.29036683326193 9.188076101139485 54.0
  endloop
endfacet
facet normal 0.9914448613738105 -0.13052619222005207 0.0
  outer loop
    vertex 43.5 0.0 54.0
    vertex 42.01777344357446 -11.25862846195969 56.50000000000001
    vertex 42.01777344357446 -11.25862846195969 54.0
  endloop
endfacet
facet normal 0.9914448613738105 -0.13052619222005207 0.0
  outer loop
    vertex 42.01777344357446 -11.25862846195969 56.50000000000001
    vertex 43.5 0.0 54.0
    vertex 43.5 0.0 56.50000000000001
  endloop
endfacet
facet normal 0.6087614290087201 -0.7933533402912357 0.0
  outer loop
    vertex 25.102290732122434 -25.10229073212244 54.0
    vertex 17.749999999999968 -30.743901834347582 0.0
    vertex 25.102290732122434 -25.10229073212244 0.0
  endloop
endfacet
facet normal 0.6087614290087201 -0.7933533402912357 0.0
  outer loop
    vertex 17.749999999999968 -30.743901834347582 0.0
    vertex 25.102290732122434 -25.10229073212244 54.0
    vertex 17.749999999999968 -30.743901834347582 54.0
  endloop
endfacet
facet normal 0.13052619222005118 -0.9914448613738105 0.0
  outer loop
    vertex 11.258628461959633 -42.01777344357448 56.50000000000001
    vertex -5.639932965095795e-15 -43.5 54.0
    vertex 11.258628461959633 -42.01777344357448 54.0
  endloop
endfacet
facet normal 0.13052619222005118 -0.9914448613738105 0.0
  outer loop
    vertex -5.639932965095795e-15 -43.5 54.0
    vertex 11.258628461959633 -42.01777344357448 56.50000000000001
    vertex -5.639932965095795e-15 -43.5 56.50000000000001
  endloop
endfacet
facet normal -0.1305261922200518 -0.9914448613738105 -0.0
  outer loop
    vertex -5.639932965095795e-15 -35.5 54.0
    vertex -9.188076101139513 -34.29036683326192 0.0
    vertex -5.639932965095795e-15 -35.5 0.0
  endloop
endfacet
facet normal -0.1305261922200518 -0.9914448613738105 -0.0
  outer loop
    vertex -9.188076101139513 -34.29036683326192 0.0
    vertex -5.639932965095795e-15 -35.5 54.0
    vertex -9.188076101139513 -34.29036683326192 54.0
  endloop
endfacet
facet normal -0.6087614290087211 -0.7933533402912349 -0.0
  outer loop
    vertex -17.750000000000014 -30.74390183434756 54.0
    vertex -25.102290732122448 -25.10229073212242 0.0
    vertex -17.750000000000014 -30.74390183434756 0.0
  endloop
endfacet
facet normal -0.6087614290087211 -0.7933533402912349 -0.0
  outer loop
    vertex -25.102290732122448 -25.10229073212242 0.0
    vertex -17.750000000000014 -30.74390183434756 54.0
    vertex -25.102290732122448 -25.10229073212242 54.0
  endloop
endfacet
facet normal 0.9238795325112867 -0.3826834323650901 0.0
  outer loop
    vertex 42.01777344357446 -11.25862846195969 54.0
    vertex 37.672105064623075 -21.750000000000018 56.50000000000001
    vertex 37.672105064623075 -21.750000000000018 54.0
  endloop
endfacet
facet normal 0.9238795325112867 -0.3826834323650901 0.0
  outer loop
    vertex 37.672105064623075 -21.750000000000018 56.50000000000001
    vertex 42.01777344357446 -11.25862846195969 54.0
    vertex 42.01777344357446 -11.25862846195969 56.50000000000001
  endloop
endfacet
facet normal -0.9914448613738105 0.130526192220052 0.0
  outer loop
    vertex -34.29036683326192 9.188076101139496 54.0
    vertex -35.5 5.639932965095795e-15 0.0
    vertex -35.5 5.639932965095795e-15 54.0
  endloop
endfacet
facet normal -0.9914448613738105 0.130526192220052 0.0
  outer loop
    vertex -35.5 5.639932965095795e-15 0.0
    vertex -34.29036683326192 9.188076101139496 54.0
    vertex -34.29036683326192 9.188076101139496 0.0
  endloop
endfacet
facet normal -0.7933533402912348 0.608761429008721 0.0
  outer loop
    vertex -25.102290732122434 25.102290732122444 54.0
    vertex -30.743901834347565 17.750000000000014 0.0
    vertex -30.743901834347565 17.750000000000014 54.0
  endloop
endfacet
facet normal -0.7933533402912348 0.608761429008721 0.0
  outer loop
    vertex -30.743901834347565 17.750000000000014 0.0
    vertex -25.102290732122434 25.102290732122444 54.0
    vertex -25.102290732122434 25.102290732122444 0.0
  endloop
endfacet
facet normal -0.6087614290087203 0.7933533402912356 0.0
  outer loop
    vertex -25.102290732122434 25.102290732122444 54.0
    vertex -17.74999999999999 30.74390183434757 0.0
    vertex -25.102290732122434 25.102290732122444 0.0
  endloop
endfacet
facet normal -0.6087614290087203 0.7933533402912356 0.0
  outer loop
    vertex -17.74999999999999 30.74390183434757 0.0
    vertex -25.102290732122434 25.102290732122444 54.0
    vertex -17.74999999999999 30.74390183434757 54.0
  endloop
endfacet
facet normal -0.38268343236508995 0.9238795325112867 0.0
  outer loop
    vertex -17.74999999999999 30.74390183434757 54.0
    vertex -9.188076101139485 34.29036683326193 0.0
    vertex -17.74999999999999 30.74390183434757 0.0
  endloop
endfacet
facet normal -0.38268343236508995 0.9238795325112867 0.0
  outer loop
    vertex -9.188076101139485 34.29036683326193 0.0
    vertex -17.74999999999999 30.74390183434757 54.0
    vertex -9.188076101139485 34.29036683326193 54.0
  endloop
endfacet
facet normal -0.13052619222005146 0.9914448613738104 0.0
  outer loop
    vertex -9.188076101139485 34.29036683326193 54.0
    vertex 0.0 35.49999999999999 0.0
    vertex -9.188076101139485 34.29036683326193 0.0
  endloop
endfacet
facet normal -0.13052619222005146 0.9914448613738104 0.0
  outer loop
    vertex 0.0 35.49999999999999 0.0
    vertex -9.188076101139485 34.29036683326193 54.0
    vertex 0.0 35.49999999999999 54.0
  endloop
endfacet
facet normal -0.1305261922200516 0.9914448613738104 0.0
  outer loop
    vertex -11.258628461959644 42.01777344357447 56.50000000000001
    vertex 0.0 43.5 54.0
    vertex -11.258628461959644 42.01777344357447 54.0
  endloop
endfacet
facet normal -0.1305261922200516 0.9914448613738104 0.0
  outer loop
    vertex 0.0 43.5 54.0
    vertex -11.258628461959644 42.01777344357447 56.50000000000001
    vertex 0.0 43.5 56.50000000000001
  endloop
endfacet
facet normal -0.38268343236509067 -0.9238795325112864 -0.0
  outer loop
    vertex -9.188076101139513 -34.29036683326192 54.0
    vertex -17.750000000000014 -30.74390183434756 0.0
    vertex -9.188076101139513 -34.29036683326192 0.0
  endloop
endfacet
facet normal -0.38268343236509067 -0.9238795325112864 -0.0
  outer loop
    vertex -17.750000000000014 -30.74390183434756 0.0
    vertex -9.188076101139513 -34.29036683326192 54.0
    vertex -17.750000000000014 -30.74390183434756 54.0
  endloop
endfacet
facet normal -0.38268343236508956 0.9238795325112867 0.0
  outer loop
    vertex -21.749999999999993 37.67210506462308 56.50000000000001
    vertex -11.258628461959644 42.01777344357447 54.0
    vertex -21.749999999999993 37.67210506462308 54.0
  endloop
endfacet
facet normal -0.38268343236508956 0.9238795325112867 0.0
  outer loop
    vertex -11.258628461959644 42.01777344357447 54.0
    vertex -21.749999999999993 37.67210506462308 56.50000000000001
    vertex -11.258628461959644 42.01777344357447 56.50000000000001
  endloop
endfacet
facet normal -0.9238795325112866 0.3826834323650899 0.0
  outer loop
    vertex -37.672105064623075 21.750000000000018 56.50000000000001
    vertex -42.01777344357446 11.258628461959667 54.0
    vertex -42.01777344357446 11.258628461959667 56.50000000000001
  endloop
endfacet
facet normal -0.9238795325112866 0.3826834323650899 0.0
  outer loop
    vertex -42.01777344357446 11.258628461959667 54.0
    vertex -37.672105064623075 21.750000000000018 56.50000000000001
    vertex -37.672105064623075 21.750000000000018 54.0
  endloop
endfacet
facet normal 0.130526192220052 0.9914448613738105 0.0
  outer loop
    vertex 0.0 35.49999999999999 54.0
    vertex 9.188076101139496 34.29036683326192 0.0
    vertex 0.0 35.49999999999999 0.0
  endloop
endfacet
facet normal 0.130526192220052 0.9914448613738105 0.0
  outer loop
    vertex 9.188076101139496 34.29036683326192 0.0
    vertex 0.0 35.49999999999999 54.0
    vertex 9.188076101139496 34.29036683326192 54.0
  endloop
endfacet
facet normal -0.13052619222005218 -0.9914448613738103 0.0
  outer loop
    vertex -5.639932965095795e-15 -43.5 56.50000000000001
    vertex -11.258628461959685 -42.01777344357446 54.0
    vertex -5.639932965095795e-15 -43.5 54.0
  endloop
endfacet
facet normal -0.13052619222005218 -0.9914448613738103 0.0
  outer loop
    vertex -11.258628461959685 -42.01777344357446 54.0
    vertex -5.639932965095795e-15 -43.5 56.50000000000001
    vertex -11.258628461959685 -42.01777344357446 56.50000000000001
  endloop
endfacet
facet normal 0.9914448613738105 -0.13052619222005166 0.0
  outer loop
    vertex 35.49999999999999 0.0 0.0
    vertex 34.29036683326192 -9.188076101139513 54.0
    vertex 34.29036683326192 -9.188076101139513 0.0
  endloop
endfacet
facet normal 0.9914448613738105 -0.13052619222005166 0.0
  outer loop
    vertex 34.29036683326192 -9.188076101139513 54.0
    vertex 35.49999999999999 0.0 0.0
    vertex 35.49999999999999 0.0 54.0
  endloop
endfacet
facet normal -0.9238795325112867 0.3826834323650896 0.0
  outer loop
    vertex -30.743901834347565 17.750000000000014 54.0
    vertex -34.29036683326192 9.188076101139496 0.0
    vertex -34.29036683326192 9.188076101139496 54.0
  endloop
endfacet
facet normal -0.9238795325112867 0.3826834323650896 0.0
  outer loop
    vertex -34.29036683326192 9.188076101139496 0.0
    vertex -30.743901834347565 17.750000000000014 54.0
    vertex -30.743901834347565 17.750000000000014 0.0
  endloop
endfacet
facet normal -0.9914448613738105 0.1305261922200519 0.0
  outer loop
    vertex -42.01777344357446 11.258628461959667 56.50000000000001
    vertex -43.5 5.639932965095795e-15 54.0
    vertex -43.5 5.639932965095795e-15 56.50000000000001
  endloop
endfacet
facet normal -0.9914448613738105 0.1305261922200519 0.0
  outer loop
    vertex -43.5 5.639932965095795e-15 54.0
    vertex -42.01777344357446 11.258628461959667 56.50000000000001
    vertex -42.01777344357446 11.258628461959667 54.0
  endloop
endfacet
facet normal 0.0 0.0 1.0
  outer loop
    vertex -42.01777344357448 -11.258628461959633 56.50000000000001
    vertex -42.01777344357446 11.258628461959667 56.50000000000001
    vertex -43.5 5.639932965095795e-15 56.50000000000001
  endloop
endfacet
facet normal 0.0 0.0 1.0
  outer loop
    vertex -42.01777344357446 11.258628461959667 56.50000000000001
    vertex -42.01777344357448 -11.258628461959633 56.50000000000001
    vertex -37.67210506462309 -21.74999999999999 56.50000000000001
  endloop
endfacet
facet normal 0.0 0.0 1.0
  outer loop
    vertex -42.01777344357446 11.258628461959667 56.50000000000001
    vertex -37.67210506462309 -21.74999999999999 56.50000000000001
    vertex -37.672105064623075 21.750000000000018 56.50000000000001
  endloop
endfacet
facet normal 0.0 0.0 1.0
  outer loop
    vertex -37.672105064623075 21.750000000000018 56.50000000000001
    vertex -37.67210506462309 -21.74999999999999 56.50000000000001
    vertex -30.75914498161483 -30.7591449816148 56.50000000000001
  endloop
endfacet
facet normal 0.0 0.0 1.0
  outer loop
    vertex -37.672105064623075 21.750000000000018 56.50000000000001
    vertex -30.75914498161483 -30.7591449816148 56.50000000000001
    vertex -34.0 -5.639932965095795e-15 56.50000000000001
  endloop
endfacet
facet normal 0.0 0.0 1.0
  outer loop
    vertex -34.0 -5.639932965095795e-15 56.50000000000001
    vertex -30.75914498161483 -30.7591449816148 56.50000000000001
    vertex -32.841478093828314 -8.799847533485728 56.50000000000001
  endloop
endfacet
facet normal 0.0 0.0 1.0
  outer loop
    vertex -32.841478093828314 -8.799847533485728 56.50000000000001
    vertex -30.75914498161483 -30.7591449816148 56.50000000000001
    vertex -29.444863728670903 -17.000000000000014 56.50000000000001
  endloop
endfacet
facet normal 0.0 0.0 1.0
  outer loop
    vertex -29.444863728670903 -17.000000000000014 56.50000000000001
    vertex -30.75914498161483 -30.7591449816148 56.50000000000001
    vertex -21.750000000000018 -37.67210506462307 56.50000000000001
  endloop
endfacet
facet normal 0.0 0.0 1.0
  outer loop
    vertex -29.444863728670903 -17.000000000000014 56.50000000000001
    vertex -21.750000000000018 -37.67210506462307 56.50000000000001
    vertex -24.041630560342604 -24.04163056034263 56.50000000000001
  endloop
endfacet
facet normal 0.0 0.0 1.0
  outer loop
    vertex -24.041630560342604 -24.04163056034263 56.50000000000001
    vertex -21.750000000000018 -37.67210506462307 56.50000000000001
    vertex -16.999999999999993 -29.44486372867092 56.50000000000001
  endloop
endfacet
facet normal 0.0 0.0 1.0
  outer loop
    vertex -16.999999999999993 -29.44486372867092 56.50000000000001
    vertex -21.750000000000018 -37.67210506462307 56.50000000000001
    vertex -11.258628461959685 -42.01777344357446 56.50000000000001
  endloop
endfacet
facet normal 0.0 0.0 1.0
  outer loop
    vertex -16.999999999999993 -29.44486372867092 56.50000000000001
    vertex -11.258628461959685 -42.01777344357446 56.50000000000001
    vertex -8.799847533485694 -32.84147809382833 56.50000000000001
  endloop
endfacet
facet normal 0.0 0.0 1.0
  outer loop
    vertex -8.799847533485694 -32.84147809382833 56.50000000000001
    vertex -11.258628461959685 -42.01777344357446 56.50000000000001
    vertex -5.639932965095795e-15 -43.5 56.50000000000001
  endloop
endfacet
facet normal 0.0 0.0 1.0
  outer loop
    vertex -8.799847533485694 -32.84147809382833 56.50000000000001
    vertex -5.639932965095795e-15 -43.5 56.50000000000001
    vertex 5.639932965095795e-15 -34.0 56.50000000000001
  endloop
endfacet
facet normal 0.0 0.0 1.0
  outer loop
    vertex 5.639932965095795e-15 -34.0 56.50000000000001
    vertex -5.639932965095795e-15 -43.5 56.50000000000001
    vertex 11.258628461959633 -42.01777344357448 56.50000000000001
  endloop
endfacet
facet normal 0.0 0.0 1.0
  outer loop
    vertex 5.639932965095795e-15 -34.0 56.50000000000001
    vertex 11.258628461959633 -42.01777344357448 56.50000000000001
    vertex 8.799847533485718 -32.84147809382832 56.50000000000001
  endloop
endfacet
facet normal 0.0 0.0 1.0
  outer loop
    vertex 8.799847533485718 -32.84147809382832 56.50000000000001
    vertex 11.258628461959633 -42.01777344357448 56.50000000000001
    vertex 17.000000000000014 -29.44486372867091 56.50000000000001
  endloop
endfacet
facet normal 0.0 0.0 1.0
  outer loop
    vertex 17.000000000000014 -29.44486372867091 56.50000000000001
    vertex 11.258628461959633 -42.01777344357448 56.50000000000001
    vertex 21.74999999999997 -37.672105064623096 56.50000000000001
  endloop
endfacet
facet normal 0.0 0.0 1.0
  outer loop
    vertex 17.000000000000014 -29.44486372867091 56.50000000000001
    vertex 21.74999999999997 -37.672105064623096 56.50000000000001
    vertex 24.041630560342618 -24.041630560342615 56.50000000000001
  endloop
endfacet
facet normal 0.0 0.0 1.0
  outer loop
    vertex 24.041630560342618 -24.041630560342615 56.50000000000001
    vertex 21.74999999999997 -37.672105064623096 56.50000000000001
    vertex 30.759144981614813 -30.759144981614828 56.50000000000001
  endloop
endfacet
facet normal 0.0 0.0 1.0
  outer loop
    vertex 24.041630560342618 -24.041630560342615 56.50000000000001
    vertex 30.759144981614813 -30.759144981614828 56.50000000000001
    vertex 29.44486372867091 -16.999999999999993 56.50000000000001
  endloop
endfacet
facet normal 0.0 0.0 1.0
  outer loop
    vertex 29.44486372867091 -16.999999999999993 56.50000000000001
    vertex 30.759144981614813 -30.759144981614828 56.50000000000001
    vertex 32.84147809382833 -8.799847533485702 56.50000000000001
  endloop
endfacet
facet normal 0.0 0.0 1.0
  outer loop
    vertex 32.84147809382833 -8.799847533485702 56.50000000000001
    vertex 30.759144981614813 -30.759144981614828 56.50000000000001
    vertex 37.672105064623075 -21.750000000000018 56.50000000000001
  endloop
endfacet
facet normal 0.0 0.0 1.0
  outer loop
    vertex 32.84147809382833 -8.799847533485702 56.50000000000001
    vertex 37.672105064623075 -21.750000000000018 56.50000000000001
    vertex 33.99999999999999 0.0 56.50000000000001
  endloop
endfacet
facet normal 0.0 0.0 1.0
  outer loop
    vertex -34.0 -5.639932965095795e-15 56.50000000000001
    vertex -30.759144981614813 30.759144981614813 56.50000000000001
    vertex -37.672105064623075 21.750000000000018 56.50000000000001
  endloop
endfacet
facet normal 0.0 0.0 1.0
  outer loop
    vertex -30.759144981614813 30.759144981614813 56.50000000000001
    vertex -34.0 -5.639932965095795e-15 56.50000000000001
    vertex -32.84147809382833 8.799847533485694 56.50000000000001
  endloop
endfacet
facet normal 0.0 0.0 1.0
  outer loop
    vertex -30.759144981614813 30.759144981614813 56.50000000000001
    vertex -32.84147809382833 8.799847533485694 56.50000000000001
    vertex -29.444863728670928 16.99999999999998 56.50000000000001
  endloop
endfacet
facet normal 0.0 0.0 1.0
  outer loop
    vertex -30.759144981614813 30.759144981614813 56.50000000000001
    vertex -29.444863728670928 16.99999999999998 56.50000000000001
    vertex -21.749999999999993 37.67210506462308 56.50000000000001
  endloop
endfacet
facet normal 0.0 0.0 1.0
  outer loop
    vertex -21.749999999999993 37.67210506462308 56.50000000000001
    vertex -29.444863728670928 16.99999999999998 56.50000000000001
    vertex -24.04163056034262 24.041630560342607 56.50000000000001
  endloop
endfacet
facet normal 0.0 0.0 1.0
  outer loop
    vertex -21.749999999999993 37.67210506462308 56.50000000000001
    vertex -24.04163056034262 24.041630560342607 56.50000000000001
    vertex -17.000000000000014 29.44486372867091 56.50000000000001
  endloop
endfacet
facet normal 0.0 0.0 1.0
  outer loop
    vertex -21.749999999999993 37.67210506462308 56.50000000000001
    vertex -17.000000000000014 29.44486372867091 56.50000000000001
    vertex -11.258628461959644 42.01777344357447 56.50000000000001
  endloop
endfacet
facet normal 0.0 0.0 1.0
  outer loop
    vertex -11.258628461959644 42.01777344357447 56.50000000000001
    vertex -17.000000000000014 29.44486372867091 56.50000000000001
    vertex -8.799847533485735 32.841478093828314 56.50000000000001
  endloop
endfacet
facet normal 0.0 0.0 1.0
  outer loop
    vertex -11.258628461959644 42.01777344357447 56.50000000000001
    vertex -8.799847533485735 32.841478093828314 56.50000000000001
    vertex 0.0 43.5 56.50000000000001
  endloop
endfacet
facet normal 0.0 0.0 1.0
  outer loop
    vertex 0.0 43.5 56.50000000000001
    vertex -8.799847533485735 32.841478093828314 56.50000000000001
    vertex 0.0 33.99999999999999 56.50000000000001
  endloop
endfacet
facet normal 0.0 0.0 1.0
  outer loop
    vertex 0.0 43.5 56.50000000000001
    vertex 0.0 33.99999999999999 56.50000000000001
    vertex 8.799847533485707 32.84147809382833 56.50000000000001
  endloop
endfacet
facet normal 0.0 0.0 1.0
  outer loop
    vertex 0.0 43.5 56.50000000000001
    vertex 8.799847533485707 32.84147809382833 56.50000000000001
    vertex 11.258628461959656 42.01777344357446 56.50000000000001
  endloop
endfacet
facet normal 0.0 0.0 1.0
  outer loop
    vertex 11.258628461959656 42.01777344357446 56.50000000000001
    vertex 8.799847533485707 32.84147809382833 56.50000000000001
    vertex 17.000000000000004 29.44486372867091 56.50000000000001
  endloop
endfacet
facet normal 0.0 0.0 1.0
  outer loop
    vertex 11.258628461959656 42.01777344357446 56.50000000000001
    vertex 17.000000000000004 29.44486372867091 56.50000000000001
    vertex 21.750000000000004 37.672105064623075 56.50000000000001
  endloop
endfacet
facet normal 0.0 0.0 1.0
  outer loop
    vertex 21.750000000000004 37.672105064623075 56.50000000000001
    vertex 17.000000000000004 29.44486372867091 56.50000000000001
    vertex 24.041630560342618 24.041630560342618 56.50000000000001
  endloop
endfacet
facet normal 0.0 0.0 1.0
  outer loop
    vertex 21.750000000000004 37.672105064623075 56.50000000000001
    vertex 24.041630560342618 24.041630560342618 56.50000000000001
    vertex 30.759144981614813 30.759144981614813 56.50000000000001
  endloop
endfacet
facet normal 0.0 0.0 1.0
  outer loop
    vertex 30.759144981614813 30.759144981614813 56.50000000000001
    vertex 24.041630560342618 24.041630560342618 56.50000000000001
    vertex 29.44486372867091 17.000000000000004 56.50000000000001
  endloop
endfacet
facet normal 0.0 0.0 1.0
  outer loop
    vertex 30.759144981614813 30.759144981614813 56.50000000000001
    vertex 29.44486372867091 17.000000000000004 56.50000000000001
    vertex 32.84147809382833 8.799847533485718 56.50000000000001
  endloop
endfacet
facet normal 0.0 0.0 1.0
  outer loop
    vertex 30.759144981614813 30.759144981614813 56.50000000000001
    vertex 32.84147809382833 8.799847533485718 56.50000000000001
    vertex 37.67210506462308 21.749999999999993 56.50000000000001
  endloop
endfacet
facet normal 0.0 0.0 1.0
  outer loop
    vertex 37.67210506462308 21.749999999999993 56.50000000000001
    vertex 32.84147809382833 8.799847533485718 56.50000000000001
    vertex 33.99999999999999 0.0 56.50000000000001
  endloop
endfacet
facet normal 0.0 0.0 1.0
  outer loop
    vertex 37.67210506462308 21.749999999999993 56.50000000000001
    vertex 33.99999999999999 0.0 56.50000000000001
    vertex 37.672105064623075 -21.750000000000018 56.50000000000001
  endloop
endfacet
facet normal 0.0 0.0 1.0
  outer loop
    vertex 37.67210506462308 21.749999999999993 56.50000000000001
    vertex 37.672105064623075 -21.750000000000018 56.50000000000001
    vertex 42.01777344357446 -11.25862846195969 56.50000000000001
  endloop
endfacet
facet normal 0.0 0.0 1.0
  outer loop
    vertex 37.67210506462308 21.749999999999993 56.50000000000001
    vertex 42.01777344357446 -11.25862846195969 56.50000000000001
    vertex 42.01777344357447 11.258628461959656 56.50000000000001
  endloop
endfacet
facet normal 0.0 0.0 1.0
  outer loop
    vertex 42.01777344357447 11.258628461959656 56.50000000000001
    vertex 42.01777344357446 -11.25862846195969 56.50000000000001
    vertex 43.5 0.0 56.50000000000001
  endloop
endfacet
facet normal 0.6087614290087205 0.7933533402912352 0.0
  outer loop
    vertex 21.750000000000004 37.672105064623075 56.50000000000001
    vertex 30.759144981614813 30.759144981614813 54.0
    vertex 21.750000000000004 37.672105064623075 54.0
  endloop
endfacet
facet normal 0.6087614290087205 0.7933533402912352 0.0
  outer loop
    vertex 30.759144981614813 30.759144981614813 54.0
    vertex 21.750000000000004 37.672105064623075 56.50000000000001
    vertex 30.759144981614813 30.759144981614813 56.50000000000001
  endloop
endfacet
facet normal 0.7933533402912353 0.6087614290087207 0.0
  outer loop
    vertex 25.102290732122444 25.102290732122434 0.0
    vertex 30.74390183434757 17.74999999999999 54.0
    vertex 30.74390183434757 17.74999999999999 0.0
  endloop
endfacet
facet normal 0.7933533402912353 0.6087614290087207 0.0
  outer loop
    vertex 30.74390183434757 17.74999999999999 54.0
    vertex 25.102290732122444 25.102290732122434 0.0
    vertex 25.102290732122444 25.102290732122434 54.0
  endloop
endfacet
facet normal 0.6087614290087207 0.7933533402912353 0.0
  outer loop
    vertex 17.75 30.74390183434756 54.0
    vertex 25.102290732122444 25.102290732122434 0.0
    vertex 17.75 30.74390183434756 0.0
  endloop
endfacet
facet normal 0.6087614290087207 0.7933533402912353 0.0
  outer loop
    vertex 25.102290732122444 25.102290732122434 0.0
    vertex 17.75 30.74390183434756 54.0
    vertex 25.102290732122444 25.102290732122434 54.0
  endloop
endfacet
facet normal 0.38268343236508995 0.9238795325112867 0.0
  outer loop
    vertex 9.188076101139496 34.29036683326192 54.0
    vertex 17.75 30.74390183434756 0.0
    vertex 9.188076101139496 34.29036683326192 0.0
  endloop
endfacet
facet normal 0.38268343236508995 0.9238795325112867 0.0
  outer loop
    vertex 17.75 30.74390183434756 0.0
    vertex 9.188076101139496 34.29036683326192 54.0
    vertex 17.75 30.74390183434756 54.0
  endloop
endfacet
facet normal 0.9238795325112867 0.38268343236508984 0.0
  outer loop
    vertex 30.74390183434757 17.74999999999999 0.0
    vertex 34.29036683326193 9.188076101139485 54.0
    vertex 34.29036683326193 9.188076101139485 0.0
  endloop
endfacet
facet normal 0.9238795325112867 0.38268343236508984 0.0
  outer loop
    vertex 34.29036683326193 9.188076101139485 54.0
    vertex 30.74390183434757 17.74999999999999 0.0
    vertex 30.74390183434757 17.74999999999999 54.0
  endloop
endfacet
facet normal -0.7933533402912353 0.6087614290087205 0.0
  outer loop
    vertex 6.928203230275508 -3.9999999999999982 3.000000000000017
    vertex 5.656854249492377 -5.656854249492377 0.0
    vertex 5.656854249492377 -5.656854249492377 3.000000000000017
  endloop
endfacet
facet normal -0.7933533402912353 0.6087614290087205 0.0
  outer loop
    vertex 5.656854249492377 -5.656854249492377 0.0
    vertex 6.928203230275508 -3.9999999999999982 3.000000000000017
    vertex 6.928203230275508 -3.9999999999999982 0.0
  endloop
endfacet
facet normal 0.923879532511287 0.3826834323650892 0.0
  outer loop
    vertex -7.727406610312548 -2.0705523608201597 0.0
    vertex -6.928203230275513 -3.9999999999999925 3.000000000000017
    vertex -6.928203230275513 -3.9999999999999925 0.0
  endloop
endfacet
facet normal 0.923879532511287 0.3826834323650892 0.0
  outer loop
    vertex -6.928203230275513 -3.9999999999999925 3.000000000000017
    vertex -7.727406610312548 -2.0705523608201597 0.0
    vertex -7.727406610312548 -2.0705523608201597 3.000000000000017
  endloop
endfacet
facet normal 0.6087614290087203 -0.7933533402912355 0.0
  outer loop
    vertex -3.9999999999999982 6.928203230275508 3.000000000000017
    vertex -5.656854249492377 5.656854249492383 0.0
    vertex -3.9999999999999982 6.928203230275508 0.0
  endloop
endfacet
facet normal 0.6087614290087203 -0.7933533402912355 0.0
  outer loop
    vertex -5.656854249492377 5.656854249492383 0.0
    vertex -3.9999999999999982 6.928203230275508 3.000000000000017
    vertex -5.656854249492377 5.656854249492383 3.000000000000017
  endloop
endfacet
facet normal 0.3826834323650905 0.9238795325112865 0.0
  outer loop
    vertex -4.0000000000000036 -6.928203230275502 3.000000000000017
    vertex -2.070552360820171 -7.727406610312543 0.0
    vertex -4.0000000000000036 -6.928203230275502 0.0
  endloop
endfacet
facet normal 0.3826834323650905 0.9238795325112865 0.0
  outer loop
    vertex -2.070552360820171 -7.727406610312543 0.0
    vertex -4.0000000000000036 -6.928203230275502 3.000000000000017
    vertex -2.070552360820171 -7.727406610312543 3.000000000000017
  endloop
endfacet
facet normal 0.9914448613738104 -0.13052619222005216 0.0
  outer loop
    vertex -7.727406610312543 2.070552360820171 0.0
    vertex -7.9999999999999964 0.0 3.000000000000017
    vertex -7.9999999999999964 0.0 0.0
  endloop
endfacet
facet normal 0.9914448613738104 -0.13052619222005216 0.0
  outer loop
    vertex -7.9999999999999964 0.0 3.000000000000017
    vertex -7.727406610312543 2.070552360820171 0.0
    vertex -7.727406610312543 2.070552360820171 3.000000000000017
  endloop
endfacet
facet normal 0.9238795325112865 -0.3826834323650905 0.0
  outer loop
    vertex -6.928203230275508 4.0000000000000036 0.0
    vertex -7.727406610312543 2.070552360820171 3.000000000000017
    vertex -7.727406610312543 2.070552360820171 0.0
  endloop
endfacet
facet normal 0.9238795325112865 -0.3826834323650905 0.0
  outer loop
    vertex -7.727406610312543 2.070552360820171 3.000000000000017
    vertex -6.928203230275508 4.0000000000000036 0.0
    vertex -6.928203230275508 4.0000000000000036 3.000000000000017
  endloop
endfacet
facet normal 0.13052619222005202 0.9914448613738104 0.0
  outer loop
    vertex -2.070552360820171 -7.727406610312543 3.000000000000017
    vertex 0.0 -7.9999999999999964 0.0
    vertex -2.070552360820171 -7.727406610312543 0.0
  endloop
endfacet
facet normal 0.13052619222005202 0.9914448613738104 0.0
  outer loop
    vertex 0.0 -7.9999999999999964 0.0
    vertex -2.070552360820171 -7.727406610312543 3.000000000000017
    vertex 0.0 -7.9999999999999964 3.000000000000017
  endloop
endfacet
facet normal -0.13052619222005174 0.9914448613738104 0.0
  outer loop
    vertex 0.0 -7.9999999999999964 3.000000000000017
    vertex 2.070552360820165 -7.727406610312543 0.0
    vertex 0.0 -7.9999999999999964 0.0
  endloop
endfacet
facet normal -0.13052619222005174 0.9914448613738104 0.0
  outer loop
    vertex 2.070552360820165 -7.727406610312543 0.0
    vertex 0.0 -7.9999999999999964 3.000000000000017
    vertex 2.070552360820165 -7.727406610312543 3.000000000000017
  endloop
endfacet
facet normal 0.38268343236508934 -0.9238795325112871 0.0
  outer loop
    vertex -2.070552360820165 7.727406610312543 3.000000000000017
    vertex -3.9999999999999982 6.928203230275508 0.0
    vertex -2.070552360820165 7.727406610312543 0.0
  endloop
endfacet
facet normal 0.38268343236508934 -0.9238795325112871 0.0
  outer loop
    vertex -3.9999999999999982 6.928203230275508 0.0
    vertex -2.070552360820165 7.727406610312543 3.000000000000017
    vertex -3.9999999999999982 6.928203230275508 3.000000000000017
  endloop
endfacet
facet normal 0.13052619222005124 -0.9914448613738106 0.0
  outer loop
    vertex 0.0 7.9999999999999964 3.000000000000017
    vertex -2.070552360820165 7.727406610312543 0.0
    vertex 0.0 7.9999999999999964 0.0
  endloop
endfacet
facet normal 0.13052619222005124 -0.9914448613738106 0.0
  outer loop
    vertex -2.070552360820165 7.727406610312543 0.0
    vertex 0.0 7.9999999999999964 3.000000000000017
    vertex -2.070552360820165 7.727406610312543 3.000000000000017
  endloop
endfacet
facet normal -0.13052619222005168 -0.9914448613738104 -0.0
  outer loop
    vertex 2.070552360820171 7.727406610312543 3.000000000000017
    vertex 0.0 7.9999999999999964 0.0
    vertex 2.070552360820171 7.727406610312543 0.0
  endloop
endfacet
facet normal -0.13052619222005168 -0.9914448613738104 -0.0
  outer loop
    vertex 0.0 7.9999999999999964 0.0
    vertex 2.070552360820171 7.727406610312543 3.000000000000017
    vertex 0.0 7.9999999999999964 3.000000000000017
  endloop
endfacet
facet normal -0.3826834323650899 -0.9238795325112867 -0.0
  outer loop
    vertex 4.0000000000000036 6.928203230275508 3.000000000000017
    vertex 2.070552360820171 7.727406610312543 0.0
    vertex 4.0000000000000036 6.928203230275508 0.0
  endloop
endfacet
facet normal -0.3826834323650899 -0.9238795325112867 -0.0
  outer loop
    vertex 2.070552360820171 7.727406610312543 0.0
    vertex 4.0000000000000036 6.928203230275508 3.000000000000017
    vertex 2.070552360820171 7.727406610312543 3.000000000000017
  endloop
endfacet
facet normal -0.6087614290087208 -0.793353340291235 -0.0
  outer loop
    vertex 5.656854249492383 5.656854249492377 3.000000000000017
    vertex 4.0000000000000036 6.928203230275508 0.0
    vertex 5.656854249492383 5.656854249492377 0.0
  endloop
endfacet
facet normal -0.6087614290087208 -0.793353340291235 -0.0
  outer loop
    vertex 4.0000000000000036 6.928203230275508 0.0
    vertex 5.656854249492383 5.656854249492377 3.000000000000017
    vertex 4.0000000000000036 6.928203230275508 3.000000000000017
  endloop
endfacet
facet normal 0.7933533402912355 0.6087614290087204 0.0
  outer loop
    vertex -6.928203230275513 -3.9999999999999925 0.0
    vertex -5.656854249492383 -5.656854249492377 3.000000000000017
    vertex -5.656854249492383 -5.656854249492377 0.0
  endloop
endfacet
facet normal 0.7933533402912355 0.6087614290087204 0.0
  outer loop
    vertex -5.656854249492383 -5.656854249492377 3.000000000000017
    vertex -6.928203230275513 -3.9999999999999925 0.0
    vertex -6.928203230275513 -3.9999999999999925 3.000000000000017
  endloop
endfacet
facet normal -0.6087614290087203 0.7933533402912354 0.0
  outer loop
    vertex 3.9999999999999982 -6.928203230275508 3.000000000000017
    vertex 5.656854249492377 -5.656854249492377 0.0
    vertex 3.9999999999999982 -6.928203230275508 0.0
  endloop
endfacet
facet normal -0.6087614290087203 0.7933533402912354 0.0
  outer loop
    vertex 5.656854249492377 -5.656854249492377 0.0
    vertex 3.9999999999999982 -6.928203230275508 3.000000000000017
    vertex 5.656854249492377 -5.656854249492377 3.000000000000017
  endloop
endfacet
facet normal -0.38268343236508956 0.9238795325112868 0.0
  outer loop
    vertex 2.070552360820165 -7.727406610312543 3.000000000000017
    vertex 3.9999999999999982 -6.928203230275508 0.0
    vertex 2.070552360820165 -7.727406610312543 0.0
  endloop
endfacet
facet normal -0.38268343236508956 0.9238795325112868 0.0
  outer loop
    vertex 3.9999999999999982 -6.928203230275508 0.0
    vertex 2.070552360820165 -7.727406610312543 3.000000000000017
    vertex 3.9999999999999982 -6.928203230275508 3.000000000000017
  endloop
endfacet
facet normal 0.6087614290087208 0.793353340291235 0.0
  outer loop
    vertex -5.656854249492383 -5.656854249492377 3.000000000000017
    vertex -4.0000000000000036 -6.928203230275502 0.0
    vertex -5.656854249492383 -5.656854249492377 0.0
  endloop
endfacet
facet normal 0.6087614290087208 0.793353340291235 0.0
  outer loop
    vertex -4.0000000000000036 -6.928203230275502 0.0
    vertex -5.656854249492383 -5.656854249492377 3.000000000000017
    vertex -4.0000000000000036 -6.928203230275502 3.000000000000017
  endloop
endfacet
facet normal 0.9914448613738106 0.13052619222005127 0.0
  outer loop
    vertex -7.9999999999999964 0.0 0.0
    vertex -7.727406610312548 -2.0705523608201597 3.000000000000017
    vertex -7.727406610312548 -2.0705523608201597 0.0
  endloop
endfacet
facet normal 0.9914448613738106 0.13052619222005127 0.0
  outer loop
    vertex -7.727406610312548 -2.0705523608201597 3.000000000000017
    vertex -7.9999999999999964 0.0 0.0
    vertex -7.9999999999999964 0.0 3.000000000000017
  endloop
endfacet
facet normal -0.9914448613738104 0.13052619222005168 0.0
  outer loop
    vertex 7.9999999999999964 0.0 3.000000000000017
    vertex 7.727406610312543 -2.070552360820165 0.0
    vertex 7.727406610312543 -2.070552360820165 3.000000000000017
  endloop
endfacet
facet normal -0.9914448613738104 0.13052619222005168 0.0
  outer loop
    vertex 7.727406610312543 -2.070552360820165 0.0
    vertex 7.9999999999999964 0.0 3.000000000000017
    vertex 7.9999999999999964 0.0 0.0
  endloop
endfacet
facet normal -0.9238795325112865 0.3826834323650902 0.0
  outer loop
    vertex 7.727406610312543 -2.070552360820165 3.000000000000017
    vertex 6.928203230275508 -3.9999999999999982 0.0
    vertex 6.928203230275508 -3.9999999999999982 3.000000000000017
  endloop
endfacet
facet normal -0.9238795325112865 0.3826834323650902 0.0
  outer loop
    vertex 6.928203230275508 -3.9999999999999982 0.0
    vertex 7.727406610312543 -2.070552360820165 3.000000000000017
    vertex 7.727406610312543 -2.070552360820165 0.0
  endloop
endfacet
facet normal 0.7933533402912349 -0.6087614290087209 0.0
  outer loop
    vertex -5.656854249492377 5.656854249492383 0.0
    vertex -6.928203230275508 4.0000000000000036 3.000000000000017
    vertex -6.928203230275508 4.0000000000000036 0.0
  endloop
endfacet
facet normal 0.7933533402912349 -0.6087614290087209 0.0
  outer loop
    vertex -6.928203230275508 4.0000000000000036 3.000000000000017
    vertex -5.656854249492377 5.656854249492383 0.0
    vertex -5.656854249492377 5.656854249492383 3.000000000000017
  endloop
endfacet
facet normal -0.7933533402912355 -0.6087614290087202 -0.0
  outer loop
    vertex 5.656854249492383 5.656854249492377 3.000000000000017
    vertex 6.928203230275508 3.9999999999999982 0.0
    vertex 6.928203230275508 3.9999999999999982 3.000000000000017
  endloop
endfacet
facet normal -0.7933533402912355 -0.6087614290087202 -0.0
  outer loop
    vertex 6.928203230275508 3.9999999999999982 0.0
    vertex 5.656854249492383 5.656854249492377 3.000000000000017
    vertex 5.656854249492383 5.656854249492377 0.0
  endloop
endfacet
facet normal -0.9914448613738104 -0.1305261922200518 -0.0
  outer loop
    vertex 7.727406610312543 2.070552360820165 3.000000000000017
    vertex 7.9999999999999964 0.0 0.0
    vertex 7.9999999999999964 0.0 3.000000000000017
  endloop
endfacet
facet normal -0.9914448613738104 -0.1305261922200518 -0.0
  outer loop
    vertex 7.9999999999999964 0.0 0.0
    vertex 7.727406610312543 2.070552360820165 3.000000000000017
    vertex 7.727406610312543 2.070552360820165 0.0
  endloop
endfacet
facet normal -0.923879532511287 -0.3826834323650897 -0.0
  outer loop
    vertex 6.928203230275508 3.9999999999999982 3.000000000000017
    vertex 7.727406610312543 2.070552360820165 0.0
    vertex 7.727406610312543 2.070552360820165 3.000000000000017
  endloop
endfacet
facet normal -0.923879532511287 -0.3826834323650897 -0.0
  outer loop
    vertex 7.727406610312543 2.070552360820165 0.0
    vertex 6.928203230275508 3.9999999999999982 3.000000000000017
    vertex 6.928203230275508 3.9999999999999982 0.0
  endloop
endfacet
facet normal 0.9914448613738104 0.13052619222005207 0.0
  outer loop
    vertex -34.0 -5.639932965095795e-15 3.0000000000000058
    vertex -32.841478093828314 -8.799847533485728 56.50000000000001
    vertex -32.841478093828314 -8.799847533485728 3.0000000000000058
  endloop
endfacet
facet normal 0.9914448613738104 0.13052619222005207 0.0
  outer loop
    vertex -32.841478093828314 -8.799847533485728 56.50000000000001
    vertex -34.0 -5.639932965095795e-15 3.0000000000000058
    vertex -34.0 -5.639932965095795e-15 56.50000000000001
  endloop
endfacet
facet normal -0.13052619222005177 -0.9914448613738105 -0.0
  outer loop
    vertex 8.799847533485707 32.84147809382833 56.50000000000001
    vertex 0.0 33.99999999999999 3.0000000000000058
    vertex 8.799847533485707 32.84147809382833 3.0000000000000058
  endloop
endfacet
facet normal -0.13052619222005177 -0.9914448613738105 -0.0
  outer loop
    vertex 0.0 33.99999999999999 3.0000000000000058
    vertex 8.799847533485707 32.84147809382833 56.50000000000001
    vertex 0.0 33.99999999999999 56.50000000000001
  endloop
endfacet
facet normal 0.7933533402912357 -0.60876142900872 0.0
  outer loop
    vertex -24.04163056034262 24.041630560342607 3.0000000000000058
    vertex -29.444863728670928 16.99999999999998 56.50000000000001
    vertex -29.444863728670928 16.99999999999998 3.0000000000000058
  endloop
endfacet
facet normal 0.7933533402912357 -0.60876142900872 0.0
  outer loop
    vertex -29.444863728670928 16.99999999999998 56.50000000000001
    vertex -24.04163056034262 24.041630560342607 3.0000000000000058
    vertex -24.04163056034262 24.041630560342607 56.50000000000001
  endloop
endfacet
facet normal 0.9238795325112865 0.3826834323650906 0.0
  outer loop
    vertex -32.841478093828314 -8.799847533485728 3.0000000000000058
    vertex -29.444863728670903 -17.000000000000014 56.50000000000001
    vertex -29.444863728670903 -17.000000000000014 3.0000000000000058
  endloop
endfacet
facet normal 0.9238795325112865 0.3826834323650906 0.0
  outer loop
    vertex -29.444863728670903 -17.000000000000014 56.50000000000001
    vertex -32.841478093828314 -8.799847533485728 3.0000000000000058
    vertex -32.841478093828314 -8.799847533485728 56.50000000000001
  endloop
endfacet
facet normal -0.3826834323650896 -0.9238795325112867 -0.0
  outer loop
    vertex 17.000000000000004 29.44486372867091 56.50000000000001
    vertex 8.799847533485707 32.84147809382833 3.0000000000000058
    vertex 17.000000000000004 29.44486372867091 3.0000000000000058
  endloop
endfacet
facet normal -0.3826834323650896 -0.9238795325112867 -0.0
  outer loop
    vertex 8.799847533485707 32.84147809382833 3.0000000000000058
    vertex 17.000000000000004 29.44486372867091 56.50000000000001
    vertex 8.799847533485707 32.84147809382833 56.50000000000001
  endloop
endfacet
facet normal -0.9914448613738105 0.1305261922200518 0.0
  outer loop
    vertex 33.99999999999999 0.0 56.50000000000001
    vertex 32.84147809382833 -8.799847533485702 3.0000000000000058
    vertex 32.84147809382833 -8.799847533485702 56.50000000000001
  endloop
endfacet
facet normal -0.9914448613738105 0.1305261922200518 0.0
  outer loop
    vertex 32.84147809382833 -8.799847533485702 3.0000000000000058
    vertex 33.99999999999999 0.0 56.50000000000001
    vertex 33.99999999999999 0.0 3.0000000000000058
  endloop
endfacet
facet normal -0.38268343236509006 0.9238795325112867 0.0
  outer loop
    vertex 8.799847533485718 -32.84147809382832 56.50000000000001
    vertex 17.000000000000014 -29.44486372867091 3.0000000000000058
    vertex 8.799847533485718 -32.84147809382832 3.0000000000000058
  endloop
endfacet
facet normal -0.38268343236509006 0.9238795325112867 0.0
  outer loop
    vertex 17.000000000000014 -29.44486372867091 3.0000000000000058
    vertex 8.799847533485718 -32.84147809382832 56.50000000000001
    vertex 17.000000000000014 -29.44486372867091 56.50000000000001
  endloop
endfacet
facet normal 0.0 0.0 1.0
  outer loop
    vertex -8.799847533485694 -32.84147809382833 3.0000000000000058
    vertex -7.727406610312548 -2.0705523608201597 3.000000000000017
    vertex -7.9999999999999964 0.0 3.000000000000017
  endloop
endfacet
facet normal 0.0 0.0 1.0
  outer loop
    vertex -7.727406610312548 -2.0705523608201597 3.000000000000017
    vertex -8.799847533485694 -32.84147809382833 3.0000000000000058
    vertex 5.639932965095795e-15 -34.0 3.0000000000000058
  endloop
endfacet
facet normal 0.0 0.0 1.0
  outer loop
    vertex -7.727406610312548 -2.0705523608201597 3.000000000000017
    vertex 5.639932965095795e-15 -34.0 3.0000000000000058
    vertex -6.928203230275513 -3.9999999999999925 3.000000000000017
  endloop
endfacet
facet normal 0.0 0.0 1.0
  outer loop
    vertex -6.928203230275513 -3.9999999999999925 3.000000000000017
    vertex 5.639932965095795e-15 -34.0 3.0000000000000058
    vertex -5.656854249492383 -5.656854249492377 3.000000000000017
  endloop
endfacet
facet normal 0.0 0.0 1.0
  outer loop
    vertex -5.656854249492383 -5.656854249492377 3.000000000000017
    vertex 5.639932965095795e-15 -34.0 3.0000000000000058
    vertex -4.0000000000000036 -6.928203230275502 3.000000000000017
  endloop
endfacet
facet normal 0.0 0.0 1.0
  outer loop
    vertex -4.0000000000000036 -6.928203230275502 3.000000000000017
    vertex 5.639932965095795e-15 -34.0 3.0000000000000058
    vertex -2.070552360820171 -7.727406610312543 3.000000000000017
  endloop
endfacet
facet normal 0.0 0.0 1.0
  outer loop
    vertex -2.070552360820171 -7.727406610312543 3.000000000000017
    vertex 5.639932965095795e-15 -34.0 3.0000000000000058
    vertex 0.0 -7.9999999999999964 3.000000000000017
  endloop
endfacet
facet normal 0.0 0.0 1.0
  outer loop
    vertex 0.0 -7.9999999999999964 3.000000000000017
    vertex 5.639932965095795e-15 -34.0 3.0000000000000058
    vertex 2.070552360820165 -7.727406610312543 3.000000000000017
  endloop
endfacet
facet normal 0.0 0.0 1.0
  outer loop
    vertex 2.070552360820165 -7.727406610312543 3.000000000000017
    vertex 5.639932965095795e-15 -34.0 3.0000000000000058
    vertex 8.799847533485718 -32.84147809382832 3.0000000000000058
  endloop
endfacet
facet normal 0.0 0.0 1.0
  outer loop
    vertex 2.070552360820165 -7.727406610312543 3.000000000000017
    vertex 8.799847533485718 -32.84147809382832 3.0000000000000058
    vertex 3.9999999999999982 -6.928203230275508 3.000000000000017
  endloop
endfacet
facet normal 0.0 0.0 1.0
  outer loop
    vertex 3.9999999999999982 -6.928203230275508 3.000000000000017
    vertex 8.799847533485718 -32.84147809382832 3.0000000000000058
    vertex 5.656854249492377 -5.656854249492377 3.000000000000017
  endloop
endfacet
facet normal 0.0 0.0 1.0
  outer loop
    vertex 5.656854249492377 -5.656854249492377 3.000000000000017
    vertex 8.799847533485718 -32.84147809382832 3.0000000000000058
    vertex 6.928203230275508 -3.9999999999999982 3.000000000000017
  endloop
endfacet
facet normal 0.0 0.0 1.0
  outer loop
    vertex 6.928203230275508 -3.9999999999999982 3.000000000000017
    vertex 8.799847533485718 -32.84147809382832 3.0000000000000058
    vertex 7.727406610312543 -2.070552360820165 3.000000000000017
  endloop
endfacet
facet normal 0.0 0.0 1.0
  outer loop
    vertex 7.727406610312543 -2.070552360820165 3.000000000000017
    vertex 8.799847533485718 -32.84147809382832 3.0000000000000058
    vertex 7.9999999999999964 0.0 3.000000000000017
  endloop
endfacet
facet normal 0.0 0.0 1.0
  outer loop
    vertex 7.9999999999999964 0.0 3.000000000000017
    vertex 8.799847533485718 -32.84147809382832 3.0000000000000058
    vertex 8.799847533485707 32.84147809382833 3.0000000000000058
  endloop
endfacet
facet normal 0.0 0.0 1.0
  outer loop
    vertex 8.799847533485707 32.84147809382833 3.0000000000000058
    vertex 8.799847533485718 -32.84147809382832 3.0000000000000058
    vertex 17.000000000000004 29.44486372867091 3.0000000000000058
  endloop
endfacet
facet normal 0.0 0.0 1.0
  outer loop
    vertex 17.000000000000004 29.44486372867091 3.0000000000000058
    vertex 8.799847533485718 -32.84147809382832 3.0000000000000058
    vertex 17.000000000000014 -29.44486372867091 3.0000000000000058
  endloop
endfacet
facet normal 0.0 0.0 1.0
  outer loop
    vertex 17.000000000000004 29.44486372867091 3.0000000000000058
    vertex 17.000000000000014 -29.44486372867091 3.0000000000000058
    vertex 24.041630560342618 24.041630560342618 3.0000000000000058
  endloop
endfacet
facet normal 0.0 0.0 1.0
  outer loop
    vertex 24.041630560342618 24.041630560342618 3.0000000000000058
    vertex 17.000000000000014 -29.44486372867091 3.0000000000000058
    vertex 24.041630560342618 -24.041630560342615 3.0000000000000058
  endloop
endfacet
facet normal 0.0 0.0 1.0
  outer loop
    vertex 24.041630560342618 24.041630560342618 3.0000000000000058
    vertex 24.041630560342618 -24.041630560342615 3.0000000000000058
    vertex 29.44486372867091 -16.999999999999993 3.0000000000000058
  endloop
endfacet
facet normal 0.0 0.0 1.0
  outer loop
    vertex 24.041630560342618 24.041630560342618 3.0000000000000058
    vertex 29.44486372867091 -16.999999999999993 3.0000000000000058
    vertex 29.44486372867091 17.000000000000004 3.0000000000000058
  endloop
endfacet
facet normal 0.0 0.0 1.0
  outer loop
    vertex 29.44486372867091 17.000000000000004 3.0000000000000058
    vertex 29.44486372867091 -16.999999999999993 3.0000000000000058
    vertex 32.84147809382833 -8.799847533485702 3.0000000000000058
  endloop
endfacet
facet normal 0.0 0.0 1.0
  outer loop
    vertex 29.44486372867091 17.000000000000004 3.0000000000000058
    vertex 32.84147809382833 -8.799847533485702 3.0000000000000058
    vertex 32.84147809382833 8.799847533485718 3.0000000000000058
  endloop
endfacet
facet normal 0.0 0.0 1.0
  outer loop
    vertex 32.84147809382833 8.799847533485718 3.0000000000000058
    vertex 32.84147809382833 -8.799847533485702 3.0000000000000058
    vertex 33.99999999999999 0.0 3.0000000000000058
  endloop
endfacet
facet normal 0.0 0.0 1.0
  outer loop
    vertex -32.841478093828314 -8.799847533485728 3.0000000000000058
    vertex -32.84147809382833 8.799847533485694 3.0000000000000058
    vertex -34.0 -5.639932965095795e-15 3.0000000000000058
  endloop
endfacet
facet normal 0.0 0.0 1.0
  outer loop
    vertex -32.84147809382833 8.799847533485694 3.0000000000000058
    vertex -32.841478093828314 -8.799847533485728 3.0000000000000058
    vertex -29.444863728670928 16.99999999999998 3.0000000000000058
  endloop
endfacet
facet normal 0.0 0.0 1.0
  outer loop
    vertex -29.444863728670928 16.99999999999998 3.0000000000000058
    vertex -32.841478093828314 -8.799847533485728 3.0000000000000058
    vertex -29.444863728670903 -17.000000000000014 3.0000000000000058
  endloop
endfacet
facet normal 0.0 0.0 1.0
  outer loop
    vertex -29.444863728670928 16.99999999999998 3.0000000000000058
    vertex -29.444863728670903 -17.000000000000014 3.0000000000000058
    vertex -24.04163056034262 24.041630560342607 3.0000000000000058
  endloop
endfacet
facet normal 0.0 0.0 1.0
  outer loop
    vertex -24.04163056034262 24.041630560342607 3.0000000000000058
    vertex -29.444863728670903 -17.000000000000014 3.0000000000000058
    vertex -24.041630560342604 -24.04163056034263 3.0000000000000058
  endloop
endfacet
facet normal 0.0 0.0 1.0
  outer loop
    vertex -24.04163056034262 24.041630560342607 3.0000000000000058
    vertex -24.041630560342604 -24.04163056034263 3.0000000000000058
    vertex -17.000000000000014 29.44486372867091 3.0000000000000058
  endloop
endfacet
facet normal 0.0 0.0 1.0
  outer loop
    vertex -17.000000000000014 29.44486372867091 3.0000000000000058
    vertex -24.041630560342604 -24.04163056034263 3.0000000000000058
    vertex -16.999999999999993 -29.44486372867092 3.0000000000000058
  endloop
endfacet
facet normal 0.0 0.0 1.0
  outer loop
    vertex -17.000000000000014 29.44486372867091 3.0000000000000058
    vertex -16.999999999999993 -29.44486372867092 3.0000000000000058
    vertex -8.799847533485735 32.841478093828314 3.0000000000000058
  endloop
endfacet
facet normal 0.0 0.0 1.0
  outer loop
    vertex -8.799847533485735 32.841478093828314 3.0000000000000058
    vertex -16.999999999999993 -29.44486372867092 3.0000000000000058
    vertex -8.799847533485694 -32.84147809382833 3.0000000000000058
  endloop
endfacet
facet normal 0.0 0.0 1.0
  outer loop
    vertex -8.799847533485735 32.841478093828314 3.0000000000000058
    vertex -8.799847533485694 -32.84147809382833 3.0000000000000058
    vertex -7.9999999999999964 0.0 3.000000000000017
  endloop
endfacet
facet normal 0.0 0.0 1.0
  outer loop
    vertex -8.799847533485735 32.841478093828314 3.0000000000000058
    vertex -7.9999999999999964 0.0 3.000000000000017
    vertex -7.727406610312543 2.070552360820171 3.000000000000017
  endloop
endfacet
facet normal 0.0 0.0 1.0
  outer loop
    vertex -8.799847533485735 32.841478093828314 3.0000000000000058
    vertex -7.727406610312543 2.070552360820171 3.000000000000017
    vertex 0.0 33.99999999999999 3.0000000000000058
  endloop
endfacet
facet normal 0.0 0.0 1.0
  outer loop
    vertex 0.0 33.99999999999999 3.0000000000000058
    vertex -7.727406610312543 2.070552360820171 3.000000000000017
    vertex -6.928203230275508 4.0000000000000036 3.000000000000017
  endloop
endfacet
facet normal 0.0 0.0 1.0
  outer loop
    vertex 0.0 33.99999999999999 3.0000000000000058
    vertex -6.928203230275508 4.0000000000000036 3.000000000000017
    vertex -5.656854249492377 5.656854249492383 3.000000000000017
  endloop
endfacet
facet normal 0.0 0.0 1.0
  outer loop
    vertex 0.0 33.99999999999999 3.0000000000000058
    vertex -5.656854249492377 5.656854249492383 3.000000000000017
    vertex -3.9999999999999982 6.928203230275508 3.000000000000017
  endloop
endfacet
facet normal 0.0 0.0 1.0
  outer loop
    vertex 0.0 33.99999999999999 3.0000000000000058
    vertex -3.9999999999999982 6.928203230275508 3.000000000000017
    vertex -2.070552360820165 7.727406610312543 3.000000000000017
  endloop
endfacet
facet normal 0.0 0.0 1.0
  outer loop
    vertex 0.0 33.99999999999999 3.0000000000000058
    vertex -2.070552360820165 7.727406610312543 3.000000000000017
    vertex 0.0 7.9999999999999964 3.000000000000017
  endloop
endfacet
facet normal 0.0 0.0 1.0
  outer loop
    vertex 0.0 33.99999999999999 3.0000000000000058
    vertex 0.0 7.9999999999999964 3.000000000000017
    vertex 2.070552360820171 7.727406610312543 3.000000000000017
  endloop
endfacet
facet normal 0.0 0.0 1.0
  outer loop
    vertex 0.0 33.99999999999999 3.0000000000000058
    vertex 2.070552360820171 7.727406610312543 3.000000000000017
    vertex 8.799847533485707 32.84147809382833 3.0000000000000058
  endloop
endfacet
facet normal 0.0 0.0 1.0
  outer loop
    vertex 8.799847533485707 32.84147809382833 3.0000000000000058
    vertex 2.070552360820171 7.727406610312543 3.000000000000017
    vertex 4.0000000000000036 6.928203230275508 3.000000000000017
  endloop
endfacet
facet normal 0.0 0.0 1.0
  outer loop
    vertex 8.799847533485707 32.84147809382833 3.0000000000000058
    vertex 4.0000000000000036 6.928203230275508 3.000000000000017
    vertex 5.656854249492383 5.656854249492377 3.000000000000017
  endloop
endfacet
facet normal 0.0 0.0 1.0
  outer loop
    vertex 8.799847533485707 32.84147809382833 3.0000000000000058
    vertex 5.656854249492383 5.656854249492377 3.000000000000017
    vertex 6.928203230275508 3.9999999999999982 3.000000000000017
  endloop
endfacet
facet normal 0.0 0.0 1.0
  outer loop
    vertex 8.799847533485707 32.84147809382833 3.0000000000000058
    vertex 6.928203230275508 3.9999999999999982 3.000000000000017
    vertex 7.727406610312543 2.070552360820165 3.000000000000017
  endloop
endfacet
facet normal 0.0 0.0 1.0
  outer loop
    vertex 8.799847533485707 32.84147809382833 3.0000000000000058
    vertex 7.727406610312543 2.070552360820165 3.000000000000017
    vertex 7.9999999999999964 0.0 3.000000000000017
  endloop
endfacet
facet normal 0.6087614290087207 -0.7933533402912352 0.0
  outer loop
    vertex -17.000000000000014 29.44486372867091 56.50000000000001
    vertex -24.04163056034262 24.041630560342607 3.0000000000000058
    vertex -17.000000000000014 29.44486372867091 3.0000000000000058
  endloop
endfacet
facet normal 0.6087614290087207 -0.7933533402912352 0.0
  outer loop
    vertex -24.04163056034262 24.041630560342607 3.0000000000000058
    vertex -17.000000000000014 29.44486372867091 56.50000000000001
    vertex -24.04163056034262 24.041630560342607 56.50000000000001
  endloop
endfacet
facet normal 0.3826834323650906 -0.9238795325112864 0.0
  outer loop
    vertex -8.799847533485735 32.841478093828314 56.50000000000001
    vertex -17.000000000000014 29.44486372867091 3.0000000000000058
    vertex -8.799847533485735 32.841478093828314 3.0000000000000058
  endloop
endfacet
facet normal 0.3826834323650906 -0.9238795325112864 0.0
  outer loop
    vertex -17.000000000000014 29.44486372867091 3.0000000000000058
    vertex -8.799847533485735 32.841478093828314 56.50000000000001
    vertex -17.000000000000014 29.44486372867091 56.50000000000001
  endloop
endfacet
facet normal 0.923879532511287 -0.3826834323650894 0.0
  outer loop
    vertex -29.444863728670928 16.99999999999998 3.0000000000000058
    vertex -32.84147809382833 8.799847533485694 56.50000000000001
    vertex -32.84147809382833 8.799847533485694 3.0000000000000058
  endloop
endfacet
facet normal 0.923879532511287 -0.3826834323650894 0.0
  outer loop
    vertex -32.84147809382833 8.799847533485694 56.50000000000001
    vertex -29.444863728670928 16.99999999999998 3.0000000000000058
    vertex -29.444863728670928 16.99999999999998 56.50000000000001
  endloop
endfacet
facet normal 0.9914448613738105 -0.1305261922200513 0.0
  outer loop
    vertex -32.84147809382833 8.799847533485694 3.0000000000000058
    vertex -34.0 -5.639932965095795e-15 56.50000000000001
    vertex -34.0 -5.639932965095795e-15 3.0000000000000058
  endloop
endfacet
facet normal 0.9914448613738105 -0.1305261922200513 0.0
  outer loop
    vertex -34.0 -5.639932965095795e-15 56.50000000000001
    vertex -32.84147809382833 8.799847533485694 3.0000000000000058
    vertex -32.84147809382833 8.799847533485694 56.50000000000001
  endloop
endfacet
facet normal -0.7933533402912349 -0.608761429008721 -0.0
  outer loop
    vertex 24.041630560342618 24.041630560342618 56.50000000000001
    vertex 29.44486372867091 17.000000000000004 3.0000000000000058
    vertex 29.44486372867091 17.000000000000004 56.50000000000001
  endloop
endfacet
facet normal -0.7933533402912349 -0.608761429008721 -0.0
  outer loop
    vertex 29.44486372867091 17.000000000000004 3.0000000000000058
    vertex 24.041630560342618 24.041630560342618 56.50000000000001
    vertex 24.041630560342618 24.041630560342618 3.0000000000000058
  endloop
endfacet
facet normal 0.7933533402912349 0.608761429008721 0.0
  outer loop
    vertex -29.444863728670903 -17.000000000000014 3.0000000000000058
    vertex -24.041630560342604 -24.04163056034263 56.50000000000001
    vertex -24.041630560342604 -24.04163056034263 3.0000000000000058
  endloop
endfacet
facet normal 0.7933533402912349 0.608761429008721 0.0
  outer loop
    vertex -24.041630560342604 -24.04163056034263 56.50000000000001
    vertex -29.444863728670903 -17.000000000000014 3.0000000000000058
    vertex -29.444863728670903 -17.000000000000014 56.50000000000001
  endloop
endfacet
facet normal -0.9238795325112867 -0.38268343236508967 -0.0
  outer loop
    vertex 29.44486372867091 17.000000000000004 56.50000000000001
    vertex 32.84147809382833 8.799847533485718 3.0000000000000058
    vertex 32.84147809382833 8.799847533485718 56.50000000000001
  endloop
endfacet
facet normal -0.9238795325112867 -0.38268343236508967 -0.0
  outer loop
    vertex 32.84147809382833 8.799847533485718 3.0000000000000058
    vertex 29.44486372867091 17.000000000000004 56.50000000000001
    vertex 29.44486372867091 17.000000000000004 3.0000000000000058
  endloop
endfacet
facet normal -0.6087614290087211 0.7933533402912349 0.0
  outer loop
    vertex 17.000000000000014 -29.44486372867091 56.50000000000001
    vertex 24.041630560342618 -24.041630560342615 3.0000000000000058
    vertex 17.000000000000014 -29.44486372867091 3.0000000000000058
  endloop
endfacet
facet normal -0.6087614290087211 0.7933533402912349 0.0
  outer loop
    vertex 24.041630560342618 -24.041630560342615 3.0000000000000058
    vertex 17.000000000000014 -29.44486372867091 56.50000000000001
    vertex 24.041630560342618 -24.041630560342615 56.50000000000001
  endloop
endfacet
facet normal 0.13052619222005127 0.9914448613738106 0.0
  outer loop
    vertex -8.799847533485694 -32.84147809382833 56.50000000000001
    vertex 5.639932965095795e-15 -34.0 3.0000000000000058
    vertex -8.799847533485694 -32.84147809382833 3.0000000000000058
  endloop
endfacet
facet normal 0.13052619222005127 0.9914448613738106 0.0
  outer loop
    vertex 5.639932965095795e-15 -34.0 3.0000000000000058
    vertex -8.799847533485694 -32.84147809382833 56.50000000000001
    vertex 5.639932965095795e-15 -34.0 56.50000000000001
  endloop
endfacet
facet normal -0.13052619222005168 0.9914448613738105 0.0
  outer loop
    vertex 5.639932965095795e-15 -34.0 56.50000000000001
    vertex 8.799847533485718 -32.84147809382832 3.0000000000000058
    vertex 5.639932965095795e-15 -34.0 3.0000000000000058
  endloop
endfacet
facet normal -0.13052619222005168 0.9914448613738105 0.0
  outer loop
    vertex 8.799847533485718 -32.84147809382832 3.0000000000000058
    vertex 5.639932965095795e-15 -34.0 56.50000000000001
    vertex 8.799847533485718 -32.84147809382832 56.50000000000001
  endloop
endfacet
facet normal -0.6087614290087205 -0.7933533402912352 -0.0
  outer loop
    vertex 24.041630560342618 24.041630560342618 56.50000000000001
    vertex 17.000000000000004 29.44486372867091 3.0000000000000058
    vertex 24.041630560342618 24.041630560342618 3.0000000000000058
  endloop
endfacet
facet normal -0.6087614290087205 -0.7933533402912352 -0.0
  outer loop
    vertex 17.000000000000004 29.44486372867091 3.0000000000000058
    vertex 24.041630560342618 24.041630560342618 56.50000000000001
    vertex 17.000000000000004 29.44486372867091 56.50000000000001
  endloop
endfacet
facet normal 0.6087614290087205 0.7933533402912354 0.0
  outer loop
    vertex -24.041630560342604 -24.04163056034263 56.50000000000001
    vertex -16.999999999999993 -29.44486372867092 3.0000000000000058
    vertex -24.041630560342604 -24.04163056034263 3.0000000000000058
  endloop
endfacet
facet normal 0.6087614290087205 0.7933533402912354 0.0
  outer loop
    vertex -16.999999999999993 -29.44486372867092 3.0000000000000058
    vertex -24.041630560342604 -24.04163056034263 56.50000000000001
    vertex -16.999999999999993 -29.44486372867092 56.50000000000001
  endloop
endfacet
facet normal -0.9238795325112867 0.38268343236508967 0.0
  outer loop
    vertex 32.84147809382833 -8.799847533485702 56.50000000000001
    vertex 29.44486372867091 -16.999999999999993 3.0000000000000058
    vertex 29.44486372867091 -16.999999999999993 56.50000000000001
  endloop
endfacet
facet normal -0.9238795325112867 0.38268343236508967 0.0
  outer loop
    vertex 29.44486372867091 -16.999999999999993 3.0000000000000058
    vertex 32.84147809382833 -8.799847533485702 56.50000000000001
    vertex 32.84147809382833 -8.799847533485702 3.0000000000000058
  endloop
endfacet
facet normal -0.9914448613738105 -0.13052619222005168 -0.0
  outer loop
    vertex 32.84147809382833 8.799847533485718 56.50000000000001
    vertex 33.99999999999999 0.0 3.0000000000000058
    vertex 33.99999999999999 0.0 56.50000000000001
  endloop
endfacet
facet normal -0.9914448613738105 -0.13052619222005168 -0.0
  outer loop
    vertex 33.99999999999999 0.0 3.0000000000000058
    vertex 32.84147809382833 8.799847533485718 56.50000000000001
    vertex 32.84147809382833 8.799847533485718 3.0000000000000058
  endloop
endfacet
facet normal -0.7933533402912356 0.6087614290087203 0.0
  outer loop
    vertex 29.44486372867091 -16.999999999999993 56.50000000000001
    vertex 24.041630560342618 -24.041630560342615 3.0000000000000058
    vertex 24.041630560342618 -24.041630560342615 56.50000000000001
  endloop
endfacet
facet normal -0.7933533402912356 0.6087614290087203 0.0
  outer loop
    vertex 24.041630560342618 -24.041630560342615 3.0000000000000058
    vertex 29.44486372867091 -16.999999999999993 56.50000000000001
    vertex 29.44486372867091 -16.999999999999993 3.0000000000000058
  endloop
endfacet
facet normal 0.3826834323650893 0.9238795325112868 0.0
  outer loop
    vertex -16.999999999999993 -29.44486372867092 56.50000000000001
    vertex -8.799847533485694 -32.84147809382833 3.0000000000000058
    vertex -16.999999999999993 -29.44486372867092 3.0000000000000058
  endloop
endfacet
facet normal 0.3826834323650893 0.9238795325112868 0.0
  outer loop
    vertex -8.799847533485694 -32.84147809382833 3.0000000000000058
    vertex -16.999999999999993 -29.44486372867092 56.50000000000001
    vertex -8.799847533485694 -32.84147809382833 56.50000000000001
  endloop
endfacet
facet normal 0.13052619222005196 -0.9914448613738104 0.0
  outer loop
    vertex 0.0 33.99999999999999 56.50000000000001
    vertex -8.799847533485735 32.841478093828314 3.0000000000000058
    vertex 0.0 33.99999999999999 3.0000000000000058
  endloop
endfacet
facet normal 0.13052619222005196 -0.9914448613738104 0.0
  outer loop
    vertex -8.799847533485735 32.841478093828314 3.0000000000000058
    vertex 0.0 33.99999999999999 56.50000000000001
    vertex -8.799847533485735 32.841478093828314 56.50000000000001
  endloop
endfacet
endsolid Untitled-5825b0e8
