solid pluie_luminosite
facet normal 3.376784242094598e-08 6.307515545023873e-17 0.9999999999999994
  outer loop
    vertex 137.42542243017212 87.442683321006 -0.3859020783937376
    vertex 146.42542243087934 87.05910332284158 -0.38590238230431784
    vertex 146.42542243016283 87.44269627144386 -0.3859023823043193
  endloop
endfacet
facet normal 3.376784242094598e-08 6.307515545023873e-17 0.9999999999999994
  outer loop
    vertex 146.42542243087934 87.05910332284158 -0.38590238230431784
    vertex 137.42542243017212 87.442683321006 -0.3859020783937376
    vertex 137.42542243088872 87.05909037240372 -0.3859020783937376
  endloop
endfacet
facet normal 1.4389375436543476e-06 -0.9999999999989648 -5.082197683525802e-21
  outer loop
    vertex 146.42542239319215 87.0429439491215 -6.38562580189106
    vertex 137.42542242700225 87.04290692285744 -1.185801197516411
    vertex 137.4254223932015 87.04293099868363 -6.385625497980481
  endloop
endfacet
facet normal 1.4389375436543476e-06 -0.9999999999989648 -5.082197683525802e-21
  outer loop
    vertex 137.42542242700225 87.04290692285744 -1.185801197516411
    vertex 146.42542239319215 87.0429439491215 -6.38562580189106
    vertex 146.42542242699292 87.04291987329532 -1.185801501426992
  endloop
endfacet
facet normal -3.376784242094607e-08 -1.6940658945086007e-21 -0.9999999999999996
  outer loop
    vertex 146.42542242699295 86.54315945227196 -1.1858015014269914
    vertex 137.4254224270023 86.6431465018341 -1.1858011975164096
    vertex 146.42542242699292 86.64315945227197 -1.1858015014269927
  endloop
endfacet
facet normal -3.376784242094607e-08 -1.6940658945086007e-21 -0.9999999999999996
  outer loop
    vertex 137.4254224270023 86.6431465018341 -1.1858011975164096
    vertex 146.42542242699295 86.54315945227196 -1.1858015014269914
    vertex 137.4254224270023 86.54314650183407 -1.185801197516409
  endloop
endfacet
facet normal 0.9999999999991601 1.2895399594805026e-06 -1.300187260226136e-07
  outer loop
    vertex 146.42542239319215 87.0429439491215 -6.38562580189106
    vertex 146.42542134053357 87.44267857230825 -5.385647377496861
    vertex 146.42542242699292 87.04291987329532 -1.185801501426992
  endloop
endfacet
facet normal 0.9999999999991601 1.2895399594805026e-06 -1.300187260226136e-07
  outer loop
    vertex 146.42542134053357 87.44267857230825 -5.385647377496861
    vertex 146.42542239319215 87.0429439491215 -6.38562580189106
    vertex 146.4254192852991 88.24271603513878 -6.385596914929074
  endloop
endfacet
facet normal 0.9999999999991601 1.2895399594805026e-06 -1.300187260226136e-07
  outer loop
    vertex 146.42542134053357 87.44267857230825 -5.385647377496861
    vertex 146.4254192852991 88.24271603513878 -6.385596914929074
    vertex 146.4254202846722 88.24268602293245 -5.385647377496862
  endloop
endfacet
facet normal 0.9999999999991601 1.2895399594805026e-06 -1.300187260226136e-07
  outer loop
    vertex 146.42542242699292 87.04291987329532 -1.185801501426992
    vertex 146.42542134053357 87.44267857230825 -5.385647377496861
    vertex 146.42542243016283 87.44269627144386 -0.3859023823043193
  endloop
endfacet
facet normal 0.9999999999991601 1.2895399594805026e-06 -1.300187260226136e-07
  outer loop
    vertex 146.42542242699292 87.04291987329532 -1.185801501426992
    vertex 146.42542243016283 87.44269627144386 -0.3859023823043193
    vertex 146.42542242699292 86.64315945227197 -1.1858015014269927
  endloop
endfacet
facet normal 0.9999999999991601 1.2895399594805026e-06 -1.300187260226136e-07
  outer loop
    vertex 146.42542242699292 86.64315945227197 -1.1858015014269927
    vertex 146.42542243016283 87.44269627144386 -0.3859023823043193
    vertex 146.42542242699295 86.54315945227196 -1.1858015014269914
  endloop
endfacet
facet normal 0.9999999999991601 1.2895399594805026e-06 -1.300187260226136e-07
  outer loop
    vertex 146.42542242699295 86.54315945227196 -1.1858015014269914
    vertex 146.42542243016283 87.44269627144386 -0.3859023823043193
    vertex 146.4254224272192 86.54315945227195 -0.8993224545414689
  endloop
endfacet
facet normal 0.9999999999991601 1.2895399594805026e-06 -1.300187260226136e-07
  outer loop
    vertex 146.4254224272192 86.54315945227195 -0.8993224545414689
    vertex 146.42542243016283 87.44269627144386 -0.3859023823043193
    vertex 146.42542243087934 87.05910332284158 -0.38590238230431784
  endloop
endfacet
facet normal 1.4389373436858277e-06 -0.9999999999813445 -5.936381540940217e-06
  outer loop
    vertex 146.4254192852991 88.24271603513878 -6.385596914929074
    vertex 137.42542028468156 88.24267307249453 -5.385647073586279
    vertex 137.42541928530844 88.24270308470086 -6.385596611018492
  endloop
endfacet
facet normal 1.4389373436858277e-06 -0.9999999999813445 -5.936381540940217e-06
  outer loop
    vertex 137.42542028468156 88.24267307249453 -5.385647073586279
    vertex 146.4254192852991 88.24271603513878 -6.385596914929074
    vertex 146.4254202846722 88.24268602293245 -5.385647377496862
  endloop
endfacet
facet normal 1.4389375436543476e-06 -0.9999999999989647 -1.1363133334664835e-15
  outer loop
    vertex 146.42542242699295 86.54315945227196 -1.1858015014269914
    vertex 137.4254224272285 86.5431465018341 -0.8993221506308872
    vertex 137.4254224270023 86.54314650183407 -1.185801197516409
  endloop
endfacet
facet normal 1.4389375436543476e-06 -0.9999999999989647 -1.1363133334664835e-15
  outer loop
    vertex 137.4254224272285 86.5431465018341 -0.8993221506308872
    vertex 146.42542242699295 86.54315945227196 -1.1858015014269914
    vertex 146.4254224272192 86.54315945227195 -0.8993224545414689
  endloop
endfacet
facet normal 1.0389207180515603e-06 -0.7053709740479962 0.7088383376832138
  outer loop
    vertex 137.42542243088872 87.05909037240372 -0.3859020783937376
    vertex 146.4254224272192 86.54315945227195 -0.8993224545414689
    vertex 146.42542243087934 87.05910332284158 -0.38590238230431784
  endloop
endfacet
facet normal 1.0389207180515603e-06 -0.7053709740479962 0.7088383376832138
  outer loop
    vertex 146.4254224272192 86.54315945227195 -0.8993224545414689
    vertex 137.42542243088872 87.05909037240372 -0.3859020783937376
    vertex 137.4254224272285 86.5431465018341 -0.8993221506308872
  endloop
endfacet
facet normal -3.3802487760470746e-08 2.40770411392702e-05 -0.9999999997101476
  outer loop
    vertex 146.42542239319215 87.0429439491215 -6.38562580189106
    vertex 137.42541928530844 88.24270308470086 -6.385596611018492
    vertex 146.4254192852991 88.24271603513878 -6.385596914929074
  endloop
endfacet
facet normal -3.3802487760470746e-08 2.40770411392702e-05 -0.9999999997101476
  outer loop
    vertex 137.42541928530844 88.24270308470086 -6.385596611018492
    vertex 146.42542239319215 87.0429439491215 -6.38562580189106
    vertex 137.4254223932015 87.04293099868363 -6.385625497980481
  endloop
endfacet
facet normal -1.4389376930651776e-06 0.9999999999891742 -4.425065618903073e-06
  outer loop
    vertex 137.42542243017212 87.442683321006 -0.3859020783937376
    vertex 146.42542134053357 87.44267857230825 -5.385647377496861
    vertex 137.42542134054293 87.44266562187035 -5.385647073586279
  endloop
endfacet
facet normal -1.4389376930651776e-06 0.9999999999891742 -4.425065618903073e-06
  outer loop
    vertex 146.42542134053357 87.44267857230825 -5.385647377496861
    vertex 137.42542243017212 87.442683321006 -0.3859020783937376
    vertex 146.42542243016283 87.44269627144386 -0.3859023823043193
  endloop
endfacet
facet normal 3.376784242088194e-08 4.4567285652956715e-14 0.9999999999999996
  outer loop
    vertex 137.42542028468156 88.24267307249453 -5.385647073586279
    vertex 146.42542134053357 87.44267857230825 -5.385647377496861
    vertex 146.4254202846722 88.24268602293245 -5.385647377496862
  endloop
endfacet
facet normal 3.376784242088194e-08 4.4567285652956715e-14 0.9999999999999996
  outer loop
    vertex 146.42542134053357 87.44267857230825 -5.385647377496861
    vertex 137.42542028468156 88.24267307249453 -5.385647073586279
    vertex 137.42542134054293 87.44266562187035 -5.385647073586279
  endloop
endfacet
facet normal -3.3767842420946064e-08 -1.6940658945086007e-21 -0.9999999999999996
  outer loop
    vertex 146.42542242699292 86.64315945227197 -1.1858015014269927
    vertex 137.42542242700225 87.04290692285744 -1.185801197516411
    vertex 146.42542242699292 87.04291987329532 -1.185801501426992
  endloop
endfacet
facet normal -3.3767842420946064e-08 -1.6940658945086007e-21 -0.9999999999999996
  outer loop
    vertex 137.42542242700225 87.04290692285744 -1.185801197516411
    vertex 146.42542242699292 86.64315945227197 -1.1858015014269927
    vertex 137.4254224270023 86.6431465018341 -1.1858011975164096
  endloop
endfacet
facet normal -0.9999999999989643 -1.4389375436543446e-06 3.376784242091106e-08
  outer loop
    vertex 137.4254223932015 87.04293099868363 -6.385625497980481
    vertex 137.42542134054293 87.44266562187035 -5.385647073586279
    vertex 137.42541928530844 88.24270308470086 -6.385596611018492
  endloop
endfacet
facet normal -0.9999999999989643 -1.4389375436543446e-06 3.376784242091106e-08
  outer loop
    vertex 137.42542134054293 87.44266562187035 -5.385647073586279
    vertex 137.4254223932015 87.04293099868363 -6.385625497980481
    vertex 137.42542242700225 87.04290692285744 -1.185801197516411
  endloop
endfacet
facet normal -0.9999999999989643 -1.4389375436543446e-06 3.376784242091106e-08
  outer loop
    vertex 137.42541928530844 88.24270308470086 -6.385596611018492
    vertex 137.42542134054293 87.44266562187035 -5.385647073586279
    vertex 137.42542028468156 88.24267307249453 -5.385647073586279
  endloop
endfacet
facet normal -0.9999999999989643 -1.4389375436543446e-06 3.376784242091106e-08
  outer loop
    vertex 137.42542134054293 87.44266562187035 -5.385647073586279
    vertex 137.42542242700225 87.04290692285744 -1.185801197516411
    vertex 137.42542243017212 87.442683321006 -0.3859020783937376
  endloop
endfacet
facet normal -0.9999999999989643 -1.4389375436543446e-06 3.376784242091106e-08
  outer loop
    vertex 137.42542243017212 87.442683321006 -0.3859020783937376
    vertex 137.42542242700225 87.04290692285744 -1.185801197516411
    vertex 137.4254224270023 86.6431465018341 -1.1858011975164096
  endloop
endfacet
facet normal -0.9999999999989643 -1.4389375436543446e-06 3.376784242091106e-08
  outer loop
    vertex 137.42542243017212 87.442683321006 -0.3859020783937376
    vertex 137.4254224270023 86.6431465018341 -1.1858011975164096
    vertex 137.4254224270023 86.54314650183407 -1.185801197516409
  endloop
endfacet
facet normal -0.9999999999989643 -1.4389375436543446e-06 3.376784242091106e-08
  outer loop
    vertex 137.42542243017212 87.442683321006 -0.3859020783937376
    vertex 137.4254224270023 86.54314650183407 -1.185801197516409
    vertex 137.4254224272285 86.5431465018341 -0.8993221506308872
  endloop
endfacet
facet normal -0.9999999999989643 -1.4389375436543446e-06 3.376784242091106e-08
  outer loop
    vertex 137.42542243017212 87.442683321006 -0.3859020783937376
    vertex 137.4254224272285 86.5431465018341 -0.8993221506308872
    vertex 137.42542243088872 87.05909037240372 -0.3859020783937376
  endloop
endfacet
facet normal 1.649588635151162e-05 -9.235224858529795e-06 -0.9999999998212983
  outer loop
    vertex 130.45308175218955 139.94802068306885 -6.386357576370864
    vertex 175.45317926766847 76.44269119970394 -6.385056336611889
    vertex 130.45304220215195 76.44268698193393 -6.385756323590077
  endloop
endfacet
facet normal 1.649588635151162e-05 -9.235224858529795e-06 -0.9999999998212983
  outer loop
    vertex 175.45317926766847 76.44269119970394 -6.385056336611889
    vertex 130.45308175218955 139.94802068306885 -6.386357576370864
    vertex 175.45321626058708 139.9480158394747 -6.385656738506141
  endloop
endfacet
facet normal 0.9999999999996017 8.926770510028936e-07 -9.464813864106601e-14
  outer loop
    vertex 132.6531459439237 88.2426383601445 -5.385714943558938
    vertex 132.6531546921152 78.44268751780642 -2.3854328515189076
    vertex 132.6531546921152 78.44268751780642 -5.385756323197469
  endloop
endfacet
facet normal 0.9999999999996017 8.926770510028936e-07 -9.464813864106601e-14
  outer loop
    vertex 132.6531546921152 78.44268751780642 -2.3854328515189076
    vertex 132.6531459439237 88.2426383601445 -5.385714943558938
    vertex 132.65314594392365 88.2426390721929 -2.3851059885890185
  endloop
endfacet
facet normal -3.5445555577278147e-06 -0.9999999997477904 2.217781065194063e-05
  outer loop
    vertex 165.25347360795368 88.24262348681724 -2.383640062136715
    vertex 155.4530866911692 88.24271055880658 -0.020224354500832997
    vertex 155.4531618446541 88.24267802289746 -2.3850987936504704
  endloop
endfacet
facet normal -3.5445555577278147e-06 -0.9999999997477904 2.217781065194063e-05
  outer loop
    vertex 155.4530866911692 88.24271055880658 -0.020224354500832997
    vertex 165.25347360795368 88.24262348681724 -2.383640062136715
    vertex 165.25294927366664 88.24293071174506 -1.4993340593066162
  endloop
endfacet
facet normal -3.5445555577278147e-06 -0.9999999997477904 2.217781065194063e-05
  outer loop
    vertex 155.4530866911692 88.24271055880658 -0.020224354500832997
    vertex 165.25294927366664 88.24293071174506 -1.4993340593066162
    vertex 165.25312796886058 88.24269611654218 0.0006659117044231027
  endloop
endfacet
facet normal -0.0002401900750508398 -0.003999288478509539 -0.9999919739679882
  outer loop
    vertex 140.6530299089994 137.94352107075005 -1.187622084336461
    vertex 165.2528207365409 137.34351788644048 -1.1911312025739742
    vertex 140.65302989483231 137.3435197561431 -1.1877290926686273
  endloop
endfacet
facet normal -0.0002401900750508398 -0.003999288478509539 -0.9999919739679882
  outer loop
    vertex 165.2528207365409 137.34351788644048 -1.1911312025739742
    vertex 140.6530299089994 137.94352107075005 -1.187622084336461
    vertex 165.2528208173006 137.94354327955992 -1.196037401846342
  endloop
endfacet
facet normal 0.9999999999600162 6.127433830382513e-06 6.513247533176905e-06
  outer loop
    vertex 150.4530756217696 90.29436062747648 -5.385168285076773
    vertex 150.45316140328865 88.2426390721929 -2.3851059885890185
    vertex 150.45315984637423 88.24263741838897 -5.385746110030075
  endloop
endfacet
facet normal 0.9999999999600162 6.127433830382513e-06 6.513247533176905e-06
  outer loop
    vertex 150.45316140328865 88.2426390721929 -2.3851059885890185
    vertex 150.4530756217696 90.29436062747648 -5.385168285076773
    vertex 150.4530862498038 88.24269912417904 -0.020272874510905793
  endloop
endfacet
facet normal 0.9999999999600162 6.127433830382513e-06 6.513247533176905e-06
  outer loop
    vertex 150.4530862498038 88.24269912417904 -0.020272874510905793
    vertex 150.4530756217696 90.29436062747648 -5.385168285076773
    vertex 150.453086440363 90.29319097366708 -0.010245486821370907
  endloop
endfacet
facet normal 0.9999999977512439 1.00055164660525e-06 6.705603084839986e-05
  outer loop
    vertex 173.25315986538706 137.34346872060996 -2.385090278455714
    vertex 173.25294922062176 96.24293071174495 -1.4993326886741674
    vertex 173.25347355490882 96.24262348681712 -2.3836386915042658
  endloop
endfacet
facet normal 0.9999999977512439 1.00055164660525e-06 6.705603084839986e-05
  outer loop
    vertex 173.25294922062176 96.24293071174495 -1.4993326886741674
    vertex 173.25315986538706 137.34346872060996 -2.385090278455714
    vertex 173.25317987764106 129.94354280535052 -1.195833024189309
  endloop
endfacet
facet normal 0.9999999977512439 1.00055164660525e-06 6.705603084839986e-05
  outer loop
    vertex 173.25294922062176 96.24293071174495 -1.4993326886741674
    vertex 173.25317987764106 129.94354280535052 -1.195833024189309
    vertex 173.25312769235862 129.94351731858234 0.0005265167915260577
  endloop
endfacet
facet normal 0.9999999977512439 1.00055164660525e-06 6.705603084839986e-05
  outer loop
    vertex 173.25317987764106 129.94354280535052 -1.195833024189309
    vertex 173.25315986538706 137.34346872060996 -2.385090278455714
    vertex 173.2531276393137 137.34351715031806 -1.1860802654386162
  endloop
endfacet
facet normal 0.9999999977512439 1.00055164660525e-06 6.705603084839986e-05
  outer loop
    vertex 173.25312769235862 129.94351731858234 0.0005265167915260577
    vertex 173.2531279158157 96.24269611654206 0.0006672823368721408
    vertex 173.25294922062176 96.24293071174495 -1.4993326886741674
  endloop
endfacet
facet normal -2.9435036623392376e-07 0.9999999999512863 9.866139868487013e-06
  outer loop
    vertex 140.6530299089994 137.94352107075005 -1.187622084336461
    vertex 165.25276863201813 137.94351779279174 0.0003221391344929963
    vertex 165.2528208173006 137.94354327955992 -1.196037401846342
  endloop
endfacet
facet normal -2.9435036623392376e-07 0.9999999999512863 9.866139868487013e-06
  outer loop
    vertex 165.25276863201813 137.94351779279174 0.0003221391344929963
    vertex 140.6530299089994 137.94352107075005 -1.187622084336461
    vertex 140.65302287714817 137.94351973263682 6.942612007303228e-05
  endloop
endfacet
facet normal -0.9999999999781033 2.517487523614964e-07 6.612880049163605e-06
  outer loop
    vertex 130.4530851310216 139.9480156228813 -2.3850790811361406
    vertex 130.45304220215195 76.44268698193393 -6.385756323590077
    vertex 130.45309245035628 76.44268584093732 -2.385076307884533
  endloop
endfacet
facet normal -0.9999999999781033 2.517487523614964e-07 6.612880049163605e-06
  outer loop
    vertex 130.45304220215195 76.44268698193393 -6.385756323590077
    vertex 130.4530851310216 139.9480156228813 -2.3850790811361406
    vertex 130.45308175218955 139.94802068306885 -6.386357576370864
  endloop
endfacet
facet normal 5.708534781907133e-06 -2.039579435596783e-06 0.9999999999816265
  outer loop
    vertex 130.45309245035628 76.44268584093732 -2.385076307884533
    vertex 132.6531546921152 78.44268751780642 -2.3854328515189076
    vertex 132.65314594392365 88.2426390721929 -2.3851059885890185
  endloop
endfacet
facet normal 5.708534781907133e-06 -2.039579435596783e-06 0.9999999999816265
  outer loop
    vertex 132.6531546921152 78.44268751780642 -2.3854328515189076
    vertex 130.45309245035628 76.44268584093732 -2.385076307884533
    vertex 175.4530662478339 76.44272484836114 -2.385105339699492
  endloop
endfacet
facet normal 5.708534781907133e-06 -2.039579435596783e-06 0.9999999999816265
  outer loop
    vertex 132.6531546921152 78.44268751780642 -2.3854328515189076
    vertex 175.4530662478339 76.44272484836114 -2.385105339699492
    vertex 174.45306208590634 78.45520743091804 -2.385841767936728
  endloop
endfacet
facet normal 5.708534781907133e-06 -2.039579435596783e-06 0.9999999999816265
  outer loop
    vertex 174.45306208590634 78.45520743091804 -2.385841767936728
    vertex 175.4530662478339 76.44272484836114 -2.385105339699492
    vertex 175.45306446248145 78.44272302722513 -2.3854308846838848
  endloop
endfacet
facet normal 5.708534781907133e-06 -2.039579435596783e-06 0.9999999999816265
  outer loop
    vertex 130.45309245035628 76.44268584093732 -2.385076307884533
    vertex 132.65314615957166 139.94801480890948 -2.3850892315897188
    vertex 130.4530851310216 139.9480156228813 -2.3850790811361406
  endloop
endfacet
facet normal 5.708534781907133e-06 -2.039579435596783e-06 0.9999999999816265
  outer loop
    vertex 132.65314615957166 139.94801480890948 -2.3850892315897188
    vertex 130.45309245035628 76.44268584093732 -2.385076307884533
    vertex 132.6531460564253 137.34346872060996 -2.385090278455714
  endloop
endfacet
facet normal 5.708534781907133e-06 -2.039579435596783e-06 0.9999999999816265
  outer loop
    vertex 132.6531460564253 137.34346872060996 -2.385090278455714
    vertex 130.45309245035628 76.44268584093732 -2.385076307884533
    vertex 132.65314594392365 88.2426390721929 -2.3851059885890185
  endloop
endfacet
facet normal 3.96024347387162e-08 0.9999999999999185 4.019379806752571e-07
  outer loop
    vertex 130.4530851310216 139.9480156228813 -2.3850790811361406
    vertex 175.45321626058708 139.9480158394747 -6.385656738506141
    vertex 130.45308175218955 139.94802068306885 -6.386357576370864
  endloop
endfacet
facet normal 3.96024347387162e-08 0.9999999999999185 4.019379806752571e-07
  outer loop
    vertex 175.45321626058708 139.9480158394747 -6.385656738506141
    vertex 130.4530851310216 139.9480156228813 -2.3850790811361406
    vertex 132.65314615957166 139.94801480890948 -2.3850892315897188
  endloop
endfacet
facet normal 3.96024347387162e-08 0.9999999999999185 4.019379806752571e-07
  outer loop
    vertex 175.45321626058708 139.9480158394747 -6.385656738506141
    vertex 173.25315996853342 139.94801480890948 -2.3850892315897188
    vertex 175.45312868730832 139.9480139952757 -2.3850493641648614
  endloop
endfacet
facet normal 3.96024347387162e-08 0.9999999999999185 4.019379806752571e-07
  outer loop
    vertex 173.25315996853342 139.94801480890948 -2.3850892315897188
    vertex 175.45321626058708 139.9480158394747 -6.385656738506141
    vertex 132.65314615957166 139.94801480890948 -2.3850892315897188
  endloop
endfacet
facet normal -0.9999999999798137 3.296781138798098e-06 -5.43176359896994e-06
  outer loop
    vertex 132.6530228601365 129.94352036630852 5.392196209486055e-07
    vertex 132.65242524064854 96.24251683014512 -1.4888483492914883
    vertex 132.6530227841065 96.24239712228496 -2.553851487202552e-05
  endloop
endfacet
facet normal -0.9999999999798137 3.296781138798098e-06 -5.43176359896994e-06
  outer loop
    vertex 132.65242522228152 88.24280720970651 -1.4888352149041852
    vertex 132.6531460564253 137.34346872060996 -2.385090278455714
    vertex 132.65314594392365 88.2426390721929 -2.3851059885890185
  endloop
endfacet
facet normal -0.9999999999798137 3.296781138798098e-06 -5.43176359896994e-06
  outer loop
    vertex 132.6531460564253 137.34346872060996 -2.385090278455714
    vertex 132.65242522228152 88.24280720970651 -1.4888352149041852
    vertex 132.65242524064854 96.24251683014512 -1.4888483492914883
  endloop
endfacet
facet normal -0.9999999999798137 3.296781138798098e-06 -5.43176359896994e-06
  outer loop
    vertex 132.6531460564253 137.34346872060996 -2.385090278455714
    vertex 132.65242524064854 96.24251683014512 -1.4888483492914883
    vertex 132.65302989198773 129.94352170442176 -1.1876909712369135
  endloop
endfacet
facet normal -0.9999999999798137 3.296781138798098e-06 -5.43176359896994e-06
  outer loop
    vertex 132.65302989198773 129.94352170442176 -1.1876909712369135
    vertex 132.65242524064854 96.24251683014512 -1.4888483492914883
    vertex 132.6530228601365 129.94352036630852 5.392196209486055e-07
  endloop
endfacet
facet normal -0.9999999999798137 3.296781138798098e-06 -5.43176359896994e-06
  outer loop
    vertex 132.6531460564253 137.34346872060996 -2.385090278455714
    vertex 132.65302989198773 129.94352170442176 -1.1876909712369135
    vertex 132.65302287824113 137.34352036630662 -1.1867513863320611
  endloop
endfacet
facet normal 0.0 -4.0193798067525746e-07 0.9999999999999193
  outer loop
    vertex 173.25315986538706 137.34346872060996 -2.385090278455714
    vertex 132.65314615957166 139.94801480890948 -2.3850892315897188
    vertex 132.6531460564253 137.34346872060996 -2.385090278455714
  endloop
endfacet
facet normal 0.0 -4.0193798067525746e-07 0.9999999999999193
  outer loop
    vertex 132.65314615957166 139.94801480890948 -2.3850892315897188
    vertex 173.25315986538706 137.34346872060996 -2.385090278455714
    vertex 173.25315996853342 139.94801480890948 -2.3850892315897188
  endloop
endfacet
facet normal 0.00013594389245571078 -9.976947660038636e-06 0.9999999907098592
  outer loop
    vertex 174.45315501333133 88.24264719888697 -2.3858494856789485
    vertex 173.25347355490882 96.24262348681712 -2.3836386915042658
    vertex 173.25315989712777 88.24267201535044 -2.3850962044493107
  endloop
endfacet
facet normal 0.00013594389245571078 -9.976947660038636e-06 0.9999999907098592
  outer loop
    vertex 175.45307511918938 85.44268751664934 -2.3858319036864266
    vertex 174.45315501333133 88.24264719888697 -2.3858494856789485
    vertex 174.45310090185978 85.44263389251341 -2.385806468730612
  endloop
endfacet
facet normal 0.00013594389245571078 -9.976947660038636e-06 0.9999999907098592
  outer loop
    vertex 173.25347355490882 96.24262348681712 -2.3836386915042658
    vertex 173.25315996853342 139.94801480890948 -2.3850892315897188
    vertex 173.25315986538706 137.34346872060996 -2.385090278455714
  endloop
endfacet
facet normal 0.00013594389245571078 -9.976947660038636e-06 0.9999999907098592
  outer loop
    vertex 173.25315996853342 139.94801480890948 -2.3850892315897188
    vertex 173.25347355490882 96.24262348681712 -2.3836386915042658
    vertex 175.45312868730832 139.9480139952757 -2.3850493641648614
  endloop
endfacet
facet normal 0.00013594389245571078 -9.976947660038636e-06 0.9999999907098592
  outer loop
    vertex 175.45312868730832 139.9480139952757 -2.3850493641648614
    vertex 173.25347355490882 96.24262348681712 -2.3836386915042658
    vertex 174.45315501333133 88.24264719888697 -2.3858494856789485
  endloop
endfacet
facet normal 0.00013594389245571078 -9.976947660038636e-06 0.9999999907098592
  outer loop
    vertex 175.45312868730832 139.9480139952757 -2.3850493641648614
    vertex 174.45315501333133 88.24264719888697 -2.3858494856789485
    vertex 175.45307511918938 85.44268751664934 -2.3858319036864266
  endloop
endfacet
facet normal 4.987717828121277e-07 -0.9999999999921185 3.938824403608298e-06
  outer loop
    vertex 175.45317926766847 76.44269119970394 -6.385056336611889
    vertex 130.45309245035628 76.44268584093732 -2.385076307884533
    vertex 130.45304220215195 76.44268698193393 -6.385756323590077
  endloop
endfacet
facet normal 4.987717828121277e-07 -0.9999999999921185 3.938824403608298e-06
  outer loop
    vertex 130.45309245035628 76.44268584093732 -2.385076307884533
    vertex 175.45317926766847 76.44269119970394 -6.385056336611889
    vertex 175.4530662478339 76.44272484836114 -2.385105339699492
  endloop
endfacet
facet normal 2.7157207886302527e-05 -0.8510745584482812 0.5250448506790153
  outer loop
    vertex 175.45307511918938 85.44268751664934 -2.3858319036864266
    vertex 174.45309586766749 84.64828415640301 -3.6734730086813725
    vertex 175.45309586764597 84.64827776091983 -3.6734744655836766
  endloop
endfacet
facet normal 2.7157207886302527e-05 -0.8510745584482812 0.5250448506790153
  outer loop
    vertex 174.45309586766749 84.64828415640301 -3.6734730086813725
    vertex 175.45307511918938 85.44268751664934 -2.3858319036864266
    vertex 174.45310090185978 85.44263389251341 -2.385806468730612
  endloop
endfacet
facet normal 7.607987742861316e-06 0.8655560713164288 0.5008120279599799
  outer loop
    vertex 174.4530705976586 80.18776309145265 -3.673473689300529
    vertex 175.4530676352212 79.44268751774334 -2.385770833851601
    vertex 175.45307059763712 80.18775669596945 -3.673475146202833
  endloop
endfacet
facet normal 7.607987742861316e-06 0.8655560713164288 0.5008120279599799
  outer loop
    vertex 175.4530676352212 79.44268751774334 -2.385770833851601
    vertex 174.4530705976586 80.18776309145265 -3.673473689300529
    vertex 174.4530684805952 79.44269628209439 -2.3857681089780955
  endloop
endfacet
facet normal 2.2792071799134814e-06 0.1305247107129931 0.9914450564141689
  outer loop
    vertex 175.45307713400842 81.75148765936792 -4.873351070578464
    vertex 174.45308074023964 82.41802382041735 -4.96109890878587
    vertex 174.45307713402994 81.75149405485112 -4.873349613676161
  endloop
endfacet
facet normal 2.2792071799134814e-06 0.1305247107129931 0.9914450564141689
  outer loop
    vertex 174.45308074023964 82.41802382041735 -4.96109890878587
    vertex 175.45307713400842 81.75148765936792 -4.873351070578464
    vertex 175.45308074021813 82.41801742493416 -4.961100365688175
  endloop
endfacet
facet normal 5.049133067114543e-06 0.6087559857387643 0.7933575170134407
  outer loop
    vertex 175.45307188382594 80.59702058503754 -4.20682769029936
    vertex 174.4530741132809 81.13038623871485 -4.61608137250304
    vertex 174.45307188384746 80.59702698052072 -4.206826233397057
  endloop
endfacet
facet normal 5.049133067114543e-06 0.6087559857387643 0.7933575170134407
  outer loop
    vertex 174.4530741132809 81.13038623871485 -4.61608137250304
    vertex 175.45307188382594 80.59702058503754 -4.20682769029936
    vertex 175.45307411325942 81.13037984323165 -4.616082829405345
  endloop
endfacet
facet normal -0.9999999999586298 8.887803777584223e-06 1.9358543087863932e-06
  outer loop
    vertex 174.4530684805952 79.44269628209439 -2.3857681089780955
    vertex 174.45306208590634 78.45520743091804 -5.385845415095044
    vertex 174.45306208590634 78.45520743091804 -2.385841767936728
  endloop
endfacet
facet normal -0.9999999999586298 8.887803777584223e-06 1.9358543087863932e-06
  outer loop
    vertex 174.45306208590634 78.45520743091804 -5.385845415095044
    vertex 174.4530684805952 79.44269628209439 -2.3857681089780955
    vertex 174.4530705976586 80.18776309145265 -3.673473689300529
  endloop
endfacet
facet normal -0.9999999999586298 8.887803777584223e-06 1.9358543087863932e-06
  outer loop
    vertex 174.45306208590634 78.45520743091804 -5.385845415095044
    vertex 174.4530705976586 80.18776309145265 -3.673473689300529
    vertex 174.45307188384746 80.59702698052072 -4.206826233397057
  endloop
endfacet
facet normal -0.9999999999586298 8.887803777584223e-06 1.9358543087863932e-06
  outer loop
    vertex 174.45306208590634 78.45520743091804 -5.385845415095044
    vertex 174.45307188384746 80.59702698052072 -4.206826233397057
    vertex 174.4530741132809 81.13038623871485 -4.61608137250304
  endloop
endfacet
facet normal -0.9999999999586298 8.887803777584223e-06 1.9358543087863932e-06
  outer loop
    vertex 174.45306208590634 78.45520743091804 -5.385845415095044
    vertex 174.4530741132809 81.13038623871485 -4.61608137250304
    vertex 174.45307713402994 81.75149405485112 -4.873349613676161
  endloop
endfacet
facet normal -0.9999999999586298 8.887803777584223e-06 1.9358543087863932e-06
  outer loop
    vertex 174.45306208590634 78.45520743091804 -5.385845415095044
    vertex 174.45307713402994 81.75149405485112 -4.873349613676161
    vertex 174.45310895693413 85.24259978770684 -5.385515051652685
  endloop
endfacet
facet normal -0.9999999999586298 8.887803777584223e-06 1.9358543087863932e-06
  outer loop
    vertex 174.45310895693413 85.24259978770684 -5.385515051652685
    vertex 174.45307713402994 81.75149405485112 -4.873349613676161
    vertex 174.45308074023964 82.41802382041735 -4.96109890878587
  endloop
endfacet
facet normal -0.9999999999586298 8.887803777584223e-06 1.9358543087863932e-06
  outer loop
    vertex 174.45310895693413 85.24259978770684 -5.385515051652685
    vertex 174.45308074023964 82.41802382041735 -4.96109890878587
    vertex 174.4530846861578 83.08455355920273 -4.8733494102681245
  endloop
endfacet
facet normal -0.9999999999586298 8.887803777584223e-06 1.9358543087863932e-06
  outer loop
    vertex 174.45310895693413 85.24259978770684 -5.385515051652685
    vertex 174.4530846861578 83.08455355920273 -4.8733494102681245
    vertex 174.45308870288213 83.70566129682157 -4.616080979548606
  endloop
endfacet
facet normal -0.9999999999586298 8.887803777584223e-06 1.9358543087863932e-06
  outer loop
    vertex 174.45310895693413 85.24259978770684 -5.385515051652685
    vertex 174.45308870288213 83.70566129682157 -4.616080979548606
    vertex 174.45309251668505 84.23902043011238 -4.206825677674873
  endloop
endfacet
facet normal -0.9999999999586298 8.887803777584223e-06 1.9358543087863932e-06
  outer loop
    vertex 174.45310895693413 85.24259978770684 -5.385515051652685
    vertex 174.45309251668505 84.23902043011238 -4.206825677674873
    vertex 174.45309586766749 84.64828415640301 -3.6734730086813725
  endloop
endfacet
facet normal -0.9999999999586298 8.887803777584223e-06 1.9358543087863932e-06
  outer loop
    vertex 174.45310895693413 85.24259978770684 -5.385515051652685
    vertex 174.45309586766749 84.64828415640301 -3.6734730086813725
    vertex 174.45310090185978 85.44263389251341 -2.385806468730612
  endloop
endfacet
facet normal -0.9999999999586298 8.887803777584223e-06 1.9358543087863932e-06
  outer loop
    vertex 174.45310895693413 85.24259978770684 -5.385515051652685
    vertex 174.45310090185978 85.44263389251341 -2.385806468730612
    vertex 174.45315501333133 88.24264719888697 -5.385522769394904
  endloop
endfacet
facet normal -0.9999999999586298 8.887803777584223e-06 1.9358543087863932e-06
  outer loop
    vertex 174.45315501333133 88.24264719888697 -5.385522769394904
    vertex 174.45310090185978 85.44263389251341 -2.385806468730612
    vertex 174.45315501333133 88.24264719888697 -2.3858494856789485
  endloop
endfacet
facet normal -2.737446097633294e-06 -0.6087562278642875 0.7933573312379171
  outer loop
    vertex 175.4530887028606 83.70565490133839 -4.61608243645091
    vertex 174.45309251668505 84.23902043011238 -4.206825677674873
    vertex 174.45308870288213 83.70566129682157 -4.616080979548606
  endloop
endfacet
facet normal -2.737446097633294e-06 -0.6087562278642875 0.7933573312379171
  outer loop
    vertex 174.45309251668505 84.23902043011238 -4.206825677674873
    vertex 175.4530887028606 83.70565490133839 -4.61608243645091
    vertex 175.45309251666353 84.2390140346292 -4.2068271345771775
  endloop
endfacet
facet normal 3.793425322344092e-06 0.38267957268735625 0.9238811312249171
  outer loop
    vertex 175.45307411325942 81.13037984323165 -4.616082829405345
    vertex 174.45307713402994 81.75149405485112 -4.873349613676161
    vertex 174.4530741132809 81.13038623871485 -4.61608137250304
  endloop
endfacet
facet normal 3.793425322344092e-06 0.38267957268735625 0.9238811312249171
  outer loop
    vertex 174.45307713402994 81.75149405485112 -4.873349613676161
    vertex 175.45307411325942 81.13037984323165 -4.616082829405345
    vertex 175.45307713400842 81.75148765936792 -4.873351070578464
  endloop
endfacet
facet normal -1.1014181986042275e-06 -0.38267985464766785 0.923881014441593
  outer loop
    vertex 175.4530846861363 83.08454716371955 -4.873350867170428
    vertex 174.45308870288213 83.70566129682157 -4.616080979548606
    vertex 174.4530846861578 83.08455355920273 -4.8733494102681245
  endloop
endfacet
facet normal -1.1014181986042275e-06 -0.38267985464766785 0.923881014441593
  outer loop
    vertex 174.45308870288213 83.70566129682157 -4.616080979548606
    vertex 175.4530846861363 83.08454716371955 -4.873350867170428
    vertex 175.4530887028606 83.70565490133839 -4.61608243645091
  endloop
endfacet
facet normal -4.186925372019955e-06 -0.7933477157409198 0.6087687589808913
  outer loop
    vertex 175.45309586764597 84.64827776091983 -3.6734744655836766
    vertex 174.45309251668505 84.23902043011238 -4.206825677674873
    vertex 175.45309251666353 84.2390140346292 -4.2068271345771775
  endloop
endfacet
facet normal -4.186925372019955e-06 -0.7933477157409198 0.6087687589808913
  outer loop
    vertex 174.45309251668505 84.23902043011238 -4.206825677674873
    vertex 175.45309586764597 84.64827776091983 -3.6734744655836766
    vertex 174.45309586766749 84.64828415640301 -3.6734730086813725
  endloop
endfacet
facet normal 6.096680005935854e-07 -0.13052501329331986 0.9914450165815586
  outer loop
    vertex 175.45308074021813 82.41801742493416 -4.961100365688175
    vertex 174.4530846861578 83.08455355920273 -4.8733494102681245
    vertex 174.45308074023964 82.41802382041735 -4.96109890878587
  endloop
endfacet
facet normal 6.096680005935854e-07 -0.13052501329331986 0.9914450165815586
  outer loop
    vertex 174.4530846861578 83.08455355920273 -4.8733494102681245
    vertex 175.45308074021813 82.41801742493416 -4.961100365688175
    vertex 175.4530846861363 83.08454716371955 -4.873350867170428
  endloop
endfacet
facet normal -0.00020378520867582364 0.0001485844146410782 0.9999999681971298
  outer loop
    vertex 175.45306446248145 78.44272302722513 -2.3854308846838848
    vertex 174.4530684805952 79.44269628209439 -2.3857681089780955
    vertex 174.45306208590634 78.45520743091804 -2.385841767936728
  endloop
endfacet
facet normal -0.00020378520867582364 0.0001485844146410782 0.9999999681971298
  outer loop
    vertex 174.4530684805952 79.44269628209439 -2.3857681089780955
    vertex 175.45306446248145 78.44272302722513 -2.3854308846838848
    vertex 175.4530676352212 79.44268751774334 -2.385770833851601
  endloop
endfacet
facet normal 5.960757751648703e-06 0.7933475299502528 0.60876900108851
  outer loop
    vertex 174.45307188384746 80.59702698052072 -4.206826233397057
    vertex 175.45307059763712 80.18775669596945 -3.673475146202833
    vertex 175.45307188382594 80.59702058503754 -4.20682769029936
  endloop
endfacet
facet normal 5.960757751648703e-06 0.7933475299502528 0.60876900108851
  outer loop
    vertex 175.45307059763712 80.18775669596945 -3.673475146202833
    vertex 174.45307188384746 80.59702698052072 -4.206826233397057
    vertex 174.4530705976586 80.18776309145265 -3.673473689300529
  endloop
endfacet
facet normal -0.00029463254786135326 0.999999671411644 -0.0007552272941788074
  outer loop
    vertex 132.6531546921152 78.44268751780642 -2.3854328515189076
    vertex 155.4391936466687 78.44270553704882 -5.385741717833602
    vertex 132.6531546921152 78.44268751780642 -5.385756323197469
  endloop
endfacet
facet normal -0.00029463254786135326 0.999999671411644 -0.0007552272941788074
  outer loop
    vertex 155.4391936466687 78.44270553704882 -5.385741717833602
    vertex 132.6531546921152 78.44268751780642 -2.3854328515189076
    vertex 174.45306208590634 78.45520743091804 -2.385841767936728
  endloop
endfacet
facet normal -0.00029463254786135326 0.999999671411644 -0.0007552272941788074
  outer loop
    vertex 174.45306208590634 78.45520743091804 -2.385841767936728
    vertex 174.45306208590634 78.45520743091804 -5.385845415095044
    vertex 155.4391936466687 78.44270553704882 -5.385741717833602
  endloop
endfacet
facet normal -2.4744044603974355e-06 -0.9999999998931162 1.440989547871799e-05
  outer loop
    vertex 150.45316140328865 88.2426390721929 -2.3851059885890185
    vertex 140.65242004006714 88.24281243176227 -1.493388107459716
    vertex 132.65314594392365 88.2426390721929 -2.3851059885890185
  endloop
endfacet
facet normal -2.4744044603974355e-06 -0.9999999998931162 1.440989547871799e-05
  outer loop
    vertex 140.65242004006714 88.24281243176227 -1.493388107459716
    vertex 150.45316140328865 88.2426390721929 -2.3851059885890185
    vertex 150.4530862498038 88.24269912417904 -0.020272874510905793
  endloop
endfacet
facet normal -2.4744044603974355e-06 -0.9999999998931162 1.440989547871799e-05
  outer loop
    vertex 140.65242004006714 88.24281243176227 -1.493388107459716
    vertex 150.4530862498038 88.24269912417904 -0.020272874510905793
    vertex 140.65301758352513 88.24269272390211 -0.0045652966831002005
  endloop
endfacet
facet normal -2.4744044603974355e-06 -0.9999999998931162 1.440989547871799e-05
  outer loop
    vertex 132.65242522228152 88.24280720970651 -1.4888352149041852
    vertex 132.65314594392365 88.2426390721929 -2.3851059885890185
    vertex 140.65242004006714 88.24281243176227 -1.493388107459716
  endloop
endfacet
facet normal 0.9999999999457396 -1.3628238647755695e-06 1.0327801560486667e-05
  outer loop
    vertex 175.45317926766847 76.44269119970394 -6.385056336611889
    vertex 175.45307411325942 81.13037984323165 -4.616082829405345
    vertex 175.4530662478339 76.44272484836114 -2.385105339699492
  endloop
endfacet
facet normal 0.9999999999457396 -1.3628238647755695e-06 1.0327801560486667e-05
  outer loop
    vertex 175.45307411325942 81.13037984323165 -4.616082829405345
    vertex 175.45317926766847 76.44269119970394 -6.385056336611889
    vertex 175.45307713400842 81.75148765936792 -4.873351070578464
  endloop
endfacet
facet normal 0.9999999999457396 -1.3628238647755695e-06 1.0327801560486667e-05
  outer loop
    vertex 175.45307713400842 81.75148765936792 -4.873351070578464
    vertex 175.45317926766847 76.44269119970394 -6.385056336611889
    vertex 175.45308074021813 82.41801742493416 -4.961100365688175
  endloop
endfacet
facet normal 0.9999999999457396 -1.3628238647755695e-06 1.0327801560486667e-05
  outer loop
    vertex 175.45308074021813 82.41801742493416 -4.961100365688175
    vertex 175.45317926766847 76.44269119970394 -6.385056336611889
    vertex 175.45321626058708 139.9480158394747 -6.385656738506141
  endloop
endfacet
facet normal 0.9999999999457396 -1.3628238647755695e-06 1.0327801560486667e-05
  outer loop
    vertex 175.4530662478339 76.44272484836114 -2.385105339699492
    vertex 175.45307411325942 81.13037984323165 -4.616082829405345
    vertex 175.45307188382594 80.59702058503754 -4.20682769029936
  endloop
endfacet
facet normal 0.9999999999457396 -1.3628238647755695e-06 1.0327801560486667e-05
  outer loop
    vertex 175.4530662478339 76.44272484836114 -2.385105339699492
    vertex 175.45307188382594 80.59702058503754 -4.20682769029936
    vertex 175.45306446248145 78.44272302722513 -2.3854308846838848
  endloop
endfacet
facet normal 0.9999999999457396 -1.3628238647755695e-06 1.0327801560486667e-05
  outer loop
    vertex 175.45306446248145 78.44272302722513 -2.3854308846838848
    vertex 175.45307188382594 80.59702058503754 -4.20682769029936
    vertex 175.45307059763712 80.18775669596945 -3.673475146202833
  endloop
endfacet
facet normal 0.9999999999457396 -1.3628238647755695e-06 1.0327801560486667e-05
  outer loop
    vertex 175.45306446248145 78.44272302722513 -2.3854308846838848
    vertex 175.45307059763712 80.18775669596945 -3.673475146202833
    vertex 175.4530676352212 79.44268751774334 -2.385770833851601
  endloop
endfacet
facet normal 0.9999999999457396 -1.3628238647755695e-06 1.0327801560486667e-05
  outer loop
    vertex 175.45308074021813 82.41801742493416 -4.961100365688175
    vertex 175.45321626058708 139.9480158394747 -6.385656738506141
    vertex 175.4530846861363 83.08454716371955 -4.873350867170428
  endloop
endfacet
facet normal 0.9999999999457396 -1.3628238647755695e-06 1.0327801560486667e-05
  outer loop
    vertex 175.4530846861363 83.08454716371955 -4.873350867170428
    vertex 175.45321626058708 139.9480158394747 -6.385656738506141
    vertex 175.4530887028606 83.70565490133839 -4.61608243645091
  endloop
endfacet
facet normal 0.9999999999457396 -1.3628238647755695e-06 1.0327801560486667e-05
  outer loop
    vertex 175.4530887028606 83.70565490133839 -4.61608243645091
    vertex 175.45321626058708 139.9480158394747 -6.385656738506141
    vertex 175.45309251666353 84.2390140346292 -4.2068271345771775
  endloop
endfacet
facet normal 0.9999999999457396 -1.3628238647755695e-06 1.0327801560486667e-05
  outer loop
    vertex 175.45309251666353 84.2390140346292 -4.2068271345771775
    vertex 175.45321626058708 139.9480158394747 -6.385656738506141
    vertex 175.45309586764597 84.64827776091983 -3.6734744655836766
  endloop
endfacet
facet normal 0.9999999999457396 -1.3628238647755695e-06 1.0327801560486667e-05
  outer loop
    vertex 175.45309586764597 84.64827776091983 -3.6734744655836766
    vertex 175.45321626058708 139.9480158394747 -6.385656738506141
    vertex 175.45307511918938 85.44268751664934 -2.3858319036864266
  endloop
endfacet
facet normal 0.9999999999457396 -1.3628238647755695e-06 1.0327801560486667e-05
  outer loop
    vertex 175.45307511918938 85.44268751664934 -2.3858319036864266
    vertex 175.45321626058708 139.9480158394747 -6.385656738506141
    vertex 175.45312868730832 139.9480139952757 -2.3850493641648614
  endloop
endfacet
facet normal -2.5173747454863553e-06 -0.9999999999432618 -1.0350805586223677e-05
  outer loop
    vertex 174.45315501333133 88.24264719888697 -5.385522769394904
    vertex 155.4531618446541 88.24267802289746 -2.3850987936504704
    vertex 155.43919484635245 88.24263954797927 -5.385731504664526
  endloop
endfacet
facet normal -2.5173747454863553e-06 -0.9999999999432618 -1.0350805586223677e-05
  outer loop
    vertex 155.4531618446541 88.24267802289746 -2.3850987936504704
    vertex 174.45315501333133 88.24264719888697 -5.385522769394904
    vertex 174.45315501333133 88.24264719888697 -2.3858494856789485
  endloop
endfacet
facet normal -2.5173747454863553e-06 -0.9999999999432618 -1.0350805586223677e-05
  outer loop
    vertex 155.4531618446541 88.24267802289746 -2.3850987936504704
    vertex 174.45315501333133 88.24264719888697 -2.3858494856789485
    vertex 173.25315989712777 88.24267201535044 -2.3850962044493107
  endloop
endfacet
facet normal -2.5173747454863553e-06 -0.9999999999432618 -1.0350805586223677e-05
  outer loop
    vertex 155.4531618446541 88.24267802289746 -2.3850987936504704
    vertex 173.25315989712777 88.24267201535044 -2.3850962044493107
    vertex 165.25347360795368 88.24262348681724 -2.383640062136715
  endloop
endfacet
facet normal -2.5173747454863553e-06 -0.9999999999432618 -1.0350805586223677e-05
  outer loop
    vertex 165.25347360795368 88.24262348681724 -2.383640062136715
    vertex 173.25315989712777 88.24267201535044 -2.3850962044493107
    vertex 173.25293451750957 88.24268023157323 -1.5020800452463474
  endloop
endfacet
facet normal -2.5173747454863553e-06 -0.9999999999432618 -1.0350805586223677e-05
  outer loop
    vertex 165.25347360795368 88.24262348681724 -2.383640062136715
    vertex 173.25293451750957 88.24268023157323 -1.5020800452463474
    vertex 165.25294927366664 88.24293071174506 -1.4993340593066162
  endloop
endfacet
facet normal -2.6453438993583857e-08 -0.9999999999999221 3.9422747241578946e-07
  outer loop
    vertex 150.45316140328865 88.2426390721929 -2.3851059885890185
    vertex 146.42542015279358 88.24266182184579 -5.385739032492727
    vertex 150.45315984637423 88.24263741838897 -5.385746110030075
  endloop
endfacet
facet normal -2.6453438993583857e-08 -0.9999999999999221 3.9422747241578946e-07
  outer loop
    vertex 146.42542015279358 88.24266182184579 -5.385739032492727
    vertex 150.45316140328865 88.2426390721929 -2.3851059885890185
    vertex 146.42542015279358 88.24266182184579 -5.385739032492727
  endloop
endfacet
facet normal -2.6453438993583857e-08 -0.9999999999999221 3.9422747241578946e-07
  outer loop
    vertex 146.42542015279358 88.24266182184579 -5.385739032492727
    vertex 150.45316140328865 88.2426390721929 -2.3851059885890185
    vertex 137.42542028468156 88.24267307249453 -5.385647073586279
  endloop
endfacet
facet normal -2.6453438993583857e-08 -0.9999999999999221 3.9422747241578946e-07
  outer loop
    vertex 137.42542028468156 88.24267307249453 -5.385647073586279
    vertex 132.6531459439237 88.2426383601445 -5.385714943558938
    vertex 137.42542028468156 88.24267307249453 -5.385647073586279
  endloop
endfacet
facet normal -2.6453438993583857e-08 -0.9999999999999221 3.9422747241578946e-07
  outer loop
    vertex 132.6531459439237 88.2426383601445 -5.385714943558938
    vertex 137.42542028468156 88.24267307249453 -5.385647073586279
    vertex 132.65314594392365 88.2426390721929 -2.3851059885890185
  endloop
endfacet
facet normal -2.6453438993583857e-08 -0.9999999999999221 3.9422747241578946e-07
  outer loop
    vertex 132.65314594392365 88.2426390721929 -2.3851059885890185
    vertex 137.42542028468156 88.24267307249453 -5.385647073586279
    vertex 150.45316140328865 88.2426390721929 -2.3851059885890185
  endloop
endfacet
facet normal -0.999996400701705 0.0023232845444366356 0.001341988286382012
  outer loop
    vertex 155.4531618446541 88.24267802289746 -2.3850987936504704
    vertex 155.45307584825844 90.28222274871764 -5.385189686278126
    vertex 155.43919484635245 88.24263954797927 -5.385731504664526
  endloop
endfacet
facet normal -0.999996400701705 0.0023232845444366356 0.001341988286382012
  outer loop
    vertex 155.45307584825844 90.28222274871764 -5.385189686278126
    vertex 155.4531618446541 88.24267802289746 -2.3850987936504704
    vertex 155.4530866911692 88.24271055880658 -0.020224354500832997
  endloop
endfacet
facet normal -0.999996400701705 0.0023232845444366356 0.001341988286382012
  outer loop
    vertex 155.45307584825844 90.28222274871764 -5.385189686278126
    vertex 155.4530866911692 88.24271055880658 -0.020224354500832997
    vertex 155.45308666685182 90.28105309490826 -0.01026688802272544
  endloop
endfacet
facet normal 9.783979297001075e-06 -0.0001923966598177235 0.9999999814438995
  outer loop
    vertex 132.6531546921152 78.44268751780642 -5.385756323197469
    vertex 150.45315984637423 88.24263741838897 -5.385746110030075
    vertex 132.6531459439237 88.2426383601445 -5.385714943558938
  endloop
endfacet
facet normal 9.783979297001075e-06 -0.0001923966598177235 0.9999999814438995
  outer loop
    vertex 150.45315984637423 88.24263741838897 -5.385746110030075
    vertex 132.6531546921152 78.44268751780642 -5.385756323197469
    vertex 155.4391936466687 78.44270553704882 -5.385741717833602
  endloop
endfacet
facet normal 9.783979297001075e-06 -0.0001923966598177235 0.9999999814438995
  outer loop
    vertex 174.45306208590634 78.45520743091804 -5.385845415095044
    vertex 155.43919484635245 88.24263954797927 -5.385731504664526
    vertex 155.4391936466687 78.44270553704882 -5.385741717833602
  endloop
endfacet
facet normal 9.783979297001075e-06 -0.0001923966598177235 0.9999999814438995
  outer loop
    vertex 155.43919484635245 88.24263954797927 -5.385731504664526
    vertex 174.45306208590634 78.45520743091804 -5.385845415095044
    vertex 174.45310895693413 85.24259978770684 -5.385515051652685
  endloop
endfacet
facet normal 9.783979297001075e-06 -0.0001923966598177235 0.9999999814438995
  outer loop
    vertex 155.43919484635245 88.24263954797927 -5.385731504664526
    vertex 174.45310895693413 85.24259978770684 -5.385515051652685
    vertex 174.45315501333133 88.24264719888697 -5.385522769394904
  endloop
endfacet
facet normal 9.783979297001075e-06 -0.0001923966598177235 0.9999999814438995
  outer loop
    vertex 134.65301195187436 90.33271607539993 -5.374934542107274
    vertex 171.25311683398152 135.94468986164043 -5.374577646919427
    vertex 134.65301164910602 135.9446898616968 -5.374906579825044
  endloop
endfacet
facet normal 9.783979297001075e-06 -0.0001923966598177235 0.9999999814438995
  outer loop
    vertex 171.25311683398152 135.94468986164043 -5.374577646919427
    vertex 134.65301195187436 90.33271607539993 -5.374934542107274
    vertex 150.4530756217696 90.29436062747648 -5.385168285076773
  endloop
endfacet
facet normal 9.783979297001075e-06 -0.0001923966598177235 0.9999999814438995
  outer loop
    vertex 171.25311683398152 135.94468986164043 -5.374577646919427
    vertex 150.4530756217696 90.29436062747648 -5.385168285076773
    vertex 150.45315984637423 88.24263741838897 -5.385746110030075
  endloop
endfacet
facet normal 9.783979297001075e-06 -0.0001923966598177235 0.9999999814438995
  outer loop
    vertex 171.25311683398152 135.94468986164043 -5.374577646919427
    vertex 150.45315984637423 88.24263741838897 -5.385746110030075
    vertex 155.45307584825844 90.28222274871764 -5.385189686278126
  endloop
endfacet
facet normal 9.783979297001075e-06 -0.0001923966598177235 0.9999999814438995
  outer loop
    vertex 155.45307584825844 90.28222274871764 -5.385189686278126
    vertex 150.45315984637423 88.24263741838897 -5.385746110030075
    vertex 155.43919484635245 88.24263954797927 -5.385731504664526
  endloop
endfacet
facet normal 9.783979297001075e-06 -0.0001923966598177235 0.9999999814438995
  outer loop
    vertex 155.43919484635245 88.24263954797927 -5.385731504664526
    vertex 150.45315984637423 88.24263741838897 -5.385746110030075
    vertex 155.4391936466687 78.44270553704882 -5.385741717833602
  endloop
endfacet
facet normal 9.783979297001075e-06 -0.0001923966598177235 0.9999999814438995
  outer loop
    vertex 171.25311683398152 135.94468986164043 -5.374577646919427
    vertex 155.45307584825844 90.28222274871764 -5.385189686278126
    vertex 171.2531185145603 90.24386739287146 -5.375430321352263
  endloop
endfacet
facet normal 0.002423444029116727 0.9999970392948166 0.0002198195599366039
  outer loop
    vertex 134.6524252270098 90.3316661294507 -1.4888345546284882
    vertex 140.65242396842422 90.31710083367041 -1.4907776640387935
    vertex 134.65301195187436 90.33271607539993 -5.374934542107274
  endloop
endfacet
facet normal 0.002423444029116727 0.9999970392948166 0.0002198195599366039
  outer loop
    vertex 134.65301195187436 90.33271607539993 -5.374934542107274
    vertex 150.453086440363 90.29319097366708 -0.010245486821370907
    vertex 150.4530756217696 90.29436062747648 -5.385168285076773
  endloop
endfacet
facet normal 0.002423444029116727 0.9999970392948166 0.0002198195599366039
  outer loop
    vertex 150.453086440363 90.29319097366708 -0.010245486821370907
    vertex 134.65301195187436 90.33271607539993 -5.374934542107274
    vertex 140.65242396842422 90.31710083367041 -1.4907776640387935
  endloop
endfacet
facet normal 0.002423444029116727 0.9999970392948166 0.0002198195599366039
  outer loop
    vertex 150.453086440363 90.29319097366708 -0.010245486821370907
    vertex 140.65242396842422 90.31710083367041 -1.4907776640387935
    vertex 140.65302151188217 90.31698112581024 -0.0019548532621777967
  endloop
endfacet
facet normal 0.002436000957029928 0.9999970053180327 0.00023506234013561812
  outer loop
    vertex 155.45308666685182 90.28105309490826 -0.01026688802272544
    vertex 171.2531185145603 90.24386739287146 -5.375430321352263
    vertex 155.45307584825844 90.28222274871764 -5.385189686278126
  endloop
endfacet
facet normal 0.002436000957029928 0.9999970053180327 0.00023506234013561812
  outer loop
    vertex 171.2531185145603 90.24386739287146 -5.375430321352263
    vertex 155.45308666685182 90.28105309490826 -0.01026688802272544
    vertex 165.2529507806542 90.25749761593308 -1.501773815167092
  endloop
endfacet
facet normal 0.002436000957029928 0.9999970053180327 0.00023506234013561812
  outer loop
    vertex 171.2531185145603 90.24386739287146 -5.375430321352263
    vertex 165.2529507806542 90.25749761593308 -1.501773815167092
    vertex 171.25324959262858 90.24263332555992 -1.5017973377350364
  endloop
endfacet
facet normal 0.002436000957029928 0.9999970053180327 0.00023506234013561812
  outer loop
    vertex 165.2529507806542 90.25749761593308 -1.501773815167092
    vertex 155.45308666685182 90.28105309490826 -0.01026688802272544
    vertex 165.25312947584814 90.25726302073019 -0.0017738441560527201
  endloop
endfacet
facet normal -0.9999999996420552 -2.934113201405271e-06 2.6594747433819792e-05
  outer loop
    vertex 171.2531730497029 129.94351731860743 0.00037997731629331173
    vertex 171.2532493719877 96.24263171295519 -1.5011539617888698
    vertex 171.25342806718163 96.24239711775229 -0.0011539907778305297
  endloop
endfacet
facet normal -0.9999999996420552 -2.934113201405271e-06 2.6594747433819792e-05
  outer loop
    vertex 171.2532493719877 96.24263171295519 -1.5011539617888698
    vertex 171.2531185145603 90.24386739287146 -5.375430321352263
    vertex 171.25324959262858 90.24263332555992 -1.5017973377350364
  endloop
endfacet
facet normal -0.9999999996420552 -2.934113201405271e-06 2.6594747433819792e-05
  outer loop
    vertex 171.2531185145603 90.24386739287146 -5.375430321352263
    vertex 171.2532493719877 96.24263171295519 -1.5011539617888698
    vertex 171.25311683398152 135.94468986164043 -5.374577646919427
  endloop
endfacet
facet normal -0.9999999996420552 -2.934113201405271e-06 2.6594747433819792e-05
  outer loop
    vertex 171.25311683398152 135.94468986164043 -5.374577646919427
    vertex 171.2532493719877 96.24263171295519 -1.5011539617888698
    vertex 171.25322523498534 129.9435428053756 -1.1959795636645416
  endloop
endfacet
facet normal -0.9999999996420552 -2.934113201405271e-06 2.6594747433819792e-05
  outer loop
    vertex 171.25322523498534 129.9435428053756 -1.1959795636645416
    vertex 171.2532493719877 96.24263171295519 -1.5011539617888698
    vertex 171.2531730497029 129.94351731860743 0.00037997731629331173
  endloop
endfacet
facet normal -0.9999999996420552 -2.934113201405271e-06 2.6594747433819792e-05
  outer loop
    vertex 171.25311683398152 135.94468986164043 -5.374577646919427
    vertex 171.25322523498534 129.9435428053756 -1.1959795636645416
    vertex 171.25317983599447 135.94354569392482 -1.1959686386942672
  endloop
endfacet
facet normal 1.9541956252979823e-09 -0.9999999763222623 -0.00021761313150583047
  outer loop
    vertex 171.25317983599447 135.94354569392482 -1.1959686386942672
    vertex 165.252820819122 135.94354569461058 -1.1960790419062803
    vertex 171.25311683398152 135.94468986164043 -5.374577646919427
  endloop
endfacet
facet normal 1.9541956252979823e-09 -0.9999999763222623 -0.00021761313150583047
  outer loop
    vertex 171.25311683398152 135.94468986164043 -5.374577646919427
    vertex 134.65302949955063 135.94352154600065 -1.1876752920261775
    vertex 134.65301164910602 135.9446898616968 -5.374906579825044
  endloop
endfacet
facet normal 1.9541956252979823e-09 -0.9999999763222623 -0.00021761313150583047
  outer loop
    vertex 134.65302949955063 135.94352154600065 -1.1876752920261775
    vertex 171.25311683398152 135.94468986164043 -5.374577646919427
    vertex 165.252820819122 135.94354569461058 -1.1960790419062803
  endloop
endfacet
facet normal 1.9541956252979823e-09 -0.9999999763222623 -0.00021761313150583047
  outer loop
    vertex 134.65302949955063 135.94352154600065 -1.1876752920261775
    vertex 165.252820819122 135.94354569461058 -1.1960790419062803
    vertex 140.65302990526206 135.94352154600207 -1.1876551026945663
  endloop
endfacet
facet normal 1.9541956252979823e-09 -0.9999999763222623 -0.00021761313150583047
  outer loop
    vertex 140.65302990526206 135.94352154600207 -1.1876551026945663
    vertex 165.252820819122 135.94354569461058 -1.1960790419062803
    vertex 165.25276863383957 135.9435202078424 0.0002804990745545327
  endloop
endfacet
facet normal 1.9541956252979823e-09 -0.9999999763222623 -0.00021761313150583047
  outer loop
    vertex 140.65302990526206 135.94352154600207 -1.1876551026945663
    vertex 165.25276863383957 135.9435202078424 0.0002804990745545327
    vertex 140.6530228734108 135.94352020788884 3.6407761967605086e-05
  endloop
endfacet
facet normal 0.9999999999920295 -3.7411355418038454e-06 1.3945842991979061e-06
  outer loop
    vertex 134.65301195187436 90.33271607539993 -5.374934542107274
    vertex 134.65242518777407 96.24251682561246 -1.4888309309993912
    vertex 134.6524252270098 90.3316661294507 -1.4888345546284882
  endloop
endfacet
facet normal 0.9999999999920295 -3.7411355418038454e-06 1.3945842991979061e-06
  outer loop
    vertex 134.65242518777407 96.24251682561246 -1.4888309309993912
    vertex 134.65301195187436 90.33271607539993 -5.374934542107274
    vertex 134.65301164910602 135.9446898616968 -5.374906579825044
  endloop
endfacet
facet normal 0.9999999999920295 -3.7411355418038454e-06 1.3945842991979061e-06
  outer loop
    vertex 134.65242518777407 96.24251682561246 -1.4888309309993912
    vertex 134.65301164910602 135.9446898616968 -5.374906579825044
    vertex 134.65302953938553 129.94352169990006 -1.1876807077385936
  endloop
endfacet
facet normal 0.9999999999920295 -3.7411355418038454e-06 1.3945842991979061e-06
  outer loop
    vertex 134.65242518777407 96.24251682561246 -1.4888309309993912
    vertex 134.65302953938553 129.94352169990006 -1.1876807077385936
    vertex 134.6530225075343 129.94352036178682 1.0802717941549299e-05
  endloop
endfacet
facet normal 0.9999999999920295 -3.7411355418038454e-06 1.3945842991979061e-06
  outer loop
    vertex 134.65302953938553 129.94352169990006 -1.1876807077385936
    vertex 134.65301164910602 135.9446898616968 -5.374906579825044
    vertex 134.65302949955063 135.94352154600065 -1.1876752920261775
  endloop
endfacet
facet normal 0.9999999999920295 -3.7411355418038454e-06 1.3945842991979061e-06
  outer loop
    vertex 134.6530225075343 129.94352036178682 1.0802717941549299e-05
    vertex 134.65302273123206 96.24239711775229 -8.120222776319963e-06
    vertex 134.65242518777407 96.24251682561246 -1.4888309309993912
  endloop
endfacet
facet normal 3.376784242094598e-08 6.307515545023873e-17 0.9999999999999994
  outer loop
    vertex 158.96953828204838 87.44268332100597 -0.3859020783937376
    vertex 167.9695382827556 87.05910332284157 -0.38590238230431784
    vertex 167.9695382820391 87.44269627144384 -0.3859023823043193
  endloop
endfacet
facet normal 3.376784242094598e-08 6.307515545023873e-17 0.9999999999999994
  outer loop
    vertex 167.9695382827556 87.05910332284157 -0.38590238230431784
    vertex 158.96953828204838 87.44268332100597 -0.3859020783937376
    vertex 158.96953828276497 87.05909037240369 -0.3859020783937376
  endloop
endfacet
facet normal 1.4389375436543476e-06 -0.9999999999989648 -5.082197683525802e-21
  outer loop
    vertex 167.96953824506843 87.04294394912147 -6.38562580189106
    vertex 158.96953827887853 87.04290692285741 -1.185801197516411
    vertex 158.96953824507776 87.0429309986836 -6.385625497980481
  endloop
endfacet
facet normal 1.4389375436543476e-06 -0.9999999999989648 -5.082197683525802e-21
  outer loop
    vertex 158.96953827887853 87.04290692285741 -1.185801197516411
    vertex 167.96953824506843 87.04294394912147 -6.38562580189106
    vertex 167.96953827886918 87.04291987329529 -1.185801501426992
  endloop
endfacet
facet normal -3.376784242094607e-08 -1.6940658945086007e-21 -0.9999999999999996
  outer loop
    vertex 167.96953827886924 86.54315945227195 -1.1858015014269914
    vertex 158.96953827887856 86.64314650183407 -1.1858011975164096
    vertex 167.96953827886918 86.64315945227195 -1.1858015014269927
  endloop
endfacet
facet normal -3.376784242094607e-08 -1.6940658945086007e-21 -0.9999999999999996
  outer loop
    vertex 158.96953827887856 86.64314650183407 -1.1858011975164096
    vertex 167.96953827886924 86.54315945227195 -1.1858015014269914
    vertex 158.96953827887856 86.54314650183404 -1.185801197516409
  endloop
endfacet
facet normal 0.9999999999991601 1.2895399594805026e-06 -1.300187260226136e-07
  outer loop
    vertex 167.96953824506843 87.04294394912147 -6.38562580189106
    vertex 167.96953719240986 87.44267857230824 -5.385647377496861
    vertex 167.96953827886918 87.04291987329529 -1.185801501426992
  endloop
endfacet
facet normal 0.9999999999991601 1.2895399594805026e-06 -1.300187260226136e-07
  outer loop
    vertex 167.96953719240986 87.44267857230824 -5.385647377496861
    vertex 167.96953824506843 87.04294394912147 -6.38562580189106
    vertex 167.9695351371754 88.24271603513877 -6.385596914929074
  endloop
endfacet
facet normal 0.9999999999991601 1.2895399594805026e-06 -1.300187260226136e-07
  outer loop
    vertex 167.96953719240986 87.44267857230824 -5.385647377496861
    vertex 167.9695351371754 88.24271603513877 -6.385596914929074
    vertex 167.96953613654847 88.24268602293242 -5.385647377496862
  endloop
endfacet
facet normal 0.9999999999991601 1.2895399594805026e-06 -1.300187260226136e-07
  outer loop
    vertex 167.96953827886918 87.04291987329529 -1.185801501426992
    vertex 167.96953719240986 87.44267857230824 -5.385647377496861
    vertex 167.9695382820391 87.44269627144384 -0.3859023823043193
  endloop
endfacet
facet normal 0.9999999999991601 1.2895399594805026e-06 -1.300187260226136e-07
  outer loop
    vertex 167.96953827886918 87.04291987329529 -1.185801501426992
    vertex 167.9695382820391 87.44269627144384 -0.3859023823043193
    vertex 167.96953827886918 86.64315945227195 -1.1858015014269927
  endloop
endfacet
facet normal 0.9999999999991601 1.2895399594805026e-06 -1.300187260226136e-07
  outer loop
    vertex 167.96953827886918 86.64315945227195 -1.1858015014269927
    vertex 167.9695382820391 87.44269627144384 -0.3859023823043193
    vertex 167.96953827886924 86.54315945227195 -1.1858015014269914
  endloop
endfacet
facet normal 0.9999999999991601 1.2895399594805026e-06 -1.300187260226136e-07
  outer loop
    vertex 167.96953827886924 86.54315945227195 -1.1858015014269914
    vertex 167.9695382820391 87.44269627144384 -0.3859023823043193
    vertex 167.96953827909547 86.54315945227192 -0.8993224545414689
  endloop
endfacet
facet normal 0.9999999999991601 1.2895399594805026e-06 -1.300187260226136e-07
  outer loop
    vertex 167.96953827909547 86.54315945227192 -0.8993224545414689
    vertex 167.9695382820391 87.44269627144384 -0.3859023823043193
    vertex 167.9695382827556 87.05910332284157 -0.38590238230431784
  endloop
endfacet
facet normal 1.4389373436858277e-06 -0.9999999999813445 -5.936381540940217e-06
  outer loop
    vertex 167.9695351371754 88.24271603513877 -6.385596914929074
    vertex 158.96953613655782 88.24267307249451 -5.385647073586279
    vertex 158.9695351371847 88.24270308470085 -6.385596611018492
  endloop
endfacet
facet normal 1.4389373436858277e-06 -0.9999999999813445 -5.936381540940217e-06
  outer loop
    vertex 158.96953613655782 88.24267307249451 -5.385647073586279
    vertex 167.9695351371754 88.24271603513877 -6.385596914929074
    vertex 167.96953613654847 88.24268602293242 -5.385647377496862
  endloop
endfacet
facet normal 1.4389375436543476e-06 -0.9999999999989647 -1.1363133334664835e-15
  outer loop
    vertex 167.96953827886924 86.54315945227195 -1.1858015014269914
    vertex 158.9695382791048 86.54314650183407 -0.8993221506308872
    vertex 158.96953827887856 86.54314650183404 -1.185801197516409
  endloop
endfacet
facet normal 1.4389375436543476e-06 -0.9999999999989647 -1.1363133334664835e-15
  outer loop
    vertex 158.9695382791048 86.54314650183407 -0.8993221506308872
    vertex 167.96953827886924 86.54315945227195 -1.1858015014269914
    vertex 167.96953827909547 86.54315945227192 -0.8993224545414689
  endloop
endfacet
facet normal 1.0389207180515603e-06 -0.7053709740479962 0.7088383376832138
  outer loop
    vertex 158.96953828276497 87.05909037240369 -0.3859020783937376
    vertex 167.96953827909547 86.54315945227192 -0.8993224545414689
    vertex 167.9695382827556 87.05910332284157 -0.38590238230431784
  endloop
endfacet
facet normal 1.0389207180515603e-06 -0.7053709740479962 0.7088383376832138
  outer loop
    vertex 167.96953827909547 86.54315945227192 -0.8993224545414689
    vertex 158.96953828276497 87.05909037240369 -0.3859020783937376
    vertex 158.9695382791048 86.54314650183407 -0.8993221506308872
  endloop
endfacet
facet normal -3.3802487760470746e-08 2.40770411392702e-05 -0.9999999997101476
  outer loop
    vertex 167.96953824506843 87.04294394912147 -6.38562580189106
    vertex 158.9695351371847 88.24270308470085 -6.385596611018492
    vertex 167.9695351371754 88.24271603513877 -6.385596914929074
  endloop
endfacet
facet normal -3.3802487760470746e-08 2.40770411392702e-05 -0.9999999997101476
  outer loop
    vertex 158.9695351371847 88.24270308470085 -6.385596611018492
    vertex 167.96953824506843 87.04294394912147 -6.38562580189106
    vertex 158.96953824507776 87.0429309986836 -6.385625497980481
  endloop
endfacet
facet normal -1.4389376930651776e-06 0.9999999999891742 -4.425065618903073e-06
  outer loop
    vertex 158.96953828204838 87.44268332100597 -0.3859020783937376
    vertex 167.96953719240986 87.44267857230824 -5.385647377496861
    vertex 158.9695371924192 87.44266562187033 -5.385647073586279
  endloop
endfacet
facet normal -1.4389376930651776e-06 0.9999999999891742 -4.425065618903073e-06
  outer loop
    vertex 167.96953719240986 87.44267857230824 -5.385647377496861
    vertex 158.96953828204838 87.44268332100597 -0.3859020783937376
    vertex 167.9695382820391 87.44269627144384 -0.3859023823043193
  endloop
endfacet
facet normal 3.376784242088194e-08 4.4567285652956715e-14 0.9999999999999996
  outer loop
    vertex 158.96953613655782 88.24267307249451 -5.385647073586279
    vertex 167.96953719240986 87.44267857230824 -5.385647377496861
    vertex 167.96953613654847 88.24268602293242 -5.385647377496862
  endloop
endfacet
facet normal 3.376784242088194e-08 4.4567285652956715e-14 0.9999999999999996
  outer loop
    vertex 167.96953719240986 87.44267857230824 -5.385647377496861
    vertex 158.96953613655782 88.24267307249451 -5.385647073586279
    vertex 158.9695371924192 87.44266562187033 -5.385647073586279
  endloop
endfacet
facet normal -3.3767842420946064e-08 -1.6940658945086007e-21 -0.9999999999999996
  outer loop
    vertex 167.96953827886918 86.64315945227195 -1.1858015014269927
    vertex 158.96953827887853 87.04290692285741 -1.185801197516411
    vertex 167.96953827886918 87.04291987329529 -1.185801501426992
  endloop
endfacet
facet normal -3.3767842420946064e-08 -1.6940658945086007e-21 -0.9999999999999996
  outer loop
    vertex 158.96953827887853 87.04290692285741 -1.185801197516411
    vertex 167.96953827886918 86.64315945227195 -1.1858015014269927
    vertex 158.96953827887856 86.64314650183407 -1.1858011975164096
  endloop
endfacet
facet normal -0.9999999999989643 -1.4389375436543446e-06 3.376784242091106e-08
  outer loop
    vertex 158.96953824507776 87.0429309986836 -6.385625497980481
    vertex 158.9695371924192 87.44266562187033 -5.385647073586279
    vertex 158.9695351371847 88.24270308470085 -6.385596611018492
  endloop
endfacet
facet normal -0.9999999999989643 -1.4389375436543446e-06 3.376784242091106e-08
  outer loop
    vertex 158.9695371924192 87.44266562187033 -5.385647073586279
    vertex 158.96953824507776 87.0429309986836 -6.385625497980481
    vertex 158.96953827887853 87.04290692285741 -1.185801197516411
  endloop
endfacet
facet normal -0.9999999999989643 -1.4389375436543446e-06 3.376784242091106e-08
  outer loop
    vertex 158.9695351371847 88.24270308470085 -6.385596611018492
    vertex 158.9695371924192 87.44266562187033 -5.385647073586279
    vertex 158.96953613655782 88.24267307249451 -5.385647073586279
  endloop
endfacet
facet normal -0.9999999999989643 -1.4389375436543446e-06 3.376784242091106e-08
  outer loop
    vertex 158.9695371924192 87.44266562187033 -5.385647073586279
    vertex 158.96953827887853 87.04290692285741 -1.185801197516411
    vertex 158.96953828204838 87.44268332100597 -0.3859020783937376
  endloop
endfacet
facet normal -0.9999999999989643 -1.4389375436543446e-06 3.376784242091106e-08
  outer loop
    vertex 158.96953828204838 87.44268332100597 -0.3859020783937376
    vertex 158.96953827887853 87.04290692285741 -1.185801197516411
    vertex 158.96953827887856 86.64314650183407 -1.1858011975164096
  endloop
endfacet
facet normal -0.9999999999989643 -1.4389375436543446e-06 3.376784242091106e-08
  outer loop
    vertex 158.96953828204838 87.44268332100597 -0.3859020783937376
    vertex 158.96953827887856 86.64314650183407 -1.1858011975164096
    vertex 158.96953827887856 86.54314650183404 -1.185801197516409
  endloop
endfacet
facet normal -0.9999999999989643 -1.4389375436543446e-06 3.376784242091106e-08
  outer loop
    vertex 158.96953828204838 87.44268332100597 -0.3859020783937376
    vertex 158.96953827887856 86.54314650183404 -1.185801197516409
    vertex 158.9695382791048 86.54314650183407 -0.8993221506308872
  endloop
endfacet
facet normal -0.9999999999989643 -1.4389375436543446e-06 3.376784242091106e-08
  outer loop
    vertex 158.96953828204838 87.44268332100597 -0.3859020783937376
    vertex 158.9695382791048 86.54314650183407 -0.8993221506308872
    vertex 158.96953828276497 87.05909037240369 -0.3859020783937376
  endloop
endfacet
facet normal -0.0015014121682371982 -0.0018727660749692288 0.9999971192502155
  outer loop
    vertex 155.4530866911692 88.24271055880658 -0.020224354500832997
    vertex 165.25312947584814 90.25726302073019 -0.0017738441560527201
    vertex 155.45308666685182 90.28105309490826 -0.01026688802272544
  endloop
endfacet
facet normal -0.0015014121682371982 -0.0018727660749692288 0.9999971192502155
  outer loop
    vertex 165.25312947584814 90.25726302073019 -0.0017738441560527201
    vertex 155.4530866911692 88.24271055880658 -0.020224354500832997
    vertex 165.25312796886058 88.24269611654218 0.0006659117044231027
  endloop
endfacet
facet normal 0.9999999964014621 -2.054357893246824e-05 8.231061418355558e-05
  outer loop
    vertex 173.25347355490882 96.24262348681712 -2.3836386915042658
    vertex 173.25293451750957 88.24268023157323 -1.5020800452463474
    vertex 173.25315989712777 88.24267201535044 -2.3850962044493107
  endloop
endfacet
facet normal 0.9999999964014621 -2.054357893246824e-05 8.231061418355558e-05
  outer loop
    vertex 173.25293451750957 88.24268023157323 -1.5020800452463474
    vertex 173.25347355490882 96.24262348681712 -2.3836386915042658
    vertex 173.25294922062176 96.24293071174495 -1.4993326886741674
  endloop
endfacet
facet normal 0.00011913012929484502 -0.00015639680192733817 0.9999999806740262
  outer loop
    vertex 173.25293451750957 88.24268023157323 -1.5020800452463474
    vertex 165.2529507806542 90.25749761593308 -1.501773815167092
    vertex 165.25294927366664 88.24293071174506 -1.4993340593066162
  endloop
endfacet
facet normal 0.00011913012929484502 -0.00015639680192733817 0.9999999806740262
  outer loop
    vertex 165.2529507806542 90.25749761593308 -1.501773815167092
    vertex 173.25293451750957 88.24268023157323 -1.5020800452463474
    vertex 171.25324959262858 90.24263332555992 -1.5017973377350364
  endloop
endfacet
facet normal 0.00011913012929484502 -0.00015639680192733817 0.9999999806740262
  outer loop
    vertex 171.25324959262858 90.24263332555992 -1.5017973377350364
    vertex 173.25294922062176 96.24293071174495 -1.4993326886741674
    vertex 171.2532493719877 96.24263171295519 -1.5011539617888698
  endloop
endfacet
facet normal 0.00011913012929484502 -0.00015639680192733817 0.9999999806740262
  outer loop
    vertex 173.25294922062176 96.24293071174495 -1.4993326886741674
    vertex 171.25324959262858 90.24263332555992 -1.5017973377350364
    vertex 173.25293451750957 88.24268023157323 -1.5020800452463474
  endloop
endfacet
facet normal 0.0001496642892308496 -0.9999999765675316 -0.000156414630811567
  outer loop
    vertex 173.25294922062176 96.24293071174495 -1.4993326886741674
    vertex 171.25342806718163 96.24239711775229 -0.0011539907778305297
    vertex 171.2532493719877 96.24263171295519 -1.5011539617888698
  endloop
endfacet
facet normal 0.0001496642892308496 -0.9999999765675316 -0.000156414630811567
  outer loop
    vertex 171.25342806718163 96.24239711775229 -0.0011539907778305297
    vertex 173.25294922062176 96.24293071174495 -1.4993326886741674
    vertex 173.2531279158157 96.24269611654206 0.0006672823368721408
  endloop
endfacet
facet normal 0.9999999929035912 -8.923190003247924e-07 -0.00011913027030759536
  outer loop
    vertex 165.25294927366664 88.24293071174506 -1.4993340593066162
    vertex 165.25312947584814 90.25726302073019 -0.0017738441560527201
    vertex 165.25312796886058 88.24269611654218 0.0006659117044231027
  endloop
endfacet
facet normal 0.9999999929035912 -8.923190003247924e-07 -0.00011913027030759536
  outer loop
    vertex 165.25312947584814 90.25726302073019 -0.0017738441560527201
    vertex 165.25294927366664 88.24293071174506 -1.4993340593066162
    vertex 165.2529507806542 90.25749761593308 -1.501773815167092
  endloop
endfacet
facet normal 0.0012206785168597369 -0.003053389150944983 0.99999459336471
  outer loop
    vertex 150.4530862498038 88.24269912417904 -0.020272874510905793
    vertex 140.65302151188217 90.31698112581024 -0.0019548532621777967
    vertex 140.65301758352513 88.24269272390211 -0.0045652966831002005
  endloop
endfacet
facet normal 0.0012206785168597369 -0.003053389150944983 0.99999459336471
  outer loop
    vertex 140.65302151188217 90.31698112581024 -0.0019548532621777967
    vertex 150.4530862498038 88.24269912417904 -0.020272874510905793
    vertex 150.453086440363 90.29319097366708 -0.010245486821370907
  endloop
endfacet
facet normal 0.0012206785168597369 -0.003053389150944983 0.99999459336471
  outer loop
    vertex 150.4530862498038 88.24269912417904 -0.020272874510905793
    vertex 140.65302151188217 90.31698112581024 -0.0019548532621777967
    vertex 140.65301758352513 88.24269272390211 -0.0045652966831002005
  endloop
endfacet
facet normal 0.0012206785168597369 -0.003053389150944983 0.99999459336471
  outer loop
    vertex 140.65302151188217 90.31698112581024 -0.0019548532621777967
    vertex 150.4530862498038 88.24269912417904 -0.020272874510905793
    vertex 150.453086440363 90.29319097366708 -0.010245486821370907
  endloop
endfacet
facet normal 0.0012206785168597366 -0.003053389150944983 0.99999459336471
  outer loop
    vertex 150.4530862498038 88.24269912417904 -0.020272874510905793
    vertex 140.65302151188217 90.31698112581024 -0.0019548532621777967
    vertex 140.65301758352513 88.24269272390211 -0.0045652966831002005
  endloop
endfacet
facet normal 0.0012206785168597366 -0.003053389150944983 0.99999459336471
  outer loop
    vertex 140.65302151188217 90.31698112581024 -0.0019548532621777967
    vertex 150.4530862498038 88.24269912417904 -0.020272874510905793
    vertex 150.453086440363 90.29319097366708 -0.010245486821370907
  endloop
endfacet
facet normal -6.920448440954756e-06 -6.676435664450657e-07 0.9999999999758309
  outer loop
    vertex 134.65302273123206 96.24239711775229 -8.120222776319963e-06
    vertex 132.6530228601365 129.94352036630852 5.392196209486055e-07
    vertex 132.6530227841065 96.24239712228496 -2.553851487202552e-05
  endloop
endfacet
facet normal -6.920448440954756e-06 -6.676435664450657e-07 0.9999999999758309
  outer loop
    vertex 132.6530228601365 129.94352036630852 5.392196209486055e-07
    vertex 134.65302273123206 96.24239711775229 -8.120222776319963e-06
    vertex 134.6530225075343 129.94352036178682 1.0802717941549299e-05
  endloop
endfacet
facet normal -0.0004919673637811796 -2.0672036313848282e-05 0.9999998787703828
  outer loop
    vertex 171.25342806718163 96.24239711775229 -0.0011539907778305297
    vertex 173.25312769235862 129.94351731858234 0.0005265167915260577
    vertex 171.2531730497029 129.94351731860743 0.00037997731629331173
  endloop
endfacet
facet normal -0.0004919673637811796 -2.0672036313848282e-05 0.9999998787703828
  outer loop
    vertex 173.25312769235862 129.94351731858234 0.0005265167915260577
    vertex 171.25342806718163 96.24239711775229 -0.0011539907778305297
    vertex 173.2531279158157 96.24269611654206 0.0006672823368721408
  endloop
endfacet
facet normal 0.0004013529371172554 -8.040436326258483e-05 0.9999999162254757
  outer loop
    vertex 132.65242522228152 88.24280720970651 -1.4888352149041852
    vertex 134.6524252270098 90.3316661294507 -1.4888345546284882
    vertex 132.65242524064854 96.24251683014512 -1.4888483492914883
  endloop
endfacet
facet normal 0.0004013529371172554 -8.040436326258483e-05 0.9999999162254757
  outer loop
    vertex 134.6524252270098 90.3316661294507 -1.4888345546284882
    vertex 132.65242522228152 88.24280720970651 -1.4888352149041852
    vertex 140.65242004006714 88.24281243176227 -1.493388107459716
  endloop
endfacet
facet normal 0.0004013529371172554 -8.040436326258483e-05 0.9999999162254757
  outer loop
    vertex 132.65242524064854 96.24251683014512 -1.4888483492914883
    vertex 134.6524252270098 90.3316661294507 -1.4888345546284882
    vertex 134.65242518777407 96.24251682561246 -1.4888309309993912
  endloop
endfacet
facet normal 0.0004013529371172554 -8.040436326258483e-05 0.9999999162254757
  outer loop
    vertex 134.6524252270098 90.3316661294507 -1.4888345546284882
    vertex 140.65242004006714 88.24281243176227 -1.493388107459716
    vertex 140.65242396842422 90.31710083367041 -1.4907776640387935
  endloop
endfacet
facet normal -1.5660747435688976e-09 -0.9999999967675687 -8.04043691100832e-05
  outer loop
    vertex 134.65242518777407 96.24251682561246 -1.4888309309993912
    vertex 132.6530227841065 96.24239712228496 -2.553851487202552e-05
    vertex 132.65242524064854 96.24251683014512 -1.4888483492914883
  endloop
endfacet
facet normal -1.5660747435688976e-09 -0.9999999967675687 -8.04043691100832e-05
  outer loop
    vertex 132.6530227841065 96.24239712228496 -2.553851487202552e-05
    vertex 134.65242518777407 96.24251682561246 -1.4888309309993912
    vertex 134.65302273123206 96.24239711775229 -8.120222776319963e-06
  endloop
endfacet
facet normal -0.9999999194568973 1.3887400193307254e-06 0.00040135305007488013
  outer loop
    vertex 140.65302151188217 90.31698112581024 -0.0019548532621777967
    vertex 140.65242004006714 88.24281243176227 -1.493388107459716
    vertex 140.65301758352513 88.24269272390211 -0.0045652966831002005
  endloop
endfacet
facet normal -0.9999999194568973 1.3887400193307254e-06 0.00040135305007488013
  outer loop
    vertex 140.65242004006714 88.24281243176227 -1.493388107459716
    vertex 140.65302151188217 90.31698112581024 -0.0019548532621777967
    vertex 140.65242396842422 90.31710083367041 -1.4907776640387935
  endloop
endfacet
facet normal -9.167846587200203e-06 -7.226876573457169e-06 0.9999999999318614
  outer loop
    vertex 165.25276863383957 135.9435202078424 0.0002804990745545327
    vertex 140.65302287714817 137.94351973263682 6.942612007303228e-05
    vertex 140.6530228734108 135.94352020788884 3.6407761967605086e-05
  endloop
endfacet
facet normal -9.167846587200203e-06 -7.226876573457169e-06 0.9999999999318614
  outer loop
    vertex 140.65302287714817 137.94351973263682 6.942612007303228e-05
    vertex 165.25276863383957 135.9435202078424 0.0002804990745545327
    vertex 165.25276863201813 137.94351779279174 0.0003221391344929963
  endloop
endfacet
facet normal -1.54838998803701e-09 0.9999999997730784 2.130360247169645e-05
  outer loop
    vertex 171.2531730497029 129.94351731860743 0.00037997731629331173
    vertex 173.25317987764106 129.94354280535052 -1.195833024189309
    vertex 171.25322523498534 129.9435428053756 -1.1959795636645416
  endloop
endfacet
facet normal -1.54838998803701e-09 0.9999999997730784 2.130360247169645e-05
  outer loop
    vertex 173.25317987764106 129.94354280535052 -1.195833024189309
    vertex 171.2531730497029 129.94351731860743 0.00037997731629331173
    vertex 173.25312769235862 129.94351731858234 0.0005265167915260577
  endloop
endfacet
facet normal 0.9999999990470758 -8.673184165931604e-09 4.365602595046741e-05
  outer loop
    vertex 165.252820819122 135.94354569461058 -1.1960790419062803
    vertex 165.25276863201813 137.94351779279174 0.0003221391344929963
    vertex 165.25276863383957 135.9435202078424 0.0002804990745545327
  endloop
endfacet
facet normal 0.9999999990470758 -8.673184165931604e-09 4.365602595046741e-05
  outer loop
    vertex 165.25276863201813 137.94351779279174 0.0003221391344929963
    vertex 165.252820819122 135.94354569461058 -1.1960790419062803
    vertex 165.2528207365409 137.34351788644048 -1.1911312025739742
  endloop
endfacet
facet normal 0.9999999990470758 -8.673184165931604e-09 4.365602595046741e-05
  outer loop
    vertex 165.25276863201813 137.94351779279174 0.0003221391344929963
    vertex 165.2528207365409 137.34351788644048 -1.1911312025739742
    vertex 165.2528208173006 137.94354327955992 -1.196037401846342
  endloop
endfacet
facet normal -0.0005802585262328163 -0.0009674444674013903 0.9999993636754202
  outer loop
    vertex 165.252820819122 135.94354569461058 -1.1960790419062803
    vertex 173.2531276393137 137.34351715031806 -1.1860802654386162
    vertex 165.2528207365409 137.34351788644048 -1.1911312025739742
  endloop
endfacet
facet normal -0.0005802585262328163 -0.0009674444674013903 0.9999993636754202
  outer loop
    vertex 173.2531276393137 137.34351715031806 -1.1860802654386162
    vertex 165.252820819122 135.94354569461058 -1.1960790419062803
    vertex 171.25317983599447 135.94354569392482 -1.1959686386942672
  endloop
endfacet
facet normal -0.0005802585262328163 -0.0009674444674013903 0.9999993636754202
  outer loop
    vertex 173.2531276393137 137.34351715031806 -1.1860802654386162
    vertex 171.25317983599447 135.94354569392482 -1.1959686386942672
    vertex 171.25322523498534 129.9435428053756 -1.1959795636645416
  endloop
endfacet
facet normal -0.0005802585262328163 -0.0009674444674013903 0.9999993636754202
  outer loop
    vertex 173.2531276393137 137.34351715031806 -1.1860802654386162
    vertex 171.25322523498534 129.9435428053756 -1.1959795636645416
    vertex 173.25317987764106 129.94354280535052 -1.195833024189309
  endloop
endfacet
facet normal -0.9999999999824953 1.0819458532320561e-09 -5.916880222341531e-06
  outer loop
    vertex 140.65302287714817 137.94351973263682 6.942612007303228e-05
    vertex 140.65302990526206 135.94352154600207 -1.1876551026945663
    vertex 140.6530228734108 135.94352020788884 3.6407761967605086e-05
  endloop
endfacet
facet normal -0.9999999999824953 1.0819458532320561e-09 -5.916880222341531e-06
  outer loop
    vertex 140.65302990526206 135.94352154600207 -1.1876551026945663
    vertex 140.65302287714817 137.94351973263682 6.942612007303228e-05
    vertex 140.65302989483231 137.3435197561431 -1.1877290926686273
  endloop
endfacet
facet normal -0.9999999999824953 1.0819458532320561e-09 -5.916880222341531e-06
  outer loop
    vertex 140.65302989483231 137.3435197561431 -1.1877290926686273
    vertex 140.65302287714817 137.94351973263682 6.942612007303228e-05
    vertex 140.6530299089994 137.94352107075005 -1.187622084336461
  endloop
endfacet
facet normal 2.255064798254056e-09 0.9999999999993653 1.1266504372265852e-06
  outer loop
    vertex 132.6530228601365 129.94352036630852 5.392196209486055e-07
    vertex 134.65302953938553 129.94352169990006 -1.1876807077385936
    vertex 132.65302989198773 129.94352170442176 -1.1876909712369135
  endloop
endfacet
facet normal 2.255064798254056e-09 0.9999999999993653 1.1266504372265852e-06
  outer loop
    vertex 134.65302953938553 129.94352169990006 -1.1876807077385936
    vertex 132.6530228601365 129.94352036630852 5.392196209486055e-07
    vertex 134.6530225075343 129.94352036178682 1.0802717941549299e-05
  endloop
endfacet
facet normal 8.143068744542438e-05 -8.266099022445698e-05 0.9999999932681021
  outer loop
    vertex 134.65302953938553 129.94352169990006 -1.1876807077385936
    vertex 134.65302949955063 135.94352154600065 -1.1876752920261775
    vertex 132.65302989198773 129.94352170442176 -1.1876909712369135
  endloop
endfacet
facet normal 8.143068744542438e-05 -8.266099022445698e-05 0.9999999932681021
  outer loop
    vertex 132.65302287824113 137.34352036630662 -1.1867513863320611
    vertex 134.65302949955063 135.94352154600065 -1.1876752920261775
    vertex 140.65302989483231 137.3435197561431 -1.1877290926686273
  endloop
endfacet
facet normal 8.143068744542438e-05 -8.266099022445698e-05 0.9999999932681021
  outer loop
    vertex 134.65302949955063 135.94352154600065 -1.1876752920261775
    vertex 132.65302287824113 137.34352036630662 -1.1867513863320611
    vertex 132.65302989198773 129.94352170442176 -1.1876909712369135
  endloop
endfacet
facet normal 8.143068744542438e-05 -8.266099022445698e-05 0.9999999932681021
  outer loop
    vertex 140.65302989483231 137.3435197561431 -1.1877290926686273
    vertex 134.65302949955063 135.94352154600065 -1.1876752920261775
    vertex 140.65302990526206 135.94352154600207 -1.1876551026945663
  endloop
endfacet
facet normal 4.464596722085802e-08 0.9999999991254149 -4.1823058605911054e-05
  outer loop
    vertex 132.65302287824113 137.34352036630662 -1.1867513863320611
    vertex 173.25315986538706 137.34346872060996 -2.385090278455714
    vertex 132.6531460564253 137.34346872060996 -2.385090278455714
  endloop
endfacet
facet normal 4.464596722085802e-08 0.9999999991254149 -4.1823058605911054e-05
  outer loop
    vertex 173.25315986538706 137.34346872060996 -2.385090278455714
    vertex 132.65302287824113 137.34352036630662 -1.1867513863320611
    vertex 165.2528207365409 137.34351788644048 -1.1911312025739742
  endloop
endfacet
facet normal 4.464596722085802e-08 0.9999999991254149 -4.1823058605911054e-05
  outer loop
    vertex 165.2528207365409 137.34351788644048 -1.1911312025739742
    vertex 132.65302287824113 137.34352036630662 -1.1867513863320611
    vertex 140.65302989483231 137.3435197561431 -1.1877290926686273
  endloop
endfacet
facet normal 4.464596722085802e-08 0.9999999991254149 -4.1823058605911054e-05
  outer loop
    vertex 173.2531276393137 137.34351715031806 -1.1860802654386162
    vertex 173.25315986538706 137.34346872060996 -2.385090278455714
    vertex 165.2528207365409 137.34351788644048 -1.1911312025739742
  endloop
endfacet
endsolid pluie_luminosite
