solid wire_box
facet normal 1.0 0.0 0.0
  outer loop
    vertex 11.049999999999999 31.199999999999992 -2.4999999999999982
    vertex 11.049999999999999 -21.193803999999997 6.100000000000001
    vertex 11.049999999999999 -21.193803999999997 -2.4999999999999982
  endloop
endfacet
facet normal 1.0 0.0 0.0
  outer loop
    vertex 11.049999999999999 -21.193803999999997 6.100000000000001
    vertex 11.049999999999999 31.199999999999992 -2.4999999999999982
    vertex 11.049999999999999 31.199999999999992 6.100000000000001
  endloop
endfacet
facet normal -1.0 0.0 0.0
  outer loop
    vertex -3.3500000000000045 31.199999999999992 6.100000000000001
    vertex -3.350000000000005 -21.193803999999997 -2.4999999999999982
    vertex -3.3500000000000045 -21.193803999999997 6.100000000000003
  endloop
endfacet
facet normal -1.0 0.0 0.0
  outer loop
    vertex -3.350000000000005 -21.193803999999997 -2.4999999999999982
    vertex -3.3500000000000045 31.199999999999992 6.100000000000001
    vertex -3.350000000000005 31.199999999999992 -2.4999999999999996
  endloop
endfacet
facet normal 6.532091541411607e-17 1.7923117609626342e-17 1.0
  outer loop
    vertex 3.3341675682600416 -21.193803999999997 6.100000000000002
    vertex -3.3500000000000045 31.199999999999992 6.100000000000001
    vertex -3.3500000000000045 -21.193803999999997 6.100000000000003
  endloop
endfacet
facet normal 6.532091541411607e-17 1.7923117609626342e-17 1.0
  outer loop
    vertex -3.3500000000000045 31.199999999999992 6.100000000000001
    vertex 3.3341675682600416 -21.193803999999997 6.100000000000002
    vertex 11.049999999999999 31.199999999999992 6.100000000000001
  endloop
endfacet
facet normal 6.532091541411607e-17 1.7923117609626342e-17 1.0
  outer loop
    vertex 11.049999999999999 31.199999999999992 6.100000000000001
    vertex 3.3341675682600416 -21.193803999999997 6.100000000000002
    vertex 5.084167568260044 -21.193803999999997 6.100000000000003
  endloop
endfacet
facet normal 6.532091541411607e-17 1.7923117609626342e-17 1.0
  outer loop
    vertex 11.049999999999999 31.199999999999992 6.100000000000001
    vertex 5.084167568260044 -21.193803999999997 6.100000000000003
    vertex 11.049999999999999 -21.193803999999997 6.100000000000001
  endloop
endfacet
facet normal -8.812395257962184e-17 -2.212221994839991e-18 -1.0
  outer loop
    vertex 11.049999999999999 31.199999999999992 -2.4999999999999982
    vertex 10.05 30.199999999999996 -2.4999999999999982
    vertex 10.05 31.199999999999992 -2.4999999999999982
  endloop
endfacet
facet normal -8.812395257962184e-17 -2.212221994839991e-18 -1.0
  outer loop
    vertex 10.05 30.199999999999996 -2.4999999999999982
    vertex 11.049999999999999 31.199999999999992 -2.4999999999999982
    vertex 10.05 -20.193803999999997 -2.4999999999999982
  endloop
endfacet
facet normal -8.812395257962184e-17 -2.212221994839991e-18 -1.0
  outer loop
    vertex 10.05 -20.193803999999997 -2.4999999999999982
    vertex 11.049999999999999 31.199999999999992 -2.4999999999999982
    vertex 10.05 -21.193803999999997 -2.4999999999999982
  endloop
endfacet
facet normal -8.812395257962184e-17 -2.212221994839991e-18 -1.0
  outer loop
    vertex 10.05 -21.193803999999997 -2.4999999999999982
    vertex 11.049999999999999 31.199999999999992 -2.4999999999999982
    vertex 11.049999999999999 -21.193803999999997 -2.4999999999999982
  endloop
endfacet
facet normal -1.0 0.0 0.0
  outer loop
    vertex 10.05 30.199999999999996 5.100000000000002
    vertex 10.05 -20.193803999999997 -2.4999999999999982
    vertex 10.05 -20.193803999999997 5.100000000000002
  endloop
endfacet
facet normal -1.0 0.0 0.0
  outer loop
    vertex 10.05 -20.193803999999997 -2.4999999999999982
    vertex 10.05 30.199999999999996 5.100000000000002
    vertex 10.05 30.199999999999996 -2.4999999999999982
  endloop
endfacet
facet normal 8.812395257962436e-17 -1.1412299496600763e-17 -1.0
  outer loop
    vertex -2.3500000000000068 31.199999999999992 -2.4999999999999996
    vertex -3.350000000000005 -21.193803999999997 -2.4999999999999982
    vertex -3.350000000000005 31.199999999999992 -2.4999999999999996
  endloop
endfacet
facet normal 8.812395257962436e-17 -1.1412299496600763e-17 -1.0
  outer loop
    vertex -3.350000000000005 -21.193803999999997 -2.4999999999999982
    vertex -2.3500000000000068 31.199999999999992 -2.4999999999999996
    vertex -2.3500000000000068 -21.193803999999997 -2.4999999999999996
  endloop
endfacet
facet normal 8.812395257962436e-17 -1.1412299496600763e-17 -1.0
  outer loop
    vertex -2.3500000000000068 -21.193803999999997 -2.4999999999999996
    vertex -2.3500000000000068 31.199999999999992 -2.4999999999999996
    vertex -2.3500000000000045 30.199999999999996 -2.4999999999999982
  endloop
endfacet
facet normal 8.812395257962436e-17 -1.1412299496600763e-17 -1.0
  outer loop
    vertex -2.3500000000000068 -21.193803999999997 -2.4999999999999996
    vertex -2.3500000000000045 30.199999999999996 -2.4999999999999982
    vertex -2.3500000000000045 -20.193803999999997 -2.4999999999999982
  endloop
endfacet
facet normal 1.0 0.0 0.0
  outer loop
    vertex -2.3500000000000045 30.199999999999996 -2.4999999999999982
    vertex -2.3500000000000045 -20.193803999999997 5.100000000000002
    vertex -2.3500000000000045 -20.193803999999997 -2.4999999999999982
  endloop
endfacet
facet normal 1.0 0.0 0.0
  outer loop
    vertex -2.3500000000000045 -20.193803999999997 5.100000000000002
    vertex -2.3500000000000045 30.199999999999996 -2.4999999999999982
    vertex -2.3500000000000045 30.199999999999996 5.100000000000002
  endloop
endfacet
facet normal 2.0434539728607916e-16 0.0 -1.0
  outer loop
    vertex 10.05 31.199999999999992 -2.4999999999999982
    vertex 6.599999999999993 30.199999999999996 -2.4999999999999982
    vertex 6.599999999999993 31.199999999999992 -2.4999999999999982
  endloop
endfacet
facet normal 2.0434539728607916e-16 0.0 -1.0
  outer loop
    vertex 6.599999999999993 30.199999999999996 -2.4999999999999982
    vertex 10.05 31.199999999999992 -2.4999999999999982
    vertex 10.05 30.199999999999996 -2.4999999999999982
  endloop
endfacet
facet normal 0.0 -1.0 0.0
  outer loop
    vertex 10.05 30.199999999999996 5.100000000000002
    vertex 6.599999999999993 30.199999999999996 -2.4999999999999982
    vertex 10.05 30.199999999999996 -2.4999999999999982
  endloop
endfacet
facet normal 0.0 -1.0 0.0
  outer loop
    vertex 6.599999999999993 30.199999999999996 -2.4999999999999982
    vertex 10.05 30.199999999999996 5.100000000000002
    vertex 6.599999999999993 30.199999999999996 1.3000000000000032
  endloop
endfacet
facet normal 0.0 -1.0 0.0
  outer loop
    vertex 6.599999999999993 30.199999999999996 1.3000000000000032
    vertex 10.05 30.199999999999996 5.100000000000002
    vertex 6.2315698604072045 30.199999999999996 2.3750000000000053
  endloop
endfacet
facet normal 0.0 -1.0 0.0
  outer loop
    vertex 6.2315698604072045 30.199999999999996 2.3750000000000053
    vertex 10.05 30.199999999999996 5.100000000000002
    vertex 5.794543648263001 30.199999999999996 2.9445436482630036
  endloop
endfacet
facet normal 0.0 -1.0 0.0
  outer loop
    vertex 5.794543648263001 30.199999999999996 2.9445436482630036
    vertex 10.05 30.199999999999996 5.100000000000002
    vertex 5.224999999999996 30.199999999999996 3.381569860407203
  endloop
endfacet
facet normal 0.0 -1.0 0.0
  outer loop
    vertex 5.224999999999996 30.199999999999996 3.381569860407203
    vertex 10.05 30.199999999999996 5.100000000000002
    vertex 4.56175237403193 30.199999999999996 3.656296022294933
  endloop
endfacet
facet normal 0.0 -1.0 0.0
  outer loop
    vertex 4.56175237403193 30.199999999999996 3.656296022294933
    vertex 10.05 30.199999999999996 5.100000000000002
    vertex 3.849999999999999 30.199999999999996 3.749999999999995
  endloop
endfacet
facet normal 0.0 -1.0 0.0
  outer loop
    vertex 1.0999999999999996 30.199999999999996 1.3000000000000018
    vertex -2.3500000000000045 30.199999999999996 -2.4999999999999982
    vertex 1.0999999999999994 30.199999999999996 -2.4999999999999996
  endloop
endfacet
facet normal 0.0 -1.0 0.0
  outer loop
    vertex -2.3500000000000045 30.199999999999996 -2.4999999999999982
    vertex 1.0999999999999996 30.199999999999996 1.3000000000000018
    vertex -2.3500000000000045 30.199999999999996 5.100000000000002
  endloop
endfacet
facet normal 0.0 -1.0 0.0
  outer loop
    vertex -2.3500000000000045 30.199999999999996 5.100000000000002
    vertex 1.0999999999999996 30.199999999999996 1.3000000000000018
    vertex 1.4684301395927943 30.199999999999996 2.375000000000001
  endloop
endfacet
facet normal 0.0 -1.0 0.0
  outer loop
    vertex -2.3500000000000045 30.199999999999996 5.100000000000002
    vertex 1.4684301395927943 30.199999999999996 2.375000000000001
    vertex 1.905456351736998 30.199999999999996 2.9445436482630023
  endloop
endfacet
facet normal 0.0 -1.0 0.0
  outer loop
    vertex -2.3500000000000045 30.199999999999996 5.100000000000002
    vertex 1.905456351736998 30.199999999999996 2.9445436482630023
    vertex 2.4750000000000023 30.199999999999996 3.381569860407202
  endloop
endfacet
facet normal 0.0 -1.0 0.0
  outer loop
    vertex -2.3500000000000045 30.199999999999996 5.100000000000002
    vertex 2.4750000000000023 30.199999999999996 3.381569860407202
    vertex 3.1382476259680696 30.199999999999996 3.656296022294933
  endloop
endfacet
facet normal 0.0 -1.0 0.0
  outer loop
    vertex -2.3500000000000045 30.199999999999996 5.100000000000002
    vertex 3.1382476259680696 30.199999999999996 3.656296022294933
    vertex 3.849999999999999 30.199999999999996 3.749999999999995
  endloop
endfacet
facet normal 0.0 -1.0 0.0
  outer loop
    vertex -2.3500000000000045 30.199999999999996 5.100000000000002
    vertex 3.849999999999999 30.199999999999996 3.749999999999995
    vertex 10.05 30.199999999999996 5.100000000000002
  endloop
endfacet
facet normal 0.0 1.0 0.0
  outer loop
    vertex -3.3500000000000045 31.199999999999992 6.100000000000001
    vertex -2.3500000000000068 31.199999999999992 -2.4999999999999996
    vertex -3.350000000000005 31.199999999999992 -2.4999999999999996
  endloop
endfacet
facet normal 0.0 1.0 0.0
  outer loop
    vertex -2.3500000000000068 31.199999999999992 -2.4999999999999996
    vertex -3.3500000000000045 31.199999999999992 6.100000000000001
    vertex 1.0999999999999994 31.199999999999992 -2.4999999999999996
  endloop
endfacet
facet normal 0.0 1.0 0.0
  outer loop
    vertex 1.0999999999999994 31.199999999999992 -2.4999999999999996
    vertex -3.3500000000000045 31.199999999999992 6.100000000000001
    vertex 1.0999999999999994 31.199999999999992 1.3000000000000005
  endloop
endfacet
facet normal 0.0 1.0 0.0
  outer loop
    vertex 1.0999999999999994 31.199999999999992 1.3000000000000005
    vertex -3.3500000000000045 31.199999999999992 6.100000000000001
    vertex 1.4684301395927943 31.199999999999992 2.375000000000001
  endloop
endfacet
facet normal 0.0 1.0 0.0
  outer loop
    vertex 1.4684301395927943 31.199999999999992 2.375000000000001
    vertex -3.3500000000000045 31.199999999999992 6.100000000000001
    vertex 1.905456351736998 31.199999999999992 2.9445436482630023
  endloop
endfacet
facet normal 0.0 1.0 0.0
  outer loop
    vertex 1.905456351736998 31.199999999999992 2.9445436482630023
    vertex -3.3500000000000045 31.199999999999992 6.100000000000001
    vertex 2.4750000000000023 31.199999999999992 3.381569860407202
  endloop
endfacet
facet normal 0.0 1.0 0.0
  outer loop
    vertex 2.4750000000000023 31.199999999999992 3.381569860407202
    vertex -3.3500000000000045 31.199999999999992 6.100000000000001
    vertex 3.1382476259680696 31.199999999999992 3.656296022294933
  endloop
endfacet
facet normal 0.0 1.0 0.0
  outer loop
    vertex 3.1382476259680696 31.199999999999992 3.656296022294933
    vertex -3.3500000000000045 31.199999999999992 6.100000000000001
    vertex 3.849999999999999 31.199999999999992 3.749999999999995
  endloop
endfacet
facet normal 0.0 1.0 0.0
  outer loop
    vertex 6.599999999999993 31.199999999999992 1.300000000000004
    vertex 10.05 31.199999999999992 -2.4999999999999982
    vertex 6.599999999999993 31.199999999999992 -2.4999999999999982
  endloop
endfacet
facet normal 0.0 1.0 0.0
  outer loop
    vertex 10.05 31.199999999999992 -2.4999999999999982
    vertex 6.599999999999993 31.199999999999992 1.300000000000004
    vertex 11.049999999999999 31.199999999999992 -2.4999999999999982
  endloop
endfacet
facet normal 0.0 1.0 0.0
  outer loop
    vertex 11.049999999999999 31.199999999999992 -2.4999999999999982
    vertex 6.599999999999993 31.199999999999992 1.300000000000004
    vertex 11.049999999999999 31.199999999999992 6.100000000000001
  endloop
endfacet
facet normal 0.0 1.0 0.0
  outer loop
    vertex 11.049999999999999 31.199999999999992 6.100000000000001
    vertex 6.599999999999993 31.199999999999992 1.300000000000004
    vertex 6.2315698604072045 31.199999999999992 2.3750000000000053
  endloop
endfacet
facet normal 0.0 1.0 0.0
  outer loop
    vertex 11.049999999999999 31.199999999999992 6.100000000000001
    vertex 6.2315698604072045 31.199999999999992 2.3750000000000053
    vertex 5.794543648263001 31.199999999999992 2.9445436482630036
  endloop
endfacet
facet normal 0.0 1.0 0.0
  outer loop
    vertex 11.049999999999999 31.199999999999992 6.100000000000001
    vertex 5.794543648263001 31.199999999999992 2.9445436482630036
    vertex 5.224999999999996 31.199999999999992 3.381569860407203
  endloop
endfacet
facet normal 0.0 1.0 0.0
  outer loop
    vertex 11.049999999999999 31.199999999999992 6.100000000000001
    vertex 5.224999999999996 31.199999999999992 3.381569860407203
    vertex 4.56175237403193 31.199999999999992 3.656296022294933
  endloop
endfacet
facet normal 0.0 1.0 0.0
  outer loop
    vertex 11.049999999999999 31.199999999999992 6.100000000000001
    vertex 4.56175237403193 31.199999999999992 3.656296022294933
    vertex 3.849999999999999 31.199999999999992 3.749999999999995
  endloop
endfacet
facet normal 0.0 1.0 0.0
  outer loop
    vertex 11.049999999999999 31.199999999999992 6.100000000000001
    vertex 3.849999999999999 31.199999999999992 3.749999999999995
    vertex -3.3500000000000045 31.199999999999992 6.100000000000001
  endloop
endfacet
facet normal 1.0 8.812395257962196e-17 -2.319051383674258e-17
  outer loop
    vertex 1.0999999999999994 31.199999999999992 -2.4999999999999996
    vertex 1.0999999999999996 30.199999999999996 1.3000000000000018
    vertex 1.0999999999999994 30.199999999999996 -2.4999999999999996
  endloop
endfacet
facet normal 1.0 8.812395257962196e-17 -2.319051383674258e-17
  outer loop
    vertex 1.0999999999999996 30.199999999999996 1.3000000000000018
    vertex 1.0999999999999994 31.199999999999992 -2.4999999999999996
    vertex 1.0999999999999994 31.199999999999992 1.3000000000000005
  endloop
endfacet
facet normal -1.0 0.0 0.0
  outer loop
    vertex 6.599999999999993 31.199999999999992 1.300000000000004
    vertex 6.599999999999993 30.199999999999996 -2.4999999999999982
    vertex 6.599999999999993 30.199999999999996 1.3000000000000032
  endloop
endfacet
facet normal -1.0 0.0 0.0
  outer loop
    vertex 6.599999999999993 30.199999999999996 -2.4999999999999982
    vertex 6.599999999999993 31.199999999999992 1.300000000000004
    vertex 6.599999999999993 31.199999999999992 -2.4999999999999982
  endloop
endfacet
facet normal -2.0434539728607919e-16 -7.049916206369759e-16 -1.0
  outer loop
    vertex 1.0999999999999994 31.199999999999992 -2.4999999999999996
    vertex -2.3500000000000045 30.199999999999996 -2.4999999999999982
    vertex -2.3500000000000068 31.199999999999992 -2.4999999999999996
  endloop
endfacet
facet normal -2.0434539728607919e-16 -7.049916206369759e-16 -1.0
  outer loop
    vertex -2.3500000000000045 30.199999999999996 -2.4999999999999982
    vertex 1.0999999999999994 31.199999999999992 -2.4999999999999996
    vertex 1.0999999999999994 30.199999999999996 -2.4999999999999996
  endloop
endfacet
facet normal 0.9459840836898276 -1.4406923621272093e-16 -0.32421306791293514
  outer loop
    vertex 1.0999999999999994 31.199999999999992 1.3000000000000005
    vertex 1.4684301395927943 30.199999999999996 2.375000000000001
    vertex 1.0999999999999996 30.199999999999996 1.3000000000000018
  endloop
endfacet
facet normal 0.9459840836898276 -1.4406923621272093e-16 -0.32421306791293514
  outer loop
    vertex 1.4684301395927943 30.199999999999996 2.375000000000001
    vertex 1.0999999999999994 31.199999999999992 1.3000000000000005
    vertex 1.4684301395927943 31.199999999999992 2.375000000000001
  endloop
endfacet
facet normal 0.7933533402912312 0.0 -0.6087614290087261
  outer loop
    vertex 1.4684301395927943 31.199999999999992 2.375000000000001
    vertex 1.905456351736998 30.199999999999996 2.9445436482630023
    vertex 1.4684301395927943 30.199999999999996 2.375000000000001
  endloop
endfacet
facet normal 0.7933533402912312 0.0 -0.6087614290087261
  outer loop
    vertex 1.905456351736998 30.199999999999996 2.9445436482630023
    vertex 1.4684301395927943 31.199999999999992 2.375000000000001
    vertex 1.905456351736998 31.199999999999992 2.9445436482630023
  endloop
endfacet
facet normal 0.6087614290087209 0.0 -0.7933533402912352
  outer loop
    vertex 2.4750000000000023 31.199999999999992 3.381569860407202
    vertex 1.905456351736998 30.199999999999996 2.9445436482630023
    vertex 1.905456351736998 31.199999999999992 2.9445436482630023
  endloop
endfacet
facet normal 0.6087614290087209 0.0 -0.7933533402912352
  outer loop
    vertex 1.905456351736998 30.199999999999996 2.9445436482630023
    vertex 2.4750000000000023 31.199999999999992 3.381569860407202
    vertex 2.4750000000000023 30.199999999999996 3.381569860407202
  endloop
endfacet
facet normal 0.3826834323650891 0.0 -0.9238795325112871
  outer loop
    vertex 3.1382476259680696 31.199999999999992 3.656296022294933
    vertex 2.4750000000000023 30.199999999999996 3.381569860407202
    vertex 2.4750000000000023 31.199999999999992 3.381569860407202
  endloop
endfacet
facet normal 0.3826834323650891 0.0 -0.9238795325112871
  outer loop
    vertex 2.4750000000000023 30.199999999999996 3.381569860407202
    vertex 3.1382476259680696 31.199999999999992 3.656296022294933
    vertex 3.1382476259680696 30.199999999999996 3.656296022294933
  endloop
endfacet
facet normal 0.13052619222005216 0.0 -0.9914448613738105
  outer loop
    vertex 3.849999999999999 31.199999999999992 3.749999999999995
    vertex 3.1382476259680696 30.199999999999996 3.656296022294933
    vertex 3.1382476259680696 31.199999999999992 3.656296022294933
  endloop
endfacet
facet normal 0.13052619222005216 0.0 -0.9914448613738105
  outer loop
    vertex 3.1382476259680696 30.199999999999996 3.656296022294933
    vertex 3.849999999999999 31.199999999999992 3.749999999999995
    vertex 3.849999999999999 30.199999999999996 3.749999999999995
  endloop
endfacet
facet normal -0.13052619222005202 -0.0 -0.9914448613738105
  outer loop
    vertex 4.56175237403193 31.199999999999992 3.656296022294933
    vertex 3.849999999999999 30.199999999999996 3.749999999999995
    vertex 3.849999999999999 31.199999999999992 3.749999999999995
  endloop
endfacet
facet normal -0.13052619222005202 -0.0 -0.9914448613738105
  outer loop
    vertex 3.849999999999999 30.199999999999996 3.749999999999995
    vertex 4.56175237403193 31.199999999999992 3.656296022294933
    vertex 4.56175237403193 30.199999999999996 3.656296022294933
  endloop
endfacet
facet normal -0.3826834323650886 -0.0 -0.9238795325112872
  outer loop
    vertex 5.224999999999996 31.199999999999992 3.381569860407203
    vertex 4.56175237403193 30.199999999999996 3.656296022294933
    vertex 4.56175237403193 31.199999999999992 3.656296022294933
  endloop
endfacet
facet normal -0.3826834323650886 -0.0 -0.9238795325112872
  outer loop
    vertex 4.56175237403193 30.199999999999996 3.656296022294933
    vertex 5.224999999999996 31.199999999999992 3.381569860407203
    vertex 5.224999999999996 30.199999999999996 3.381569860407203
  endloop
endfacet
facet normal -0.6087614290087203 -0.0 -0.7933533402912355
  outer loop
    vertex 5.794543648263001 31.199999999999992 2.9445436482630036
    vertex 5.224999999999996 30.199999999999996 3.381569860407203
    vertex 5.224999999999996 31.199999999999992 3.381569860407203
  endloop
endfacet
facet normal -0.6087614290087203 -0.0 -0.7933533402912355
  outer loop
    vertex 5.224999999999996 30.199999999999996 3.381569860407203
    vertex 5.794543648263001 31.199999999999992 2.9445436482630036
    vertex 5.794543648263001 30.199999999999996 2.9445436482630036
  endloop
endfacet
facet normal -0.7933533402912292 0.0 -0.6087614290087286
  outer loop
    vertex 5.794543648263001 31.199999999999992 2.9445436482630036
    vertex 6.2315698604072045 30.199999999999996 2.3750000000000053
    vertex 5.794543648263001 30.199999999999996 2.9445436482630036
  endloop
endfacet
facet normal -0.7933533402912292 0.0 -0.6087614290087286
  outer loop
    vertex 6.2315698604072045 30.199999999999996 2.3750000000000053
    vertex 5.794543648263001 31.199999999999992 2.9445436482630036
    vertex 6.2315698604072045 31.199999999999992 2.3750000000000053
  endloop
endfacet
facet normal -0.9459840836898293 7.937363441550177e-17 -0.32421306791292975
  outer loop
    vertex 6.2315698604072045 31.199999999999992 2.3750000000000053
    vertex 6.599999999999993 30.199999999999996 1.3000000000000032
    vertex 6.2315698604072045 30.199999999999996 2.3750000000000053
  endloop
endfacet
facet normal -0.9459840836898293 7.937363441550177e-17 -0.32421306791292975
  outer loop
    vertex 6.599999999999993 30.199999999999996 1.3000000000000032
    vertex 6.2315698604072045 31.199999999999992 2.3750000000000053
    vertex 6.599999999999993 31.199999999999992 1.300000000000004
  endloop
endfacet
facet normal 0.0 0.0 -1.0
  outer loop
    vertex 10.05 30.199999999999996 5.100000000000002
    vertex -2.3500000000000045 -20.193803999999997 5.100000000000002
    vertex -2.3500000000000045 30.199999999999996 5.100000000000002
  endloop
endfacet
facet normal 0.0 0.0 -1.0
  outer loop
    vertex -2.3500000000000045 -20.193803999999997 5.100000000000002
    vertex 10.05 30.199999999999996 5.100000000000002
    vertex 10.05 -20.193803999999997 5.100000000000002
  endloop
endfacet
facet normal 1.5842508328920792e-16 7.049916206369754e-16 -1.0
  outer loop
    vertex -2.3500000000000045 -20.193803999999997 -2.4999999999999982
    vertex 2.099999999999997 -21.193803999999997 -2.4999999999999982
    vertex -2.3500000000000068 -21.193803999999997 -2.4999999999999996
  endloop
endfacet
facet normal 1.5842508328920792e-16 7.049916206369754e-16 -1.0
  outer loop
    vertex 2.099999999999997 -21.193803999999997 -2.4999999999999982
    vertex -2.3500000000000045 -20.193803999999997 -2.4999999999999982
    vertex 2.0999999999999974 -20.193804 -2.4999999999999982
  endloop
endfacet
facet normal 2.5863820220135043e-32 1.0 -1.855241106939406e-16
  outer loop
    vertex -2.3500000000000045 -20.193803999999997 5.100000000000002
    vertex 2.0999999999999974 -20.193804 -2.4999999999999982
    vertex -2.3500000000000045 -20.193803999999997 -2.4999999999999982
  endloop
endfacet
facet normal 2.5863820220135043e-32 1.0 -1.855241106939406e-16
  outer loop
    vertex 2.0999999999999974 -20.193804 -2.4999999999999982
    vertex -2.3500000000000045 -20.193803999999997 5.100000000000002
    vertex 2.0999999999999988 -20.193804 1.1
  endloop
endfacet
facet normal 2.5863820220135043e-32 1.0 -1.855241106939406e-16
  outer loop
    vertex 2.0999999999999988 -20.193804 1.1
    vertex -2.3500000000000045 -20.193803999999997 5.100000000000002
    vertex 2.3344555433772287 -20.193804 1.9750000000000014
  endloop
endfacet
facet normal 2.5863820220135043e-32 1.0 -1.855241106939406e-16
  outer loop
    vertex 2.3344555433772287 -20.193804 1.9750000000000014
    vertex -2.3500000000000045 -20.193803999999997 5.100000000000002
    vertex 2.9750000000000014 -20.193804 2.61554445662277
  endloop
endfacet
facet normal 2.5863820220135043e-32 1.0 -1.855241106939406e-16
  outer loop
    vertex 2.9750000000000014 -20.193804 2.61554445662277
    vertex -2.3500000000000045 -20.193803999999997 5.100000000000002
    vertex 3.3970666710705864 -20.193804 2.7903701960058758
  endloop
endfacet
facet normal 2.5863820220135043e-32 1.0 -1.855241106939406e-16
  outer loop
    vertex 3.3970666710705864 -20.193804 2.7903701960058758
    vertex -2.3500000000000045 -20.193803999999997 5.100000000000002
    vertex 3.8499999999999988 -20.193804 2.850000000000006
  endloop
endfacet
facet normal 2.5863820220135043e-32 1.0 -1.855241106939406e-16
  outer loop
    vertex 5.600000000000002 -20.193804 1.1000000000000008
    vertex 10.05 -20.193803999999997 -2.4999999999999982
    vertex 5.600000000000002 -20.193804 -2.4999999999999982
  endloop
endfacet
facet normal 2.5863820220135043e-32 1.0 -1.855241106939406e-16
  outer loop
    vertex 10.05 -20.193803999999997 -2.4999999999999982
    vertex 5.600000000000002 -20.193804 1.1000000000000008
    vertex 10.05 -20.193803999999997 5.100000000000002
  endloop
endfacet
facet normal 2.5863820220135043e-32 1.0 -1.855241106939406e-16
  outer loop
    vertex 10.05 -20.193803999999997 5.100000000000002
    vertex 5.600000000000002 -20.193804 1.1000000000000008
    vertex 5.365544456622769 -20.193804 1.9750000000000045
  endloop
endfacet
facet normal 2.5863820220135043e-32 1.0 -1.855241106939406e-16
  outer loop
    vertex 10.05 -20.193803999999997 5.100000000000002
    vertex 5.365544456622769 -20.193804 1.9750000000000045
    vertex 4.725000000000004 -20.193804 2.615544456622769
  endloop
endfacet
facet normal 2.5863820220135043e-32 1.0 -1.855241106939406e-16
  outer loop
    vertex 10.05 -20.193803999999997 5.100000000000002
    vertex 4.725000000000004 -20.193804 2.615544456622769
    vertex 4.30293332892941 -20.193804 2.7903701960058753
  endloop
endfacet
facet normal 2.5863820220135043e-32 1.0 -1.855241106939406e-16
  outer loop
    vertex 10.05 -20.193803999999997 5.100000000000002
    vertex 4.30293332892941 -20.193804 2.7903701960058753
    vertex 3.8499999999999988 -20.193804 2.850000000000006
  endloop
endfacet
facet normal 2.5863820220135043e-32 1.0 -1.855241106939406e-16
  outer loop
    vertex 10.05 -20.193803999999997 5.100000000000002
    vertex 3.8499999999999988 -20.193804 2.850000000000006
    vertex -2.3500000000000045 -20.193803999999997 5.100000000000002
  endloop
endfacet
facet normal 2.3064930443054547e-17 -1.0 -2.3010462629729085e-17
  outer loop
    vertex 11.049999999999999 -21.193803999999997 6.100000000000001
    vertex 10.05 -21.193803999999997 -2.4999999999999982
    vertex 11.049999999999999 -21.193803999999997 -2.4999999999999982
  endloop
endfacet
facet normal 2.3064930443054547e-17 -1.0 -2.3010462629729085e-17
  outer loop
    vertex 10.05 -21.193803999999997 -2.4999999999999982
    vertex 11.049999999999999 -21.193803999999997 6.100000000000001
    vertex 5.600000000000002 -21.193803999999997 -2.4999999999999982
  endloop
endfacet
facet normal 2.3064930443054547e-17 -1.0 -2.3010462629729085e-17
  outer loop
    vertex 5.600000000000002 -21.193803999999997 -2.4999999999999982
    vertex 11.049999999999999 -21.193803999999997 6.100000000000001
    vertex 5.600000000000002 -21.193803999999997 1.1000000000000008
  endloop
endfacet
facet normal 2.3064930443054547e-17 -1.0 -2.3010462629729085e-17
  outer loop
    vertex 5.600000000000002 -21.193803999999997 1.1000000000000008
    vertex 11.049999999999999 -21.193803999999997 6.100000000000001
    vertex 5.365544456622769 -21.193803999999997 1.9750000000000045
  endloop
endfacet
facet normal 2.3064930443054547e-17 -1.0 -2.3010462629729085e-17
  outer loop
    vertex 5.365544456622769 -21.193803999999997 1.9750000000000045
    vertex 11.049999999999999 -21.193803999999997 6.100000000000001
    vertex 4.725000000000004 -21.193803999999997 2.615544456622769
  endloop
endfacet
facet normal 2.3064930443054547e-17 -1.0 -2.3010462629729085e-17
  outer loop
    vertex 4.725000000000004 -21.193803999999997 2.615544456622769
    vertex 11.049999999999999 -21.193803999999997 6.100000000000001
    vertex 4.30293332892941 -21.193803999999997 2.7903701960058753
  endloop
endfacet
facet normal 2.3064930443054547e-17 -1.0 -2.3010462629729085e-17
  outer loop
    vertex 4.30293332892941 -21.193803999999997 2.7903701960058753
    vertex 11.049999999999999 -21.193803999999997 6.100000000000001
    vertex 3.8499999999999988 -21.193803999999997 2.850000000000006
  endloop
endfacet
facet normal 2.3064930443054547e-17 -1.0 -2.3010462629729085e-17
  outer loop
    vertex 5.084167568260044 -21.193803999999997 6.100000000000003
    vertex 3.3341675682600416 -21.193803999999997 6.100000000000002
    vertex 11.049999999999999 -21.193803999999997 6.100000000000001
  endloop
endfacet
facet normal 2.3064930443054547e-17 -1.0 -2.3010462629729085e-17
  outer loop
    vertex 2.099999999999997 -21.193803999999997 -2.4999999999999982
    vertex -3.350000000000005 -21.193803999999997 -2.4999999999999982
    vertex -2.3500000000000068 -21.193803999999997 -2.4999999999999996
  endloop
endfacet
facet normal 2.3064930443054547e-17 -1.0 -2.3010462629729085e-17
  outer loop
    vertex -3.350000000000005 -21.193803999999997 -2.4999999999999982
    vertex 2.099999999999997 -21.193803999999997 -2.4999999999999982
    vertex 2.0999999999999988 -21.193803999999997 1.1
  endloop
endfacet
facet normal 2.3064930443054547e-17 -1.0 -2.3010462629729085e-17
  outer loop
    vertex -3.350000000000005 -21.193803999999997 -2.4999999999999982
    vertex 2.0999999999999988 -21.193803999999997 1.1
    vertex -3.3500000000000045 -21.193803999999997 6.100000000000003
  endloop
endfacet
facet normal 2.3064930443054547e-17 -1.0 -2.3010462629729085e-17
  outer loop
    vertex -3.3500000000000045 -21.193803999999997 6.100000000000003
    vertex 2.0999999999999988 -21.193803999999997 1.1
    vertex 2.3344555433772287 -21.193804 1.9750000000000014
  endloop
endfacet
facet normal 2.3064930443054547e-17 -1.0 -2.3010462629729085e-17
  outer loop
    vertex -3.3500000000000045 -21.193803999999997 6.100000000000003
    vertex 2.3344555433772287 -21.193804 1.9750000000000014
    vertex 2.975000000000001 -21.193804 2.61554445662277
  endloop
endfacet
facet normal 2.3064930443054547e-17 -1.0 -2.3010462629729085e-17
  outer loop
    vertex -3.3500000000000045 -21.193803999999997 6.100000000000003
    vertex 2.975000000000001 -21.193804 2.61554445662277
    vertex 3.3970666710705864 -21.193803999999997 2.7903701960058758
  endloop
endfacet
facet normal 2.3064930443054547e-17 -1.0 -2.3010462629729085e-17
  outer loop
    vertex -3.3500000000000045 -21.193803999999997 6.100000000000003
    vertex 3.3970666710705864 -21.193803999999997 2.7903701960058758
    vertex 3.8499999999999988 -21.193803999999997 2.850000000000006
  endloop
endfacet
facet normal 2.3064930443054547e-17 -1.0 -2.3010462629729085e-17
  outer loop
    vertex -3.3500000000000045 -21.193803999999997 6.100000000000003
    vertex 3.8499999999999988 -21.193803999999997 2.850000000000006
    vertex 3.3341675682600416 -21.193803999999997 6.100000000000002
  endloop
endfacet
facet normal 2.3064930443054547e-17 -1.0 -2.3010462629729085e-17
  outer loop
    vertex 3.3341675682600416 -21.193803999999997 6.100000000000002
    vertex 3.8499999999999988 -21.193803999999997 2.850000000000006
    vertex 11.049999999999999 -21.193803999999997 6.100000000000001
  endloop
endfacet
facet normal 0.9659258262890691 3.811202764076861e-16 -0.25881904510251763
  outer loop
    vertex 2.0999999999999988 -21.193803999999997 1.1
    vertex 2.3344555433772287 -20.193804 1.9750000000000014
    vertex 2.3344555433772287 -21.193804 1.9750000000000014
  endloop
endfacet
facet normal 0.9659258262890691 3.811202764076861e-16 -0.25881904510251763
  outer loop
    vertex 2.3344555433772287 -20.193804 1.9750000000000014
    vertex 2.0999999999999988 -21.193803999999997 1.1
    vertex 2.0999999999999988 -20.193804 1.1
  endloop
endfacet
facet normal 1.0 -3.5249581031848787e-16 -5.874930171974789e-16
  outer loop
    vertex 2.0999999999999974 -20.193804 -2.4999999999999982
    vertex 2.0999999999999988 -21.193803999999997 1.1
    vertex 2.099999999999997 -21.193803999999997 -2.4999999999999982
  endloop
endfacet
facet normal 1.0 -3.5249581031848787e-16 -5.874930171974789e-16
  outer loop
    vertex 2.0999999999999988 -21.193803999999997 1.1
    vertex 2.0999999999999974 -20.193804 -2.4999999999999982
    vertex 2.0999999999999988 -20.193804 1.1
  endloop
endfacet
facet normal -1.0 0.0 0.0
  outer loop
    vertex 5.600000000000002 -20.193804 1.1000000000000008
    vertex 5.600000000000002 -21.193803999999997 -2.4999999999999982
    vertex 5.600000000000002 -21.193803999999997 1.1000000000000008
  endloop
endfacet
facet normal -1.0 0.0 0.0
  outer loop
    vertex 5.600000000000002 -21.193803999999997 -2.4999999999999982
    vertex 5.600000000000002 -20.193804 1.1000000000000008
    vertex 5.600000000000002 -20.193804 -2.4999999999999982
  endloop
endfacet
facet normal -0.9659258262890681 -3.1214025292067786e-16 -0.2588190451025213
  outer loop
    vertex 5.365544456622769 -20.193804 1.9750000000000045
    vertex 5.600000000000002 -21.193803999999997 1.1000000000000008
    vertex 5.365544456622769 -21.193803999999997 1.9750000000000045
  endloop
endfacet
facet normal -0.9659258262890681 -3.1214025292067786e-16 -0.2588190451025213
  outer loop
    vertex 5.600000000000002 -21.193803999999997 1.1000000000000008
    vertex 5.365544456622769 -20.193804 1.9750000000000045
    vertex 5.600000000000002 -20.193804 1.1000000000000008
  endloop
endfacet
facet normal -0.7071067811865476 -1.5952250073832778e-16 -0.7071067811865476
  outer loop
    vertex 4.725000000000004 -20.193804 2.615544456622769
    vertex 5.365544456622769 -21.193803999999997 1.9750000000000045
    vertex 4.725000000000004 -21.193803999999997 2.615544456622769
  endloop
endfacet
facet normal -0.7071067811865476 -1.5952250073832778e-16 -0.7071067811865476
  outer loop
    vertex 5.365544456622769 -21.193803999999997 1.9750000000000045
    vertex 4.725000000000004 -20.193804 2.615544456622769
    vertex 5.365544456622769 -20.193804 1.9750000000000045
  endloop
endfacet
facet normal -0.38268343236509406 -1.421361089074391e-17 -0.923879532511285
  outer loop
    vertex 4.725000000000004 -20.193804 2.615544456622769
    vertex 4.30293332892941 -21.193803999999997 2.7903701960058753
    vertex 4.30293332892941 -20.193804 2.7903701960058753
  endloop
endfacet
facet normal -0.38268343236509406 -1.421361089074391e-17 -0.923879532511285
  outer loop
    vertex 4.30293332892941 -21.193803999999997 2.7903701960058753
    vertex 4.725000000000004 -20.193804 2.615544456622769
    vertex 4.725000000000004 -21.193803999999997 2.615544456622769
  endloop
endfacet
facet normal -0.13052619222005155 8.52787460239556e-17 -0.9914448613738105
  outer loop
    vertex 4.30293332892941 -20.193804 2.7903701960058753
    vertex 3.8499999999999988 -21.193803999999997 2.850000000000006
    vertex 3.8499999999999988 -20.193804 2.850000000000006
  endloop
endfacet
facet normal -0.13052619222005155 8.52787460239556e-17 -0.9914448613738105
  outer loop
    vertex 3.8499999999999988 -21.193803999999997 2.850000000000006
    vertex 4.30293332892941 -20.193804 2.7903701960058753
    vertex 4.30293332892941 -21.193803999999997 2.7903701960058753
  endloop
endfacet
facet normal 0.13052619222005002 1.7895949732691134e-16 -0.9914448613738106
  outer loop
    vertex 3.8499999999999988 -20.193804 2.850000000000006
    vertex 3.3970666710705864 -21.193803999999997 2.7903701960058758
    vertex 3.3970666710705864 -20.193804 2.7903701960058758
  endloop
endfacet
facet normal 0.13052619222005002 1.7895949732691134e-16 -0.9914448613738106
  outer loop
    vertex 3.3970666710705864 -21.193803999999997 2.7903701960058758
    vertex 3.8499999999999988 -20.193804 2.850000000000006
    vertex 3.8499999999999988 -21.193803999999997 2.850000000000006
  endloop
endfacet
facet normal 0.38268343236509944 2.604444546315947e-16 -0.9238795325112827
  outer loop
    vertex 2.9750000000000014 -20.193804 2.61554445662277
    vertex 3.3970666710705864 -21.193803999999997 2.7903701960058758
    vertex 2.975000000000001 -21.193804 2.61554445662277
  endloop
endfacet
facet normal 0.38268343236509944 2.604444546315947e-16 -0.9238795325112827
  outer loop
    vertex 3.3970666710705864 -21.193803999999997 2.7903701960058758
    vertex 2.9750000000000014 -20.193804 2.61554445662277
    vertex 3.3970666710705864 -20.193804 2.7903701960058758
  endloop
endfacet
facet normal 0.7071067811865456 3.479794296121283e-16 -0.7071067811865495
  outer loop
    vertex 2.9750000000000014 -20.193804 2.61554445662277
    vertex 2.3344555433772287 -21.193804 1.9750000000000014
    vertex 2.3344555433772287 -20.193804 1.9750000000000014
  endloop
endfacet
facet normal 0.7071067811865456 3.479794296121283e-16 -0.7071067811865495
  outer loop
    vertex 2.3344555433772287 -21.193804 1.9750000000000014
    vertex 2.9750000000000014 -20.193804 2.61554445662277
    vertex 2.975000000000001 -21.193804 2.61554445662277
  endloop
endfacet
facet normal 0.0 0.0 -1.0
  outer loop
    vertex 10.05 -20.193803999999997 -2.4999999999999982
    vertex 5.600000000000002 -21.193803999999997 -2.4999999999999982
    vertex 5.600000000000002 -20.193804 -2.4999999999999982
  endloop
endfacet
facet normal 0.0 0.0 -1.0
  outer loop
    vertex 5.600000000000002 -21.193803999999997 -2.4999999999999982
    vertex 10.05 -20.193803999999997 -2.4999999999999982
    vertex 10.05 -21.193803999999997 -2.4999999999999982
  endloop
endfacet
endsolid wire_box
