solid boite
facet normal 1.4381028495230005e-32 -1.0 -1.7542245987540868e-32
  outer loop
    vertex 108.38488215369313 -9.32629072928841 116.06612470088577
    vertex 82.3897541536908 -9.32629072928841 35.09866806392847
    vertex 108.38488215369313 -9.32629072928841 35.09866806392847
  endloop
endfacet
facet normal 1.4381028495230005e-32 -1.0 -1.7542245987540868e-32
  outer loop
    vertex 82.3897541536908 -9.32629072928841 35.09866806392847
    vertex 108.38488215369313 -9.32629072928841 116.06612470088577
    vertex 82.3897541536908 -9.32629072928841 41.35614499477185
  endloop
endfacet
facet normal 1.4381028495230005e-32 -1.0 -1.7542245987540868e-32
  outer loop
    vertex 82.3897541536908 -9.32629072928841 41.35614499477185
    vertex 108.38488215369313 -9.32629072928841 116.06612470088577
    vertex 82.06023977231243 -9.32629072928841 45.48184394537885
  endloop
endfacet
facet normal 1.4381028495230005e-32 -1.0 -1.7542245987540868e-32
  outer loop
    vertex 82.06023977231243 -9.32629072928841 45.48184394537885
    vertex 108.38488215369313 -9.32629072928841 116.06612470088577
    vertex 81.1515213438989 -9.32629072928841 50.60201508810458
  endloop
endfacet
facet normal 1.4381028495230005e-32 -1.0 -1.7542245987540868e-32
  outer loop
    vertex 81.1515213438989 -9.32629072928841 50.60201508810458
    vertex 108.38488215369313 -9.32629072928841 116.06612470088577
    vertex 79.75645783704431 -9.32629072928841 55.61157789585359
  endloop
endfacet
facet normal 1.4381028495230005e-32 -1.0 -1.7542245987540868e-32
  outer loop
    vertex 79.75645783704431 -9.32629072928841 55.61157789585359
    vertex 108.38488215369313 -9.32629072928841 116.06612470088577
    vertex 77.88788280729415 -9.32629072928841 60.46444808483801
  endloop
endfacet
facet normal 1.4381028495230005e-32 -1.0 -1.7542245987540868e-32
  outer loop
    vertex 77.88788280729415 -9.32629072928841 60.46444808483801
    vertex 108.38488215369313 -9.32629072928841 116.06612470088577
    vertex 75.56298576703796 -9.32629072928841 65.11598282781776
  endloop
endfacet
facet normal 1.4381028495230005e-32 -1.0 -1.7542245987540868e-32
  outer loop
    vertex 75.56298576703796 -9.32629072928841 65.11598282781776
    vertex 108.38488215369313 -9.32629072928841 116.06612470088577
    vertex 72.80315405467081 -9.32629072928841 69.52339143519148
  endloop
endfacet
facet normal 1.4381028495230005e-32 -1.0 -1.7542245987540868e-32
  outer loop
    vertex 72.80315405467081 -9.32629072928841 69.52339143519148
    vertex 108.38488215369313 -9.32629072928841 116.06612470088577
    vertex 70.56931529860121 -9.32629072928841 73.2929491381398
  endloop
endfacet
facet normal 1.4381028495230005e-32 -1.0 -1.7542245987540868e-32
  outer loop
    vertex 70.56931529860121 -9.32629072928841 73.2929491381398
    vertex 108.38488215369313 -9.32629072928841 116.06612470088577
    vertex 68.90328289905705 -9.32629072928841 77.34559480580494
  endloop
endfacet
facet normal 1.4381028495230005e-32 -1.0 -1.7542245987540868e-32
  outer loop
    vertex 68.90328289905705 -9.32629072928841 77.34559480580494
    vertex 108.38488215369313 -9.32629072928841 116.06612470088577
    vertex 67.83998724038247 -9.32629072928841 81.59635982003702
  endloop
endfacet
facet normal 1.4381028495230005e-32 -1.0 -1.7542245987540868e-32
  outer loop
    vertex 67.83998724038247 -9.32629072928841 81.59635982003702
    vertex 108.38488215369313 -9.32629072928841 116.06612470088577
    vertex 67.4017216021314 -9.32629072928841 85.95612175095758
  endloop
endfacet
facet normal 1.4381028495230005e-32 -1.0 -1.7542245987540868e-32
  outer loop
    vertex 67.4017216021314 -9.32629072928841 85.95612175095758
    vertex 108.38488215369313 -9.32629072928841 116.06612470088577
    vertex 77.6822764556602 -9.32629072928841 94.20650188022763
  endloop
endfacet
facet normal 1.4381028495230005e-32 -1.0 -1.7542245987540868e-32
  outer loop
    vertex 67.4017216021314 -9.32629072928841 85.95612175095758
    vertex 77.6822764556602 -9.32629072928841 94.20650188022763
    vertex 67.54401988987829 -9.32629072928841 87.59796852334068
  endloop
endfacet
facet normal 1.4381028495230005e-32 -1.0 -1.7542245987540868e-32
  outer loop
    vertex 67.54401988987829 -9.32629072928841 87.59796852334068
    vertex 77.6822764556602 -9.32629072928841 94.20650188022763
    vertex 68.05430655813171 -9.32629072928841 89.16497750317565
  endloop
endfacet
facet normal 1.4381028495230005e-32 -1.0 -1.7542245987540868e-32
  outer loop
    vertex 68.05430655813171 -9.32629072928841 89.16497750317565
    vertex 77.6822764556602 -9.32629072928841 94.20650188022763
    vertex 76.21060941427531 -9.32629072928841 93.59691743238852
  endloop
endfacet
facet normal 1.4381028495230005e-32 -1.0 -1.7542245987540868e-32
  outer loop
    vertex 68.05430655813171 -9.32629072928841 89.16497750317565
    vertex 76.21060941427531 -9.32629072928841 93.59691743238852
    vertex 68.90608637403524 -9.32629072928841 90.57578605570852
  endloop
endfacet
facet normal 1.4381028495230005e-32 -1.0 -1.7542245987540868e-32
  outer loop
    vertex 68.90608637403524 -9.32629072928841 90.57578605570852
    vertex 76.21060941427531 -9.32629072928841 93.59691743238852
    vertex 70.05513301154738 -9.32629072928841 91.7571418240961
  endloop
endfacet
facet normal 1.4381028495230005e-32 -1.0 -1.7542245987540868e-32
  outer loop
    vertex 70.05513301154738 -9.32629072928841 91.7571418240961
    vertex 76.21060941427531 -9.32629072928841 93.59691743238852
    vertex 71.44178538187658 -9.32629072928841 92.6477061567195
  endloop
endfacet
facet normal 1.4381028495230005e-32 -1.0 -1.7542245987540868e-32
  outer loop
    vertex 71.44178538187658 -9.32629072928841 92.6477061567195
    vertex 76.21060941427531 -9.32629072928841 93.59691743238852
    vertex 74.63131614660416 -9.32629072928841 93.38899952927666
  endloop
endfacet
facet normal 1.4381028495230005e-32 -1.0 -1.7542245987540868e-32
  outer loop
    vertex 71.44178538187658 -9.32629072928841 92.6477061567195
    vertex 74.63131614660416 -9.32629072928841 93.38899952927666
    vertex 72.99404537155343 -9.32629072928841 93.20123894809592
  endloop
endfacet
facet normal 1.4381028495230005e-32 -1.0 -1.7542245987540868e-32
  outer loop
    vertex 77.6822764556602 -9.32629072928841 94.20650188022763
    vertex 108.38488215369313 -9.32629072928841 116.06612470088577
    vertex 78.94602559393321 -9.32629072928841 95.17621070005967
  endloop
endfacet
facet normal 1.4381028495230005e-32 -1.0 -1.7542245987540868e-32
  outer loop
    vertex 78.94602559393321 -9.32629072928841 95.17621070005967
    vertex 108.38488215369313 -9.32629072928841 116.06612470088577
    vertex 79.91573441376525 -9.32629072928841 96.43995983833268
  endloop
endfacet
facet normal 1.4381028495230005e-32 -1.0 -1.7542245987540868e-32
  outer loop
    vertex 79.91573441376525 -9.32629072928841 96.43995983833268
    vertex 108.38488215369313 -9.32629072928841 116.06612470088577
    vertex 80.52531886160436 -9.32629072928841 97.91162687971757
  endloop
endfacet
facet normal 1.4381028495230005e-32 -1.0 -1.7542245987540868e-32
  outer loop
    vertex 80.52531886160436 -9.32629072928841 97.91162687971757
    vertex 108.38488215369313 -9.32629072928841 116.06612470088577
    vertex 80.73323676471622 -9.32629072928841 99.4909201473887
  endloop
endfacet
facet normal 1.4381028495230005e-32 -1.0 -1.7542245987540868e-32
  outer loop
    vertex 80.73323676471622 -9.32629072928841 99.4909201473887
    vertex 108.38488215369313 -9.32629072928841 116.06612470088577
    vertex 80.52531886160435 -9.32629072928841 101.07021341505985
  endloop
endfacet
facet normal 1.4381028495230005e-32 -1.0 -1.7542245987540868e-32
  outer loop
    vertex 80.52531886160435 -9.32629072928841 101.07021341505985
    vertex 108.38488215369313 -9.32629072928841 116.06612470088577
    vertex 79.91573441376525 -9.32629072928841 102.54188045644473
  endloop
endfacet
facet normal 1.4381028495230005e-32 -1.0 -1.7542245987540868e-32
  outer loop
    vertex 79.91573441376525 -9.32629072928841 102.54188045644473
    vertex 108.38488215369313 -9.32629072928841 116.06612470088577
    vertex 78.94602559393321 -9.32629072928841 103.80562959471776
  endloop
endfacet
facet normal 1.4381028495230005e-32 -1.0 -1.7542245987540868e-32
  outer loop
    vertex 78.94602559393321 -9.32629072928841 103.80562959471776
    vertex 108.38488215369313 -9.32629072928841 116.06612470088577
    vertex 77.6822764556602 -9.32629072928841 104.7753384145498
  endloop
endfacet
facet normal 1.4381028495230005e-32 -1.0 -1.7542245987540868e-32
  outer loop
    vertex 77.6822764556602 -9.32629072928841 104.7753384145498
    vertex 108.38488215369313 -9.32629072928841 116.06612470088577
    vertex 76.21060941427531 -9.32629072928841 105.38492286238889
  endloop
endfacet
facet normal 1.4381028495230005e-32 -1.0 -1.7542245987540868e-32
  outer loop
    vertex 76.21060941427531 -9.32629072928841 105.38492286238889
    vertex 108.38488215369313 -9.32629072928841 116.06612470088577
    vertex 74.63131614660416 -9.32629072928841 105.59284076550077
  endloop
endfacet
facet normal 1.4381028495230005e-32 -1.0 -1.7542245987540868e-32
  outer loop
    vertex 74.63131614660416 -9.32629072928841 105.59284076550077
    vertex 108.38488215369313 -9.32629072928841 116.06612470088577
    vertex 74.63131614660416 -9.32629072928841 116.06612470088577
  endloop
endfacet
facet normal -1.4381028495230005e-32 1.0 1.7542245987540868e-32
  outer loop
    vertex 82.3897541536908 110.6737092707116 41.35614499477185
    vertex 108.38488215369313 110.6737092707116 35.09866806392847
    vertex 82.3897541536908 110.6737092707116 35.09866806392847
  endloop
endfacet
facet normal -1.4381028495230005e-32 1.0 1.7542245987540868e-32
  outer loop
    vertex 108.38488215369313 110.6737092707116 35.09866806392847
    vertex 82.3897541536908 110.6737092707116 41.35614499477185
    vertex 108.38488215369313 110.6737092707116 116.06612470088577
  endloop
endfacet
facet normal -1.4381028495230005e-32 1.0 1.7542245987540868e-32
  outer loop
    vertex 108.38488215369313 110.6737092707116 116.06612470088577
    vertex 82.3897541536908 110.6737092707116 41.35614499477185
    vertex 82.06023977231243 110.6737092707116 45.48184394537885
  endloop
endfacet
facet normal -1.4381028495230005e-32 1.0 1.7542245987540868e-32
  outer loop
    vertex 108.38488215369313 110.6737092707116 116.06612470088577
    vertex 82.06023977231243 110.6737092707116 45.48184394537885
    vertex 81.1515213438989 110.6737092707116 50.60201508810458
  endloop
endfacet
facet normal -1.4381028495230005e-32 1.0 1.7542245987540868e-32
  outer loop
    vertex 108.38488215369313 110.6737092707116 116.06612470088577
    vertex 81.1515213438989 110.6737092707116 50.60201508810458
    vertex 79.75645783704431 110.6737092707116 55.61157789585359
  endloop
endfacet
facet normal -1.4381028495230005e-32 1.0 1.7542245987540868e-32
  outer loop
    vertex 108.38488215369313 110.6737092707116 116.06612470088577
    vertex 79.75645783704431 110.6737092707116 55.61157789585359
    vertex 77.88788280729415 110.6737092707116 60.46444808483801
  endloop
endfacet
facet normal -1.4381028495230005e-32 1.0 1.7542245987540868e-32
  outer loop
    vertex 108.38488215369313 110.6737092707116 116.06612470088577
    vertex 77.88788280729415 110.6737092707116 60.46444808483801
    vertex 75.56298576703796 110.6737092707116 65.11598282781776
  endloop
endfacet
facet normal -1.4381028495230005e-32 1.0 1.7542245987540868e-32
  outer loop
    vertex 108.38488215369313 110.6737092707116 116.06612470088577
    vertex 75.56298576703796 110.6737092707116 65.11598282781776
    vertex 72.80315405467081 110.6737092707116 69.52339143519148
  endloop
endfacet
facet normal -1.4381028495230005e-32 1.0 1.7542245987540868e-32
  outer loop
    vertex 108.38488215369313 110.6737092707116 116.06612470088577
    vertex 72.80315405467081 110.6737092707116 69.52339143519148
    vertex 70.56931529860121 110.6737092707116 73.2929491381398
  endloop
endfacet
facet normal -1.4381028495230005e-32 1.0 1.7542245987540868e-32
  outer loop
    vertex 108.38488215369313 110.6737092707116 116.06612470088577
    vertex 70.56931529860121 110.6737092707116 73.2929491381398
    vertex 68.90328289905705 110.6737092707116 77.34559480580494
  endloop
endfacet
facet normal -1.4381028495230005e-32 1.0 1.7542245987540868e-32
  outer loop
    vertex 108.38488215369313 110.6737092707116 116.06612470088577
    vertex 68.90328289905705 110.6737092707116 77.34559480580494
    vertex 67.83998724038247 110.6737092707116 81.59635982003702
  endloop
endfacet
facet normal -1.4381028495230005e-32 1.0 1.7542245987540868e-32
  outer loop
    vertex 108.38488215369313 110.6737092707116 116.06612470088577
    vertex 67.83998724038247 110.6737092707116 81.59635982003702
    vertex 67.4017216021314 110.6737092707116 85.95612175095758
  endloop
endfacet
facet normal -1.4381028495230005e-32 1.0 1.7542245987540868e-32
  outer loop
    vertex 108.38488215369313 110.6737092707116 116.06612470088577
    vertex 67.4017216021314 110.6737092707116 85.95612175095758
    vertex 77.6822764556602 110.6737092707116 94.20650188022763
  endloop
endfacet
facet normal -1.4381028495230005e-32 1.0 1.7542245987540868e-32
  outer loop
    vertex 77.6822764556602 110.6737092707116 94.20650188022763
    vertex 67.4017216021314 110.6737092707116 85.95612175095758
    vertex 67.54401988987829 110.6737092707116 87.59796852334068
  endloop
endfacet
facet normal -1.4381028495230005e-32 1.0 1.7542245987540868e-32
  outer loop
    vertex 77.6822764556602 110.6737092707116 94.20650188022763
    vertex 67.54401988987829 110.6737092707116 87.59796852334068
    vertex 68.05430655813171 110.6737092707116 89.16497750317565
  endloop
endfacet
facet normal -1.4381028495230005e-32 1.0 1.7542245987540868e-32
  outer loop
    vertex 77.6822764556602 110.6737092707116 94.20650188022763
    vertex 68.05430655813171 110.6737092707116 89.16497750317565
    vertex 76.21060941427531 110.6737092707116 93.59691743238852
  endloop
endfacet
facet normal -1.4381028495230005e-32 1.0 1.7542245987540868e-32
  outer loop
    vertex 76.21060941427531 110.6737092707116 93.59691743238852
    vertex 68.05430655813171 110.6737092707116 89.16497750317565
    vertex 68.90608637403524 110.6737092707116 90.57578605570852
  endloop
endfacet
facet normal -1.4381028495230005e-32 1.0 1.7542245987540868e-32
  outer loop
    vertex 76.21060941427531 110.6737092707116 93.59691743238852
    vertex 68.90608637403524 110.6737092707116 90.57578605570852
    vertex 70.05513301154738 110.6737092707116 91.7571418240961
  endloop
endfacet
facet normal -1.4381028495230005e-32 1.0 1.7542245987540868e-32
  outer loop
    vertex 76.21060941427531 110.6737092707116 93.59691743238852
    vertex 70.05513301154738 110.6737092707116 91.7571418240961
    vertex 71.44178538187658 110.6737092707116 92.6477061567195
  endloop
endfacet
facet normal -1.4381028495230005e-32 1.0 1.7542245987540868e-32
  outer loop
    vertex 76.21060941427531 110.6737092707116 93.59691743238852
    vertex 71.44178538187658 110.6737092707116 92.6477061567195
    vertex 74.63131614660416 110.6737092707116 93.38899952927666
  endloop
endfacet
facet normal -1.4381028495230005e-32 1.0 1.7542245987540868e-32
  outer loop
    vertex 74.63131614660416 110.6737092707116 93.38899952927666
    vertex 71.44178538187658 110.6737092707116 92.6477061567195
    vertex 72.99404537155343 110.6737092707116 93.20123894809592
  endloop
endfacet
facet normal -1.4381028495230005e-32 1.0 1.7542245987540868e-32
  outer loop
    vertex 108.38488215369313 110.6737092707116 116.06612470088577
    vertex 77.6822764556602 110.6737092707116 94.20650188022763
    vertex 78.94602559393321 110.6737092707116 95.17621070005967
  endloop
endfacet
facet normal -1.4381028495230005e-32 1.0 1.7542245987540868e-32
  outer loop
    vertex 108.38488215369313 110.6737092707116 116.06612470088577
    vertex 78.94602559393321 110.6737092707116 95.17621070005967
    vertex 79.91573441376525 110.6737092707116 96.43995983833268
  endloop
endfacet
facet normal -1.4381028495230005e-32 1.0 1.7542245987540868e-32
  outer loop
    vertex 108.38488215369313 110.6737092707116 116.06612470088577
    vertex 79.91573441376525 110.6737092707116 96.43995983833268
    vertex 80.52531886160436 110.6737092707116 97.91162687971757
  endloop
endfacet
facet normal -1.4381028495230005e-32 1.0 1.7542245987540868e-32
  outer loop
    vertex 108.38488215369313 110.6737092707116 116.06612470088577
    vertex 80.52531886160436 110.6737092707116 97.91162687971757
    vertex 80.73323676471622 110.6737092707116 99.4909201473887
  endloop
endfacet
facet normal -1.4381028495230005e-32 1.0 1.7542245987540868e-32
  outer loop
    vertex 108.38488215369313 110.6737092707116 116.06612470088577
    vertex 80.73323676471622 110.6737092707116 99.4909201473887
    vertex 80.52531886160435 110.6737092707116 101.07021341505985
  endloop
endfacet
facet normal -1.4381028495230005e-32 1.0 1.7542245987540868e-32
  outer loop
    vertex 108.38488215369313 110.6737092707116 116.06612470088577
    vertex 80.52531886160435 110.6737092707116 101.07021341505985
    vertex 79.91573441376525 110.6737092707116 102.54188045644473
  endloop
endfacet
facet normal -1.4381028495230005e-32 1.0 1.7542245987540868e-32
  outer loop
    vertex 108.38488215369313 110.6737092707116 116.06612470088577
    vertex 79.91573441376525 110.6737092707116 102.54188045644473
    vertex 78.94602559393321 110.6737092707116 103.80562959471776
  endloop
endfacet
facet normal -1.4381028495230005e-32 1.0 1.7542245987540868e-32
  outer loop
    vertex 108.38488215369313 110.6737092707116 116.06612470088577
    vertex 78.94602559393321 110.6737092707116 103.80562959471776
    vertex 77.6822764556602 110.6737092707116 104.7753384145498
  endloop
endfacet
facet normal -1.4381028495230005e-32 1.0 1.7542245987540868e-32
  outer loop
    vertex 108.38488215369313 110.6737092707116 116.06612470088577
    vertex 77.6822764556602 110.6737092707116 104.7753384145498
    vertex 76.21060941427531 110.6737092707116 105.38492286238889
  endloop
endfacet
facet normal -1.4381028495230005e-32 1.0 1.7542245987540868e-32
  outer loop
    vertex 108.38488215369313 110.6737092707116 116.06612470088577
    vertex 76.21060941427531 110.6737092707116 105.38492286238889
    vertex 74.63131614660416 110.6737092707116 105.59284076550077
  endloop
endfacet
facet normal -1.4381028495230005e-32 1.0 1.7542245987540868e-32
  outer loop
    vertex 108.38488215369313 110.6737092707116 116.06612470088577
    vertex 74.63131614660416 110.6737092707116 105.59284076550077
    vertex 74.63131614660416 110.6737092707116 116.06612470088577
  endloop
endfacet
facet normal -1.0 -1.4381028495230005e-32 -0.0
  outer loop
    vertex 74.63131614660416 110.6737092707116 116.06612470088577
    vertex 74.63131614660416 -9.32629072928841 105.59284076550077
    vertex 74.63131614660416 -9.32629072928841 116.06612470088577
  endloop
endfacet
facet normal -1.0 -1.4381028495230005e-32 -0.0
  outer loop
    vertex 74.63131614660416 -9.32629072928841 105.59284076550077
    vertex 74.63131614660416 110.6737092707116 116.06612470088577
    vertex 74.63131614660416 110.6737092707116 105.59284076550077
  endloop
endfacet
facet normal -0.13052619222005518 1.5515068751612245e-32 -0.9914448613738099
  outer loop
    vertex 76.21060941427531 110.6737092707116 105.38492286238889
    vertex 74.63131614660416 -9.32629072928841 105.59284076550077
    vertex 74.63131614660416 110.6737092707116 105.59284076550077
  endloop
endfacet
facet normal -0.13052619222005518 1.5515068751612245e-32 -0.9914448613738099
  outer loop
    vertex 74.63131614660416 -9.32629072928841 105.59284076550077
    vertex 76.21060941427531 110.6737092707116 105.38492286238889
    vertex 76.21060941427531 -9.32629072928841 105.38492286238889
  endloop
endfacet
facet normal -0.3826834323650852 1.0703540676672569e-32 -0.9238795325112886
  outer loop
    vertex 77.6822764556602 110.6737092707116 104.7753384145498
    vertex 76.21060941427531 -9.32629072928841 105.38492286238889
    vertex 76.21060941427531 110.6737092707116 105.38492286238889
  endloop
endfacet
facet normal -0.3826834323650852 1.0703540676672569e-32 -0.9238795325112886
  outer loop
    vertex 76.21060941427531 -9.32629072928841 105.38492286238889
    vertex 77.6822764556602 110.6737092707116 104.7753384145498
    vertex 77.6822764556602 -9.32629072928841 104.7753384145498
  endloop
endfacet
facet normal -0.6087614290087219 5.1625839930546844e-33 -0.7933533402912344
  outer loop
    vertex 78.94602559393321 110.6737092707116 103.80562959471776
    vertex 77.6822764556602 -9.32629072928841 104.7753384145498
    vertex 77.6822764556602 110.6737092707116 104.7753384145498
  endloop
endfacet
facet normal -0.6087614290087219 5.1625839930546844e-33 -0.7933533402912344
  outer loop
    vertex 77.6822764556602 -9.32629072928841 104.7753384145498
    vertex 78.94602559393321 110.6737092707116 103.80562959471776
    vertex 78.94602559393321 -9.32629072928841 103.80562959471776
  endloop
endfacet
facet normal -0.7933533402912344 -7.301942581162534e-34 -0.6087614290087219
  outer loop
    vertex 78.94602559393321 110.6737092707116 103.80562959471776
    vertex 79.91573441376525 -9.32629072928841 102.54188045644473
    vertex 78.94602559393321 -9.32629072928841 103.80562959471776
  endloop
endfacet
facet normal -0.7933533402912344 -7.301942581162534e-34 -0.6087614290087219
  outer loop
    vertex 79.91573441376525 -9.32629072928841 102.54188045644473
    vertex 78.94602559393321 110.6737092707116 103.80562959471776
    vertex 79.91573441376525 110.6737092707116 102.54188045644473
  endloop
endfacet
facet normal -0.9238795325112886 -6.573210977299837e-33 -0.3826834323650852
  outer loop
    vertex 79.91573441376525 110.6737092707116 102.54188045644473
    vertex 80.52531886160435 -9.32629072928841 101.07021341505985
    vertex 79.91573441376525 -9.32629072928841 102.54188045644473
  endloop
endfacet
facet normal -0.9238795325112886 -6.573210977299837e-33 -0.3826834323650852
  outer loop
    vertex 80.52531886160435 -9.32629072928841 101.07021341505985
    vertex 79.91573441376525 110.6737092707116 102.54188045644473
    vertex 80.52531886160435 110.6737092707116 101.07021341505985
  endloop
endfacet
facet normal -0.9914448613738099 -1.1968274231124872e-32 -0.13052619222005518
  outer loop
    vertex 80.52531886160435 110.6737092707116 101.07021341505985
    vertex 80.73323676471622 -9.32629072928841 99.4909201473887
    vertex 80.52531886160435 -9.32629072928841 101.07021341505985
  endloop
endfacet
facet normal -0.9914448613738099 -1.1968274231124872e-32 -0.13052619222005518
  outer loop
    vertex 80.73323676471622 -9.32629072928841 99.4909201473887
    vertex 80.52531886160435 110.6737092707116 101.07021341505985
    vertex 80.73323676471622 110.6737092707116 99.4909201473887
  endloop
endfacet
facet normal -0.9914448613738108 -1.6547719374607263e-32 0.13052619222004821
  outer loop
    vertex 80.73323676471622 110.6737092707116 99.4909201473887
    vertex 80.52531886160436 -9.32629072928841 97.91162687971757
    vertex 80.73323676471622 -9.32629072928841 99.4909201473887
  endloop
endfacet
facet normal -0.9914448613738108 -1.6547719374607263e-32 0.13052619222004821
  outer loop
    vertex 80.52531886160436 -9.32629072928841 97.91162687971757
    vertex 80.73323676471622 110.6737092707116 99.4909201473887
    vertex 80.52531886160436 110.6737092707116 97.91162687971757
  endloop
endfacet
facet normal -0.9238795325112861 -1.9999464789109473e-32 0.3826834323650912
  outer loop
    vertex 80.52531886160436 110.6737092707116 97.91162687971757
    vertex 79.91573441376525 -9.32629072928841 96.43995983833268
    vertex 80.52531886160436 -9.32629072928841 97.91162687971757
  endloop
endfacet
facet normal -0.9238795325112861 -1.9999464789109473e-32 0.3826834323650912
  outer loop
    vertex 79.91573441376525 -9.32629072928841 96.43995983833268
    vertex 80.52531886160436 110.6737092707116 97.91162687971757
    vertex 79.91573441376525 110.6737092707116 96.43995983833268
  endloop
endfacet
facet normal -0.7933533402912344 -2.2088279728912046e-32 0.6087614290087219
  outer loop
    vertex 79.91573441376525 110.6737092707116 96.43995983833268
    vertex 78.94602559393321 -9.32629072928841 95.17621070005967
    vertex 79.91573441376525 -9.32629072928841 96.43995983833268
  endloop
endfacet
facet normal -0.7933533402912344 -2.2088279728912046e-32 0.6087614290087219
  outer loop
    vertex 78.94602559393321 -9.32629072928841 95.17621070005967
    vertex 79.91573441376525 110.6737092707116 96.43995983833268
    vertex 78.94602559393321 110.6737092707116 95.17621070005967
  endloop
endfacet
facet normal -0.6087614290087219 -2.2671814907797418e-32 0.7933533402912344
  outer loop
    vertex 78.94602559393321 -9.32629072928841 95.17621070005967
    vertex 77.6822764556602 110.6737092707116 94.20650188022763
    vertex 77.6822764556602 -9.32629072928841 94.20650188022763
  endloop
endfacet
facet normal -0.6087614290087219 -2.2671814907797418e-32 0.7933533402912344
  outer loop
    vertex 77.6822764556602 110.6737092707116 94.20650188022763
    vertex 78.94602559393321 -9.32629072928841 95.17621070005967
    vertex 78.94602559393321 110.6737092707116 95.17621070005967
  endloop
endfacet
facet normal -0.3826834323650852 -2.1710303367662e-32 0.9238795325112886
  outer loop
    vertex 77.6822764556602 -9.32629072928841 94.20650188022763
    vertex 76.21060941427531 110.6737092707116 93.59691743238852
    vertex 76.21060941427531 -9.32629072928841 93.59691743238852
  endloop
endfacet
facet normal -0.3826834323650852 -2.1710303367662e-32 0.9238795325112886
  outer loop
    vertex 76.21060941427531 110.6737092707116 93.59691743238852
    vertex 77.6822764556602 -9.32629072928841 94.20650188022763
    vertex 77.6822764556602 110.6737092707116 94.20650188022763
  endloop
endfacet
facet normal -0.13052619222005518 -1.9269270530993212e-32 0.9914448613738099
  outer loop
    vertex 76.21060941427531 -9.32629072928841 93.59691743238852
    vertex 74.63131614660416 110.6737092707116 93.38899952927666
    vertex 74.63131614660416 -9.32629072928841 93.38899952927666
  endloop
endfacet
facet normal -0.13052619222005518 -1.9269270530993212e-32 0.9914448613738099
  outer loop
    vertex 74.63131614660416 110.6737092707116 93.38899952927666
    vertex 76.21060941427531 -9.32629072928841 93.59691743238852
    vertex 76.21060941427531 110.6737092707116 93.59691743238852
  endloop
endfacet
facet normal -0.11393227347349856 -1.9066483254586976e-32 0.9934885188371126
  outer loop
    vertex 74.63131614660416 -9.32629072928841 93.38899952927666
    vertex 72.99404537155343 110.6737092707116 93.20123894809592
    vertex 72.99404537155343 -9.32629072928841 93.20123894809592
  endloop
endfacet
facet normal -0.11393227347349856 -1.9066483254586976e-32 0.9934885188371126
  outer loop
    vertex 72.99404537155343 110.6737092707116 93.20123894809592
    vertex 74.63131614660416 -9.32629072928841 93.38899952927666
    vertex 74.63131614660416 110.6737092707116 93.38899952927666
  endloop
endfacet
facet normal -0.3358812002341496 -2.1353435053650438e-32 0.9419043578459901
  outer loop
    vertex 72.99404537155343 -9.32629072928841 93.20123894809592
    vertex 71.44178538187658 110.6737092707116 92.6477061567195
    vertex 71.44178538187658 -9.32629072928841 92.6477061567195
  endloop
endfacet
facet normal -0.3358812002341496 -2.1353435053650438e-32 0.9419043578459901
  outer loop
    vertex 71.44178538187658 110.6737092707116 92.6477061567195
    vertex 72.99404537155343 -9.32629072928841 93.20123894809592
    vertex 72.99404537155343 110.6737092707116 93.20123894809592
  endloop
endfacet
facet normal -0.5403904187563394 -2.2531668422016442e-32 0.8414144016573215
  outer loop
    vertex 71.44178538187658 -9.32629072928841 92.6477061567195
    vertex 70.05513301154738 110.6737092707116 91.7571418240961
    vertex 70.05513301154738 -9.32629072928841 91.7571418240961
  endloop
endfacet
facet normal -0.5403904187563394 -2.2531668422016442e-32 0.8414144016573215
  outer loop
    vertex 70.05513301154738 110.6737092707116 91.7571418240961
    vertex 71.44178538187658 -9.32629072928841 92.6477061567195
    vertex 71.44178538187658 110.6737092707116 92.6477061567195
  endloop
endfacet
facet normal -0.7168413499096936 -2.2540006830106212e-32 0.6972363150752033
  outer loop
    vertex 70.05513301154738 110.6737092707116 91.7571418240961
    vertex 68.90608637403524 -9.32629072928841 90.57578605570852
    vertex 70.05513301154738 -9.32629072928841 91.7571418240961
  endloop
endfacet
facet normal -0.7168413499096936 -2.2540006830106212e-32 0.6972363150752033
  outer loop
    vertex 68.90608637403524 -9.32629072928841 90.57578605570852
    vertex 70.05513301154738 110.6737092707116 91.7571418240961
    vertex 68.90608637403524 110.6737092707116 90.57578605570852
  endloop
endfacet
facet normal -0.8560722640243701 -2.1378017328995678e-32 0.516856149008783
  outer loop
    vertex 68.90608637403524 110.6737092707116 90.57578605570852
    vertex 68.05430655813171 -9.32629072928841 89.16497750317565
    vertex 68.90608637403524 -9.32629072928841 90.57578605570852
  endloop
endfacet
facet normal -0.8560722640243701 -2.1378017328995678e-32 0.516856149008783
  outer loop
    vertex 68.05430655813171 -9.32629072928841 89.16497750317565
    vertex 68.90608637403524 110.6737092707116 90.57578605570852
    vertex 68.05430655813171 110.6737092707116 89.16497750317565
  endloop
endfacet
facet normal -0.9508539785255988 -1.910603303009844e-32 0.3096396478522093
  outer loop
    vertex 68.05430655813171 110.6737092707116 89.16497750317565
    vertex 67.54401988987829 -9.32629072928841 87.59796852334068
    vertex 68.05430655813171 -9.32629072928841 89.16497750317565
  endloop
endfacet
facet normal -0.9508539785255988 -1.910603303009844e-32 0.3096396478522093
  outer loop
    vertex 67.54401988987829 -9.32629072928841 87.59796852334068
    vertex 68.05430655813171 110.6737092707116 89.16497750317565
    vertex 67.54401988987829 110.6737092707116 87.59796852334068
  endloop
endfacet
facet normal -0.9962652133712299 -1.584202047416638e-32 0.0863459589464268
  outer loop
    vertex 67.54401988987829 110.6737092707116 87.59796852334068
    vertex 67.4017216021314 -9.32629072928841 85.95612175095758
    vertex 67.54401988987829 -9.32629072928841 87.59796852334068
  endloop
endfacet
facet normal -0.9962652133712299 -1.584202047416638e-32 0.0863459589464268
  outer loop
    vertex 67.4017216021314 -9.32629072928841 85.95612175095758
    vertex 67.54401988987829 110.6737092707116 87.59796852334068
    vertex 67.4017216021314 110.6737092707116 85.95612175095758
  endloop
endfacet
facet normal -0.9949853233132704 -1.2554318779195403e-32 -0.10002102974468345
  outer loop
    vertex 67.4017216021314 110.6737092707116 85.95612175095758
    vertex 67.83998724038247 -9.32629072928841 81.59635982003702
    vertex 67.4017216021314 -9.32629072928841 85.95612175095758
  endloop
endfacet
facet normal -0.9949853233132704 -1.2554318779195403e-32 -0.10002102974468345
  outer loop
    vertex 67.83998724038247 -9.32629072928841 81.59635982003702
    vertex 67.4017216021314 110.6737092707116 85.95612175095758
    vertex 67.83998724038247 110.6737092707116 81.59635982003702
  endloop
endfacet
facet normal -0.9701100356003651 -9.69428311382524e-33 -0.24266544629892922
  outer loop
    vertex 67.83998724038247 110.6737092707116 81.59635982003702
    vertex 68.90328289905705 -9.32629072928841 77.34559480580494
    vertex 67.83998724038247 -9.32629072928841 81.59635982003702
  endloop
endfacet
facet normal -0.9701100356003651 -9.69428311382524e-33 -0.24266544629892922
  outer loop
    vertex 68.90328289905705 -9.32629072928841 77.34559480580494
    vertex 67.83998724038247 110.6737092707116 81.59635982003702
    vertex 68.90328289905705 110.6737092707116 77.34559480580494
  endloop
endfacet
facet normal -0.9248952176304926 -6.63099507761313e-33 -0.3802220882645346
  outer loop
    vertex 68.90328289905705 110.6737092707116 77.34559480580494
    vertex 70.56931529860121 -9.32629072928841 73.2929491381398
    vertex 68.90328289905705 -9.32629072928841 77.34559480580494
  endloop
endfacet
facet normal -0.9248952176304926 -6.63099507761313e-33 -0.3802220882645346
  outer loop
    vertex 70.56931529860121 -9.32629072928841 73.2929491381398
    vertex 68.90328289905705 110.6737092707116 77.34559480580494
    vertex 70.56931529860121 110.6737092707116 73.2929491381398
  endloop
endfacet
facet normal -0.8602888527503002 -3.428680209324862e-33 -0.5098069142661485
  outer loop
    vertex 70.56931529860121 110.6737092707116 73.2929491381398
    vertex 72.80315405467081 -9.32629072928841 69.52339143519148
    vertex 70.56931529860121 -9.32629072928841 73.2929491381398
  endloop
endfacet
facet normal -0.8602888527503002 -3.428680209324862e-33 -0.5098069142661485
  outer loop
    vertex 72.80315405467081 -9.32629072928841 69.52339143519148
    vertex 70.56931529860121 110.6737092707116 73.2929491381398
    vertex 72.80315405467081 110.6737092707116 69.52339143519148
  endloop
endfacet
facet normal -0.8475484615528633 -2.8786327087771976e-33 -0.5307180092284174
  outer loop
    vertex 72.80315405467081 110.6737092707116 69.52339143519148
    vertex 75.56298576703796 -9.32629072928841 65.11598282781776
    vertex 72.80315405467081 -9.32629072928841 69.52339143519148
  endloop
endfacet
facet normal -0.8475484615528633 -2.8786327087771976e-33 -0.5307180092284174
  outer loop
    vertex 75.56298576703796 -9.32629072928841 65.11598282781776
    vertex 72.80315405467081 110.6737092707116 69.52339143519148
    vertex 75.56298576703796 110.6737092707116 65.11598282781776
  endloop
endfacet
facet normal -0.8944941271558982 -5.020963490742337e-33 -0.4470796981340217
  outer loop
    vertex 75.56298576703796 110.6737092707116 65.11598282781776
    vertex 77.88788280729415 -9.32629072928841 60.46444808483801
    vertex 75.56298576703796 -9.32629072928841 65.11598282781776
  endloop
endfacet
facet normal -0.8944941271558982 -5.020963490742337e-33 -0.4470796981340217
  outer loop
    vertex 77.88788280729415 -9.32629072928841 60.46444808483801
    vertex 75.56298576703796 110.6737092707116 65.11598282781776
    vertex 77.88788280729415 110.6737092707116 60.46444808483801
  endloop
endfacet
facet normal -0.9332111063876054 -7.117105111042899e-33 -0.35932858349263236
  outer loop
    vertex 77.88788280729415 110.6737092707116 60.46444808483801
    vertex 79.75645783704431 -9.32629072928841 55.61157789585359
    vertex 77.88788280729415 -9.32629072928841 60.46444808483801
  endloop
endfacet
facet normal -0.9332111063876054 -7.117105111042899e-33 -0.35932858349263236
  outer loop
    vertex 79.75645783704431 -9.32629072928841 55.61157789585359
    vertex 77.88788280729415 110.6737092707116 60.46444808483801
    vertex 79.75645783704431 110.6737092707116 55.61157789585359
  endloop
endfacet
facet normal -0.9633432315888906 -9.147774612463514e-33 -0.268271910851422
  outer loop
    vertex 79.75645783704431 110.6737092707116 55.61157789585359
    vertex 81.1515213438989 -9.32629072928841 50.60201508810458
    vertex 79.75645783704431 -9.32629072928841 55.61157789585359
  endloop
endfacet
facet normal -0.9633432315888906 -9.147774612463514e-33 -0.268271910851422
  outer loop
    vertex 81.1515213438989 -9.32629072928841 50.60201508810458
    vertex 79.75645783704431 110.6737092707116 55.61157789585359
    vertex 81.1515213438989 110.6737092707116 50.60201508810458
  endloop
endfacet
facet normal -0.9846133094272829 -1.1094291333003558e-32 -0.17474733445364493
  outer loop
    vertex 81.1515213438989 110.6737092707116 50.60201508810458
    vertex 82.06023977231243 -9.32629072928841 45.48184394537885
    vertex 81.1515213438989 -9.32629072928841 50.60201508810458
  endloop
endfacet
facet normal -0.9846133094272829 -1.1094291333003558e-32 -0.17474733445364493
  outer loop
    vertex 82.06023977231243 -9.32629072928841 45.48184394537885
    vertex 81.1515213438989 110.6737092707116 50.60201508810458
    vertex 82.06023977231243 110.6737092707116 45.48184394537885
  endloop
endfacet
facet normal -0.9968256708711883 -1.293874875419222e-32 -0.07961521143729515
  outer loop
    vertex 82.06023977231243 110.6737092707116 45.48184394537885
    vertex 82.3897541536908 -9.32629072928841 41.35614499477185
    vertex 82.06023977231243 -9.32629072928841 45.48184394537885
  endloop
endfacet
facet normal -0.9968256708711883 -1.293874875419222e-32 -0.07961521143729515
  outer loop
    vertex 82.3897541536908 -9.32629072928841 41.35614499477185
    vertex 82.06023977231243 110.6737092707116 45.48184394537885
    vertex 82.3897541536908 110.6737092707116 41.35614499477185
  endloop
endfacet
facet normal -1.0 -1.4381028495230008e-32 -0.0
  outer loop
    vertex 82.3897541536908 110.6737092707116 41.35614499477185
    vertex 82.3897541536908 -9.32629072928841 35.09866806392847
    vertex 82.3897541536908 -9.32629072928841 41.35614499477185
  endloop
endfacet
facet normal -1.0 -1.4381028495230008e-32 -0.0
  outer loop
    vertex 82.3897541536908 -9.32629072928841 35.09866806392847
    vertex 82.3897541536908 110.6737092707116 41.35614499477185
    vertex 82.3897541536908 110.6737092707116 35.09866806392847
  endloop
endfacet
facet normal 0.0 1.7542245987540868e-32 -1.0
  outer loop
    vertex 108.38488215369313 110.6737092707116 35.09866806392847
    vertex 82.3897541536908 -9.32629072928841 35.09866806392847
    vertex 82.3897541536908 110.6737092707116 35.09866806392847
  endloop
endfacet
facet normal 0.0 1.7542245987540868e-32 -1.0
  outer loop
    vertex 82.3897541536908 -9.32629072928841 35.09866806392847
    vertex 108.38488215369313 110.6737092707116 35.09866806392847
    vertex 108.38488215369313 -9.32629072928841 35.09866806392847
  endloop
endfacet
facet normal 1.0 1.4381028495230005e-32 0.0
  outer loop
    vertex 108.38488215369313 110.6737092707116 35.09866806392847
    vertex 108.38488215369313 -9.32629072928841 116.06612470088577
    vertex 108.38488215369313 -9.32629072928841 35.09866806392847
  endloop
endfacet
facet normal 1.0 1.4381028495230005e-32 0.0
  outer loop
    vertex 108.38488215369313 -9.32629072928841 116.06612470088577
    vertex 108.38488215369313 110.6737092707116 35.09866806392847
    vertex 108.38488215369313 110.6737092707116 116.06612470088577
  endloop
endfacet
facet normal 0.0 -1.7542245987540868e-32 1.0
  outer loop
    vertex 108.38488215369313 -9.32629072928841 116.06612470088577
    vertex 74.63131614660416 110.6737092707116 116.06612470088577
    vertex 74.63131614660416 -9.32629072928841 116.06612470088577
  endloop
endfacet
facet normal 0.0 -1.7542245987540868e-32 1.0
  outer loop
    vertex 74.63131614660416 110.6737092707116 116.06612470088577
    vertex 108.38488215369313 -9.32629072928841 116.06612470088577
    vertex 108.38488215369313 110.6737092707116 116.06612470088577
  endloop
endfacet
endsolid boite
