solid box
facet normal 0.0 -1.0 0.0
  outer loop
    vertex 36.99999999999999 0.9999999999999999 37.76209667566815
    vertex -37.00000000000001 0.9999999999999999 -10.0
    vertex 36.99999999999999 0.9999999999999999 -10.000000000000002
  endloop
endfacet
facet normal 0.0 -1.0 0.0
  outer loop
    vertex -37.00000000000001 0.9999999999999999 -10.0
    vertex 36.99999999999999 0.9999999999999999 37.76209667566815
    vertex -37.0 0.9999999999999999 37.76209667566815
  endloop
endfacet
facet normal 0.0 -1.0 0.0
  outer loop
    vertex -37.0 0.9999999999999999 37.76209667566815
    vertex 36.99999999999999 0.9999999999999999 37.76209667566815
    vertex 35.73925557269551 0.9999999999999999 47.33840134446142
  endloop
endfacet
facet normal 0.0 -1.0 0.0
  outer loop
    vertex -37.0 0.9999999999999999 37.76209667566815
    vertex 35.73925557269551 0.9999999999999999 47.33840134446142
    vertex -5.639932965095795e-15 0.9999999999999999 44.012096675668154
  endloop
endfacet
facet normal 0.0 -1.0 0.0
  outer loop
    vertex -5.639932965095795e-15 0.9999999999999999 44.012096675668154
    vertex 35.73925557269551 0.9999999999999999 47.33840134446142
    vertex 0.7764571353075513 0.9999999999999999 44.11431919680094
  endloop
endfacet
facet normal 0.0 -1.0 0.0
  outer loop
    vertex 0.7764571353075513 0.9999999999999999 44.11431919680094
    vertex 35.73925557269551 0.9999999999999999 47.33840134446142
    vertex 1.4999999999999916 0.9999999999999999 44.41402046431483
  endloop
endfacet
facet normal 0.0 -1.0 0.0
  outer loop
    vertex 1.4999999999999916 0.9999999999999999 44.41402046431483
    vertex 35.73925557269551 0.9999999999999999 47.33840134446142
    vertex 2.1213203435596366 0.9999999999999999 44.890776332108494
  endloop
endfacet
facet normal 0.0 -1.0 0.0
  outer loop
    vertex 2.1213203435596366 0.9999999999999999 44.890776332108494
    vertex 35.73925557269551 0.9999999999999999 47.33840134446142
    vertex 2.598076211353312 0.9999999999999999 45.51209667566815
  endloop
endfacet
facet normal 0.0 -1.0 0.0
  outer loop
    vertex 2.598076211353312 0.9999999999999999 45.51209667566815
    vertex 35.73925557269551 0.9999999999999999 47.33840134446142
    vertex 2.8977774788671993 0.9999999999999999 46.23563954036058
  endloop
endfacet
facet normal 0.0 -1.0 0.0
  outer loop
    vertex 2.8977774788671993 0.9999999999999999 46.23563954036058
    vertex 35.73925557269551 0.9999999999999999 47.33840134446142
    vertex 2.9999999999999947 0.9999999999999999 47.01209667566815
  endloop
endfacet
facet normal 0.0 -1.0 0.0
  outer loop
    vertex 2.9999999999999947 0.9999999999999999 47.01209667566815
    vertex 35.73925557269551 0.9999999999999999 47.33840134446142
    vertex 2.8977774788671993 0.9999999999999999 47.7885538109757
  endloop
endfacet
facet normal 0.0 -1.0 0.0
  outer loop
    vertex 2.8977774788671993 0.9999999999999999 47.7885538109757
    vertex 35.73925557269551 0.9999999999999999 47.33840134446142
    vertex 32.04293994002424 0.9999999999999999 56.26209667566813
  endloop
endfacet
facet normal 0.0 -1.0 0.0
  outer loop
    vertex 2.8977774788671993 0.9999999999999999 47.7885538109757
    vertex 32.04293994002424 0.9999999999999999 56.26209667566813
    vertex 2.598076211353312 0.9999999999999999 48.51209667566814
  endloop
endfacet
facet normal 0.0 -1.0 0.0
  outer loop
    vertex 2.598076211353312 0.9999999999999999 48.51209667566814
    vertex 32.04293994002424 0.9999999999999999 56.26209667566813
    vertex 2.1213203435596366 0.9999999999999999 49.133417019227785
  endloop
endfacet
facet normal 0.0 -1.0 0.0
  outer loop
    vertex 2.1213203435596366 0.9999999999999999 49.133417019227785
    vertex 32.04293994002424 0.9999999999999999 56.26209667566813
    vertex 1.4999999999999973 0.9999999999999999 49.610172887021456
  endloop
endfacet
facet normal 0.0 -1.0 0.0
  outer loop
    vertex 1.4999999999999973 0.9999999999999999 49.610172887021456
    vertex 32.04293994002424 0.9999999999999999 56.26209667566813
    vertex 0.7764571353075513 0.9999999999999999 49.90987415453535
  endloop
endfacet
facet normal 0.0 -1.0 0.0
  outer loop
    vertex 0.7764571353075513 0.9999999999999999 49.90987415453535
    vertex 32.04293994002424 0.9999999999999999 56.26209667566813
    vertex -5.639932965095795e-15 0.9999999999999999 50.01209667566814
  endloop
endfacet
facet normal 0.0 -1.0 0.0
  outer loop
    vertex -5.639932965095795e-15 0.9999999999999999 44.012096675668154
    vertex -35.739255572695534 0.9999999999999999 47.33840134446142
    vertex -37.0 0.9999999999999999 37.76209667566815
  endloop
endfacet
facet normal 0.0 -1.0 0.0
  outer loop
    vertex -35.739255572695534 0.9999999999999999 47.33840134446142
    vertex -5.639932965095795e-15 0.9999999999999999 44.012096675668154
    vertex -0.776457135307574 0.9999999999999999 44.11431919680094
  endloop
endfacet
facet normal 0.0 -1.0 0.0
  outer loop
    vertex -35.739255572695534 0.9999999999999999 47.33840134446142
    vertex -0.776457135307574 0.9999999999999999 44.11431919680094
    vertex -1.5000000000000029 0.9999999999999999 44.41402046431483
  endloop
endfacet
facet normal 0.0 -1.0 0.0
  outer loop
    vertex -35.739255572695534 0.9999999999999999 47.33840134446142
    vertex -1.5000000000000029 0.9999999999999999 44.41402046431483
    vertex -2.1213203435596477 0.9999999999999999 44.890776332108494
  endloop
endfacet
facet normal 0.0 -1.0 0.0
  outer loop
    vertex -35.739255572695534 0.9999999999999999 47.33840134446142
    vertex -2.1213203435596477 0.9999999999999999 44.890776332108494
    vertex -2.598076211353323 0.9999999999999999 45.51209667566815
  endloop
endfacet
facet normal 0.0 -1.0 0.0
  outer loop
    vertex -35.739255572695534 0.9999999999999999 47.33840134446142
    vertex -2.598076211353323 0.9999999999999999 45.51209667566815
    vertex -2.8977774788672104 0.9999999999999999 46.23563954036059
  endloop
endfacet
facet normal 0.0 -1.0 0.0
  outer loop
    vertex -35.739255572695534 0.9999999999999999 47.33840134446142
    vertex -2.8977774788672104 0.9999999999999999 46.23563954036059
    vertex -3.0000000000000058 0.9999999999999999 47.01209667566815
  endloop
endfacet
facet normal 0.0 -1.0 0.0
  outer loop
    vertex -35.739255572695534 0.9999999999999999 47.33840134446142
    vertex -3.0000000000000058 0.9999999999999999 47.01209667566815
    vertex -2.8977774788672104 0.9999999999999999 47.78855381097571
  endloop
endfacet
facet normal 0.0 -1.0 0.0
  outer loop
    vertex -35.739255572695534 0.9999999999999999 47.33840134446142
    vertex -2.8977774788672104 0.9999999999999999 47.78855381097571
    vertex -32.04293994002423 0.9999999999999999 56.26209667566813
  endloop
endfacet
facet normal 0.0 -1.0 0.0
  outer loop
    vertex -32.04293994002423 0.9999999999999999 56.26209667566813
    vertex -2.8977774788672104 0.9999999999999999 47.78855381097571
    vertex -2.5980762113533173 0.9999999999999999 48.51209667566814
  endloop
endfacet
facet normal 0.0 -1.0 0.0
  outer loop
    vertex -32.04293994002423 0.9999999999999999 56.26209667566813
    vertex -2.5980762113533173 0.9999999999999999 48.51209667566814
    vertex -2.1213203435596477 0.9999999999999999 49.13341701922779
  endloop
endfacet
facet normal 0.0 -1.0 0.0
  outer loop
    vertex -32.04293994002423 0.9999999999999999 56.26209667566813
    vertex -2.1213203435596477 0.9999999999999999 49.13341701922779
    vertex -1.5000000000000029 0.9999999999999999 49.610172887021456
  endloop
endfacet
facet normal 0.0 -1.0 0.0
  outer loop
    vertex -32.04293994002423 0.9999999999999999 56.26209667566813
    vertex -1.5000000000000029 0.9999999999999999 49.610172887021456
    vertex -0.776457135307574 0.9999999999999999 49.90987415453535
  endloop
endfacet
facet normal 0.0 -1.0 0.0
  outer loop
    vertex -32.04293994002423 0.9999999999999999 56.26209667566813
    vertex -0.776457135307574 0.9999999999999999 49.90987415453535
    vertex -5.639932965095795e-15 0.9999999999999999 50.01209667566814
  endloop
endfacet
facet normal 0.0 -1.0 0.0
  outer loop
    vertex -32.04293994002423 0.9999999999999999 56.26209667566813
    vertex -5.639932965095795e-15 0.9999999999999999 50.01209667566814
    vertex 32.04293994002424 0.9999999999999999 56.26209667566813
  endloop
endfacet
facet normal 0.0 -1.0 0.0
  outer loop
    vertex -32.04293994002423 0.9999999999999999 56.26209667566813
    vertex 32.04293994002424 0.9999999999999999 56.26209667566813
    vertex 26.16295090390225 0.9999999999999999 63.9250475795704
  endloop
endfacet
facet normal 0.0 -1.0 0.0
  outer loop
    vertex -32.04293994002423 0.9999999999999999 56.26209667566813
    vertex 26.16295090390225 0.9999999999999999 63.9250475795704
    vertex -26.162950903902267 0.9999999999999999 63.9250475795704
  endloop
endfacet
facet normal 0.0 -1.0 0.0
  outer loop
    vertex -26.162950903902267 0.9999999999999999 63.9250475795704
    vertex 26.16295090390225 0.9999999999999999 63.9250475795704
    vertex 18.499999999999982 0.9999999999999999 69.80503661569237
  endloop
endfacet
facet normal 0.0 -1.0 0.0
  outer loop
    vertex -26.162950903902267 0.9999999999999999 63.9250475795704
    vertex 18.499999999999982 0.9999999999999999 69.80503661569237
    vertex -18.500000000000007 0.9999999999999999 69.80503661569237
  endloop
endfacet
facet normal 0.0 -1.0 0.0
  outer loop
    vertex -18.500000000000007 0.9999999999999999 69.80503661569237
    vertex 18.499999999999982 0.9999999999999999 69.80503661569237
    vertex 9.576304668793247 0.9999999999999999 73.50135224836369
  endloop
endfacet
facet normal 0.0 -1.0 0.0
  outer loop
    vertex -18.500000000000007 0.9999999999999999 69.80503661569237
    vertex 9.576304668793247 0.9999999999999999 73.50135224836369
    vertex -9.57630466879328 0.9999999999999999 73.50135224836366
  endloop
endfacet
facet normal 0.0 -1.0 0.0
  outer loop
    vertex -9.57630466879328 0.9999999999999999 73.50135224836366
    vertex 9.576304668793247 0.9999999999999999 73.50135224836369
    vertex -1.127986593019159e-14 0.9999999999999999 74.76209667566815
  endloop
endfacet
facet normal 0.13052619222004458 0.0 0.9914448613738114
  outer loop
    vertex -5.639932965095795e-15 0.9999999999999999 44.012096675668154
    vertex -0.776457135307574 3.9999999999999996 44.11431919680094
    vertex -0.776457135307574 0.9999999999999999 44.11431919680094
  endloop
endfacet
facet normal 0.13052619222004458 0.0 0.9914448613738114
  outer loop
    vertex -0.776457135307574 3.9999999999999996 44.11431919680094
    vertex -5.639932965095795e-15 0.9999999999999999 44.012096675668154
    vertex -5.639932965095795e-15 3.9999999999999996 44.012096675668154
  endloop
endfacet
facet normal -0.6087614290087201 0.0 0.7933533402912355
  outer loop
    vertex -18.500000000000007 0.9999999999999999 69.80503661569237
    vertex -26.162950903902267 3.9999999999999996 63.9250475795704
    vertex -26.162950903902267 0.9999999999999999 63.9250475795704
  endloop
endfacet
facet normal -0.6087614290087201 0.0 0.7933533402912355
  outer loop
    vertex -26.162950903902267 3.9999999999999996 63.9250475795704
    vertex -18.500000000000007 0.9999999999999999 69.80503661569237
    vertex -18.500000000000007 3.9999999999999996 69.80503661569237
  endloop
endfacet
facet normal 0.9914448613738103 0.0 0.13052619222005235
  outer loop
    vertex 36.99999999999999 3.9999999999999996 37.76209667566815
    vertex 35.73925557269551 0.9999999999999999 47.33840134446142
    vertex 36.99999999999999 0.9999999999999999 37.76209667566815
  endloop
endfacet
facet normal 0.9914448613738103 0.0 0.13052619222005235
  outer loop
    vertex 35.73925557269551 0.9999999999999999 47.33840134446142
    vertex 36.99999999999999 3.9999999999999996 37.76209667566815
    vertex 35.73925557269551 3.9999999999999996 47.33840134446142
  endloop
endfacet
facet normal 0.1305261922200501 0.0 0.9914448613738107
  outer loop
    vertex 9.576304668793247 0.9999999999999999 73.50135224836369
    vertex -1.127986593019159e-14 3.9999999999999996 74.76209667566815
    vertex -1.127986593019159e-14 0.9999999999999999 74.76209667566815
  endloop
endfacet
facet normal 0.1305261922200501 0.0 0.9914448613738107
  outer loop
    vertex -1.127986593019159e-14 3.9999999999999996 74.76209667566815
    vertex 9.576304668793247 0.9999999999999999 73.50135224836369
    vertex 9.576304668793247 3.9999999999999996 73.50135224836369
  endloop
endfacet
facet normal -0.6087614290087243 0.0 -0.7933533402912325
  outer loop
    vertex 2.1213203435596366 3.9999999999999996 49.133417019227785
    vertex 1.4999999999999973 0.9999999999999999 49.610172887021456
    vertex 1.4999999999999973 3.9999999999999996 49.610172887021456
  endloop
endfacet
facet normal -0.6087614290087243 0.0 -0.7933533402912325
  outer loop
    vertex 1.4999999999999973 0.9999999999999999 49.610172887021456
    vertex 2.1213203435596366 3.9999999999999996 49.133417019227785
    vertex 2.1213203435596366 0.9999999999999999 49.133417019227785
  endloop
endfacet
facet normal -0.3826834323650929 0.0 -0.9238795325112854
  outer loop
    vertex 1.4999999999999973 3.9999999999999996 49.610172887021456
    vertex 0.7764571353075513 0.9999999999999999 49.90987415453535
    vertex 0.7764571353075513 3.9999999999999996 49.90987415453535
  endloop
endfacet
facet normal -0.3826834323650929 0.0 -0.9238795325112854
  outer loop
    vertex 0.7764571353075513 0.9999999999999999 49.90987415453535
    vertex 1.4999999999999973 3.9999999999999996 49.610172887021456
    vertex 1.4999999999999973 0.9999999999999999 49.610172887021456
  endloop
endfacet
facet normal -0.9914448613738105 0.0 0.13052619222005077
  outer loop
    vertex 2.9999999999999947 3.9999999999999996 47.01209667566815
    vertex 2.8977774788671993 0.9999999999999999 46.23563954036058
    vertex 2.9999999999999947 0.9999999999999999 47.01209667566815
  endloop
endfacet
facet normal -0.9914448613738105 0.0 0.13052619222005077
  outer loop
    vertex 2.8977774788671993 0.9999999999999999 46.23563954036058
    vertex 2.9999999999999947 3.9999999999999996 47.01209667566815
    vertex 2.8977774788671993 3.9999999999999996 46.23563954036058
  endloop
endfacet
facet normal 0.7933533402912413 0.0 -0.6087614290087127
  outer loop
    vertex -2.5980762113533173 3.9999999999999996 48.51209667566814
    vertex -2.1213203435596477 0.9999999999999999 49.13341701922779
    vertex -2.5980762113533173 0.9999999999999999 48.51209667566814
  endloop
endfacet
facet normal 0.7933533402912413 0.0 -0.6087614290087127
  outer loop
    vertex -2.1213203435596477 0.9999999999999999 49.13341701922779
    vertex -2.5980762113533173 3.9999999999999996 48.51209667566814
    vertex -2.1213203435596477 3.9999999999999996 49.13341701922779
  endloop
endfacet
facet normal 0.9238795325112878 0.0 0.382683432365087
  outer loop
    vertex -2.598076211353323 3.9999999999999996 45.51209667566815
    vertex -2.8977774788672104 0.9999999999999999 46.23563954036059
    vertex -2.598076211353323 0.9999999999999999 45.51209667566815
  endloop
endfacet
facet normal 0.9238795325112878 0.0 0.382683432365087
  outer loop
    vertex -2.8977774788672104 0.9999999999999999 46.23563954036059
    vertex -2.598076211353323 3.9999999999999996 45.51209667566815
    vertex -2.8977774788672104 3.9999999999999996 46.23563954036059
  endloop
endfacet
facet normal -0.13052619222005227 0.0 0.9914448613738103
  outer loop
    vertex -1.127986593019159e-14 0.9999999999999999 74.76209667566815
    vertex -9.57630466879328 3.9999999999999996 73.50135224836366
    vertex -9.57630466879328 0.9999999999999999 73.50135224836366
  endloop
endfacet
facet normal -0.13052619222005227 0.0 0.9914448613738103
  outer loop
    vertex -9.57630466879328 3.9999999999999996 73.50135224836366
    vertex -1.127986593019159e-14 0.9999999999999999 74.76209667566815
    vertex -1.127986593019159e-14 3.9999999999999996 74.76209667566815
  endloop
endfacet
facet normal 0.6087614290087195 0.0 0.7933533402912359
  outer loop
    vertex 26.16295090390225 0.9999999999999999 63.9250475795704
    vertex 18.499999999999982 3.9999999999999996 69.80503661569237
    vertex 18.499999999999982 0.9999999999999999 69.80503661569237
  endloop
endfacet
facet normal 0.6087614290087195 0.0 0.7933533402912359
  outer loop
    vertex 18.499999999999982 3.9999999999999996 69.80503661569237
    vertex 26.16295090390225 0.9999999999999999 63.9250475795704
    vertex 26.16295090390225 3.9999999999999996 63.9250475795704
  endloop
endfacet
facet normal -0.7933533402912325 0.0 -0.6087614290087243
  outer loop
    vertex 2.1213203435596366 3.9999999999999996 49.133417019227785
    vertex 2.598076211353312 0.9999999999999999 48.51209667566814
    vertex 2.1213203435596366 0.9999999999999999 49.133417019227785
  endloop
endfacet
facet normal -0.7933533402912325 0.0 -0.6087614290087243
  outer loop
    vertex 2.598076211353312 0.9999999999999999 48.51209667566814
    vertex 2.1213203435596366 3.9999999999999996 49.133417019227785
    vertex 2.598076211353312 3.9999999999999996 48.51209667566814
  endloop
endfacet
facet normal -0.38268343236509555 0.0 0.9238795325112844
  outer loop
    vertex 1.4999999999999916 0.9999999999999999 44.41402046431483
    vertex 0.7764571353075513 3.9999999999999996 44.11431919680094
    vertex 0.7764571353075513 0.9999999999999999 44.11431919680094
  endloop
endfacet
facet normal -0.38268343236509555 0.0 0.9238795325112844
  outer loop
    vertex 0.7764571353075513 3.9999999999999996 44.11431919680094
    vertex 1.4999999999999916 0.9999999999999999 44.41402046431483
    vertex 1.4999999999999916 3.9999999999999996 44.41402046431483
  endloop
endfacet
facet normal -0.38268343236509017 0.0 0.9238795325112865
  outer loop
    vertex -9.57630466879328 0.9999999999999999 73.50135224836366
    vertex -18.500000000000007 3.9999999999999996 69.80503661569237
    vertex -18.500000000000007 0.9999999999999999 69.80503661569237
  endloop
endfacet
facet normal -0.38268343236509017 0.0 0.9238795325112865
  outer loop
    vertex -18.500000000000007 3.9999999999999996 69.80503661569237
    vertex -9.57630466879328 0.9999999999999999 73.50135224836366
    vertex -9.57630466879328 3.9999999999999996 73.50135224836366
  endloop
endfacet
facet normal 0.7933533402912379 0.0 0.6087614290087172
  outer loop
    vertex -2.1213203435596477 3.9999999999999996 44.890776332108494
    vertex -2.598076211353323 0.9999999999999999 45.51209667566815
    vertex -2.1213203435596477 0.9999999999999999 44.890776332108494
  endloop
endfacet
facet normal 0.7933533402912379 0.0 0.6087614290087172
  outer loop
    vertex -2.598076211353323 0.9999999999999999 45.51209667566815
    vertex -2.1213203435596477 3.9999999999999996 44.890776332108494
    vertex -2.598076211353323 3.9999999999999996 45.51209667566815
  endloop
endfacet
facet normal 0.38268343236509583 0.0 0.9238795325112843
  outer loop
    vertex -0.776457135307574 0.9999999999999999 44.11431919680094
    vertex -1.5000000000000029 3.9999999999999996 44.41402046431483
    vertex -1.5000000000000029 0.9999999999999999 44.41402046431483
  endloop
endfacet
facet normal 0.38268343236509583 0.0 0.9238795325112843
  outer loop
    vertex -1.5000000000000029 3.9999999999999996 44.41402046431483
    vertex -0.776457135307574 0.9999999999999999 44.11431919680094
    vertex -0.776457135307574 3.9999999999999996 44.11431919680094
  endloop
endfacet
facet normal 0.7933533402912347 0.0 0.6087614290087212
  outer loop
    vertex 32.04293994002424 3.9999999999999996 56.26209667566813
    vertex 26.16295090390225 0.9999999999999999 63.9250475795704
    vertex 32.04293994002424 0.9999999999999999 56.26209667566813
  endloop
endfacet
facet normal 0.7933533402912347 0.0 0.6087614290087212
  outer loop
    vertex 26.16295090390225 0.9999999999999999 63.9250475795704
    vertex 32.04293994002424 3.9999999999999996 56.26209667566813
    vertex 26.16295090390225 3.9999999999999996 63.9250475795704
  endloop
endfacet
facet normal -0.6087614290087117 0.0 0.793353340291242
  outer loop
    vertex 2.1213203435596366 0.9999999999999999 44.890776332108494
    vertex 1.4999999999999916 3.9999999999999996 44.41402046431483
    vertex 1.4999999999999916 0.9999999999999999 44.41402046431483
  endloop
endfacet
facet normal -0.6087614290087117 0.0 0.793353340291242
  outer loop
    vertex 1.4999999999999916 3.9999999999999996 44.41402046431483
    vertex 2.1213203435596366 0.9999999999999999 44.890776332108494
    vertex 2.1213203435596366 3.9999999999999996 44.890776332108494
  endloop
endfacet
facet normal -0.923879532511286 0.0 0.38268343236509206
  outer loop
    vertex 2.8977774788671993 3.9999999999999996 46.23563954036058
    vertex 2.598076211353312 0.9999999999999999 45.51209667566815
    vertex 2.8977774788671993 0.9999999999999999 46.23563954036058
  endloop
endfacet
facet normal -0.923879532511286 0.0 0.38268343236509206
  outer loop
    vertex 2.598076211353312 0.9999999999999999 45.51209667566815
    vertex 2.8977774788671993 3.9999999999999996 46.23563954036058
    vertex 2.598076211353312 3.9999999999999996 45.51209667566815
  endloop
endfacet
facet normal -0.7933533402912358 0.0 0.6087614290087198
  outer loop
    vertex -26.162950903902267 3.9999999999999996 63.9250475795704
    vertex -32.04293994002423 0.9999999999999999 56.26209667566813
    vertex -26.162950903902267 0.9999999999999999 63.9250475795704
  endloop
endfacet
facet normal -0.7933533402912358 0.0 0.6087614290087198
  outer loop
    vertex -32.04293994002423 0.9999999999999999 56.26209667566813
    vertex -26.162950903902267 3.9999999999999996 63.9250475795704
    vertex -32.04293994002423 3.9999999999999996 56.26209667566813
  endloop
endfacet
facet normal -0.7933533402912379 0.0 0.6087614290087172
  outer loop
    vertex 2.598076211353312 3.9999999999999996 45.51209667566815
    vertex 2.1213203435596366 0.9999999999999999 44.890776332108494
    vertex 2.598076211353312 0.9999999999999999 45.51209667566815
  endloop
endfacet
facet normal -0.7933533402912379 0.0 0.6087614290087172
  outer loop
    vertex 2.1213203435596366 0.9999999999999999 44.890776332108494
    vertex 2.598076211353312 3.9999999999999996 45.51209667566815
    vertex 2.1213203435596366 3.9999999999999996 44.890776332108494
  endloop
endfacet
facet normal -0.9238795325112865 0.0 0.38268343236509017
  outer loop
    vertex -32.04293994002423 3.9999999999999996 56.26209667566813
    vertex -35.739255572695534 0.9999999999999999 47.33840134446142
    vertex -32.04293994002423 0.9999999999999999 56.26209667566813
  endloop
endfacet
facet normal -0.9238795325112865 0.0 0.38268343236509017
  outer loop
    vertex -35.739255572695534 0.9999999999999999 47.33840134446142
    vertex -32.04293994002423 3.9999999999999996 56.26209667566813
    vertex -35.739255572695534 3.9999999999999996 47.33840134446142
  endloop
endfacet
facet normal 0.9238795325112875 0.0 0.3826834323650882
  outer loop
    vertex 35.73925557269551 3.9999999999999996 47.33840134446142
    vertex 32.04293994002424 0.9999999999999999 56.26209667566813
    vertex 35.73925557269551 0.9999999999999999 47.33840134446142
  endloop
endfacet
facet normal 0.9238795325112875 0.0 0.3826834323650882
  outer loop
    vertex 32.04293994002424 0.9999999999999999 56.26209667566813
    vertex 35.73925557269551 3.9999999999999996 47.33840134446142
    vertex 32.04293994002424 3.9999999999999996 56.26209667566813
  endloop
endfacet
facet normal -0.9238795325112878 0.0 -0.382683432365087
  outer loop
    vertex 2.598076211353312 3.9999999999999996 48.51209667566814
    vertex 2.8977774788671993 0.9999999999999999 47.7885538109757
    vertex 2.598076211353312 0.9999999999999999 48.51209667566814
  endloop
endfacet
facet normal -0.9238795325112878 0.0 -0.382683432365087
  outer loop
    vertex 2.8977774788671993 0.9999999999999999 47.7885538109757
    vertex 2.598076211353312 3.9999999999999996 48.51209667566814
    vertex 2.8977774788671993 3.9999999999999996 47.7885538109757
  endloop
endfacet
facet normal -0.13052619222004463 0.0 -0.9914448613738114
  outer loop
    vertex 0.7764571353075513 3.9999999999999996 49.90987415453535
    vertex -5.639932965095795e-15 0.9999999999999999 50.01209667566814
    vertex -5.639932965095795e-15 3.9999999999999996 50.01209667566814
  endloop
endfacet
facet normal -0.13052619222004463 0.0 -0.9914448613738114
  outer loop
    vertex -5.639932965095795e-15 0.9999999999999999 50.01209667566814
    vertex 0.7764571353075513 3.9999999999999996 49.90987415453535
    vertex 0.7764571353075513 0.9999999999999999 49.90987415453535
  endloop
endfacet
facet normal 0.38268343236509195 0.0 0.923879532511286
  outer loop
    vertex 18.499999999999982 0.9999999999999999 69.80503661569237
    vertex 9.576304668793247 3.9999999999999996 73.50135224836369
    vertex 9.576304668793247 0.9999999999999999 73.50135224836369
  endloop
endfacet
facet normal 0.38268343236509195 0.0 0.923879532511286
  outer loop
    vertex 9.576304668793247 3.9999999999999996 73.50135224836369
    vertex 18.499999999999982 0.9999999999999999 69.80503661569237
    vertex 18.499999999999982 3.9999999999999996 69.80503661569237
  endloop
endfacet
facet normal -0.13052619222004463 0.0 0.9914448613738114
  outer loop
    vertex 0.7764571353075513 0.9999999999999999 44.11431919680094
    vertex -5.639932965095795e-15 3.9999999999999996 44.012096675668154
    vertex -5.639932965095795e-15 0.9999999999999999 44.012096675668154
  endloop
endfacet
facet normal -0.13052619222004463 0.0 0.9914448613738114
  outer loop
    vertex -5.639932965095795e-15 3.9999999999999996 44.012096675668154
    vertex 0.7764571353075513 0.9999999999999999 44.11431919680094
    vertex 0.7764571353075513 3.9999999999999996 44.11431919680094
  endloop
endfacet
facet normal -0.9914448613738103 0.0 -0.13052619222005263
  outer loop
    vertex 2.8977774788671993 3.9999999999999996 47.7885538109757
    vertex 2.9999999999999947 0.9999999999999999 47.01209667566815
    vertex 2.8977774788671993 0.9999999999999999 47.7885538109757
  endloop
endfacet
facet normal -0.9914448613738103 0.0 -0.13052619222005263
  outer loop
    vertex 2.9999999999999947 0.9999999999999999 47.01209667566815
    vertex 2.8977774788671993 3.9999999999999996 47.7885538109757
    vertex 2.9999999999999947 3.9999999999999996 47.01209667566815
  endloop
endfacet
facet normal 0.13052619222004458 0.0 -0.9914448613738114
  outer loop
    vertex -5.639932965095795e-15 3.9999999999999996 50.01209667566814
    vertex -0.776457135307574 0.9999999999999999 49.90987415453535
    vertex -0.776457135307574 3.9999999999999996 49.90987415453535
  endloop
endfacet
facet normal 0.13052619222004458 0.0 -0.9914448613738114
  outer loop
    vertex -0.776457135307574 0.9999999999999999 49.90987415453535
    vertex -5.639932965095795e-15 3.9999999999999996 50.01209667566814
    vertex -5.639932965095795e-15 0.9999999999999999 50.01209667566814
  endloop
endfacet
facet normal 0.3826834323650958 0.0 -0.9238795325112843
  outer loop
    vertex -0.776457135307574 3.9999999999999996 49.90987415453535
    vertex -1.5000000000000029 0.9999999999999999 49.610172887021456
    vertex -1.5000000000000029 3.9999999999999996 49.610172887021456
  endloop
endfacet
facet normal 0.3826834323650958 0.0 -0.9238795325112843
  outer loop
    vertex -1.5000000000000029 0.9999999999999999 49.610172887021456
    vertex -0.776457135307574 3.9999999999999996 49.90987415453535
    vertex -0.776457135307574 0.9999999999999999 49.90987415453535
  endloop
endfacet
facet normal 0.9238795325112833 0.0 -0.3826834323650983
  outer loop
    vertex -2.8977774788672104 3.9999999999999996 47.78855381097571
    vertex -2.5980762113533173 0.9999999999999999 48.51209667566814
    vertex -2.8977774788672104 0.9999999999999999 47.78855381097571
  endloop
endfacet
facet normal 0.9238795325112833 0.0 -0.3826834323650983
  outer loop
    vertex -2.5980762113533173 0.9999999999999999 48.51209667566814
    vertex -2.8977774788672104 3.9999999999999996 47.78855381097571
    vertex -2.5980762113533173 3.9999999999999996 48.51209667566814
  endloop
endfacet
facet normal 0.9914448613738105 0.0 -0.13052619222005077
  outer loop
    vertex -3.0000000000000058 3.9999999999999996 47.01209667566815
    vertex -2.8977774788672104 0.9999999999999999 47.78855381097571
    vertex -3.0000000000000058 0.9999999999999999 47.01209667566815
  endloop
endfacet
facet normal 0.9914448613738105 0.0 -0.13052619222005077
  outer loop
    vertex -2.8977774788672104 0.9999999999999999 47.78855381097571
    vertex -3.0000000000000058 3.9999999999999996 47.01209667566815
    vertex -2.8977774788672104 3.9999999999999996 47.78855381097571
  endloop
endfacet
facet normal 0.9914448613738103 0.0 0.13052619222005263
  outer loop
    vertex -2.8977774788672104 3.9999999999999996 46.23563954036059
    vertex -3.0000000000000058 0.9999999999999999 47.01209667566815
    vertex -2.8977774788672104 0.9999999999999999 46.23563954036059
  endloop
endfacet
facet normal 0.9914448613738103 0.0 0.13052619222005263
  outer loop
    vertex -3.0000000000000058 0.9999999999999999 47.01209667566815
    vertex -2.8977774788672104 3.9999999999999996 46.23563954036059
    vertex -3.0000000000000058 3.9999999999999996 47.01209667566815
  endloop
endfacet
facet normal 1.0 0.0 0.0
  outer loop
    vertex 36.99999999999999 3.9999999999999996 -16.0
    vertex 36.99999999999999 -50.0 -10.000000000000002
    vertex 36.99999999999999 -50.0 -16.0
  endloop
endfacet
facet normal 1.0 0.0 0.0
  outer loop
    vertex 36.99999999999999 -50.0 -10.000000000000002
    vertex 36.99999999999999 3.9999999999999996 -16.0
    vertex 36.99999999999999 0.9999999999999999 -10.000000000000002
  endloop
endfacet
facet normal 1.0 0.0 0.0
  outer loop
    vertex 36.99999999999999 0.9999999999999999 -10.000000000000002
    vertex 36.99999999999999 3.9999999999999996 -16.0
    vertex 36.99999999999999 0.9999999999999999 37.76209667566815
  endloop
endfacet
facet normal 1.0 0.0 0.0
  outer loop
    vertex 36.99999999999999 0.9999999999999999 37.76209667566815
    vertex 36.99999999999999 3.9999999999999996 -16.0
    vertex 36.99999999999999 3.9999999999999996 37.76209667566815
  endloop
endfacet
facet normal 0.6087614290087117 0.0 -0.793353340291242
  outer loop
    vertex -1.5000000000000029 3.9999999999999996 49.610172887021456
    vertex -2.1213203435596477 0.9999999999999999 49.13341701922779
    vertex -2.1213203435596477 3.9999999999999996 49.13341701922779
  endloop
endfacet
facet normal 0.6087614290087117 0.0 -0.793353340291242
  outer loop
    vertex -2.1213203435596477 0.9999999999999999 49.13341701922779
    vertex -1.5000000000000029 3.9999999999999996 49.610172887021456
    vertex -1.5000000000000029 0.9999999999999999 49.610172887021456
  endloop
endfacet
facet normal 0.6087614290087117 0.0 0.793353340291242
  outer loop
    vertex -1.5000000000000029 0.9999999999999999 44.41402046431483
    vertex -2.1213203435596477 3.9999999999999996 44.890776332108494
    vertex -2.1213203435596477 0.9999999999999999 44.890776332108494
  endloop
endfacet
facet normal 0.6087614290087117 0.0 0.793353340291242
  outer loop
    vertex -2.1213203435596477 3.9999999999999996 44.890776332108494
    vertex -1.5000000000000029 0.9999999999999999 44.41402046431483
    vertex -1.5000000000000029 3.9999999999999996 44.41402046431483
  endloop
endfacet
facet normal -0.9914448613738105 0.0 0.13052619222005127
  outer loop
    vertex -35.739255572695534 3.9999999999999996 47.33840134446142
    vertex -37.0 0.9999999999999999 37.76209667566815
    vertex -35.739255572695534 0.9999999999999999 47.33840134446142
  endloop
endfacet
facet normal -0.9914448613738105 0.0 0.13052619222005127
  outer loop
    vertex -37.0 0.9999999999999999 37.76209667566815
    vertex -35.739255572695534 3.9999999999999996 47.33840134446142
    vertex -37.0 3.9999999999999996 37.76209667566815
  endloop
endfacet
facet normal -1.0 3.938244522203574e-19 1.1396597949369254e-16
  outer loop
    vertex -37.0 3.9999999999999996 37.76209667566815
    vertex -37.00000000000001 0.9999999999999999 -10.0
    vertex -37.0 0.9999999999999999 37.76209667566815
  endloop
endfacet
facet normal -1.0 3.938244522203574e-19 1.1396597949369254e-16
  outer loop
    vertex -37.00000000000001 0.9999999999999999 -10.0
    vertex -37.00000000000001 -50.0 -16.0
    vertex -37.00000000000001 -50.0 -10.0
  endloop
endfacet
facet normal -1.0 3.938244522203574e-19 1.1396597949369254e-16
  outer loop
    vertex -37.00000000000001 -50.0 -16.0
    vertex -37.00000000000001 0.9999999999999999 -10.0
    vertex -37.00000000000001 3.9999999999999996 -16.0
  endloop
endfacet
facet normal -1.0 3.938244522203574e-19 1.1396597949369254e-16
  outer loop
    vertex -37.00000000000001 3.9999999999999996 -16.0
    vertex -37.00000000000001 0.9999999999999999 -10.0
    vertex -37.0 3.9999999999999996 37.76209667566815
  endloop
endfacet
facet normal 1.905382758478309e-17 0.0 1.0
  outer loop
    vertex -37.00000000000001 -50.0 -10.0
    vertex -3.054878677693113 -28.0548786776931 -10.000000000000002
    vertex -37.00000000000001 0.9999999999999999 -10.0
  endloop
endfacet
facet normal 1.905382758478309e-17 0.0 1.0
  outer loop
    vertex -3.054878677693113 -28.0548786776931 -10.000000000000002
    vertex -37.00000000000001 -50.0 -10.0
    vertex -2.1601254286989926 -28.741446993228152 -10.000000000000002
  endloop
endfacet
facet normal 1.905382758478309e-17 0.0 1.0
  outer loop
    vertex -2.1601254286989926 -28.741446993228152 -10.000000000000002
    vertex -37.00000000000001 -50.0 -10.0
    vertex 36.99999999999999 -50.0 -10.000000000000002
  endloop
endfacet
facet normal 1.905382758478309e-17 0.0 1.0
  outer loop
    vertex -37.00000000000001 0.9999999999999999 -10.0
    vertex -3.054878677693113 -28.0548786776931 -10.000000000000002
    vertex -3.7414469932281573 -27.160125428698993 -10.000000000000002
  endloop
endfacet
facet normal 1.905382758478309e-17 0.0 1.0
  outer loop
    vertex -37.00000000000001 0.9999999999999999 -10.0
    vertex -3.7414469932281573 -27.160125428698993 -10.000000000000002
    vertex -4.1730418792082045 -26.11816320151509 -10.000000000000002
  endloop
endfacet
facet normal 1.905382758478309e-17 0.0 1.0
  outer loop
    vertex -37.00000000000001 0.9999999999999999 -10.0
    vertex -4.1730418792082045 -26.11816320151509 -10.000000000000002
    vertex -4.32025085739798 -25.0 -10.000000000000002
  endloop
endfacet
facet normal 1.905382758478309e-17 0.0 1.0
  outer loop
    vertex -2.1601254286989926 -28.741446993228152 -10.000000000000002
    vertex 36.99999999999999 -50.0 -10.000000000000002
    vertex -1.1181632015150973 -29.1730418792082 -10.000000000000002
  endloop
endfacet
facet normal 1.905382758478309e-17 0.0 1.0
  outer loop
    vertex -1.1181632015150973 -29.1730418792082 -10.000000000000002
    vertex 36.99999999999999 -50.0 -10.000000000000002
    vertex -5.639932965095795e-15 -29.320250857397973 -10.000000000000002
  endloop
endfacet
facet normal 1.905382758478309e-17 0.0 1.0
  outer loop
    vertex -5.639932965095795e-15 -29.320250857397973 -10.000000000000002
    vertex 36.99999999999999 -50.0 -10.000000000000002
    vertex 1.1181632015150917 -29.1730418792082 -10.000000000000002
  endloop
endfacet
facet normal 1.905382758478309e-17 0.0 1.0
  outer loop
    vertex 1.1181632015150917 -29.1730418792082 -10.000000000000002
    vertex 36.99999999999999 -50.0 -10.000000000000002
    vertex 2.160125428698987 -28.741446993228152 -10.000000000000002
  endloop
endfacet
facet normal 1.905382758478309e-17 0.0 1.0
  outer loop
    vertex 2.160125428698987 -28.741446993228152 -10.000000000000002
    vertex 36.99999999999999 -50.0 -10.000000000000002
    vertex 3.0548786776931016 -28.0548786776931 -10.000000000000002
  endloop
endfacet
facet normal 1.905382758478309e-17 0.0 1.0
  outer loop
    vertex 3.0548786776931016 -28.0548786776931 -10.000000000000002
    vertex 36.99999999999999 -50.0 -10.000000000000002
    vertex 3.7414469932281462 -27.16012542869898 -10.000000000000002
  endloop
endfacet
facet normal 1.905382758478309e-17 0.0 1.0
  outer loop
    vertex 3.7414469932281462 -27.16012542869898 -10.000000000000002
    vertex 36.99999999999999 -50.0 -10.000000000000002
    vertex 4.173041879208193 -26.118163201515085 -10.000000000000002
  endloop
endfacet
facet normal 1.905382758478309e-17 0.0 1.0
  outer loop
    vertex 4.173041879208193 -26.118163201515085 -10.000000000000002
    vertex 36.99999999999999 -50.0 -10.000000000000002
    vertex 4.320250857397968 -25.0 -10.000000000000002
  endloop
endfacet
facet normal 1.905382758478309e-17 0.0 1.0
  outer loop
    vertex -37.00000000000001 0.9999999999999999 -10.0
    vertex -2.1601254286989984 -21.25855300677185 -10.000000000000002
    vertex 36.99999999999999 0.9999999999999999 -10.000000000000002
  endloop
endfacet
facet normal 1.905382758478309e-17 0.0 1.0
  outer loop
    vertex -2.1601254286989984 -21.25855300677185 -10.000000000000002
    vertex -37.00000000000001 0.9999999999999999 -10.0
    vertex -3.054878677693113 -21.945121322306896 -10.000000000000002
  endloop
endfacet
facet normal 1.905382758478309e-17 0.0 1.0
  outer loop
    vertex -3.054878677693113 -21.945121322306896 -10.000000000000002
    vertex -37.00000000000001 0.9999999999999999 -10.0
    vertex -3.7414469932281573 -22.839874571301014 -10.000000000000002
  endloop
endfacet
facet normal 1.905382758478309e-17 0.0 1.0
  outer loop
    vertex -3.7414469932281573 -22.839874571301014 -10.000000000000002
    vertex -37.00000000000001 0.9999999999999999 -10.0
    vertex -4.1730418792082045 -23.88183679848491 -10.000000000000002
  endloop
endfacet
facet normal 1.905382758478309e-17 0.0 1.0
  outer loop
    vertex -4.1730418792082045 -23.88183679848491 -10.000000000000002
    vertex -37.00000000000001 0.9999999999999999 -10.0
    vertex -4.32025085739798 -25.0 -10.000000000000002
  endloop
endfacet
facet normal 1.905382758478309e-17 0.0 1.0
  outer loop
    vertex 36.99999999999999 0.9999999999999999 -10.000000000000002
    vertex -2.1601254286989984 -21.25855300677185 -10.000000000000002
    vertex -1.1181632015150973 -20.826958120791804 -10.000000000000002
  endloop
endfacet
facet normal 1.905382758478309e-17 0.0 1.0
  outer loop
    vertex 36.99999999999999 0.9999999999999999 -10.000000000000002
    vertex -1.1181632015150973 -20.826958120791804 -10.000000000000002
    vertex -5.639932965095795e-15 -20.679749142602024 -10.000000000000002
  endloop
endfacet
facet normal 1.905382758478309e-17 0.0 1.0
  outer loop
    vertex 36.99999999999999 0.9999999999999999 -10.000000000000002
    vertex -5.639932965095795e-15 -20.679749142602024 -10.000000000000002
    vertex 1.118163201515086 -20.826958120791804 -10.000000000000002
  endloop
endfacet
facet normal 1.905382758478309e-17 0.0 1.0
  outer loop
    vertex 36.99999999999999 0.9999999999999999 -10.000000000000002
    vertex 1.118163201515086 -20.826958120791804 -10.000000000000002
    vertex 2.1601254286989815 -21.258553006771848 -10.000000000000002
  endloop
endfacet
facet normal 1.905382758478309e-17 0.0 1.0
  outer loop
    vertex 36.99999999999999 0.9999999999999999 -10.000000000000002
    vertex 2.1601254286989815 -21.258553006771848 -10.000000000000002
    vertex 3.0548786776930963 -21.945121322306893 -10.000000000000002
  endloop
endfacet
facet normal 1.905382758478309e-17 0.0 1.0
  outer loop
    vertex 36.99999999999999 0.9999999999999999 -10.000000000000002
    vertex 3.0548786776930963 -21.945121322306893 -10.000000000000002
    vertex 3.7414469932281462 -22.83987457130101 -10.000000000000002
  endloop
endfacet
facet normal 1.905382758478309e-17 0.0 1.0
  outer loop
    vertex 36.99999999999999 0.9999999999999999 -10.000000000000002
    vertex 3.7414469932281462 -22.83987457130101 -10.000000000000002
    vertex 4.173041879208188 -23.881836798484905 -10.000000000000002
  endloop
endfacet
facet normal 1.905382758478309e-17 0.0 1.0
  outer loop
    vertex 36.99999999999999 0.9999999999999999 -10.000000000000002
    vertex 4.173041879208188 -23.881836798484905 -10.000000000000002
    vertex 4.320250857397968 -25.0 -10.000000000000002
  endloop
endfacet
facet normal 1.905382758478309e-17 0.0 1.0
  outer loop
    vertex 36.99999999999999 0.9999999999999999 -10.000000000000002
    vertex 4.320250857397968 -25.0 -10.000000000000002
    vertex 36.99999999999999 -50.0 -10.000000000000002
  endloop
endfacet
facet normal 0.0 0.0 1.0
  outer loop
    vertex -4.1730418792082045 -26.11816320151509 -1.4099832412739487e-15
    vertex -4.1730418792082045 -23.88183679848491 -1.4099832412739487e-15
    vertex -4.32025085739798 -25.0 -1.4099832412739487e-15
  endloop
endfacet
facet normal 0.0 0.0 1.0
  outer loop
    vertex -4.1730418792082045 -23.88183679848491 -1.4099832412739487e-15
    vertex -4.1730418792082045 -26.11816320151509 -1.4099832412739487e-15
    vertex -3.7414469932281573 -27.160125428698993 -1.4099832412739487e-15
  endloop
endfacet
facet normal 0.0 0.0 1.0
  outer loop
    vertex -4.1730418792082045 -23.88183679848491 -1.4099832412739487e-15
    vertex -3.7414469932281573 -27.160125428698993 -1.4099832412739487e-15
    vertex -3.7414469932281573 -22.839874571301014 -1.4099832412739487e-15
  endloop
endfacet
facet normal 0.0 0.0 1.0
  outer loop
    vertex -3.7414469932281573 -22.839874571301014 -1.4099832412739487e-15
    vertex -3.7414469932281573 -27.160125428698993 -1.4099832412739487e-15
    vertex -3.054878677693113 -28.0548786776931 -1.4099832412739487e-15
  endloop
endfacet
facet normal 0.0 0.0 1.0
  outer loop
    vertex -3.7414469932281573 -22.839874571301014 -1.4099832412739487e-15
    vertex -3.054878677693113 -28.0548786776931 -1.4099832412739487e-15
    vertex -3.054878677693113 -21.945121322306896 -1.4099832412739487e-15
  endloop
endfacet
facet normal 0.0 0.0 1.0
  outer loop
    vertex -3.054878677693113 -21.945121322306896 -1.4099832412739487e-15
    vertex -3.054878677693113 -28.0548786776931 -1.4099832412739487e-15
    vertex -2.1601254286989926 -28.741446993228152 -1.4099832412739487e-15
  endloop
endfacet
facet normal 0.0 0.0 1.0
  outer loop
    vertex -3.054878677693113 -21.945121322306896 -1.4099832412739487e-15
    vertex -2.1601254286989926 -28.741446993228152 -1.4099832412739487e-15
    vertex -2.1601254286989984 -21.25855300677185 -1.4099832412739487e-15
  endloop
endfacet
facet normal 0.0 0.0 1.0
  outer loop
    vertex -2.1601254286989984 -21.25855300677185 -1.4099832412739487e-15
    vertex -2.1601254286989926 -28.741446993228152 -1.4099832412739487e-15
    vertex -1.1181632015150973 -20.826958120791804 -1.4099832412739487e-15
  endloop
endfacet
facet normal 0.0 0.0 1.0
  outer loop
    vertex -1.1181632015150973 -20.826958120791804 -1.4099832412739487e-15
    vertex -2.1601254286989926 -28.741446993228152 -1.4099832412739487e-15
    vertex -1.1181632015150973 -29.1730418792082 -1.4099832412739487e-15
  endloop
endfacet
facet normal 0.0 0.0 1.0
  outer loop
    vertex -1.1181632015150973 -20.826958120791804 -1.4099832412739487e-15
    vertex -1.1181632015150973 -29.1730418792082 -1.4099832412739487e-15
    vertex -5.639932965095795e-15 -29.320250857397973 -1.4099832412739487e-15
  endloop
endfacet
facet normal 0.0 0.0 1.0
  outer loop
    vertex -1.1181632015150973 -20.826958120791804 -1.4099832412739487e-15
    vertex -5.639932965095795e-15 -29.320250857397973 -1.4099832412739487e-15
    vertex -5.639932965095795e-15 -20.679749142602024 -1.4099832412739487e-15
  endloop
endfacet
facet normal 0.0 0.0 1.0
  outer loop
    vertex -5.639932965095795e-15 -20.679749142602024 -1.4099832412739487e-15
    vertex -5.639932965095795e-15 -29.320250857397973 -1.4099832412739487e-15
    vertex 1.1181632015150917 -29.1730418792082 -1.4099832412739487e-15
  endloop
endfacet
facet normal 0.0 0.0 1.0
  outer loop
    vertex -5.639932965095795e-15 -20.679749142602024 -1.4099832412739487e-15
    vertex 1.1181632015150917 -29.1730418792082 -1.4099832412739487e-15
    vertex 1.118163201515086 -20.826958120791804 -1.4099832412739487e-15
  endloop
endfacet
facet normal 0.0 0.0 1.0
  outer loop
    vertex 1.118163201515086 -20.826958120791804 -1.4099832412739487e-15
    vertex 1.1181632015150917 -29.1730418792082 -1.4099832412739487e-15
    vertex 2.1601254286989815 -21.258553006771848 -1.4099832412739487e-15
  endloop
endfacet
facet normal 0.0 0.0 1.0
  outer loop
    vertex 2.1601254286989815 -21.258553006771848 -1.4099832412739487e-15
    vertex 1.1181632015150917 -29.1730418792082 -1.4099832412739487e-15
    vertex 2.160125428698987 -28.741446993228152 -1.4099832412739487e-15
  endloop
endfacet
facet normal 0.0 0.0 1.0
  outer loop
    vertex 2.1601254286989815 -21.258553006771848 -1.4099832412739487e-15
    vertex 2.160125428698987 -28.741446993228152 -1.4099832412739487e-15
    vertex 3.0548786776930963 -21.945121322306893 -1.4099832412739487e-15
  endloop
endfacet
facet normal 0.0 0.0 1.0
  outer loop
    vertex 3.0548786776930963 -21.945121322306893 -1.4099832412739487e-15
    vertex 2.160125428698987 -28.741446993228152 -1.4099832412739487e-15
    vertex 3.0548786776931016 -28.0548786776931 -1.4099832412739487e-15
  endloop
endfacet
facet normal 0.0 0.0 1.0
  outer loop
    vertex 3.0548786776930963 -21.945121322306893 -1.4099832412739487e-15
    vertex 3.0548786776931016 -28.0548786776931 -1.4099832412739487e-15
    vertex 3.7414469932281462 -22.83987457130101 -1.4099832412739487e-15
  endloop
endfacet
facet normal 0.0 0.0 1.0
  outer loop
    vertex 3.7414469932281462 -22.83987457130101 -1.4099832412739487e-15
    vertex 3.0548786776931016 -28.0548786776931 -1.4099832412739487e-15
    vertex 3.7414469932281462 -27.16012542869898 -1.4099832412739487e-15
  endloop
endfacet
facet normal 0.0 0.0 1.0
  outer loop
    vertex 3.7414469932281462 -22.83987457130101 -1.4099832412739487e-15
    vertex 3.7414469932281462 -27.16012542869898 -1.4099832412739487e-15
    vertex 4.173041879208193 -26.118163201515085 -1.4099832412739487e-15
  endloop
endfacet
facet normal 0.0 0.0 1.0
  outer loop
    vertex 3.7414469932281462 -22.83987457130101 -1.4099832412739487e-15
    vertex 4.173041879208193 -26.118163201515085 -1.4099832412739487e-15
    vertex 4.173041879208188 -23.881836798484905 -1.4099832412739487e-15
  endloop
endfacet
facet normal 0.0 0.0 1.0
  outer loop
    vertex 4.173041879208188 -23.881836798484905 -1.4099832412739487e-15
    vertex 4.173041879208193 -26.118163201515085 -1.4099832412739487e-15
    vertex 4.320250857397968 -25.0 -1.4099832412739487e-15
  endloop
endfacet
facet normal -0.1305261922200469 -0.9914448613738112 0.0
  outer loop
    vertex -5.639932965095795e-15 -29.320250857397973 -1.4099832412739487e-15
    vertex -1.1181632015150973 -29.1730418792082 -10.000000000000002
    vertex -5.639932965095795e-15 -29.320250857397973 -10.000000000000002
  endloop
endfacet
facet normal -0.1305261922200469 -0.9914448613738112 0.0
  outer loop
    vertex -1.1181632015150973 -29.1730418792082 -10.000000000000002
    vertex -5.639932965095795e-15 -29.320250857397973 -1.4099832412739487e-15
    vertex -1.1181632015150973 -29.1730418792082 -1.4099832412739487e-15
  endloop
endfacet
facet normal 0.13052619222004627 -0.9914448613738112 0.0
  outer loop
    vertex 1.1181632015150917 -29.1730418792082 -1.4099832412739487e-15
    vertex -5.639932965095795e-15 -29.320250857397973 -10.000000000000002
    vertex 1.1181632015150917 -29.1730418792082 -10.000000000000002
  endloop
endfacet
facet normal 0.13052619222004627 -0.9914448613738112 0.0
  outer loop
    vertex -5.639932965095795e-15 -29.320250857397973 -10.000000000000002
    vertex 1.1181632015150917 -29.1730418792082 -1.4099832412739487e-15
    vertex -5.639932965095795e-15 -29.320250857397973 -1.4099832412739487e-15
  endloop
endfacet
facet normal 0.38268343236509106 -0.9238795325112862 0.0
  outer loop
    vertex 2.160125428698987 -28.741446993228152 -1.4099832412739487e-15
    vertex 1.1181632015150917 -29.1730418792082 -10.000000000000002
    vertex 2.160125428698987 -28.741446993228152 -10.000000000000002
  endloop
endfacet
facet normal 0.38268343236509106 -0.9238795325112862 0.0
  outer loop
    vertex 1.1181632015150917 -29.1730418792082 -10.000000000000002
    vertex 2.160125428698987 -28.741446993228152 -1.4099832412739487e-15
    vertex 1.1181632015150917 -29.1730418792082 -1.4099832412739487e-15
  endloop
endfacet
facet normal 0.6087614290087247 -0.7933533402912321 0.0
  outer loop
    vertex 3.0548786776931016 -28.0548786776931 -1.4099832412739487e-15
    vertex 2.160125428698987 -28.741446993228152 -10.000000000000002
    vertex 3.0548786776931016 -28.0548786776931 -10.000000000000002
  endloop
endfacet
facet normal 0.6087614290087247 -0.7933533402912321 0.0
  outer loop
    vertex 2.160125428698987 -28.741446993228152 -10.000000000000002
    vertex 3.0548786776931016 -28.0548786776931 -1.4099832412739487e-15
    vertex 2.160125428698987 -28.741446993228152 -1.4099832412739487e-15
  endloop
endfacet
facet normal 0.7933533402912363 -0.6087614290087191 0.0
  outer loop
    vertex 3.7414469932281462 -27.16012542869898 -10.000000000000002
    vertex 3.0548786776931016 -28.0548786776931 -1.4099832412739487e-15
    vertex 3.0548786776931016 -28.0548786776931 -10.000000000000002
  endloop
endfacet
facet normal 0.7933533402912363 -0.6087614290087191 0.0
  outer loop
    vertex 3.0548786776931016 -28.0548786776931 -1.4099832412739487e-15
    vertex 3.7414469932281462 -27.16012542869898 -10.000000000000002
    vertex 3.7414469932281462 -27.16012542869898 -1.4099832412739487e-15
  endloop
endfacet
facet normal 0.9238795325112862 -0.38268343236509106 0.0
  outer loop
    vertex 4.173041879208193 -26.118163201515085 -10.000000000000002
    vertex 3.7414469932281462 -27.16012542869898 -1.4099832412739487e-15
    vertex 3.7414469932281462 -27.16012542869898 -10.000000000000002
  endloop
endfacet
facet normal 0.9238795325112862 -0.38268343236509106 0.0
  outer loop
    vertex 3.7414469932281462 -27.16012542869898 -1.4099832412739487e-15
    vertex 4.173041879208193 -26.118163201515085 -10.000000000000002
    vertex 4.173041879208193 -26.118163201515085 -1.4099832412739487e-15
  endloop
endfacet
facet normal 0.9914448613738109 -0.13052619222004755 0.0
  outer loop
    vertex 4.320250857397968 -25.0 -10.000000000000002
    vertex 4.173041879208193 -26.118163201515085 -1.4099832412739487e-15
    vertex 4.173041879208193 -26.118163201515085 -10.000000000000002
  endloop
endfacet
facet normal 0.9914448613738109 -0.13052619222004755 0.0
  outer loop
    vertex 4.173041879208193 -26.118163201515085 -1.4099832412739487e-15
    vertex 4.320250857397968 -25.0 -10.000000000000002
    vertex 4.320250857397968 -25.0 -1.4099832412739487e-15
  endloop
endfacet
facet normal 0.9914448613738105 0.1305261922200515 7.304077323235046e-19
  outer loop
    vertex 4.173041879208188 -23.881836798484905 -10.000000000000002
    vertex 4.320250857397968 -25.0 -1.4099832412739487e-15
    vertex 4.320250857397968 -25.0 -10.000000000000002
  endloop
endfacet
facet normal 0.9914448613738105 0.1305261922200515 7.304077323235046e-19
  outer loop
    vertex 4.320250857397968 -25.0 -1.4099832412739487e-15
    vertex 4.173041879208188 -23.881836798484905 -10.000000000000002
    vertex 4.173041879208188 -23.881836798484905 -1.4099832412739487e-15
  endloop
endfacet
facet normal 0.9238795325112881 0.38268343236508684 0.0
  outer loop
    vertex 3.7414469932281462 -22.83987457130101 -10.000000000000002
    vertex 4.173041879208188 -23.881836798484905 -1.4099832412739487e-15
    vertex 4.173041879208188 -23.881836798484905 -10.000000000000002
  endloop
endfacet
facet normal 0.9238795325112881 0.38268343236508684 0.0
  outer loop
    vertex 4.173041879208188 -23.881836798484905 -1.4099832412739487e-15
    vertex 3.7414469932281462 -22.83987457130101 -10.000000000000002
    vertex 3.7414469932281462 -22.83987457130101 -1.4099832412739487e-15
  endloop
endfacet
facet normal 0.7933533402912331 0.6087614290087235 -1.7032752098470188e-18
  outer loop
    vertex 3.0548786776930963 -21.945121322306893 -10.000000000000002
    vertex 3.7414469932281462 -22.83987457130101 -1.4099832412739487e-15
    vertex 3.7414469932281462 -22.83987457130101 -10.000000000000002
  endloop
endfacet
facet normal 0.7933533402912331 0.6087614290087235 -1.7032752098470188e-18
  outer loop
    vertex 3.7414469932281462 -22.83987457130101 -1.4099832412739487e-15
    vertex 3.0548786776930963 -21.945121322306893 -10.000000000000002
    vertex 3.0548786776930963 -21.945121322306893 -1.4099832412739487e-15
  endloop
endfacet
facet normal 0.6087614290087217 0.7933533402912345 -6.30891312995351e-32
  outer loop
    vertex 2.1601254286989815 -21.258553006771848 -1.4099832412739487e-15
    vertex 3.0548786776930963 -21.945121322306893 -10.000000000000002
    vertex 2.1601254286989815 -21.258553006771848 -10.000000000000002
  endloop
endfacet
facet normal 0.6087614290087217 0.7933533402912345 -6.30891312995351e-32
  outer loop
    vertex 3.0548786776930963 -21.945121322306893 -10.000000000000002
    vertex 2.1601254286989815 -21.258553006771848 -1.4099832412739487e-15
    vertex 3.0548786776930963 -21.945121322306893 -1.4099832412739487e-15
  endloop
endfacet
facet normal 0.38268343236508895 0.9238795325112871 3.6734424733222294e-32
  outer loop
    vertex 1.118163201515086 -20.826958120791804 -1.4099832412739487e-15
    vertex 2.1601254286989815 -21.258553006771848 -10.000000000000002
    vertex 1.118163201515086 -20.826958120791804 -10.000000000000002
  endloop
endfacet
facet normal 0.38268343236508895 0.9238795325112871 3.6734424733222294e-32
  outer loop
    vertex 2.1601254286989815 -21.258553006771848 -10.000000000000002
    vertex 1.118163201515086 -20.826958120791804 -1.4099832412739487e-15
    vertex 2.1601254286989815 -21.258553006771848 -1.4099832412739487e-15
  endloop
endfacet
facet normal 0.13052619222005182 0.9914448613738105 0.0
  outer loop
    vertex -5.639932965095795e-15 -20.679749142602024 -1.4099832412739487e-15
    vertex 1.118163201515086 -20.826958120791804 -10.000000000000002
    vertex -5.639932965095795e-15 -20.679749142602024 -10.000000000000002
  endloop
endfacet
facet normal 0.13052619222005182 0.9914448613738105 0.0
  outer loop
    vertex 1.118163201515086 -20.826958120791804 -10.000000000000002
    vertex -5.639932965095795e-15 -20.679749142602024 -1.4099832412739487e-15
    vertex 1.118163201515086 -20.826958120791804 -1.4099832412739487e-15
  endloop
endfacet
facet normal -0.13052619222005182 0.9914448613738105 0.0
  outer loop
    vertex -1.1181632015150973 -20.826958120791804 -1.4099832412739487e-15
    vertex -5.639932965095795e-15 -20.679749142602024 -10.000000000000002
    vertex -1.1181632015150973 -20.826958120791804 -10.000000000000002
  endloop
endfacet
facet normal -0.13052619222005182 0.9914448613738105 0.0
  outer loop
    vertex -5.639932965095795e-15 -20.679749142602024 -10.000000000000002
    vertex -1.1181632015150973 -20.826958120791804 -1.4099832412739487e-15
    vertex -5.639932965095795e-15 -20.679749142602024 -1.4099832412739487e-15
  endloop
endfacet
facet normal -0.38268343236508934 0.9238795325112871 0.0
  outer loop
    vertex -2.1601254286989984 -21.25855300677185 -1.4099832412739487e-15
    vertex -1.1181632015150973 -20.826958120791804 -10.000000000000002
    vertex -2.1601254286989984 -21.25855300677185 -10.000000000000002
  endloop
endfacet
facet normal -0.38268343236508934 0.9238795325112871 0.0
  outer loop
    vertex -1.1181632015150973 -20.826958120791804 -10.000000000000002
    vertex -2.1601254286989984 -21.25855300677185 -1.4099832412739487e-15
    vertex -1.1181632015150973 -20.826958120791804 -1.4099832412739487e-15
  endloop
endfacet
facet normal -0.6087614290087217 0.7933533402912345 0.0
  outer loop
    vertex -3.054878677693113 -21.945121322306896 -1.4099832412739487e-15
    vertex -2.1601254286989984 -21.25855300677185 -10.000000000000002
    vertex -3.054878677693113 -21.945121322306896 -10.000000000000002
  endloop
endfacet
facet normal -0.6087614290087217 0.7933533402912345 0.0
  outer loop
    vertex -2.1601254286989984 -21.25855300677185 -10.000000000000002
    vertex -3.054878677693113 -21.945121322306896 -1.4099832412739487e-15
    vertex -2.1601254286989984 -21.25855300677185 -1.4099832412739487e-15
  endloop
endfacet
facet normal -0.7933533402912354 0.6087614290087203 1.70327520984701e-18
  outer loop
    vertex -3.054878677693113 -21.945121322306896 -1.4099832412739487e-15
    vertex -3.7414469932281573 -22.839874571301014 -10.000000000000002
    vertex -3.7414469932281573 -22.839874571301014 -1.4099832412739487e-15
  endloop
endfacet
facet normal -0.7933533402912354 0.6087614290087203 1.70327520984701e-18
  outer loop
    vertex -3.7414469932281573 -22.839874571301014 -10.000000000000002
    vertex -3.054878677693113 -21.945121322306896 -1.4099832412739487e-15
    vertex -3.054878677693113 -21.945121322306896 -10.000000000000002
  endloop
endfacet
facet normal -0.9238795325112862 0.38268343236509106 0.0
  outer loop
    vertex -3.7414469932281573 -22.839874571301014 -1.4099832412739487e-15
    vertex -4.1730418792082045 -23.88183679848491 -10.000000000000002
    vertex -4.1730418792082045 -23.88183679848491 -1.4099832412739487e-15
  endloop
endfacet
facet normal -0.9238795325112862 0.38268343236509106 0.0
  outer loop
    vertex -4.1730418792082045 -23.88183679848491 -10.000000000000002
    vertex -3.7414469932281573 -22.839874571301014 -1.4099832412739487e-15
    vertex -3.7414469932281573 -22.839874571301014 -10.000000000000002
  endloop
endfacet
facet normal -0.9914448613738112 0.13052619222004688 -7.30407732323484e-19
  outer loop
    vertex -4.1730418792082045 -23.88183679848491 -1.4099832412739487e-15
    vertex -4.32025085739798 -25.0 -10.000000000000002
    vertex -4.32025085739798 -25.0 -1.4099832412739487e-15
  endloop
endfacet
facet normal -0.9914448613738112 0.13052619222004688 -7.30407732323484e-19
  outer loop
    vertex -4.32025085739798 -25.0 -10.000000000000002
    vertex -4.1730418792082045 -23.88183679848491 -1.4099832412739487e-15
    vertex -4.1730418792082045 -23.88183679848491 -10.000000000000002
  endloop
endfacet
facet normal -0.9914448613738112 -0.1305261922200469 -7.304077323234841e-19
  outer loop
    vertex -4.32025085739798 -25.0 -1.4099832412739487e-15
    vertex -4.1730418792082045 -26.11816320151509 -10.000000000000002
    vertex -4.1730418792082045 -26.11816320151509 -1.4099832412739487e-15
  endloop
endfacet
facet normal -0.9914448613738112 -0.1305261922200469 -7.304077323234841e-19
  outer loop
    vertex -4.1730418792082045 -26.11816320151509 -10.000000000000002
    vertex -4.32025085739798 -25.0 -1.4099832412739487e-15
    vertex -4.32025085739798 -25.0 -10.000000000000002
  endloop
endfacet
facet normal -0.9238795325112871 -0.38268343236508934 -2.1414471170685305e-18
  outer loop
    vertex -4.1730418792082045 -26.11816320151509 -1.4099832412739487e-15
    vertex -3.7414469932281573 -27.160125428698993 -10.000000000000002
    vertex -3.7414469932281573 -27.160125428698993 -1.4099832412739487e-15
  endloop
endfacet
facet normal -0.9238795325112871 -0.38268343236508934 -2.1414471170685305e-18
  outer loop
    vertex -3.7414469932281573 -27.160125428698993 -10.000000000000002
    vertex -4.1730418792082045 -26.11816320151509 -1.4099832412739487e-15
    vertex -4.1730418792082045 -26.11816320151509 -10.000000000000002
  endloop
endfacet
facet normal -0.7933533402912326 -0.6087614290087239 0.0
  outer loop
    vertex -3.7414469932281573 -27.160125428698993 -1.4099832412739487e-15
    vertex -3.054878677693113 -28.0548786776931 -10.000000000000002
    vertex -3.054878677693113 -28.0548786776931 -1.4099832412739487e-15
  endloop
endfacet
facet normal -0.7933533402912326 -0.6087614290087239 0.0
  outer loop
    vertex -3.054878677693113 -28.0548786776931 -10.000000000000002
    vertex -3.7414469932281573 -27.160125428698993 -1.4099832412739487e-15
    vertex -3.7414469932281573 -27.160125428698993 -10.000000000000002
  endloop
endfacet
facet normal -0.6087614290087223 -0.7933533402912338 0.0
  outer loop
    vertex -2.1601254286989926 -28.741446993228152 -1.4099832412739487e-15
    vertex -3.054878677693113 -28.0548786776931 -10.000000000000002
    vertex -2.1601254286989926 -28.741446993228152 -10.000000000000002
  endloop
endfacet
facet normal -0.6087614290087223 -0.7933533402912338 0.0
  outer loop
    vertex -3.054878677693113 -28.0548786776931 -10.000000000000002
    vertex -2.1601254286989926 -28.741446993228152 -1.4099832412739487e-15
    vertex -3.054878677693113 -28.0548786776931 -1.4099832412739487e-15
  endloop
endfacet
facet normal -0.38268343236509106 -0.9238795325112862 0.0
  outer loop
    vertex -1.1181632015150973 -29.1730418792082 -1.4099832412739487e-15
    vertex -2.1601254286989926 -28.741446993228152 -10.000000000000002
    vertex -1.1181632015150973 -29.1730418792082 -10.000000000000002
  endloop
endfacet
facet normal -0.38268343236509106 -0.9238795325112862 0.0
  outer loop
    vertex -2.1601254286989926 -28.741446993228152 -10.000000000000002
    vertex -1.1181632015150973 -29.1730418792082 -1.4099832412739487e-15
    vertex -2.1601254286989926 -28.741446993228152 -1.4099832412739487e-15
  endloop
endfacet
facet normal 0.0 0.0 1.0
  outer loop
    vertex 36.99999999999999 -50.0 -16.0
    vertex -37.00000000000001 3.9999999999999996 -16.0
    vertex -37.00000000000001 -50.0 -16.0
  endloop
endfacet
facet normal 0.0 0.0 1.0
  outer loop
    vertex -37.00000000000001 3.9999999999999996 -16.0
    vertex 36.99999999999999 -50.0 -16.0
    vertex 36.99999999999999 3.9999999999999996 -16.0
  endloop
endfacet
facet normal -5.4720948325453396e-17 -1.0 -1.226647646119379e-15
  outer loop
    vertex 36.99999999999999 -50.0 -10.000000000000002
    vertex -37.00000000000001 -50.0 -16.0
    vertex 36.99999999999999 -50.0 -16.0
  endloop
endfacet
facet normal -5.4720948325453396e-17 -1.0 -1.226647646119379e-15
  outer loop
    vertex -37.00000000000001 -50.0 -16.0
    vertex 36.99999999999999 -50.0 -10.000000000000002
    vertex -37.00000000000001 -50.0 -10.0
  endloop
endfacet
facet normal 0.0 1.0 0.0
  outer loop
    vertex -37.0 3.9999999999999996 37.76209667566815
    vertex 36.99999999999999 3.9999999999999996 -16.0
    vertex -37.00000000000001 3.9999999999999996 -16.0
  endloop
endfacet
facet normal 0.0 1.0 0.0
  outer loop
    vertex 36.99999999999999 3.9999999999999996 -16.0
    vertex -37.0 3.9999999999999996 37.76209667566815
    vertex 36.99999999999999 3.9999999999999996 37.76209667566815
  endloop
endfacet
facet normal 0.0 1.0 0.0
  outer loop
    vertex 36.99999999999999 3.9999999999999996 37.76209667566815
    vertex -37.0 3.9999999999999996 37.76209667566815
    vertex -35.739255572695534 3.9999999999999996 47.33840134446142
  endloop
endfacet
facet normal 0.0 1.0 0.0
  outer loop
    vertex 36.99999999999999 3.9999999999999996 37.76209667566815
    vertex -35.739255572695534 3.9999999999999996 47.33840134446142
    vertex -5.639932965095795e-15 3.9999999999999996 44.012096675668154
  endloop
endfacet
facet normal 0.0 1.0 0.0
  outer loop
    vertex -5.639932965095795e-15 3.9999999999999996 44.012096675668154
    vertex -35.739255572695534 3.9999999999999996 47.33840134446142
    vertex -0.776457135307574 3.9999999999999996 44.11431919680094
  endloop
endfacet
facet normal 0.0 1.0 0.0
  outer loop
    vertex -0.776457135307574 3.9999999999999996 44.11431919680094
    vertex -35.739255572695534 3.9999999999999996 47.33840134446142
    vertex -1.5000000000000029 3.9999999999999996 44.41402046431483
  endloop
endfacet
facet normal 0.0 1.0 0.0
  outer loop
    vertex -1.5000000000000029 3.9999999999999996 44.41402046431483
    vertex -35.739255572695534 3.9999999999999996 47.33840134446142
    vertex -2.1213203435596477 3.9999999999999996 44.890776332108494
  endloop
endfacet
facet normal 0.0 1.0 0.0
  outer loop
    vertex -2.1213203435596477 3.9999999999999996 44.890776332108494
    vertex -35.739255572695534 3.9999999999999996 47.33840134446142
    vertex -2.598076211353323 3.9999999999999996 45.51209667566815
  endloop
endfacet
facet normal 0.0 1.0 0.0
  outer loop
    vertex -2.598076211353323 3.9999999999999996 45.51209667566815
    vertex -35.739255572695534 3.9999999999999996 47.33840134446142
    vertex -2.8977774788672104 3.9999999999999996 46.23563954036059
  endloop
endfacet
facet normal 0.0 1.0 0.0
  outer loop
    vertex -2.8977774788672104 3.9999999999999996 46.23563954036059
    vertex -35.739255572695534 3.9999999999999996 47.33840134446142
    vertex -3.0000000000000058 3.9999999999999996 47.01209667566815
  endloop
endfacet
facet normal 0.0 1.0 0.0
  outer loop
    vertex -3.0000000000000058 3.9999999999999996 47.01209667566815
    vertex -35.739255572695534 3.9999999999999996 47.33840134446142
    vertex -2.8977774788672104 3.9999999999999996 47.78855381097571
  endloop
endfacet
facet normal 0.0 1.0 0.0
  outer loop
    vertex -2.8977774788672104 3.9999999999999996 47.78855381097571
    vertex -35.739255572695534 3.9999999999999996 47.33840134446142
    vertex -32.04293994002423 3.9999999999999996 56.26209667566813
  endloop
endfacet
facet normal 0.0 1.0 0.0
  outer loop
    vertex -2.8977774788672104 3.9999999999999996 47.78855381097571
    vertex -32.04293994002423 3.9999999999999996 56.26209667566813
    vertex -2.5980762113533173 3.9999999999999996 48.51209667566814
  endloop
endfacet
facet normal 0.0 1.0 0.0
  outer loop
    vertex -2.5980762113533173 3.9999999999999996 48.51209667566814
    vertex -32.04293994002423 3.9999999999999996 56.26209667566813
    vertex -2.1213203435596477 3.9999999999999996 49.13341701922779
  endloop
endfacet
facet normal 0.0 1.0 0.0
  outer loop
    vertex -2.1213203435596477 3.9999999999999996 49.13341701922779
    vertex -32.04293994002423 3.9999999999999996 56.26209667566813
    vertex -1.5000000000000029 3.9999999999999996 49.610172887021456
  endloop
endfacet
facet normal 0.0 1.0 0.0
  outer loop
    vertex -1.5000000000000029 3.9999999999999996 49.610172887021456
    vertex -32.04293994002423 3.9999999999999996 56.26209667566813
    vertex -0.776457135307574 3.9999999999999996 49.90987415453535
  endloop
endfacet
facet normal 0.0 1.0 0.0
  outer loop
    vertex -0.776457135307574 3.9999999999999996 49.90987415453535
    vertex -32.04293994002423 3.9999999999999996 56.26209667566813
    vertex -5.639932965095795e-15 3.9999999999999996 50.01209667566814
  endloop
endfacet
facet normal 0.0 1.0 0.0
  outer loop
    vertex -5.639932965095795e-15 3.9999999999999996 44.012096675668154
    vertex 35.73925557269551 3.9999999999999996 47.33840134446142
    vertex 36.99999999999999 3.9999999999999996 37.76209667566815
  endloop
endfacet
facet normal 0.0 1.0 0.0
  outer loop
    vertex 35.73925557269551 3.9999999999999996 47.33840134446142
    vertex -5.639932965095795e-15 3.9999999999999996 44.012096675668154
    vertex 0.7764571353075513 3.9999999999999996 44.11431919680094
  endloop
endfacet
facet normal 0.0 1.0 0.0
  outer loop
    vertex 35.73925557269551 3.9999999999999996 47.33840134446142
    vertex 0.7764571353075513 3.9999999999999996 44.11431919680094
    vertex 1.4999999999999916 3.9999999999999996 44.41402046431483
  endloop
endfacet
facet normal 0.0 1.0 0.0
  outer loop
    vertex 35.73925557269551 3.9999999999999996 47.33840134446142
    vertex 1.4999999999999916 3.9999999999999996 44.41402046431483
    vertex 2.1213203435596366 3.9999999999999996 44.890776332108494
  endloop
endfacet
facet normal 0.0 1.0 0.0
  outer loop
    vertex 35.73925557269551 3.9999999999999996 47.33840134446142
    vertex 2.1213203435596366 3.9999999999999996 44.890776332108494
    vertex 2.598076211353312 3.9999999999999996 45.51209667566815
  endloop
endfacet
facet normal 0.0 1.0 0.0
  outer loop
    vertex 35.73925557269551 3.9999999999999996 47.33840134446142
    vertex 2.598076211353312 3.9999999999999996 45.51209667566815
    vertex 2.8977774788671993 3.9999999999999996 46.23563954036058
  endloop
endfacet
facet normal 0.0 1.0 0.0
  outer loop
    vertex 35.73925557269551 3.9999999999999996 47.33840134446142
    vertex 2.8977774788671993 3.9999999999999996 46.23563954036058
    vertex 2.9999999999999947 3.9999999999999996 47.01209667566815
  endloop
endfacet
facet normal 0.0 1.0 0.0
  outer loop
    vertex 35.73925557269551 3.9999999999999996 47.33840134446142
    vertex 2.9999999999999947 3.9999999999999996 47.01209667566815
    vertex 2.8977774788671993 3.9999999999999996 47.7885538109757
  endloop
endfacet
facet normal 0.0 1.0 0.0
  outer loop
    vertex 35.73925557269551 3.9999999999999996 47.33840134446142
    vertex 2.8977774788671993 3.9999999999999996 47.7885538109757
    vertex 32.04293994002424 3.9999999999999996 56.26209667566813
  endloop
endfacet
facet normal 0.0 1.0 0.0
  outer loop
    vertex 32.04293994002424 3.9999999999999996 56.26209667566813
    vertex 2.8977774788671993 3.9999999999999996 47.7885538109757
    vertex 2.598076211353312 3.9999999999999996 48.51209667566814
  endloop
endfacet
facet normal 0.0 1.0 0.0
  outer loop
    vertex 32.04293994002424 3.9999999999999996 56.26209667566813
    vertex 2.598076211353312 3.9999999999999996 48.51209667566814
    vertex 2.1213203435596366 3.9999999999999996 49.133417019227785
  endloop
endfacet
facet normal 0.0 1.0 0.0
  outer loop
    vertex 32.04293994002424 3.9999999999999996 56.26209667566813
    vertex 2.1213203435596366 3.9999999999999996 49.133417019227785
    vertex 1.4999999999999973 3.9999999999999996 49.610172887021456
  endloop
endfacet
facet normal 0.0 1.0 0.0
  outer loop
    vertex 32.04293994002424 3.9999999999999996 56.26209667566813
    vertex 1.4999999999999973 3.9999999999999996 49.610172887021456
    vertex 0.7764571353075513 3.9999999999999996 49.90987415453535
  endloop
endfacet
facet normal 0.0 1.0 0.0
  outer loop
    vertex 32.04293994002424 3.9999999999999996 56.26209667566813
    vertex 0.7764571353075513 3.9999999999999996 49.90987415453535
    vertex -5.639932965095795e-15 3.9999999999999996 50.01209667566814
  endloop
endfacet
facet normal 0.0 1.0 0.0
  outer loop
    vertex 32.04293994002424 3.9999999999999996 56.26209667566813
    vertex -5.639932965095795e-15 3.9999999999999996 50.01209667566814
    vertex -32.04293994002423 3.9999999999999996 56.26209667566813
  endloop
endfacet
facet normal 0.0 1.0 0.0
  outer loop
    vertex 32.04293994002424 3.9999999999999996 56.26209667566813
    vertex -32.04293994002423 3.9999999999999996 56.26209667566813
    vertex -26.162950903902267 3.9999999999999996 63.9250475795704
  endloop
endfacet
facet normal 0.0 1.0 0.0
  outer loop
    vertex 32.04293994002424 3.9999999999999996 56.26209667566813
    vertex -26.162950903902267 3.9999999999999996 63.9250475795704
    vertex 26.16295090390225 3.9999999999999996 63.9250475795704
  endloop
endfacet
facet normal 0.0 1.0 0.0
  outer loop
    vertex 26.16295090390225 3.9999999999999996 63.9250475795704
    vertex -26.162950903902267 3.9999999999999996 63.9250475795704
    vertex -18.500000000000007 3.9999999999999996 69.80503661569237
  endloop
endfacet
facet normal 0.0 1.0 0.0
  outer loop
    vertex 26.16295090390225 3.9999999999999996 63.9250475795704
    vertex -18.500000000000007 3.9999999999999996 69.80503661569237
    vertex 18.499999999999982 3.9999999999999996 69.80503661569237
  endloop
endfacet
facet normal 0.0 1.0 0.0
  outer loop
    vertex 18.499999999999982 3.9999999999999996 69.80503661569237
    vertex -18.500000000000007 3.9999999999999996 69.80503661569237
    vertex -9.57630466879328 3.9999999999999996 73.50135224836366
  endloop
endfacet
facet normal 0.0 1.0 0.0
  outer loop
    vertex 18.499999999999982 3.9999999999999996 69.80503661569237
    vertex -9.57630466879328 3.9999999999999996 73.50135224836366
    vertex 9.576304668793247 3.9999999999999996 73.50135224836369
  endloop
endfacet
facet normal 0.0 1.0 0.0
  outer loop
    vertex 9.576304668793247 3.9999999999999996 73.50135224836369
    vertex -9.57630466879328 3.9999999999999996 73.50135224836366
    vertex -1.127986593019159e-14 3.9999999999999996 74.76209667566815
  endloop
endfacet
endsolid box
