solid boitier_radiateur
facet normal 0.19509032200521623 -3.1566056667909944e-11 -0.9807852804054011
  outer loop
    vertex 88.19634422429782 57.08782054101979 -27.727648955498385
    vertex 87.17000140154583 60.087820541067686 -27.93180123619979
    vertex 88.1963442244544 60.08782054101978 -27.727648955563794
  endloop
endfacet
facet normal 0.19509032200521623 -3.1566056667909944e-11 -0.9807852804054011
  outer loop
    vertex 87.17000140154583 60.087820541067686 -27.93180123619979
    vertex 88.19634422429782 57.08782054101979 -27.727648955498385
    vertex 87.17000140138924 57.08782054106762 -27.93180123613438
  endloop
endfacet
facet normal 0.7518398074742795 -5.361793509228137e-11 -0.6593458151054259
  outer loop
    vertex 92.47261858534885 60.08782054085098 -24.870333777786094
    vertex 91.78264611245231 57.08782054087336 -25.657096595020732
    vertex 91.7826461126089 60.08782054087336 -25.6570965950862
  endloop
endfacet
facet normal 0.7518398074742795 -5.361793509228137e-11 -0.6593458151054259
  outer loop
    vertex 91.78264611245231 57.08782054087336 -25.657096595020732
    vertex 92.47261858534885 60.08782054085098 -24.870333777786094
    vertex 92.47261858519227 57.08782054085097 -24.870333777720717
  endloop
endfacet
facet normal 0.44228869021045275 -4.2639276936382596e-11 -0.8968727415369039
  outer loop
    vertex 90.1257918631971 57.08782054093637 -26.92844557560002
    vertex 89.1872593224103 60.08782054097591 -27.391278605402007
    vertex 90.12579186335367 60.08782054093636 -26.928445575665364
  endloop
endfacet
facet normal 0.44228869021045275 -4.2639276936382596e-11 -0.8968727415369039
  outer loop
    vertex 89.1872593224103 60.08782054097591 -27.391278605402007
    vertex 90.1257918631971 57.08782054093637 -26.92844557560002
    vertex 89.18725932225371 57.08782054097592 -27.391278605336662
  endloop
endfacet
facet normal 0.6593458150941095 -5.080669978833353e-11 -0.7518398074842036
  outer loop
    vertex 91.78264611245231 57.08782054087336 -25.657096595020732
    vertex 90.99588329529844 60.08782054090199 -26.347069067814314
    vertex 91.7826461126089 60.08782054087336 -25.6570965950862
  endloop
endfacet
facet normal 0.6593458150941095 -5.080669978833353e-11 -0.7518398074842036
  outer loop
    vertex 90.99588329529844 60.08782054090199 -26.347069067814314
    vertex 91.78264611245231 57.08782054087336 -25.657096595020732
    vertex 90.99588329514185 57.08782054090198 -26.347069067748908
  endloop
endfacet
facet normal 0.9807852804024649 -5.544615630011347e-11 -0.19509032201997742
  outer loop
    vertex 94.05735075363536 57.087820540829696 -21.044451883991975
    vertex 93.85319847314051 60.087820540824346 -22.070794706962893
    vertex 94.05735075379195 60.0878205408297 -21.044451884057384
  endloop
endfacet
facet normal 0.9807852804024649 -5.544615630011347e-11 -0.19509032201997742
  outer loop
    vertex 93.85319847314051 60.087820540824346 -22.070794706962893
    vertex 94.05735075363536 57.087820540829696 -21.044451883991975
    vertex 93.85319847298392 57.08782054082435 -22.070794706897484
  endloop
endfacet
facet normal 0.8968727415302417 -5.645571450066998e-11 -0.44228869022396267
  outer loop
    vertex 93.51682812296386 60.08782054082629 -23.061709804913683
    vertex 93.05399509305649 57.087820540835125 -24.000242345784716
    vertex 93.05399509321308 60.08782054083518 -24.00024234585009
  endloop
endfacet
facet normal 0.8968727415302417 -5.645571450066998e-11 -0.44228869022396267
  outer loop
    vertex 93.05399509305649 57.087820540835125 -24.000242345784716
    vertex 93.51682812296386 60.08782054082629 -23.061709804913683
    vertex 93.51682812280727 57.08782054082629 -23.061709804848306
  endloop
endfacet
facet normal 0.9469301294935852 -5.643373766743923e-11 -0.3214394653076406
  outer loop
    vertex 93.85319847314051 60.087820540824346 -22.070794706962893
    vertex 93.51682812280727 57.08782054082629 -23.061709804848306
    vertex 93.51682812296386 60.08782054082629 -23.061709804913683
  endloop
endfacet
facet normal 0.9469301294935852 -5.643373766743923e-11 -0.3214394653076406
  outer loop
    vertex 93.51682812280727 57.08782054082629 -23.061709804848306
    vertex 93.85319847314051 60.087820540824346 -22.070794706962893
    vertex 93.85319847298392 57.08782054082435 -22.070794706897484
  endloop
endfacet
facet normal -1.2293529666979106e-11 -2.5206454418513127e-11 -1.0
  outer loop
    vertex 39.48279916289145 57.08782054290062 -28.000242344542187
    vertex 39.48279916298733 58.51208461238653 -28.000242344572616
    vertex 86.12579186378412 57.08782054111835 -28.000242345121205
  endloop
endfacet
facet normal -1.2293529666979106e-11 -2.5206454418513127e-11 -1.0
  outer loop
    vertex 86.12579186378412 57.08782054111835 -28.000242345121205
    vertex 37.607063231810535 60.08782054353582 -28.000242344611046
    vertex 86.1257918639407 60.087820541118354 -28.000242345186614
  endloop
endfacet
facet normal -1.2293529666979106e-11 -2.5206454418513127e-11 -1.0
  outer loop
    vertex 37.607063231810535 60.08782054353582 -28.000242344611046
    vertex 86.12579186378412 57.08782054111835 -28.000242345121205
    vertex 39.48279916298733 58.51208461238653 -28.000242344572616
  endloop
endfacet
facet normal -1.2293529666979106e-11 -2.5206454418513127e-11 -1.0
  outer loop
    vertex 37.607063231810535 60.08782054353582 -28.000242344611046
    vertex 39.48279916298733 58.51208461238653 -28.000242344572616
    vertex 39.18279916298967 58.51208461239806 -28.000242344570445
  endloop
endfacet
facet normal 0.3214394652933728 -3.7422821898511775e-11 -0.9469301294984285
  outer loop
    vertex 89.18725932225371 57.08782054097592 -27.391278605336662
    vertex 88.1963442244544 60.08782054101978 -27.727648955563794
    vertex 89.1872593224103 60.08782054097591 -27.391278605402007
  endloop
endfacet
facet normal 0.3214394652933728 -3.7422821898511775e-11 -0.9469301294984285
  outer loop
    vertex 88.1963442244544 60.08782054101978 -27.727648955563794
    vertex 89.18725932225371 57.08782054097592 -27.391278605336662
    vertex 88.19634422429782 57.08782054101979 -27.727648955498385
  endloop
endfacet
facet normal 0.555570233012342 -4.712616403336338e-11 -0.8314696123073965
  outer loop
    vertex 90.99588329514185 57.08782054090198 -26.347069067748908
    vertex 90.12579186335367 60.08782054093636 -26.928445575665364
    vertex 90.99588329529844 60.08782054090199 -26.347069067814314
  endloop
endfacet
facet normal 0.555570233012342 -4.712616403336338e-11 -0.8314696123073965
  outer loop
    vertex 90.12579186335367 60.08782054093636 -26.928445575665364
    vertex 90.99588329514185 57.08782054090198 -26.347069067748908
    vertex 90.1257918631971 57.08782054093637 -26.92844557560002
  endloop
endfacet
facet normal 0.06540312921823643 -2.5169183886905475e-11 -0.9978589232393839
  outer loop
    vertex 87.17000140138924 57.08782054106762 -27.93180123613438
    vertex 86.1257918639407 60.087820541118354 -28.000242345186614
    vertex 87.17000140154583 60.087820541067686 -27.93180123619979
  endloop
endfacet
facet normal 0.06540312921823643 -2.5169183886905475e-11 -0.9978589232393839
  outer loop
    vertex 86.1257918639407 60.087820541118354 -28.000242345186614
    vertex 87.17000140138924 57.08782054106762 -27.93180123613438
    vertex 86.12579186378412 57.08782054111835 -28.000242345121205
  endloop
endfacet
facet normal 0.8314696122990277 -5.5511737039796634e-11 -0.5555702330248665
  outer loop
    vertex 93.05399509321308 60.08782054083518 -24.00024234585009
    vertex 92.47261858519227 57.08782054085097 -24.870333777720717
    vertex 92.47261858534885 60.08782054085098 -24.870333777786094
  endloop
endfacet
facet normal 0.8314696122990277 -5.5511737039796634e-11 -0.5555702330248665
  outer loop
    vertex 92.47261858519227 57.08782054085097 -24.870333777720717
    vertex 93.05399509321308 60.08782054083518 -24.00024234585009
    vertex 93.05399509305649 57.087820540835125 -24.000242345784716
  endloop
endfacet
facet normal 0.9978589232383989 -5.3509871110533406e-11 -0.06540312923326808
  outer loop
    vertex 94.12579186263791 57.08782054084191 -20.00024234638789
    vertex 94.05735075379195 60.0878205408297 -21.044451884057384
    vertex 94.1257918627945 60.08782054084191 -20.000242346453298
  endloop
endfacet
facet normal 0.9978589232383989 -5.3509871110533406e-11 -0.06540312923326808
  outer loop
    vertex 94.05735075379195 60.0878205408297 -21.044451884057384
    vertex 94.12579186263791 57.08782054084191 -20.00024234638789
    vertex 94.05735075363536 57.087820540829696 -21.044451883991975
  endloop
endfacet
facet normal -2.0862409322559867e-12 2.3678672202054563e-11 1.0
  outer loop
    vertex 37.607063231710214 60.08782054467221 19.999757655388958
    vertex 39.482799162889336 58.512084613518816 19.99975765543018
    vertex 39.482799162971574 60.08782054470438 19.99975765539287
  endloop
endfacet
facet normal -2.0862409322559867e-12 2.3678672202054563e-11 1.0
  outer loop
    vertex 39.482799162889336 58.512084613518816 19.99975765543018
    vertex 37.607063231710214 60.08782054467221 19.999757655388958
    vertex 39.18279916288934 58.51208461353445 19.99975765542956
  endloop
endfacet
facet normal 3.1755234970841447e-10 1.0 3.433993343465683e-10
  outer loop
    vertex 37.607063231810535 60.08782054353582 -28.000242344611046
    vertex 87.17000140154583 60.087820541067686 -27.93180123619979
    vertex 86.1257918639407 60.087820541118354 -28.000242345186614
  endloop
endfacet
facet normal 3.1755234970841447e-10 1.0 3.433993343465683e-10
  outer loop
    vertex 87.17000140154583 60.087820541067686 -27.93180123619979
    vertex 37.607063231810535 60.08782054353582 -28.000242344611046
    vertex 37.607063231710214 60.08782054467221 19.999757655388958
  endloop
endfacet
facet normal 3.1755234970841447e-10 1.0 3.433993343465683e-10
  outer loop
    vertex 87.17000140154583 60.087820541067686 -27.93180123619979
    vertex 37.607063231710214 60.08782054467221 19.999757655388958
    vertex 88.1963442244544 60.08782054101978 -27.727648955563794
  endloop
endfacet
facet normal 3.1755234970841447e-10 1.0 3.433993343465683e-10
  outer loop
    vertex 88.1963442244544 60.08782054101978 -27.727648955563794
    vertex 37.607063231710214 60.08782054467221 19.999757655388958
    vertex 89.1872593224103 60.08782054097591 -27.391278605402007
  endloop
endfacet
facet normal 3.1755234970841447e-10 1.0 3.433993343465683e-10
  outer loop
    vertex 89.1872593224103 60.08782054097591 -27.391278605402007
    vertex 37.607063231710214 60.08782054467221 19.999757655388958
    vertex 90.12579186335367 60.08782054093636 -26.928445575665364
  endloop
endfacet
facet normal 3.1755234970841447e-10 1.0 3.433993343465683e-10
  outer loop
    vertex 90.12579186335367 60.08782054093636 -26.928445575665364
    vertex 37.607063231710214 60.08782054467221 19.999757655388958
    vertex 90.99588329529844 60.08782054090199 -26.347069067814314
  endloop
endfacet
facet normal 3.1755234970841447e-10 1.0 3.433993343465683e-10
  outer loop
    vertex 90.99588329529844 60.08782054090199 -26.347069067814314
    vertex 37.607063231710214 60.08782054467221 19.999757655388958
    vertex 91.7826461126089 60.08782054087336 -25.6570965950862
  endloop
endfacet
facet normal 3.1755234970841447e-10 1.0 3.433993343465683e-10
  outer loop
    vertex 91.7826461126089 60.08782054087336 -25.6570965950862
    vertex 37.607063231710214 60.08782054467221 19.999757655388958
    vertex 92.47261858534885 60.08782054085098 -24.870333777786094
  endloop
endfacet
facet normal 3.1755234970841447e-10 1.0 3.433993343465683e-10
  outer loop
    vertex 92.47261858534885 60.08782054085098 -24.870333777786094
    vertex 37.607063231710214 60.08782054467221 19.999757655388958
    vertex 93.05399509321308 60.08782054083518 -24.00024234585009
  endloop
endfacet
facet normal 3.1755234970841447e-10 1.0 3.433993343465683e-10
  outer loop
    vertex 93.05399509321308 60.08782054083518 -24.00024234585009
    vertex 37.607063231710214 60.08782054467221 19.999757655388958
    vertex 93.51682812296386 60.08782054082629 -23.061709804913683
  endloop
endfacet
facet normal 3.1755234970841447e-10 1.0 3.433993343465683e-10
  outer loop
    vertex 93.51682812296386 60.08782054082629 -23.061709804913683
    vertex 37.607063231710214 60.08782054467221 19.999757655388958
    vertex 93.85319847314051 60.087820540824346 -22.070794706962893
  endloop
endfacet
facet normal 3.1755234970841447e-10 1.0 3.433993343465683e-10
  outer loop
    vertex 93.85319847314051 60.087820540824346 -22.070794706962893
    vertex 37.607063231710214 60.08782054467221 19.999757655388958
    vertex 94.05735075379195 60.0878205408297 -21.044451884057384
  endloop
endfacet
facet normal 3.1755234970841447e-10 1.0 3.433993343465683e-10
  outer loop
    vertex 94.05735075379195 60.0878205408297 -21.044451884057384
    vertex 37.607063231710214 60.08782054467221 19.999757655388958
    vertex 92.70152779506 60.087820540899116 -20.00024234588407
  endloop
endfacet
facet normal 3.1755234970841447e-10 1.0 3.433993343465683e-10
  outer loop
    vertex 94.05735075379195 60.0878205408297 -21.044451884057384
    vertex 92.70152779506 60.087820540899116 -20.00024234588407
    vertex 94.1257918627945 60.08782054084191 -20.000242346453298
  endloop
endfacet
facet normal 3.1755234970841447e-10 1.0 3.433993343465683e-10
  outer loop
    vertex 92.70152779506 60.087820540899116 -20.00024234588407
    vertex 37.607063231710214 60.08782054467221 19.999757655388958
    vertex 90.82579187715774 60.087820573645395 9.999757657452315
  endloop
endfacet
facet normal 3.1755234970841447e-10 1.0 3.433993343465683e-10
  outer loop
    vertex 92.70152779506 60.087820540899116 -20.00024234588407
    vertex 90.82579187715774 60.087820573645395 9.999757657452315
    vertex 92.70152780686173 60.08782054164222 9.999757654115907
  endloop
endfacet
facet normal 3.1755234970841447e-10 1.0 3.433993343465683e-10
  outer loop
    vertex 90.82579187715774 60.087820573645395 9.999757657452315
    vertex 37.607063231710214 60.08782054467221 19.999757655388958
    vertex 90.82579187856658 60.087820564049856 11.552855008050457
  endloop
endfacet
facet normal 3.1755234970841447e-10 1.0 3.433993343465683e-10
  outer loop
    vertex 90.82579187856658 60.087820564049856 11.552855008050457
    vertex 37.607063231710214 60.08782054467221 19.999757655388958
    vertex 90.77887673724963 60.087820512999215 12.845988624053044
  endloop
endfacet
facet normal 3.1755234970841447e-10 1.0 3.433993343465683e-10
  outer loop
    vertex 90.77887673724963 60.087820512999215 12.845988624053044
    vertex 37.607063231710214 60.08782054467221 19.999757655388958
    vertex 90.56033766184619 60.087820514876185 14.121385132000809
  endloop
endfacet
facet normal 3.1755234970841447e-10 1.0 3.433993343465683e-10
  outer loop
    vertex 90.56033766184619 60.087820514876185 14.121385132000809
    vertex 37.607063231710214 60.08782054467221 19.999757655388958
    vertex 90.17406009374494 60.087820516586824 15.356369026772454
  endloop
endfacet
facet normal 3.1755234970841447e-10 1.0 3.433993343465683e-10
  outer loop
    vertex 90.17406009374494 60.087820516586824 15.356369026772454
    vertex 37.607063231710214 60.08782054467221 19.999757655388958
    vertex 89.62691173155034 60.08782051810071 16.52898330679436
  endloop
endfacet
facet normal 3.1755234970841447e-10 1.0 3.433993343465683e-10
  outer loop
    vertex 89.62691173155034 60.08782051810071 16.52898330679436
    vertex 37.607063231710214 60.08782054467221 19.999757655388958
    vertex 88.92862042475139 60.08782051939089 17.618379851130975
  endloop
endfacet
facet normal 3.1755234970841447e-10 1.0 3.433993343465683e-10
  outer loop
    vertex 88.92862042475139 60.08782051939089 17.618379851130975
    vertex 37.607063231710214 60.08782054467221 19.999757655388958
    vertex 88.09160122052978 60.087820520434654 18.605190081989853
  endloop
endfacet
facet normal 3.1755234970841447e-10 1.0 3.433993343465683e-10
  outer loop
    vertex 88.09160122052978 60.087820520434654 18.605190081989853
    vertex 37.607063231710214 60.08782054467221 19.999757655388958
    vertex 87.13073563439521 60.08782052121319 19.47186932216224
  endloop
endfacet
facet normal 3.1755234970841447e-10 1.0 3.433993343465683e-10
  outer loop
    vertex 87.13073563439521 60.08782052121319 19.47186932216224
    vertex 37.607063231710214 60.08782054467221 19.999757655388958
    vertex 39.482799162971574 60.08782054470438 19.99975765539287
  endloop
endfacet
facet normal 3.1755234970841447e-10 1.0 3.433993343465683e-10
  outer loop
    vertex 87.13073563439521 60.08782052121319 19.47186932216224
    vertex 39.482799162971574 60.08782054470438 19.99975765539287
    vertex 86.063107069035 60.087820521712736 20.203008725005812
  endloop
endfacet
facet normal 3.1755234970841447e-10 1.0 3.433993343465683e-10
  outer loop
    vertex 86.063107069035 60.087820521712736 20.203008725005812
    vertex 39.482799162971574 60.08782054470438 19.99975765539287
    vertex 39.482799164650785 60.087820576728156 21.552855005982767
  endloop
endfacet
facet normal 3.1755234970841447e-10 1.0 3.433993343465683e-10
  outer loop
    vertex 86.063107069035 60.087820521712736 20.203008725005812
    vertex 39.482799164650785 60.087820576728156 21.552855005982767
    vertex 84.90769708541436 60.087820521924385 20.785609231110357
  endloop
endfacet
facet normal 3.1755234970841447e-10 1.0 3.433993343465683e-10
  outer loop
    vertex 84.90769708541436 60.087820521924385 20.785609231110357
    vertex 39.482799164650785 60.087820576728156 21.552855005982767
    vertex 83.68504792617782 60.087820521844435 21.209312680921357
  endloop
endfacet
facet normal 3.1755234970841447e-10 1.0 3.433993343465683e-10
  outer loop
    vertex 83.68504792617782 60.087820521844435 21.209312680921357
    vertex 39.482799164650785 60.087820576728156 21.552855005982767
    vertex 82.41689729140957 60.08782052147428 21.46658597432825
  endloop
endfacet
facet normal 3.1755234970841447e-10 1.0 3.433993343465683e-10
  outer loop
    vertex 82.41689729140957 60.08782052147428 21.46658597432825
    vertex 39.482799164650785 60.087820576728156 21.552855005982767
    vertex 81.12579186265249 60.087820477051096 21.55285500338323
  endloop
endfacet
facet normal -0.7071067811772654 -0.7071067811958296 1.52631216163236e-11
  outer loop
    vertex 39.18279916298967 58.51208461239806 -28.000242344570445
    vertex 37.607063231710214 60.08782054467221 19.999757655388958
    vertex 37.607063231810535 60.08782054353582 -28.000242344611046
  endloop
endfacet
facet normal -0.7071067811772654 -0.7071067811958296 1.52631216163236e-11
  outer loop
    vertex 37.607063231710214 60.08782054467221 19.999757655388958
    vertex 39.18279916298967 58.51208461239806 -28.000242344570445
    vertex 39.18279916288934 58.51208461353445 19.99975765542956
  endloop
endfacet
facet normal 3.954643527483255e-10 1.808866733380465e-11 1.0
  outer loop
    vertex 92.70152779506 60.087820540899116 -20.00024234588407
    vertex 94.12579186263791 57.08782054084191 -20.00024234638789
    vertex 94.1257918627945 60.08782054084191 -20.000242346453298
  endloop
endfacet
facet normal 3.954643527483255e-10 1.808866733380465e-11 1.0
  outer loop
    vertex 94.12579186263791 57.08782054084191 -20.00024234638789
    vertex 92.70152779506 60.087820540899116 -20.00024234588407
    vertex 90.82579187549408 57.087820540376164 -20.000242345107512
  endloop
endfacet
facet normal 3.954643527483255e-10 1.808866733380465e-11 1.0
  outer loop
    vertex 90.82579187549408 57.087820540376164 -20.000242345107512
    vertex 92.70152779506 60.087820540899116 -20.00024234588407
    vertex 91.12579186369224 58.512084609676904 -20.000242345225175
  endloop
endfacet
facet normal 3.954643527483255e-10 1.808866733380465e-11 1.0
  outer loop
    vertex 90.82579187549408 57.087820540376164 -20.000242345107512
    vertex 91.12579186369224 58.512084609676904 -20.000242345225175
    vertex 90.82579186369225 58.512084609692565 -20.00024234510716
  endloop
endfacet
facet normal 3.3953874723460463e-10 -7.862998587136762e-10 1.0
  outer loop
    vertex 90.82579187715774 60.087820573645395 9.999757657452315
    vertex 91.12579187549397 58.51208461042001 9.99975765477483
    vertex 92.70152780686173 60.08782054164222 9.999757654115907
  endloop
endfacet
facet normal 3.3953874723460463e-10 -7.862998587136762e-10 1.0
  outer loop
    vertex 91.12579187549397 58.51208461042001 9.99975765477483
    vertex 90.82579187715774 60.087820573645395 9.999757657452315
    vertex 90.82579187549396 58.51208461043567 9.999757654892841
  endloop
endfacet
facet normal 0.7071067811538888 -0.7071067812192063 -2.60656437746119e-10
  outer loop
    vertex 92.70152780686173 60.08782054164222 9.999757654115907
    vertex 91.12579186369224 58.512084609676904 -20.000242345225175
    vertex 92.70152779506 60.087820540899116 -20.00024234588407
  endloop
endfacet
facet normal 0.7071067811538888 -0.7071067812192063 -2.60656437746119e-10
  outer loop
    vertex 91.12579186369224 58.512084609676904 -20.000242345225175
    vertex 92.70152780686173 60.08782054164222 9.999757654115907
    vertex 91.12579187549397 58.51208461042001 9.99975765477483
  endloop
endfacet
facet normal -4.526986193331183e-11 -1.0 2.3632729106898443e-11
  outer loop
    vertex 39.482799162889336 58.512084613518816 19.99975765543018
    vertex 39.18279916298967 58.51208461239806 -28.000242344570445
    vertex 39.48279916298733 58.51208461238653 -28.000242344572616
  endloop
endfacet
facet normal -4.526986193331183e-11 -1.0 2.3632729106898443e-11
  outer loop
    vertex 39.18279916298967 58.51208461239806 -28.000242344570445
    vertex 39.482799162889336 58.512084613518816 19.99975765543018
    vertex 39.18279916288934 58.51208461353445 19.99975765542956
  endloop
endfacet
facet normal -5.219959812419434e-11 -1.0 2.477020960770473e-11
  outer loop
    vertex 91.12579187549397 58.51208461042001 9.99975765477483
    vertex 90.82579186369225 58.512084609692565 -20.00024234510716
    vertex 91.12579186369224 58.512084609676904 -20.000242345225175
  endloop
endfacet
facet normal -5.219959812419434e-11 -1.0 2.477020960770473e-11
  outer loop
    vertex 90.82579186369225 58.512084609692565 -20.00024234510716
    vertex 91.12579187549397 58.51208461042001 9.99975765477483
    vertex 90.82579187549396 58.51208461043567 9.999757654892841
  endloop
endfacet
facet normal 1.0 7.338950392932161e-10 -2.6950365009690925e-10
  outer loop
    vertex 90.82579187856658 60.087820564049856 11.552855008050457
    vertex 90.82579187549396 58.51208461043567 9.999757654892841
    vertex 90.82579187715774 60.087820573645395 9.999757657452315
  endloop
endfacet
facet normal 1.0 7.338950392932161e-10 -2.6950365009690925e-10
  outer loop
    vertex 90.82579187549396 58.51208461043567 9.999757654892841
    vertex 90.82579187856658 60.087820564049856 11.552855008050457
    vertex 90.82579187690281 57.087820530773236 11.55285500549062
  endloop
endfacet
facet normal 1.0 7.338950392932161e-10 -2.6950365009690925e-10
  outer loop
    vertex 90.82579187549396 58.51208461043567 9.999757654892841
    vertex 90.82579187690281 57.087820530773236 11.55285500549062
    vertex 90.82579186369225 58.512084609692565 -20.00024234510716
  endloop
endfacet
facet normal 1.0 7.338950392932161e-10 -2.6950365009690925e-10
  outer loop
    vertex 90.82579186369225 58.512084609692565 -20.00024234510716
    vertex 90.82579187690281 57.087820530773236 11.55285500549062
    vertex 90.82579187549408 57.087820540376164 -20.000242345107512
  endloop
endfacet
facet normal 6.242458704236923e-11 -2.494732431570267e-13 1.0
  outer loop
    vertex 39.482799164650785 60.087820576728156 21.552855005982767
    vertex 81.12579186098873 57.08782044325499 21.552855000823385
    vertex 81.12579186265249 60.087820477051096 21.55285500338323
  endloop
endfacet
facet normal 6.242458704236923e-11 -2.494732431570267e-13 1.0
  outer loop
    vertex 81.12579186098873 57.08782044325499 21.552855000823385
    vertex 39.482799164650785 60.087820576728156 21.552855005982767
    vertex 39.482799162986986 57.08782054293206 21.55285500342293
  endloop
endfacet
facet normal -1.0 2.91115320648661e-10 5.761331555504648e-10
  outer loop
    vertex 39.482799162971574 60.08782054470438 19.99975765539287
    vertex 39.482799162986986 57.08782054293206 21.55285500342293
    vertex 39.482799164650785 60.087820576728156 21.552855005982767
  endloop
endfacet
facet normal -1.0 2.91115320648661e-10 5.761331555504648e-10
  outer loop
    vertex 39.482799162986986 57.08782054293206 21.55285500342293
    vertex 39.482799162971574 60.08782054470438 19.99975765539287
    vertex 39.482799162889336 58.512084613518816 19.99975765543018
  endloop
endfacet
facet normal -1.0 2.91115320648661e-10 5.761331555504648e-10
  outer loop
    vertex 39.482799162986986 57.08782054293206 21.55285500342293
    vertex 39.482799162889336 58.512084613518816 19.99975765543018
    vertex 39.482799162889336 57.087820542932434 19.99975765542983
  endloop
endfacet
facet normal -9.875359955432067e-11 -1.0 -2.2083119959524912e-10
  outer loop
    vertex 87.17000140138924 57.08782054106762 -27.93180123613438
    vertex 39.48279916289145 57.08782054290062 -28.000242344542187
    vertex 86.12579186378412 57.08782054111835 -28.000242345121205
  endloop
endfacet
facet normal -9.875359955432067e-11 -1.0 -2.2083119959524912e-10
  outer loop
    vertex 39.48279916289145 57.08782054290062 -28.000242344542187
    vertex 87.17000140138924 57.08782054106762 -27.93180123613438
    vertex 39.482799162889336 57.087820542932434 19.99975765542983
  endloop
endfacet
facet normal -9.875359955432067e-11 -1.0 -2.2083119959524912e-10
  outer loop
    vertex 39.482799162889336 57.087820542932434 19.99975765542983
    vertex 87.17000140138924 57.08782054106762 -27.93180123613438
    vertex 88.19634422429782 57.08782054101979 -27.727648955498385
  endloop
endfacet
facet normal -9.875359955432067e-11 -1.0 -2.2083119959524912e-10
  outer loop
    vertex 39.482799162889336 57.087820542932434 19.99975765542983
    vertex 88.19634422429782 57.08782054101979 -27.727648955498385
    vertex 89.18725932225371 57.08782054097592 -27.391278605336662
  endloop
endfacet
facet normal -9.875359955432067e-11 -1.0 -2.2083119959524912e-10
  outer loop
    vertex 39.482799162889336 57.087820542932434 19.99975765542983
    vertex 89.18725932225371 57.08782054097592 -27.391278605336662
    vertex 90.1257918631971 57.08782054093637 -26.92844557560002
  endloop
endfacet
facet normal -9.875359955432067e-11 -1.0 -2.2083119959524912e-10
  outer loop
    vertex 39.482799162889336 57.087820542932434 19.99975765542983
    vertex 90.1257918631971 57.08782054093637 -26.92844557560002
    vertex 90.99588329514185 57.08782054090198 -26.347069067748908
  endloop
endfacet
facet normal -9.875359955432067e-11 -1.0 -2.2083119959524912e-10
  outer loop
    vertex 39.482799162889336 57.087820542932434 19.99975765542983
    vertex 90.99588329514185 57.08782054090198 -26.347069067748908
    vertex 91.78264611245231 57.08782054087336 -25.657096595020732
  endloop
endfacet
facet normal -9.875359955432067e-11 -1.0 -2.2083119959524912e-10
  outer loop
    vertex 39.482799162889336 57.087820542932434 19.99975765542983
    vertex 91.78264611245231 57.08782054087336 -25.657096595020732
    vertex 92.47261858519227 57.08782054085097 -24.870333777720717
  endloop
endfacet
facet normal -9.875359955432067e-11 -1.0 -2.2083119959524912e-10
  outer loop
    vertex 39.482799162889336 57.087820542932434 19.99975765542983
    vertex 92.47261858519227 57.08782054085097 -24.870333777720717
    vertex 93.05399509305649 57.087820540835125 -24.000242345784716
  endloop
endfacet
facet normal -9.875359955432067e-11 -1.0 -2.2083119959524912e-10
  outer loop
    vertex 39.482799162889336 57.087820542932434 19.99975765542983
    vertex 93.05399509305649 57.087820540835125 -24.000242345784716
    vertex 93.51682812280727 57.08782054082629 -23.061709804848306
  endloop
endfacet
facet normal -9.875359955432067e-11 -1.0 -2.2083119959524912e-10
  outer loop
    vertex 39.482799162889336 57.087820542932434 19.99975765542983
    vertex 93.51682812280727 57.08782054082629 -23.061709804848306
    vertex 90.82579187549408 57.087820540376164 -20.000242345107512
  endloop
endfacet
facet normal -9.875359955432067e-11 -1.0 -2.2083119959524912e-10
  outer loop
    vertex 90.82579187549408 57.087820540376164 -20.000242345107512
    vertex 93.51682812280727 57.08782054082629 -23.061709804848306
    vertex 93.85319847298392 57.08782054082435 -22.070794706897484
  endloop
endfacet
facet normal -9.875359955432067e-11 -1.0 -2.2083119959524912e-10
  outer loop
    vertex 90.82579187549408 57.087820540376164 -20.000242345107512
    vertex 93.85319847298392 57.08782054082435 -22.070794706897484
    vertex 94.05735075363536 57.087820540829696 -21.044451883991975
  endloop
endfacet
facet normal -9.875359955432067e-11 -1.0 -2.2083119959524912e-10
  outer loop
    vertex 90.82579187549408 57.087820540376164 -20.000242345107512
    vertex 94.05735075363536 57.087820540829696 -21.044451883991975
    vertex 94.12579186263791 57.08782054084191 -20.00024234638789
  endloop
endfacet
facet normal -9.875359955432067e-11 -1.0 -2.2083119959524912e-10
  outer loop
    vertex 39.482799162889336 57.087820542932434 19.99975765542983
    vertex 90.82579187549408 57.087820540376164 -20.000242345107512
    vertex 90.82579187690281 57.087820530773236 11.55285500549062
  endloop
endfacet
facet normal -9.875359955432067e-11 -1.0 -2.2083119959524912e-10
  outer loop
    vertex 39.482799162889336 57.087820542932434 19.99975765542983
    vertex 90.82579187690281 57.087820530773236 11.55285500549062
    vertex 90.7788767398641 57.08782053278315 12.845988621896977
  endloop
endfacet
facet normal -9.875359955432067e-11 -1.0 -2.2083119959524912e-10
  outer loop
    vertex 39.482799162889336 57.087820542932434 19.99975765542983
    vertex 90.7788767398641 57.08782053278315 12.845988621896977
    vertex 90.56033766446066 57.0878205346601 14.121385129844741
  endloop
endfacet
facet normal -9.875359955432067e-11 -1.0 -2.2083119959524912e-10
  outer loop
    vertex 39.482799162889336 57.087820542932434 19.99975765542983
    vertex 90.56033766446066 57.0878205346601 14.121385129844741
    vertex 90.17406009635941 57.08782053637074 15.35636902461638
  endloop
endfacet
facet normal -9.875359955432067e-11 -1.0 -2.2083119959524912e-10
  outer loop
    vertex 39.482799162889336 57.087820542932434 19.99975765542983
    vertex 90.17406009635941 57.08782053637074 15.35636902461638
    vertex 89.6269117341648 57.087820537884646 16.528983304638288
  endloop
endfacet
facet normal -9.875359955432067e-11 -1.0 -2.2083119959524912e-10
  outer loop
    vertex 39.482799162889336 57.087820542932434 19.99975765542983
    vertex 89.6269117341648 57.087820537884646 16.528983304638288
    vertex 88.92862042736586 57.087820539174814 17.618379848974904
  endloop
endfacet
facet normal -9.875359955432067e-11 -1.0 -2.2083119959524912e-10
  outer loop
    vertex 39.482799162889336 57.087820542932434 19.99975765542983
    vertex 88.92862042736586 57.087820539174814 17.618379848974904
    vertex 88.09160122314425 57.08782054021857 18.605190079833797
  endloop
endfacet
facet normal -9.875359955432067e-11 -1.0 -2.2083119959524912e-10
  outer loop
    vertex 39.482799162889336 57.087820542932434 19.99975765542983
    vertex 88.09160122314425 57.08782054021857 18.605190079833797
    vertex 87.13073563700968 57.087820540997114 19.47186932000619
  endloop
endfacet
facet normal -9.875359955432067e-11 -1.0 -2.2083119959524912e-10
  outer loop
    vertex 39.482799162889336 57.087820542932434 19.99975765542983
    vertex 87.13073563700968 57.087820540997114 19.47186932000619
    vertex 86.06310707164947 57.087820541496654 20.203008722849752
  endloop
endfacet
facet normal -9.875359955432067e-11 -1.0 -2.2083119959524912e-10
  outer loop
    vertex 39.482799162889336 57.087820542932434 19.99975765542983
    vertex 86.06310707164947 57.087820541496654 20.203008722849752
    vertex 39.482799162986986 57.08782054293206 21.55285500342293
  endloop
endfacet
facet normal -9.875359955432067e-11 -1.0 -2.2083119959524912e-10
  outer loop
    vertex 39.482799162986986 57.08782054293206 21.55285500342293
    vertex 86.06310707164947 57.087820541496654 20.203008722849752
    vertex 84.90769708802883 57.08782054170832 20.7856092289543
  endloop
endfacet
facet normal -9.875359955432067e-11 -1.0 -2.2083119959524912e-10
  outer loop
    vertex 39.482799162986986 57.08782054293206 21.55285500342293
    vertex 84.90769708802883 57.08782054170832 20.7856092289543
    vertex 83.68504792879229 57.08782054162837 21.209312678765308
  endloop
endfacet
facet normal -9.875359955432067e-11 -1.0 -2.2083119959524912e-10
  outer loop
    vertex 39.482799162986986 57.08782054293206 21.55285500342293
    vertex 83.68504792879229 57.08782054162837 21.209312678765308
    vertex 82.41689729402404 57.087820541258196 21.4665859721722
  endloop
endfacet
facet normal -9.875359955432067e-11 -1.0 -2.2083119959524912e-10
  outer loop
    vertex 39.482799162986986 57.08782054293206 21.55285500342293
    vertex 82.41689729402404 57.087820541258196 21.4665859721722
    vertex 81.12579186098873 57.08782044325499 21.552855000823385
  endloop
endfacet
facet normal 0.06666929686346253 2.4131643859328084e-10 0.99777512739882
  outer loop
    vertex 82.41689729140957 60.08782052147428 21.46658597432825
    vertex 81.12579186098873 57.08782044325499 21.552855000823385
    vertex 82.41689729402404 57.087820541258196 21.4665859721722
  endloop
endfacet
facet normal 0.06666929686346253 2.4131643859328084e-10 0.99777512739882
  outer loop
    vertex 81.12579186098873 57.08782044325499 21.552855000823385
    vertex 82.41689729140957 60.08782052147428 21.46658597432825
    vertex 81.12579186265249 60.087820477051096 21.55285500338323
  endloop
endfacet
facet normal 0.9993425227250683 1.5060548750400997e-09 0.036256341148776156
  outer loop
    vertex 90.77887673724963 60.087820512999215 12.845988624053044
    vertex 90.82579187690281 57.087820530773236 11.55285500549062
    vertex 90.82579187856658 60.087820564049856 11.552855008050457
  endloop
endfacet
facet normal 0.9993425227250683 1.5060548750400997e-09 0.036256341148776156
  outer loop
    vertex 90.82579187690281 57.087820530773236 11.55285500549062
    vertex 90.77887673724963 60.087820512999215 12.845988624053044
    vertex 90.7788767398641 57.08782053278315 12.845988621896977
  endloop
endfacet
facet normal 0.9856351637860441 3.0085327615876037e-09 0.16888849548876367
  outer loop
    vertex 90.56033766446066 57.0878205346601 14.121385129844741
    vertex 90.77887673724963 60.087820512999215 12.845988624053044
    vertex 90.56033766184619 60.087820514876185 14.121385132000809
  endloop
endfacet
facet normal 0.9856351637860441 3.0085327615876037e-09 0.16888849548876367
  outer loop
    vertex 90.77887673724963 60.087820512999215 12.845988624053044
    vertex 90.56033766446066 57.0878205346601 14.121385129844741
    vertex 90.7788767398641 57.08782053278315 12.845988621896977
  endloop
endfacet
facet normal 0.9544040193077151 2.951437822587188e-09 0.2985179524405168
  outer loop
    vertex 90.17406009635941 57.08782053637074 15.35636902461638
    vertex 90.56033766184619 60.087820514876185 14.121385132000809
    vertex 90.17406009374494 60.087820516586824 15.356369026772454
  endloop
endfacet
facet normal 0.9544040193077151 2.951437822587188e-09 0.2985179524405168
  outer loop
    vertex 90.56033766184619 60.087820514876185 14.121385132000809
    vertex 90.17406009635941 57.08782053637074 15.35636902461638
    vertex 90.56033766446066 57.0878205346601 14.121385129844741
  endloop
endfacet
facet normal 0.9062043535049294 2.8418687378191284e-09 0.42284000483482276
  outer loop
    vertex 89.6269117341648 57.087820537884646 16.528983304638288
    vertex 90.17406009374494 60.087820516586824 15.356369026772454
    vertex 89.62691173155034 60.08782051810071 16.52898330679436
  endloop
endfacet
facet normal 0.9062043535049294 2.8418687378191284e-09 0.42284000483482276
  outer loop
    vertex 90.17406009374494 60.087820516586824 15.356369026772454
    vertex 89.6269117341648 57.087820537884646 16.528983304638288
    vertex 90.17406009635941 57.08782053637074 15.35636902461638
  endloop
endfacet
facet normal 0.8418931169357976 2.6817735558181968e-09 0.5396443084626459
  outer loop
    vertex 88.92862042736586 57.087820539174814 17.618379848974904
    vertex 89.62691173155034 60.08782051810071 16.52898330679436
    vertex 88.92862042475139 60.08782051939089 17.618379851130975
  endloop
endfacet
facet normal 0.8418931169357976 2.6817735558181968e-09 0.5396443084626459
  outer loop
    vertex 89.62691173155034 60.08782051810071 16.52898330679436
    vertex 88.92862042736586 57.087820539174814 17.618379848974904
    vertex 89.6269117341648 57.087820537884646 16.528983304638288
  endloop
endfacet
facet normal 0.762613710683126 2.4739986377215365e-09 0.6468541785272113
  outer loop
    vertex 88.09160122314425 57.08782054021857 18.605190079833797
    vertex 88.92862042475139 60.08782051939089 17.618379851130975
    vertex 88.09160122052978 60.087820520434654 18.605190081989853
  endloop
endfacet
facet normal 0.762613710683126 2.4739986377215365e-09 0.6468541785272113
  outer loop
    vertex 88.92862042475139 60.08782051939089 17.618379851130975
    vertex 88.09160122314425 57.08782054021857 18.605190079833797
    vertex 88.92862042736586 57.087820539174814 17.618379848974904
  endloop
endfacet
facet normal 0.6697756576202478 2.2222380513003996e-09 0.7425635113977557
  outer loop
    vertex 88.09160122052978 60.087820520434654 18.605190081989853
    vertex 87.13073563700968 57.087820540997114 19.47186932000619
    vertex 88.09160122314425 57.08782054021857 18.605190079833797
  endloop
endfacet
facet normal 0.6697756576202478 2.2222380513003996e-09 0.7425635113977557
  outer loop
    vertex 87.13073563700968 57.087820540997114 19.47186932000619
    vertex 88.09160122052978 60.087820520434654 18.605190081989853
    vertex 87.13073563439521 60.08782052121319 19.47186932216224
  endloop
endfacet
facet normal 0.5650295422493506 1.9309678934622376e-09 0.8250706735701431
  outer loop
    vertex 87.13073563439521 60.08782052121319 19.47186932216224
    vertex 86.06310707164947 57.087820541496654 20.203008722849752
    vertex 87.13073563700968 57.087820540997114 19.47186932000619
  endloop
endfacet
facet normal 0.5650295422493506 1.9309678934622376e-09 0.8250706735701431
  outer loop
    vertex 86.06310707164947 57.087820541496654 20.203008722849752
    vertex 87.13073563439521 60.08782052121319 19.47186932216224
    vertex 86.063107069035 60.087820521712736 20.203008725005812
  endloop
endfacet
facet normal 0.4502376646617783 1.6053667089161023e-09 0.8929087553159663
  outer loop
    vertex 86.063107069035 60.087820521712736 20.203008725005812
    vertex 84.90769708802883 57.08782054170832 20.7856092289543
    vertex 86.06310707164947 57.087820541496654 20.203008722849752
  endloop
endfacet
facet normal 0.4502376646617783 1.6053667089161023e-09 0.8929087553159663
  outer loop
    vertex 84.90769708802883 57.08782054170832 20.7856092289543
    vertex 86.063107069035 60.087820521712736 20.203008725005812
    vertex 84.90769708541436 60.087820521924385 20.785609231110357
  endloop
endfacet
facet normal 0.3274409303685203 1.2512234198914252e-09 0.9448716511354323
  outer loop
    vertex 84.90769708541436 60.087820521924385 20.785609231110357
    vertex 83.68504792879229 57.08782054162837 21.209312678765308
    vertex 84.90769708802883 57.08782054170832 20.7856092289543
  endloop
endfacet
facet normal 0.3274409303685203 1.2512234198914252e-09 0.9448716511354323
  outer loop
    vertex 83.68504792879229 57.08782054162837 21.209312678765308
    vertex 84.90769708541436 60.087820521924385 20.785609231110357
    vertex 83.68504792617782 60.087820521844435 21.209312680921357
  endloop
endfacet
facet normal 0.1988225646727799 8.748344038448886e-10 0.9800355033247204
  outer loop
    vertex 83.68504792617782 60.087820521844435 21.209312680921357
    vertex 82.41689729402404 57.087820541258196 21.4665859721722
    vertex 83.68504792879229 57.08782054162837 21.209312678765308
  endloop
endfacet
facet normal 0.1988225646727799 8.748344038448886e-10 0.9800355033247204
  outer loop
    vertex 82.41689729402404 57.087820541258196 21.4665859721722
    vertex 83.68504792617782 60.087820521844435 21.209312680921357
    vertex 82.41689729140957 60.08782052147428 21.46658597432825
  endloop
endfacet
facet normal -1.0 3.3655128469679526e-11 -1.0428001059342434e-12
  outer loop
    vertex 39.48279916298733 58.51208461238653 -28.000242344572616
    vertex 39.482799162889336 57.087820542932434 19.99975765542983
    vertex 39.482799162889336 58.512084613518816 19.99975765543018
  endloop
endfacet
facet normal -1.0 3.3655128469679526e-11 -1.0428001059342434e-12
  outer loop
    vertex 39.482799162889336 57.087820542932434 19.99975765542983
    vertex 39.48279916298733 58.51208461238653 -28.000242344572616
    vertex 39.48279916289145 57.08782054290062 -28.000242344542187
  endloop
endfacet
endsolid boitier_radiateur
