solid Untitled-5842e973
facet normal 0.0 0.0 -1.0
  outer loop
    vertex 91.15537362841248 50.0 1.9999999999999998
    vertex 97.2582593113825 42.24999999999999 1.9999999999999998
    vertex 91.15537362841248 30.0 1.9999999999999998
  endloop
endfacet
facet normal 0.0 0.0 -1.0
  outer loop
    vertex 97.2582593113825 42.24999999999999 1.9999999999999998
    vertex 91.15537362841248 50.0 1.9999999999999998
    vertex 97.97339311307302 43.18198051533947 1.9999999999999998
  endloop
endfacet
facet normal 0.0 0.0 -1.0
  outer loop
    vertex 97.97339311307302 43.18198051533947 1.9999999999999998
    vertex 91.15537362841248 50.0 1.9999999999999998
    vertex 98.90537362841248 43.89711431702998 1.9999999999999998
  endloop
endfacet
facet normal 0.0 0.0 -1.0
  outer loop
    vertex 98.90537362841248 43.89711431702998 1.9999999999999998
    vertex 91.15537362841248 50.0 1.9999999999999998
    vertex 111.15537362841248 50.0 1.9999999999999998
  endloop
endfacet
facet normal 0.0 0.0 -1.0
  outer loop
    vertex 91.15537362841248 30.0 1.9999999999999998
    vertex 97.2582593113825 42.24999999999999 1.9999999999999998
    vertex 96.80870741011167 41.16468570296134 1.9999999999999998
  endloop
endfacet
facet normal 0.0 0.0 -1.0
  outer loop
    vertex 91.15537362841248 30.0 1.9999999999999998
    vertex 96.80870741011167 41.16468570296134 1.9999999999999998
    vertex 96.65537362841248 39.99999999999999 1.9999999999999998
  endloop
endfacet
facet normal 0.0 0.0 -1.0
  outer loop
    vertex 98.90537362841248 43.89711431702998 1.9999999999999998
    vertex 111.15537362841248 50.0 1.9999999999999998
    vertex 99.99068792545113 44.34666621830081 1.9999999999999998
  endloop
endfacet
facet normal 0.0 0.0 -1.0
  outer loop
    vertex 99.99068792545113 44.34666621830081 1.9999999999999998
    vertex 111.15537362841248 50.0 1.9999999999999998
    vertex 101.15537362841248 44.50000000000001 1.9999999999999998
  endloop
endfacet
facet normal 0.0 0.0 -1.0
  outer loop
    vertex 101.15537362841248 44.50000000000001 1.9999999999999998
    vertex 111.15537362841248 50.0 1.9999999999999998
    vertex 102.32005933137383 44.34666621830082 1.9999999999999998
  endloop
endfacet
facet normal 0.0 0.0 -1.0
  outer loop
    vertex 102.32005933137383 44.34666621830082 1.9999999999999998
    vertex 111.15537362841248 50.0 1.9999999999999998
    vertex 103.40537362841248 43.89711431702999 1.9999999999999998
  endloop
endfacet
facet normal 0.0 0.0 -1.0
  outer loop
    vertex 103.40537362841248 43.89711431702999 1.9999999999999998
    vertex 111.15537362841248 50.0 1.9999999999999998
    vertex 104.33735414375194 43.181980515339475 1.9999999999999998
  endloop
endfacet
facet normal 0.0 0.0 -1.0
  outer loop
    vertex 104.33735414375194 43.181980515339475 1.9999999999999998
    vertex 111.15537362841248 50.0 1.9999999999999998
    vertex 105.05248794544246 42.250000000000014 1.9999999999999998
  endloop
endfacet
facet normal 0.0 0.0 -1.0
  outer loop
    vertex 105.05248794544246 42.250000000000014 1.9999999999999998
    vertex 111.15537362841248 50.0 1.9999999999999998
    vertex 105.5020398467133 41.16468570296135 1.9999999999999998
  endloop
endfacet
facet normal 0.0 0.0 -1.0
  outer loop
    vertex 105.5020398467133 41.16468570296135 1.9999999999999998
    vertex 111.15537362841248 50.0 1.9999999999999998
    vertex 105.65537362841249 40.00000000000001 1.9999999999999998
  endloop
endfacet
facet normal 0.0 0.0 -1.0
  outer loop
    vertex 91.15537362841248 30.0 1.9999999999999998
    vertex 98.90537362841249 36.10288568297001 1.9999999999999998
    vertex 111.15537362841248 30.0 1.9999999999999998
  endloop
endfacet
facet normal 0.0 0.0 -1.0
  outer loop
    vertex 98.90537362841249 36.10288568297001 1.9999999999999998
    vertex 91.15537362841248 30.0 1.9999999999999998
    vertex 97.97339311307303 36.81801948466053 1.9999999999999998
  endloop
endfacet
facet normal 0.0 0.0 -1.0
  outer loop
    vertex 97.97339311307303 36.81801948466053 1.9999999999999998
    vertex 91.15537362841248 30.0 1.9999999999999998
    vertex 97.25825931138252 37.74999999999999 1.9999999999999998
  endloop
endfacet
facet normal 0.0 0.0 -1.0
  outer loop
    vertex 97.25825931138252 37.74999999999999 1.9999999999999998
    vertex 91.15537362841248 30.0 1.9999999999999998
    vertex 96.80870741011167 38.83531429703865 1.9999999999999998
  endloop
endfacet
facet normal 0.0 0.0 -1.0
  outer loop
    vertex 96.80870741011167 38.83531429703865 1.9999999999999998
    vertex 91.15537362841248 30.0 1.9999999999999998
    vertex 96.65537362841248 39.99999999999999 1.9999999999999998
  endloop
endfacet
facet normal 0.0 0.0 -1.0
  outer loop
    vertex 111.15537362841248 30.0 1.9999999999999998
    vertex 98.90537362841249 36.10288568297001 1.9999999999999998
    vertex 99.99068792545116 35.65333378169918 1.9999999999999998
  endloop
endfacet
facet normal 0.0 0.0 -1.0
  outer loop
    vertex 111.15537362841248 30.0 1.9999999999999998
    vertex 99.99068792545116 35.65333378169918 1.9999999999999998
    vertex 101.15537362841249 35.49999999999999 1.9999999999999998
  endloop
endfacet
facet normal 0.0 0.0 -1.0
  outer loop
    vertex 111.15537362841248 30.0 1.9999999999999998
    vertex 101.15537362841249 35.49999999999999 1.9999999999999998
    vertex 102.32005933137383 35.65333378169919 1.9999999999999998
  endloop
endfacet
facet normal 0.0 0.0 -1.0
  outer loop
    vertex 111.15537362841248 30.0 1.9999999999999998
    vertex 102.32005933137383 35.65333378169919 1.9999999999999998
    vertex 103.4053736284125 36.10288568297002 1.9999999999999998
  endloop
endfacet
facet normal 0.0 0.0 -1.0
  outer loop
    vertex 111.15537362841248 30.0 1.9999999999999998
    vertex 103.4053736284125 36.10288568297002 1.9999999999999998
    vertex 104.33735414375197 36.81801948466053 1.9999999999999998
  endloop
endfacet
facet normal 0.0 0.0 -1.0
  outer loop
    vertex 111.15537362841248 30.0 1.9999999999999998
    vertex 104.33735414375197 36.81801948466053 1.9999999999999998
    vertex 105.05248794544246 37.75000000000001 1.9999999999999998
  endloop
endfacet
facet normal 0.0 0.0 -1.0
  outer loop
    vertex 111.15537362841248 30.0 1.9999999999999998
    vertex 105.05248794544246 37.75000000000001 1.9999999999999998
    vertex 105.5020398467133 38.835314297038664 1.9999999999999998
  endloop
endfacet
facet normal 0.0 0.0 -1.0
  outer loop
    vertex 111.15537362841248 30.0 1.9999999999999998
    vertex 105.5020398467133 38.835314297038664 1.9999999999999998
    vertex 105.65537362841249 40.00000000000001 1.9999999999999998
  endloop
endfacet
facet normal 0.0 0.0 -1.0
  outer loop
    vertex 111.15537362841248 30.0 1.9999999999999998
    vertex 105.65537362841249 40.00000000000001 1.9999999999999998
    vertex 111.15537362841248 50.0 1.9999999999999998
  endloop
endfacet
facet normal 0.0 -1.0 0.0
  outer loop
    vertex 111.15537362841248 30.0 6.0
    vertex 91.15537362841248 30.0 1.9999999999999998
    vertex 111.15537362841248 30.0 1.9999999999999998
  endloop
endfacet
facet normal 0.0 -1.0 0.0
  outer loop
    vertex 91.15537362841248 30.0 1.9999999999999998
    vertex 111.15537362841248 30.0 6.0
    vertex 91.15537362841248 30.0 6.0
  endloop
endfacet
facet normal 1.0 0.0 0.0
  outer loop
    vertex 111.15537362841248 50.0 1.9999999999999998
    vertex 111.15537362841248 30.0 6.0
    vertex 111.15537362841248 30.0 1.9999999999999998
  endloop
endfacet
facet normal 1.0 0.0 0.0
  outer loop
    vertex 111.15537362841248 30.0 6.0
    vertex 111.15537362841248 50.0 1.9999999999999998
    vertex 111.15537362841248 50.0 6.0
  endloop
endfacet
facet normal 0.0 1.0 0.0
  outer loop
    vertex 91.15537362841248 50.0 6.0
    vertex 111.15537362841248 50.0 1.9999999999999998
    vertex 91.15537362841248 50.0 1.9999999999999998
  endloop
endfacet
facet normal 0.0 1.0 0.0
  outer loop
    vertex 111.15537362841248 50.0 1.9999999999999998
    vertex 91.15537362841248 50.0 6.0
    vertex 111.15537362841248 50.0 6.0
  endloop
endfacet
facet normal -1.0 -0.0 -0.0
  outer loop
    vertex 91.15537362841248 50.0 6.0
    vertex 91.15537362841248 30.0 1.9999999999999998
    vertex 91.15537362841248 30.0 6.0
  endloop
endfacet
facet normal -1.0 -0.0 -0.0
  outer loop
    vertex 91.15537362841248 30.0 1.9999999999999998
    vertex 91.15537362841248 50.0 6.0
    vertex 91.15537362841248 50.0 1.9999999999999998
  endloop
endfacet
facet normal 0.0 0.0 -1.0
  outer loop
    vertex 98.55537362841248 43.35 4.999999999999998
    vertex 99.1553736284125 42.35 4.999999999999998
    vertex 98.55537362841248 36.65 4.999999999999998
  endloop
endfacet
facet normal 0.0 0.0 -1.0
  outer loop
    vertex 99.1553736284125 42.35 4.999999999999998
    vertex 98.55537362841248 43.35 4.999999999999998
    vertex 103.75537362841249 43.35 4.999999999999998
  endloop
endfacet
facet normal 0.0 0.0 -1.0
  outer loop
    vertex 99.1553736284125 42.35 4.999999999999998
    vertex 103.75537362841249 43.35 4.999999999999998
    vertex 100.65537362841249 42.35 4.999999999999998
  endloop
endfacet
facet normal 0.0 0.0 -1.0
  outer loop
    vertex 100.65537362841249 42.35 4.999999999999998
    vertex 103.75537362841249 43.35 4.999999999999998
    vertex 101.65537362841249 42.35000000000001 4.999999999999998
  endloop
endfacet
facet normal 0.0 0.0 -1.0
  outer loop
    vertex 100.65537362841249 42.35 4.999999999999998
    vertex 101.65537362841249 42.35000000000001 4.999999999999998
    vertex 100.65537362841249 40.5 4.999999999999998
  endloop
endfacet
facet normal 0.0 0.0 -1.0
  outer loop
    vertex 100.65537362841249 40.5 4.999999999999998
    vertex 101.65537362841249 42.35000000000001 4.999999999999998
    vertex 100.65537362841249 39.5 4.999999999999998
  endloop
endfacet
facet normal 0.0 0.0 -1.0
  outer loop
    vertex 100.65537362841249 39.5 4.999999999999998
    vertex 101.65537362841249 42.35000000000001 4.999999999999998
    vertex 100.65537362841249 37.65 4.999999999999998
  endloop
endfacet
facet normal 0.0 0.0 -1.0
  outer loop
    vertex 101.65537362841249 42.35000000000001 4.999999999999998
    vertex 103.75537362841249 43.35 4.999999999999998
    vertex 103.15537362841249 42.35000000000001 4.999999999999998
  endloop
endfacet
facet normal 0.0 0.0 -1.0
  outer loop
    vertex 103.15537362841249 42.35000000000001 4.999999999999998
    vertex 103.75537362841249 43.35 4.999999999999998
    vertex 103.15537362841249 40.5 4.999999999999998
  endloop
endfacet
facet normal 0.0 0.0 -1.0
  outer loop
    vertex 103.15537362841249 40.5 4.999999999999998
    vertex 103.75537362841249 43.35 4.999999999999998
    vertex 103.15537362841249 39.5 4.999999999999998
  endloop
endfacet
facet normal 0.0 0.0 -1.0
  outer loop
    vertex 103.15537362841249 39.5 4.999999999999998
    vertex 103.75537362841249 43.35 4.999999999999998
    vertex 103.15537362841249 37.65 4.999999999999998
  endloop
endfacet
facet normal 0.0 0.0 -1.0
  outer loop
    vertex 98.55537362841248 36.65 4.999999999999998
    vertex 99.1553736284125 37.65 4.999999999999998
    vertex 103.75537362841249 36.65 4.999999999999998
  endloop
endfacet
facet normal 0.0 0.0 -1.0
  outer loop
    vertex 99.1553736284125 37.65 4.999999999999998
    vertex 98.55537362841248 36.65 4.999999999999998
    vertex 99.1553736284125 42.35 4.999999999999998
  endloop
endfacet
facet normal 0.0 0.0 -1.0
  outer loop
    vertex 99.1553736284125 37.65 4.999999999999998
    vertex 99.1553736284125 42.35 4.999999999999998
    vertex 99.1553736284125 40.5 4.999999999999998
  endloop
endfacet
facet normal 0.0 0.0 -1.0
  outer loop
    vertex 99.1553736284125 37.65 4.999999999999998
    vertex 99.1553736284125 40.5 4.999999999999998
    vertex 99.1553736284125 39.5 4.999999999999998
  endloop
endfacet
facet normal 0.0 0.0 -1.0
  outer loop
    vertex 103.75537362841249 36.65 4.999999999999998
    vertex 99.1553736284125 37.65 4.999999999999998
    vertex 100.65537362841249 37.65 4.999999999999998
  endloop
endfacet
facet normal 0.0 0.0 -1.0
  outer loop
    vertex 103.75537362841249 36.65 4.999999999999998
    vertex 100.65537362841249 37.65 4.999999999999998
    vertex 101.65537362841249 37.65 4.999999999999998
  endloop
endfacet
facet normal 0.0 0.0 -1.0
  outer loop
    vertex 101.65537362841249 37.65 4.999999999999998
    vertex 100.65537362841249 37.65 4.999999999999998
    vertex 101.65537362841249 42.35000000000001 4.999999999999998
  endloop
endfacet
facet normal 0.0 0.0 -1.0
  outer loop
    vertex 101.65537362841249 37.65 4.999999999999998
    vertex 101.65537362841249 42.35000000000001 4.999999999999998
    vertex 101.65537362841249 40.5 4.999999999999998
  endloop
endfacet
facet normal 0.0 0.0 -1.0
  outer loop
    vertex 101.65537362841249 37.65 4.999999999999998
    vertex 101.65537362841249 40.5 4.999999999999998
    vertex 101.65537362841249 39.5 4.999999999999998
  endloop
endfacet
facet normal 0.0 0.0 -1.0
  outer loop
    vertex 103.75537362841249 36.65 4.999999999999998
    vertex 101.65537362841249 37.65 4.999999999999998
    vertex 103.15537362841249 37.65 4.999999999999998
  endloop
endfacet
facet normal 0.0 0.0 -1.0
  outer loop
    vertex 103.75537362841249 36.65 4.999999999999998
    vertex 103.15537362841249 37.65 4.999999999999998
    vertex 103.75537362841249 43.35 4.999999999999998
  endloop
endfacet
facet normal 0.0 0.0 -1.0
  outer loop
    vertex 103.15537362841249 40.5 4.999999999999998
    vertex 101.65537362841249 39.5 4.999999999999998
    vertex 101.65537362841249 40.5 4.999999999999998
  endloop
endfacet
facet normal 0.0 0.0 -1.0
  outer loop
    vertex 101.65537362841249 39.5 4.999999999999998
    vertex 103.15537362841249 40.5 4.999999999999998
    vertex 103.15537362841249 39.5 4.999999999999998
  endloop
endfacet
facet normal 0.0 0.0 -1.0
  outer loop
    vertex 100.65537362841249 40.5 4.999999999999998
    vertex 99.1553736284125 39.5 4.999999999999998
    vertex 99.1553736284125 40.5 4.999999999999998
  endloop
endfacet
facet normal 0.0 0.0 -1.0
  outer loop
    vertex 99.1553736284125 39.5 4.999999999999998
    vertex 100.65537362841249 40.5 4.999999999999998
    vertex 100.65537362841249 39.5 4.999999999999998
  endloop
endfacet
facet normal 0.0 0.0 1.0
  outer loop
    vertex 91.15537362841248 30.0 6.0
    vertex 99.1553736284125 37.65 5.999999999999997
    vertex 91.15537362841248 50.0 6.0
  endloop
endfacet
facet normal 0.0 0.0 1.0
  outer loop
    vertex 99.1553736284125 37.65 5.999999999999997
    vertex 91.15537362841248 30.0 6.0
    vertex 111.15537362841248 30.0 6.0
  endloop
endfacet
facet normal 0.0 0.0 1.0
  outer loop
    vertex 99.1553736284125 37.65 5.999999999999997
    vertex 111.15537362841248 30.0 6.0
    vertex 100.65537362841249 37.65 5.999999999999997
  endloop
endfacet
facet normal 0.0 0.0 1.0
  outer loop
    vertex 100.65537362841249 37.65 5.999999999999997
    vertex 111.15537362841248 30.0 6.0
    vertex 101.65537362841249 37.65 5.999999999999997
  endloop
endfacet
facet normal 0.0 0.0 1.0
  outer loop
    vertex 100.65537362841249 37.65 5.999999999999997
    vertex 101.65537362841249 37.65 5.999999999999997
    vertex 100.65537362841249 39.5 5.999999999999997
  endloop
endfacet
facet normal 0.0 0.0 1.0
  outer loop
    vertex 100.65537362841249 39.5 5.999999999999997
    vertex 101.65537362841249 37.65 5.999999999999997
    vertex 100.65537362841249 40.5 5.999999999999997
  endloop
endfacet
facet normal 0.0 0.0 1.0
  outer loop
    vertex 100.65537362841249 40.5 5.999999999999997
    vertex 101.65537362841249 37.65 5.999999999999997
    vertex 100.65537362841249 42.35 5.999999999999997
  endloop
endfacet
facet normal 0.0 0.0 1.0
  outer loop
    vertex 101.65537362841249 37.65 5.999999999999997
    vertex 111.15537362841248 30.0 6.0
    vertex 103.15537362841249 37.65 5.999999999999997
  endloop
endfacet
facet normal 0.0 0.0 1.0
  outer loop
    vertex 103.15537362841249 37.65 5.999999999999997
    vertex 111.15537362841248 30.0 6.0
    vertex 103.15537362841249 39.5 5.999999999999997
  endloop
endfacet
facet normal 0.0 0.0 1.0
  outer loop
    vertex 103.15537362841249 39.5 5.999999999999997
    vertex 111.15537362841248 30.0 6.0
    vertex 103.15537362841249 40.5 5.999999999999997
  endloop
endfacet
facet normal 0.0 0.0 1.0
  outer loop
    vertex 103.15537362841249 40.5 5.999999999999997
    vertex 111.15537362841248 30.0 6.0
    vertex 103.15537362841249 42.35000000000001 5.999999999999997
  endloop
endfacet
facet normal 0.0 0.0 1.0
  outer loop
    vertex 91.15537362841248 50.0 6.0
    vertex 99.1553736284125 42.35 5.999999999999997
    vertex 111.15537362841248 50.0 6.0
  endloop
endfacet
facet normal 0.0 0.0 1.0
  outer loop
    vertex 99.1553736284125 42.35 5.999999999999997
    vertex 91.15537362841248 50.0 6.0
    vertex 99.1553736284125 37.65 5.999999999999997
  endloop
endfacet
facet normal 0.0 0.0 1.0
  outer loop
    vertex 99.1553736284125 42.35 5.999999999999997
    vertex 99.1553736284125 37.65 5.999999999999997
    vertex 99.1553736284125 39.5 5.999999999999997
  endloop
endfacet
facet normal 0.0 0.0 1.0
  outer loop
    vertex 99.1553736284125 42.35 5.999999999999997
    vertex 99.1553736284125 39.5 5.999999999999997
    vertex 99.1553736284125 40.5 5.999999999999997
  endloop
endfacet
facet normal 0.0 0.0 1.0
  outer loop
    vertex 111.15537362841248 50.0 6.0
    vertex 99.1553736284125 42.35 5.999999999999997
    vertex 100.65537362841249 42.35 5.999999999999997
  endloop
endfacet
facet normal 0.0 0.0 1.0
  outer loop
    vertex 111.15537362841248 50.0 6.0
    vertex 100.65537362841249 42.35 5.999999999999997
    vertex 101.65537362841249 42.35000000000001 5.999999999999997
  endloop
endfacet
facet normal 0.0 0.0 1.0
  outer loop
    vertex 101.65537362841249 42.35000000000001 5.999999999999997
    vertex 100.65537362841249 42.35 5.999999999999997
    vertex 101.65537362841249 37.65 5.999999999999997
  endloop
endfacet
facet normal 0.0 0.0 1.0
  outer loop
    vertex 101.65537362841249 42.35000000000001 5.999999999999997
    vertex 101.65537362841249 37.65 5.999999999999997
    vertex 101.65537362841249 39.5 5.999999999999997
  endloop
endfacet
facet normal 0.0 0.0 1.0
  outer loop
    vertex 101.65537362841249 42.35000000000001 5.999999999999997
    vertex 101.65537362841249 39.5 5.999999999999997
    vertex 101.65537362841249 40.5 5.999999999999997
  endloop
endfacet
facet normal 0.0 0.0 1.0
  outer loop
    vertex 111.15537362841248 50.0 6.0
    vertex 101.65537362841249 42.35000000000001 5.999999999999997
    vertex 103.15537362841249 42.35000000000001 5.999999999999997
  endloop
endfacet
facet normal 0.0 0.0 1.0
  outer loop
    vertex 111.15537362841248 50.0 6.0
    vertex 103.15537362841249 42.35000000000001 5.999999999999997
    vertex 111.15537362841248 30.0 6.0
  endloop
endfacet
facet normal 0.0 0.0 1.0
  outer loop
    vertex 103.15537362841249 39.5 5.999999999999997
    vertex 101.65537362841249 40.5 5.999999999999997
    vertex 101.65537362841249 39.5 5.999999999999997
  endloop
endfacet
facet normal 0.0 0.0 1.0
  outer loop
    vertex 101.65537362841249 40.5 5.999999999999997
    vertex 103.15537362841249 39.5 5.999999999999997
    vertex 103.15537362841249 40.5 5.999999999999997
  endloop
endfacet
facet normal 0.0 0.0 1.0
  outer loop
    vertex 100.65537362841249 39.5 5.999999999999997
    vertex 99.1553736284125 40.5 5.999999999999997
    vertex 99.1553736284125 39.5 5.999999999999997
  endloop
endfacet
facet normal 0.0 0.0 1.0
  outer loop
    vertex 99.1553736284125 40.5 5.999999999999997
    vertex 100.65537362841249 39.5 5.999999999999997
    vertex 100.65537362841249 40.5 5.999999999999997
  endloop
endfacet
facet normal -1.0 -0.0 -0.0
  outer loop
    vertex 100.65537362841249 39.5 5.999999999999997
    vertex 100.65537362841249 37.65 4.999999999999998
    vertex 100.65537362841249 37.65 5.999999999999997
  endloop
endfacet
facet normal -1.0 -0.0 -0.0
  outer loop
    vertex 100.65537362841249 37.65 4.999999999999998
    vertex 100.65537362841249 39.5 5.999999999999997
    vertex 100.65537362841249 39.5 4.999999999999998
  endloop
endfacet
facet normal 0.0 1.0 0.0
  outer loop
    vertex 99.1553736284125 37.65 5.999999999999997
    vertex 100.65537362841249 37.65 4.999999999999998
    vertex 99.1553736284125 37.65 4.999999999999998
  endloop
endfacet
facet normal 0.0 1.0 0.0
  outer loop
    vertex 100.65537362841249 37.65 4.999999999999998
    vertex 99.1553736284125 37.65 5.999999999999997
    vertex 100.65537362841249 37.65 5.999999999999997
  endloop
endfacet
facet normal 1.0 0.0 0.0
  outer loop
    vertex 99.1553736284125 39.5 4.999999999999998
    vertex 99.1553736284125 37.65 5.999999999999997
    vertex 99.1553736284125 37.65 4.999999999999998
  endloop
endfacet
facet normal 1.0 0.0 0.0
  outer loop
    vertex 99.1553736284125 37.65 5.999999999999997
    vertex 99.1553736284125 39.5 4.999999999999998
    vertex 99.1553736284125 39.5 5.999999999999997
  endloop
endfacet
facet normal 0.0 -1.0 0.0
  outer loop
    vertex 100.65537362841249 39.5 5.999999999999997
    vertex 99.1553736284125 39.5 4.999999999999998
    vertex 100.65537362841249 39.5 4.999999999999998
  endloop
endfacet
facet normal 0.0 -1.0 0.0
  outer loop
    vertex 99.1553736284125 39.5 4.999999999999998
    vertex 100.65537362841249 39.5 5.999999999999997
    vertex 99.1553736284125 39.5 5.999999999999997
  endloop
endfacet
facet normal 0.0 -1.0 0.0
  outer loop
    vertex 100.65537362841249 42.35 5.999999999999997
    vertex 99.1553736284125 42.35 4.999999999999998
    vertex 100.65537362841249 42.35 4.999999999999998
  endloop
endfacet
facet normal 0.0 -1.0 0.0
  outer loop
    vertex 99.1553736284125 42.35 4.999999999999998
    vertex 100.65537362841249 42.35 5.999999999999997
    vertex 99.1553736284125 42.35 5.999999999999997
  endloop
endfacet
facet normal -1.0 -0.0 -0.0
  outer loop
    vertex 100.65537362841249 42.35 5.999999999999997
    vertex 100.65537362841249 40.5 4.999999999999998
    vertex 100.65537362841249 40.5 5.999999999999997
  endloop
endfacet
facet normal -1.0 -0.0 -0.0
  outer loop
    vertex 100.65537362841249 40.5 4.999999999999998
    vertex 100.65537362841249 42.35 5.999999999999997
    vertex 100.65537362841249 42.35 4.999999999999998
  endloop
endfacet
facet normal 0.0 1.0 0.0
  outer loop
    vertex 99.1553736284125 40.5 5.999999999999997
    vertex 100.65537362841249 40.5 4.999999999999998
    vertex 99.1553736284125 40.5 4.999999999999998
  endloop
endfacet
facet normal 0.0 1.0 0.0
  outer loop
    vertex 100.65537362841249 40.5 4.999999999999998
    vertex 99.1553736284125 40.5 5.999999999999997
    vertex 100.65537362841249 40.5 5.999999999999997
  endloop
endfacet
facet normal 1.0 0.0 0.0
  outer loop
    vertex 99.1553736284125 42.35 4.999999999999998
    vertex 99.1553736284125 40.5 5.999999999999997
    vertex 99.1553736284125 40.5 4.999999999999998
  endloop
endfacet
facet normal 1.0 0.0 0.0
  outer loop
    vertex 99.1553736284125 40.5 5.999999999999997
    vertex 99.1553736284125 42.35 4.999999999999998
    vertex 99.1553736284125 42.35 5.999999999999997
  endloop
endfacet
facet normal -1.0 -0.0 -0.0
  outer loop
    vertex 103.15537362841249 42.35000000000001 5.999999999999997
    vertex 103.15537362841249 40.5 4.999999999999998
    vertex 103.15537362841249 40.5 5.999999999999997
  endloop
endfacet
facet normal -1.0 -0.0 -0.0
  outer loop
    vertex 103.15537362841249 40.5 4.999999999999998
    vertex 103.15537362841249 42.35000000000001 5.999999999999997
    vertex 103.15537362841249 42.35000000000001 4.999999999999998
  endloop
endfacet
facet normal 0.0 1.0 0.0
  outer loop
    vertex 101.65537362841249 40.5 5.999999999999997
    vertex 103.15537362841249 40.5 4.999999999999998
    vertex 101.65537362841249 40.5 4.999999999999998
  endloop
endfacet
facet normal 0.0 1.0 0.0
  outer loop
    vertex 103.15537362841249 40.5 4.999999999999998
    vertex 101.65537362841249 40.5 5.999999999999997
    vertex 103.15537362841249 40.5 5.999999999999997
  endloop
endfacet
facet normal 1.0 0.0 0.0
  outer loop
    vertex 101.65537362841249 42.35000000000001 4.999999999999998
    vertex 101.65537362841249 40.5 5.999999999999997
    vertex 101.65537362841249 40.5 4.999999999999998
  endloop
endfacet
facet normal 1.0 0.0 0.0
  outer loop
    vertex 101.65537362841249 40.5 5.999999999999997
    vertex 101.65537362841249 42.35000000000001 4.999999999999998
    vertex 101.65537362841249 42.35000000000001 5.999999999999997
  endloop
endfacet
facet normal 0.0 -1.0 0.0
  outer loop
    vertex 103.15537362841249 42.35000000000001 5.999999999999997
    vertex 101.65537362841249 42.35000000000001 4.999999999999998
    vertex 103.15537362841249 42.35000000000001 4.999999999999998
  endloop
endfacet
facet normal 0.0 -1.0 0.0
  outer loop
    vertex 101.65537362841249 42.35000000000001 4.999999999999998
    vertex 103.15537362841249 42.35000000000001 5.999999999999997
    vertex 101.65537362841249 42.35000000000001 5.999999999999997
  endloop
endfacet
facet normal 0.0 1.0 0.0
  outer loop
    vertex 101.65537362841249 37.65 5.999999999999997
    vertex 103.15537362841249 37.65 4.999999999999998
    vertex 101.65537362841249 37.65 4.999999999999998
  endloop
endfacet
facet normal 0.0 1.0 0.0
  outer loop
    vertex 103.15537362841249 37.65 4.999999999999998
    vertex 101.65537362841249 37.65 5.999999999999997
    vertex 103.15537362841249 37.65 5.999999999999997
  endloop
endfacet
facet normal 1.0 0.0 0.0
  outer loop
    vertex 101.65537362841249 39.5 4.999999999999998
    vertex 101.65537362841249 37.65 5.999999999999997
    vertex 101.65537362841249 37.65 4.999999999999998
  endloop
endfacet
facet normal 1.0 0.0 0.0
  outer loop
    vertex 101.65537362841249 37.65 5.999999999999997
    vertex 101.65537362841249 39.5 4.999999999999998
    vertex 101.65537362841249 39.5 5.999999999999997
  endloop
endfacet
facet normal 0.0 -1.0 0.0
  outer loop
    vertex 103.15537362841249 39.5 5.999999999999997
    vertex 101.65537362841249 39.5 4.999999999999998
    vertex 103.15537362841249 39.5 4.999999999999998
  endloop
endfacet
facet normal 0.0 -1.0 0.0
  outer loop
    vertex 101.65537362841249 39.5 4.999999999999998
    vertex 103.15537362841249 39.5 5.999999999999997
    vertex 101.65537362841249 39.5 5.999999999999997
  endloop
endfacet
facet normal -1.0 -0.0 -0.0
  outer loop
    vertex 103.15537362841249 39.5 5.999999999999997
    vertex 103.15537362841249 37.65 4.999999999999998
    vertex 103.15537362841249 37.65 5.999999999999997
  endloop
endfacet
facet normal -1.0 -0.0 -0.0
  outer loop
    vertex 103.15537362841249 37.65 4.999999999999998
    vertex 103.15537362841249 39.5 5.999999999999997
    vertex 103.15537362841249 39.5 4.999999999999998
  endloop
endfacet
facet normal 0.0 1.0 0.0
  outer loop
    vertex 98.55537362841248 36.65 4.999999999999998
    vertex 103.75537362841249 36.65 1.4099832412739487e-15
    vertex 98.55537362841248 36.65 1.4099832412739487e-15
  endloop
endfacet
facet normal 0.0 1.0 0.0
  outer loop
    vertex 103.75537362841249 36.65 1.4099832412739487e-15
    vertex 98.55537362841248 36.65 4.999999999999998
    vertex 103.75537362841249 36.65 4.999999999999998
  endloop
endfacet
facet normal 1.0 0.0 0.0
  outer loop
    vertex 98.55537362841248 43.35 1.4099832412739487e-15
    vertex 98.55537362841248 36.65 4.999999999999998
    vertex 98.55537362841248 36.65 1.4099832412739487e-15
  endloop
endfacet
facet normal 1.0 0.0 0.0
  outer loop
    vertex 98.55537362841248 36.65 4.999999999999998
    vertex 98.55537362841248 43.35 1.4099832412739487e-15
    vertex 98.55537362841248 43.35 4.999999999999998
  endloop
endfacet
facet normal -1.0 0.0 0.0
  outer loop
    vertex 103.75537362841249 43.35 4.999999999999998
    vertex 103.75537362841249 36.65 1.4099832412739487e-15
    vertex 103.75537362841249 36.65 4.999999999999998
  endloop
endfacet
facet normal -1.0 0.0 0.0
  outer loop
    vertex 103.75537362841249 36.65 1.4099832412739487e-15
    vertex 103.75537362841249 43.35 4.999999999999998
    vertex 103.75537362841249 43.35 1.4099832412739487e-15
  endloop
endfacet
facet normal 0.0 -1.0 0.0
  outer loop
    vertex 103.75537362841249 43.35 4.999999999999998
    vertex 98.55537362841248 43.35 1.4099832412739487e-15
    vertex 103.75537362841249 43.35 1.4099832412739487e-15
  endloop
endfacet
facet normal 0.0 -1.0 0.0
  outer loop
    vertex 98.55537362841248 43.35 1.4099832412739487e-15
    vertex 103.75537362841249 43.35 4.999999999999998
    vertex 98.55537362841248 43.35 4.999999999999998
  endloop
endfacet
facet normal 0.0 0.0 -1.0
  outer loop
    vertex 96.80870741011167 41.16468570296134 0.0
    vertex 96.80870741011167 38.83531429703865 0.0
    vertex 96.65537362841248 39.99999999999999 0.0
  endloop
endfacet
facet normal 0.0 0.0 -1.0
  outer loop
    vertex 96.80870741011167 38.83531429703865 0.0
    vertex 96.80870741011167 41.16468570296134 0.0
    vertex 97.2582593113825 42.24999999999999 0.0
  endloop
endfacet
facet normal 0.0 0.0 -1.0
  outer loop
    vertex 96.80870741011167 38.83531429703865 0.0
    vertex 97.2582593113825 42.24999999999999 0.0
    vertex 97.25825931138252 37.74999999999999 0.0
  endloop
endfacet
facet normal 0.0 0.0 -1.0
  outer loop
    vertex 97.25825931138252 37.74999999999999 0.0
    vertex 97.2582593113825 42.24999999999999 0.0
    vertex 97.97339311307302 43.18198051533947 0.0
  endloop
endfacet
facet normal 0.0 0.0 -1.0
  outer loop
    vertex 97.25825931138252 37.74999999999999 0.0
    vertex 97.97339311307302 43.18198051533947 0.0
    vertex 97.97339311307303 36.81801948466053 0.0
  endloop
endfacet
facet normal 0.0 0.0 -1.0
  outer loop
    vertex 97.97339311307303 36.81801948466053 0.0
    vertex 97.97339311307302 43.18198051533947 0.0
    vertex 98.55537362841248 43.35 1.4099832412739487e-15
  endloop
endfacet
facet normal 0.0 0.0 -1.0
  outer loop
    vertex 98.55537362841248 43.35 1.4099832412739487e-15
    vertex 97.97339311307302 43.18198051533947 0.0
    vertex 98.90537362841248 43.89711431702998 0.0
  endloop
endfacet
facet normal 0.0 0.0 -1.0
  outer loop
    vertex 98.55537362841248 43.35 1.4099832412739487e-15
    vertex 98.90537362841248 43.89711431702998 0.0
    vertex 103.75537362841249 43.35 1.4099832412739487e-15
  endloop
endfacet
facet normal 0.0 0.0 -1.0
  outer loop
    vertex 103.75537362841249 43.35 1.4099832412739487e-15
    vertex 98.90537362841248 43.89711431702998 0.0
    vertex 99.99068792545113 44.34666621830081 0.0
  endloop
endfacet
facet normal 0.0 0.0 -1.0
  outer loop
    vertex 103.75537362841249 43.35 1.4099832412739487e-15
    vertex 99.99068792545113 44.34666621830081 0.0
    vertex 101.15537362841248 44.50000000000001 0.0
  endloop
endfacet
facet normal 0.0 0.0 -1.0
  outer loop
    vertex 103.75537362841249 43.35 1.4099832412739487e-15
    vertex 101.15537362841248 44.50000000000001 0.0
    vertex 102.32005933137383 44.34666621830082 0.0
  endloop
endfacet
facet normal 0.0 0.0 -1.0
  outer loop
    vertex 103.75537362841249 43.35 1.4099832412739487e-15
    vertex 102.32005933137383 44.34666621830082 0.0
    vertex 103.40537362841248 43.89711431702999 0.0
  endloop
endfacet
facet normal 0.0 0.0 -1.0
  outer loop
    vertex 103.75537362841249 43.35 1.4099832412739487e-15
    vertex 103.40537362841248 43.89711431702999 0.0
    vertex 104.33735414375194 43.181980515339475 0.0
  endloop
endfacet
facet normal 0.0 0.0 -1.0
  outer loop
    vertex 103.75537362841249 43.35 1.4099832412739487e-15
    vertex 104.33735414375194 43.181980515339475 0.0
    vertex 103.75537362841249 36.65 1.4099832412739487e-15
  endloop
endfacet
facet normal 0.0 0.0 -1.0
  outer loop
    vertex 97.97339311307303 36.81801948466053 0.0
    vertex 98.55537362841248 36.65 1.4099832412739487e-15
    vertex 98.90537362841249 36.10288568297001 0.0
  endloop
endfacet
facet normal 0.0 0.0 -1.0
  outer loop
    vertex 98.55537362841248 36.65 1.4099832412739487e-15
    vertex 97.97339311307303 36.81801948466053 0.0
    vertex 98.55537362841248 43.35 1.4099832412739487e-15
  endloop
endfacet
facet normal 0.0 0.0 -1.0
  outer loop
    vertex 98.90537362841249 36.10288568297001 0.0
    vertex 98.55537362841248 36.65 1.4099832412739487e-15
    vertex 103.75537362841249 36.65 1.4099832412739487e-15
  endloop
endfacet
facet normal 0.0 0.0 -1.0
  outer loop
    vertex 98.90537362841249 36.10288568297001 0.0
    vertex 103.75537362841249 36.65 1.4099832412739487e-15
    vertex 99.99068792545116 35.65333378169918 0.0
  endloop
endfacet
facet normal 0.0 0.0 -1.0
  outer loop
    vertex 99.99068792545116 35.65333378169918 0.0
    vertex 103.75537362841249 36.65 1.4099832412739487e-15
    vertex 101.15537362841249 35.49999999999999 0.0
  endloop
endfacet
facet normal 0.0 0.0 -1.0
  outer loop
    vertex 101.15537362841249 35.49999999999999 0.0
    vertex 103.75537362841249 36.65 1.4099832412739487e-15
    vertex 102.32005933137383 35.65333378169919 0.0
  endloop
endfacet
facet normal 0.0 0.0 -1.0
  outer loop
    vertex 102.32005933137383 35.65333378169919 0.0
    vertex 103.75537362841249 36.65 1.4099832412739487e-15
    vertex 103.4053736284125 36.10288568297002 0.0
  endloop
endfacet
facet normal 0.0 0.0 -1.0
  outer loop
    vertex 103.4053736284125 36.10288568297002 0.0
    vertex 103.75537362841249 36.65 1.4099832412739487e-15
    vertex 104.33735414375197 36.81801948466053 0.0
  endloop
endfacet
facet normal 0.0 0.0 -1.0
  outer loop
    vertex 104.33735414375197 36.81801948466053 0.0
    vertex 103.75537362841249 36.65 1.4099832412739487e-15
    vertex 104.33735414375194 43.181980515339475 0.0
  endloop
endfacet
facet normal 0.0 0.0 -1.0
  outer loop
    vertex 104.33735414375197 36.81801948466053 0.0
    vertex 104.33735414375194 43.181980515339475 0.0
    vertex 105.05248794544246 42.250000000000014 0.0
  endloop
endfacet
facet normal 0.0 0.0 -1.0
  outer loop
    vertex 104.33735414375197 36.81801948466053 0.0
    vertex 105.05248794544246 42.250000000000014 0.0
    vertex 105.05248794544246 37.75000000000001 0.0
  endloop
endfacet
facet normal 0.0 0.0 -1.0
  outer loop
    vertex 105.05248794544246 37.75000000000001 0.0
    vertex 105.05248794544246 42.250000000000014 0.0
    vertex 105.5020398467133 41.16468570296135 0.0
  endloop
endfacet
facet normal 0.0 0.0 -1.0
  outer loop
    vertex 105.05248794544246 37.75000000000001 0.0
    vertex 105.5020398467133 41.16468570296135 0.0
    vertex 105.5020398467133 38.835314297038664 0.0
  endloop
endfacet
facet normal 0.0 0.0 -1.0
  outer loop
    vertex 105.5020398467133 38.835314297038664 0.0
    vertex 105.5020398467133 41.16468570296135 0.0
    vertex 105.65537362841249 40.00000000000001 0.0
  endloop
endfacet
facet normal 0.9238795325112872 0.382683432365089 0.0
  outer loop
    vertex 105.05248794544246 42.250000000000014 0.0
    vertex 105.5020398467133 41.16468570296135 1.9999999999999998
    vertex 105.5020398467133 41.16468570296135 0.0
  endloop
endfacet
facet normal 0.9238795325112872 0.382683432365089 0.0
  outer loop
    vertex 105.5020398467133 41.16468570296135 1.9999999999999998
    vertex 105.05248794544246 42.250000000000014 0.0
    vertex 105.05248794544246 42.250000000000014 1.9999999999999998
  endloop
endfacet
facet normal 0.7933533402912296 0.6087614290087279 0.0
  outer loop
    vertex 104.33735414375194 43.181980515339475 0.0
    vertex 105.05248794544246 42.250000000000014 1.9999999999999998
    vertex 105.05248794544246 42.250000000000014 0.0
  endloop
endfacet
facet normal 0.7933533402912296 0.6087614290087279 0.0
  outer loop
    vertex 105.05248794544246 42.250000000000014 1.9999999999999998
    vertex 104.33735414375194 43.181980515339475 0.0
    vertex 104.33735414375194 43.181980515339475 1.9999999999999998
  endloop
endfacet
facet normal 0.6087614290087189 0.7933533402912365 0.0
  outer loop
    vertex 103.40537362841248 43.89711431702999 1.9999999999999998
    vertex 104.33735414375194 43.181980515339475 0.0
    vertex 103.40537362841248 43.89711431702999 0.0
  endloop
endfacet
facet normal 0.6087614290087189 0.7933533402912365 0.0
  outer loop
    vertex 104.33735414375194 43.181980515339475 0.0
    vertex 103.40537362841248 43.89711431702999 1.9999999999999998
    vertex 104.33735414375194 43.181980515339475 1.9999999999999998
  endloop
endfacet
facet normal 0.38268343236509234 0.9238795325112856 0.0
  outer loop
    vertex 102.32005933137383 44.34666621830082 1.9999999999999998
    vertex 103.40537362841248 43.89711431702999 0.0
    vertex 102.32005933137383 44.34666621830082 0.0
  endloop
endfacet
facet normal 0.38268343236509234 0.9238795325112856 0.0
  outer loop
    vertex 103.40537362841248 43.89711431702999 0.0
    vertex 102.32005933137383 44.34666621830082 1.9999999999999998
    vertex 103.40537362841248 43.89711431702999 1.9999999999999998
  endloop
endfacet
facet normal 0.13052619222004777 0.9914448613738109 0.0
  outer loop
    vertex 101.15537362841248 44.50000000000001 1.9999999999999998
    vertex 102.32005933137383 44.34666621830082 0.0
    vertex 101.15537362841248 44.50000000000001 0.0
  endloop
endfacet
facet normal 0.13052619222004777 0.9914448613738109 0.0
  outer loop
    vertex 102.32005933137383 44.34666621830082 0.0
    vertex 101.15537362841248 44.50000000000001 1.9999999999999998
    vertex 102.32005933137383 44.34666621830082 1.9999999999999998
  endloop
endfacet
facet normal -0.13052619222005374 0.9914448613738103 0.0
  outer loop
    vertex 99.99068792545113 44.34666621830081 1.9999999999999998
    vertex 101.15537362841248 44.50000000000001 0.0
    vertex 99.99068792545113 44.34666621830081 0.0
  endloop
endfacet
facet normal -0.13052619222005374 0.9914448613738103 0.0
  outer loop
    vertex 101.15537362841248 44.50000000000001 0.0
    vertex 99.99068792545113 44.34666621830081 1.9999999999999998
    vertex 101.15537362841248 44.50000000000001 1.9999999999999998
  endloop
endfacet
facet normal -0.38268343236509234 0.9238795325112856 0.0
  outer loop
    vertex 98.90537362841248 43.89711431702998 1.9999999999999998
    vertex 99.99068792545113 44.34666621830081 0.0
    vertex 98.90537362841248 43.89711431702998 0.0
  endloop
endfacet
facet normal -0.38268343236509234 0.9238795325112856 0.0
  outer loop
    vertex 99.99068792545113 44.34666621830081 0.0
    vertex 98.90537362841248 43.89711431702998 1.9999999999999998
    vertex 99.99068792545113 44.34666621830081 1.9999999999999998
  endloop
endfacet
facet normal -0.6087614290087219 0.7933533402912343 0.0
  outer loop
    vertex 97.97339311307302 43.18198051533947 1.9999999999999998
    vertex 98.90537362841248 43.89711431702998 0.0
    vertex 97.97339311307302 43.18198051533947 0.0
  endloop
endfacet
facet normal -0.6087614290087219 0.7933533402912343 0.0
  outer loop
    vertex 98.90537362841248 43.89711431702998 0.0
    vertex 97.97339311307302 43.18198051533947 1.9999999999999998
    vertex 98.90537362841248 43.89711431702998 1.9999999999999998
  endloop
endfacet
facet normal -0.7933533402912359 0.6087614290087195 0.0
  outer loop
    vertex 97.97339311307302 43.18198051533947 1.9999999999999998
    vertex 97.2582593113825 42.24999999999999 0.0
    vertex 97.2582593113825 42.24999999999999 1.9999999999999998
  endloop
endfacet
facet normal -0.7933533402912359 0.6087614290087195 0.0
  outer loop
    vertex 97.2582593113825 42.24999999999999 0.0
    vertex 97.97339311307302 43.18198051533947 1.9999999999999998
    vertex 97.97339311307302 43.18198051533947 0.0
  endloop
endfacet
facet normal -0.9238795325112865 0.3826834323650908 0.0
  outer loop
    vertex 97.2582593113825 42.24999999999999 1.9999999999999998
    vertex 96.80870741011167 41.16468570296134 0.0
    vertex 96.80870741011167 41.16468570296134 1.9999999999999998
  endloop
endfacet
facet normal -0.9238795325112865 0.3826834323650908 0.0
  outer loop
    vertex 96.80870741011167 41.16468570296134 0.0
    vertex 97.2582593113825 42.24999999999999 1.9999999999999998
    vertex 97.2582593113825 42.24999999999999 0.0
  endloop
endfacet
facet normal -0.9914448613738114 0.1305261922200443 0.0
  outer loop
    vertex 96.80870741011167 41.16468570296134 1.9999999999999998
    vertex 96.65537362841248 39.99999999999999 0.0
    vertex 96.65537362841248 39.99999999999999 1.9999999999999998
  endloop
endfacet
facet normal -0.9914448613738114 0.1305261922200443 0.0
  outer loop
    vertex 96.65537362841248 39.99999999999999 0.0
    vertex 96.80870741011167 41.16468570296134 1.9999999999999998
    vertex 96.80870741011167 41.16468570296134 0.0
  endloop
endfacet
facet normal -0.9914448613738114 -0.1305261922200443 0.0
  outer loop
    vertex 96.65537362841248 39.99999999999999 1.9999999999999998
    vertex 96.80870741011167 38.83531429703865 0.0
    vertex 96.80870741011167 38.83531429703865 1.9999999999999998
  endloop
endfacet
facet normal -0.9914448613738114 -0.1305261922200443 0.0
  outer loop
    vertex 96.80870741011167 38.83531429703865 0.0
    vertex 96.65537362841248 39.99999999999999 1.9999999999999998
    vertex 96.65537362841248 39.99999999999999 0.0
  endloop
endfacet
facet normal -0.923879532511283 -0.3826834323650989 0.0
  outer loop
    vertex 96.80870741011167 38.83531429703865 1.9999999999999998
    vertex 97.25825931138252 37.74999999999999 0.0
    vertex 97.25825931138252 37.74999999999999 1.9999999999999998
  endloop
endfacet
facet normal -0.923879532511283 -0.3826834323650989 0.0
  outer loop
    vertex 97.25825931138252 37.74999999999999 0.0
    vertex 96.80870741011167 38.83531429703865 1.9999999999999998
    vertex 96.80870741011167 38.83531429703865 0.0
  endloop
endfacet
facet normal -0.7933533402912343 -0.6087614290087219 0.0
  outer loop
    vertex 97.25825931138252 37.74999999999999 1.9999999999999998
    vertex 97.97339311307303 36.81801948466053 0.0
    vertex 97.97339311307303 36.81801948466053 1.9999999999999998
  endloop
endfacet
facet normal -0.7933533402912343 -0.6087614290087219 0.0
  outer loop
    vertex 97.97339311307303 36.81801948466053 0.0
    vertex 97.25825931138252 37.74999999999999 1.9999999999999998
    vertex 97.25825931138252 37.74999999999999 0.0
  endloop
endfacet
facet normal -0.6087614290087219 -0.7933533402912343 0.0
  outer loop
    vertex 98.90537362841249 36.10288568297001 1.9999999999999998
    vertex 97.97339311307303 36.81801948466053 0.0
    vertex 98.90537362841249 36.10288568297001 0.0
  endloop
endfacet
facet normal -0.6087614290087219 -0.7933533402912343 0.0
  outer loop
    vertex 97.97339311307303 36.81801948466053 0.0
    vertex 98.90537362841249 36.10288568297001 1.9999999999999998
    vertex 97.97339311307303 36.81801948466053 1.9999999999999998
  endloop
endfacet
facet normal -0.382683432365089 -0.9238795325112872 0.0
  outer loop
    vertex 99.99068792545116 35.65333378169918 1.9999999999999998
    vertex 98.90537362841249 36.10288568297001 0.0
    vertex 99.99068792545116 35.65333378169918 0.0
  endloop
endfacet
facet normal -0.382683432365089 -0.9238795325112872 0.0
  outer loop
    vertex 98.90537362841249 36.10288568297001 0.0
    vertex 99.99068792545116 35.65333378169918 1.9999999999999998
    vertex 98.90537362841249 36.10288568297001 1.9999999999999998
  endloop
endfacet
facet normal -0.130526192220049 -0.9914448613738107 0.0
  outer loop
    vertex 101.15537362841249 35.49999999999999 1.9999999999999998
    vertex 99.99068792545116 35.65333378169918 0.0
    vertex 101.15537362841249 35.49999999999999 0.0
  endloop
endfacet
facet normal -0.130526192220049 -0.9914448613738107 0.0
  outer loop
    vertex 99.99068792545116 35.65333378169918 0.0
    vertex 101.15537362841249 35.49999999999999 1.9999999999999998
    vertex 99.99068792545116 35.65333378169918 1.9999999999999998
  endloop
endfacet
facet normal 0.13052619222005496 -0.9914448613738099 0.0
  outer loop
    vertex 102.32005933137383 35.65333378169919 1.9999999999999998
    vertex 101.15537362841249 35.49999999999999 0.0
    vertex 102.32005933137383 35.65333378169919 0.0
  endloop
endfacet
facet normal 0.13052619222005496 -0.9914448613738099 0.0
  outer loop
    vertex 101.15537362841249 35.49999999999999 0.0
    vertex 102.32005933137383 35.65333378169919 1.9999999999999998
    vertex 101.15537362841249 35.49999999999999 1.9999999999999998
  endloop
endfacet
facet normal 0.3826834323650856 -0.9238795325112885 0.0
  outer loop
    vertex 103.4053736284125 36.10288568297002 1.9999999999999998
    vertex 102.32005933137383 35.65333378169919 0.0
    vertex 103.4053736284125 36.10288568297002 0.0
  endloop
endfacet
facet normal 0.3826834323650856 -0.9238795325112885 0.0
  outer loop
    vertex 102.32005933137383 35.65333378169919 0.0
    vertex 103.4053736284125 36.10288568297002 1.9999999999999998
    vertex 102.32005933137383 35.65333378169919 1.9999999999999998
  endloop
endfacet
facet normal 0.6087614290087219 -0.7933533402912343 0.0
  outer loop
    vertex 104.33735414375197 36.81801948466053 1.9999999999999998
    vertex 103.4053736284125 36.10288568297002 0.0
    vertex 104.33735414375197 36.81801948466053 0.0
  endloop
endfacet
facet normal 0.6087614290087219 -0.7933533402912343 0.0
  outer loop
    vertex 103.4053736284125 36.10288568297002 0.0
    vertex 104.33735414375197 36.81801948466053 1.9999999999999998
    vertex 103.4053736284125 36.10288568297002 1.9999999999999998
  endloop
endfacet
facet normal 0.7933533402912407 -0.6087614290087136 0.0
  outer loop
    vertex 105.05248794544246 37.75000000000001 0.0
    vertex 104.33735414375197 36.81801948466053 1.9999999999999998
    vertex 104.33735414375197 36.81801948466053 0.0
  endloop
endfacet
facet normal 0.7933533402912407 -0.6087614290087136 0.0
  outer loop
    vertex 104.33735414375197 36.81801948466053 1.9999999999999998
    vertex 105.05248794544246 37.75000000000001 0.0
    vertex 105.05248794544246 37.75000000000001 1.9999999999999998
  endloop
endfacet
facet normal 0.9238795325112872 -0.382683432365089 0.0
  outer loop
    vertex 105.5020398467133 38.835314297038664 0.0
    vertex 105.05248794544246 37.75000000000001 1.9999999999999998
    vertex 105.05248794544246 37.75000000000001 0.0
  endloop
endfacet
facet normal 0.9238795325112872 -0.382683432365089 0.0
  outer loop
    vertex 105.05248794544246 37.75000000000001 1.9999999999999998
    vertex 105.5020398467133 38.835314297038664 0.0
    vertex 105.5020398467133 38.835314297038664 1.9999999999999998
  endloop
endfacet
facet normal 0.9914448613738113 -0.1305261922200449 0.0
  outer loop
    vertex 105.65537362841249 40.00000000000001 0.0
    vertex 105.5020398467133 38.835314297038664 1.9999999999999998
    vertex 105.5020398467133 38.835314297038664 0.0
  endloop
endfacet
facet normal 0.9914448613738113 -0.1305261922200449 0.0
  outer loop
    vertex 105.5020398467133 38.835314297038664 1.9999999999999998
    vertex 105.65537362841249 40.00000000000001 0.0
    vertex 105.65537362841249 40.00000000000001 1.9999999999999998
  endloop
endfacet
facet normal 0.9914448613738114 0.1305261922200443 0.0
  outer loop
    vertex 105.5020398467133 41.16468570296135 0.0
    vertex 105.65537362841249 40.00000000000001 1.9999999999999998
    vertex 105.65537362841249 40.00000000000001 0.0
  endloop
endfacet
facet normal 0.9914448613738114 0.1305261922200443 0.0
  outer loop
    vertex 105.65537362841249 40.00000000000001 1.9999999999999998
    vertex 105.5020398467133 41.16468570296135 0.0
    vertex 105.5020398467133 41.16468570296135 1.9999999999999998
  endloop
endfacet
endsolid Untitled-5842e973
