<?xml version="1.0"?>
<!DOCTYPE svg PUBLIC "-//W3C//DTD SVG 1.1//EN" "http://www.w3.org/Graphics/SVG/1.1/DTD/svg11.dtd">
<svg width="918.0mm" height="348.0mm" viewBox="0 0 918.0 348.0" xmlns="http://www.w3.org/2000/svg" version="1.1">
<g id="Sketch001" transform="translate(9.000000,339.000000) scale(1,-1)">
<path id="Sketch001_w0000"  d="M 0.0 0.0 L 900.0 0.0 L 900.0 330.0 L 0.0 330.0 L 0.0 0.0 " stroke="#000000" stroke-width="0.35 px" style="stroke-width:0.35;stroke-miterlimit:4;stroke-dasharray:none;fill:none;fill-rule: evenodd "/>
<title>Sketch001</title>
</g>
<g id="Pad" transform="translate(9.000000,339.000000) scale(1,-1)">
<path id="Pad_f0000"  d="M 900.0 0.0 L 0.0 0.0 L 0.0 0.0 L 900.0 0.0 L 900.0 0.0 Z " stroke="#191919" stroke-width="0.35 px" style="stroke-width:0.35;stroke-miterlimit:4;stroke-dasharray:none;fill:#cccccc;fill-rule: evenodd "/>
<path id="Pad_f0001"  d="M 900.0 330.0 L 900.0 0.0 L 900.0 0.0 L 900.0 330.0 L 900.0 330.0 Z " stroke="#191919" stroke-width="0.35 px" style="stroke-width:0.35;stroke-miterlimit:4;stroke-dasharray:none;fill:#cccccc;fill-rule: evenodd "/>
<path id="Pad_f0002"  d="M 0.0 330.0 L 900.0 330.0 L 900.0 330.0 L 0.0 330.0 L 0.0 330.0 Z " stroke="#191919" stroke-width="0.35 px" style="stroke-width:0.35;stroke-miterlimit:4;stroke-dasharray:none;fill:#cccccc;fill-rule: evenodd "/>
<path id="Pad_f0003"  d="M 0.0 0.0 L 0.0 330.0 L 0.0 330.0 L 0.0 0.0 L 0.0 0.0 Z " stroke="#191919" stroke-width="0.35 px" style="stroke-width:0.35;stroke-miterlimit:4;stroke-dasharray:none;fill:#cccccc;fill-rule: evenodd "/>
<path id="Pad_f0004"  d="M 900.0 0.0 L 900.0 330.0 L 0.0 330.0 L 0.0 0.0 L 900.0 0.0 Z " stroke="#191919" stroke-width="0.35 px" style="stroke-width:0.35;stroke-miterlimit:4;stroke-dasharray:none;fill:#cccccc;fill-rule: evenodd "/>
<path id="Pad_f0005"  d="M 0.0 0.0 L 900.0 0.0 L 900.0 330.0 L 0.0 330.0 L 0.0 0.0 Z " stroke="#191919" stroke-width="0.35 px" style="stroke-width:0.35;stroke-miterlimit:4;stroke-dasharray:none;fill:#cccccc;fill-rule: evenodd "/>
<title>Pad</title>
</g>
</svg>